g FX_Circle_03
v 0.7084056 0.001532823 -0.230175
v 0.8164887 0.001532823 -0.1293191
v 0.739081 0.001532823 -0.117059
v 0.7826006 0.001532823 -0.2542823
v 0.7341932 0.001532823 -0.3747908
v 0.6645875 0.001532823 -0.3392586
v 0.6026057 0.001532823 -0.4378188
v 0.7341932 0.001532823 -0.3747908
v 0.6645875 0.001532823 -0.3392586
v 0.6657198 0.001532823 -0.4836738
v 0.5827761 0.001532823 -0.5835394
v 0.5275257 0.001532823 -0.5282166
v 0.4378188 0.001532823 -0.6026058
v 0.5827761 0.001532823 -0.5835394
v 0.5275257 0.001532823 -0.5282166
v 0.4836737 0.001532823 -0.6657198
v 0.3738872 0.001532823 -0.7350158
v 0.3384406 0.001532823 -0.6653322
v 0.2301749 0.001532823 -0.7084057
v 0.3738872 0.001532823 -0.7350158
v 0.3384406 0.001532823 -0.6653322
v 0.2542823 0.001532823 -0.7826006
v 0.1284595 0.001532823 -0.8145894
v 0.1162809 0.001532823 -0.7373618
v 6.991188E-09 0.001532823 -0.7448618
v 0.1284595 0.001532823 -0.8145894
v 0.1162809 0.001532823 -0.7373618
v -4.563854E-08 0.001532823 -0.822875
v -0.1295498 0.001532823 -0.8144149
v -0.1172677 0.001532823 -0.7372038
v -0.230175 0.001532823 -0.7084057
v -0.1295498 0.001532823 -0.8144149
v -0.1172677 0.001532823 -0.7372038
v -0.2542824 0.001532823 -0.7826006
v -0.3748773 0.001532823 -0.7345218
v -0.3393368 0.001532823 -0.6648849
v -0.4378188 0.001532823 -0.6026058
v -0.3748773 0.001532823 -0.7345218
v -0.3393368 0.001532823 -0.6648849
v -0.4836739 0.001532823 -0.6657199
v -0.5835092 0.001532823 -0.5827283
v -0.5281892 0.001532823 -0.5274824
v -0.6026058 0.001532823 -0.4378188
v -0.5835092 0.001532823 -0.5827283
v -0.5281892 0.001532823 -0.5274824
v -0.66572 0.001532823 -0.4836738
v -0.7350233 0.001532823 -0.3738933
v -0.6653389 0.001532823 -0.3384461
v -0.7084058 0.001532823 -0.2301751
v -0.7350233 0.001532823 -0.3738933
v -0.6653389 0.001532823 -0.3384461
v -0.7826008 0.001532823 -0.2542824
v -0.814588 0.001532823 -0.128459
v -0.7373605 0.001532823 -0.1162804
v -0.7448619 0.001532823 -4.37847E-08
v -0.814588 0.001532823 -0.128459
v -0.7373605 0.001532823 -0.1162804
v -0.8228751 0.001532823 3.167243E-08
v -0.8144152 0.001532823 0.1295498
v -0.7372041 0.001532823 0.1172677
v -0.7084058 0.001532823 0.230175
v -0.8144152 0.001532823 0.1295498
v -0.7372041 0.001532823 0.1172677
v -0.7826008 0.001532823 0.2542824
v -0.7345219 0.001532823 0.3748774
v -0.6648849 0.001532823 0.3393368
v -0.6026058 0.001532823 0.4378188
v -0.7345219 0.001532823 0.3748774
v -0.6648849 0.001532823 0.3393368
v -0.66572 0.001532823 0.4836739
v -0.5827284 0.001532823 0.5835093
v -0.5274825 0.001532823 0.5281892
v -0.4378189 0.001532823 0.6026059
v -0.5827284 0.001532823 0.5835093
v -0.5274825 0.001532823 0.5281892
v -0.483674 0.001532823 0.66572
v -0.3738934 0.001532823 0.7350234
v -0.3384461 0.001532823 0.6653391
v -0.230175 0.001532823 0.7084059
v -0.3738934 0.001532823 0.7350234
v -0.3384461 0.001532823 0.6653391
v -0.2542825 0.001532823 0.7826009
v -0.1284591 0.001532823 0.8145882
v -0.1162804 0.001532823 0.7373606
v 2.918979E-08 0.001532823 0.744862
v -0.1284591 0.001532823 0.8145882
v -0.1162804 0.001532823 0.7373606
v -2.111496E-08 0.001532823 0.8228754
v 0.1295498 0.001532823 0.8144155
v 0.1172678 0.001532823 0.7372041
v 0.2301751 0.001532823 0.7084059
v 0.1295498 0.001532823 0.8144155
v 0.1172678 0.001532823 0.7372041
v 0.2542824 0.001532823 0.7826009
v 0.3748775 0.001532823 0.734522
v 0.339337 0.001532823 0.6648851
v 0.4378191 0.001532823 0.6026062
v 0.3748775 0.001532823 0.734522
v 0.339337 0.001532823 0.6648851
v 0.483674 0.001532823 0.6657202
v 0.5835094 0.001532823 0.5827286
v 0.5281895 0.001532823 0.5274826
v 0.6026062 0.001532823 0.437819
v 0.5835094 0.001532823 0.5827286
v 0.5281895 0.001532823 0.5274826
v 0.6657202 0.001532823 0.483674
v 0.7350236 0.001532823 0.3738935
v 0.6653393 0.001532823 0.3384462
v 0.7084062 0.001532823 0.230175
v 0.7350236 0.001532823 0.3738935
v 0.6653393 0.001532823 0.3384462
v 0.782601 0.001532823 0.2542825
v 0.8121751 0.001532823 0.128709
v 0.7351764 0.001532823 0.1165066
v 0.7448618 0.001532823 -4.37847E-08
v 0.8228749 0.001532823 3.167243E-08
v 0.8121751 0.001532823 0.128709
v 0.7351764 0.001532823 0.1165066
v 0.8164887 0.001532823 -0.1293191
v 0.8228749 0.001532823 3.167243E-08
v 0.7448618 0.001532823 -4.37847E-08
v 0.739081 0.001532823 -0.117059
vt 0.05000001 0.9906226
vt 0.02500001 0.008306322
vt 0.02500001 0.9906226
vt 0.05000001 0.008306322
vt 0.075 0.008306322
vt 0.075 0.9906226
vt 0.09999999 0.9906226
vt 0.075 0.008306322
vt 0.075 0.9906226
vt 0.09999999 0.008306322
vt 0.125 0.008306322
vt 0.125 0.9906226
vt 0.15 0.9906226
vt 0.125 0.008306322
vt 0.125 0.9906226
vt 0.15 0.008306322
vt 0.175 0.008306322
vt 0.175 0.9906226
vt 0.2 0.9906226
vt 0.175 0.008306322
vt 0.175 0.9906226
vt 0.2 0.008306322
vt 0.225 0.008306322
vt 0.225 0.9906226
vt 0.25 0.9906226
vt 0.225 0.008306322
vt 0.225 0.9906226
vt 0.25 0.008306322
vt 0.275 0.008306322
vt 0.275 0.9906226
vt 0.3 0.9906226
vt 0.275 0.008306322
vt 0.275 0.9906226
vt 0.3 0.008306322
vt 0.325 0.008306322
vt 0.325 0.9906226
vt 0.35 0.9906226
vt 0.325 0.008306322
vt 0.325 0.9906226
vt 0.35 0.008306322
vt 0.375 0.008306322
vt 0.375 0.9906226
vt 0.4 0.9906226
vt 0.375 0.008306322
vt 0.375 0.9906226
vt 0.4 0.008306322
vt 0.425 0.008306322
vt 0.425 0.9906226
vt 0.45 0.9906226
vt 0.425 0.008306322
vt 0.425 0.9906226
vt 0.45 0.008306322
vt 0.475 0.008306322
vt 0.475 0.9906226
vt 0.5 0.9906226
vt 0.475 0.008306322
vt 0.475 0.9906226
vt 0.5 0.008306322
vt 0.525 0.008306322
vt 0.525 0.9906226
vt 0.55 0.9906226
vt 0.525 0.008306322
vt 0.525 0.9906226
vt 0.55 0.008306322
vt 0.575 0.008306322
vt 0.575 0.9906226
vt 0.6 0.9906226
vt 0.575 0.008306322
vt 0.575 0.9906226
vt 0.6 0.008306322
vt 0.625 0.008306322
vt 0.625 0.9906226
vt 0.65 0.9906226
vt 0.625 0.008306322
vt 0.625 0.9906226
vt 0.65 0.008306322
vt 0.6750001 0.008306322
vt 0.6750001 0.9906226
vt 0.7 0.9906226
vt 0.6750001 0.008306322
vt 0.6750001 0.9906226
vt 0.7 0.008306322
vt 0.725 0.008306322
vt 0.725 0.9906226
vt 0.75 0.9906226
vt 0.725 0.008306322
vt 0.725 0.9906226
vt 0.75 0.008306322
vt 0.775 0.008306322
vt 0.775 0.9906226
vt 0.8000001 0.9906226
vt 0.775 0.008306322
vt 0.775 0.9906226
vt 0.8000001 0.008306322
vt 0.825 0.008306322
vt 0.825 0.9906226
vt 0.85 0.9906226
vt 0.825 0.008306322
vt 0.825 0.9906226
vt 0.85 0.008306322
vt 0.875 0.008306322
vt 0.875 0.9906226
vt 0.9 0.9906226
vt 0.875 0.008306322
vt 0.875 0.9906226
vt 0.9 0.008306322
vt 0.9250001 0.008306322
vt 0.9250001 0.9906226
vt 0.95 0.9906226
vt 0.9250001 0.008306322
vt 0.9250001 0.9906226
vt 0.95 0.008306322
vt 0.975 0.008306322
vt 0.975 0.9906226
vt 1 0.9906226
vt 1 0.008306322
vt 0.975 0.008306322
vt 0.975 0.9906226
vt 0.02500001 0.008306322
vt 0 0.008306322
vt 0 0.9906226
vt 0.02500001 0.9906226
vn 0 1 0
vn 0 1 0
vn 0 1 0
vn 0 1 0
vn 0 1 0
vn 0 1 0
vn 0 1 0
vn 0 1 0
vn 0 1 0
vn 0 1 0
vn 0 1 0
vn 0 1 0
vn 0 1 0
vn 0 1 0
vn 0 1 0
vn 0 1 0
vn 0 1 0
vn 0 1 0
vn 0 1 0
vn 0 1 0
vn 0 1 0
vn 0 1 0
vn 0 1 0
vn 0 1 0
vn 0 1 0
vn 0 1 0
vn 0 1 0
vn 0 1 0
vn 0 1 0
vn 0 1 0
vn 0 1 0
vn 0 1 0
vn 0 1 0
vn 0 1 0
vn 0 1 0
vn 0 1 0
vn 0 1 0
vn 0 1 0
vn 0 1 0
vn 0 1 0
vn 0 1 0
vn 0 1 0
vn 0 1 0
vn 0 1 0
vn 0 1 0
vn 0 1 0
vn 0 1 0
vn 0 1 0
vn 0 1 0
vn 0 1 0
vn 0 1 0
vn 0 1 0
vn 0 1 0
vn 0 1 0
vn 0 1 0
vn 0 1 0
vn 0 1 0
vn 0 1 0
vn 0 1 0
vn 0 1 0
vn 0 1 0
vn 0 1 0
vn 0 1 0
vn 0 1 0
vn 0 1 0
vn 0 1 0
vn 0 1 0
vn 0 1 0
vn 0 1 0
vn 0 1 0
vn 0 1 0
vn 0 1 0
vn 0 1 0
vn 0 1 0
vn 0 1 0
vn 0 1 0
vn 0 1 0
vn 0 1 0
vn 0 1 0
vn 0 1 0
vn 0 1 0
vn 0 1 0
vn 0 1 0
vn 0 1 0
vn 0 1 0
vn 0 1 0
vn 0 1 0
vn 0 1 0
vn 0 1 0
vn 0 1 0
vn 0 1 0
vn 0 1 0
vn 0 1 0
vn 0 1 0
vn 0 1 0
vn 0 1 0
vn 0 1 0
vn 0 1 0
vn 0 1 0
vn 0 1 0
vn 0 1 0
vn 0 1 0
vn 0 1 0
vn 0 1 0
vn 0 1 0
vn 0 1 0
vn 0 1 0
vn 0 1 0
vn 0 1 0
vn 0 1 0
vn 0 1 0
vn 0 1 0
vn 0 1 0
vn 0 1 0
vn 0 1 0
vn 0 1 0
vn 0 1 0
vn 0 1 0
vn 0 1 0
vn 0 1 0
vn 0 1 0
vn 0 1 0
g FX_Circle_03_0
f 3/3/3 2/2/2 1/1/1
f 2/2/2 4/4/4 1/1/1
f 1/1/1 4/4/4 5/5/5
f 6/6/6 1/1/1 5/5/5
f 9/9/9 8/8/8 7/7/7
f 8/8/8 10/10/10 7/7/7
f 7/7/7 10/10/10 11/11/11
f 12/12/12 7/7/7 11/11/11
f 15/15/15 14/14/14 13/13/13
f 14/14/14 16/16/16 13/13/13
f 13/13/13 16/16/16 17/17/17
f 18/18/18 13/13/13 17/17/17
f 21/21/21 20/20/20 19/19/19
f 20/20/20 22/22/22 19/19/19
f 19/19/19 22/22/22 23/23/23
f 24/24/24 19/19/19 23/23/23
f 27/27/27 26/26/26 25/25/25
f 26/26/26 28/28/28 25/25/25
f 25/25/25 28/28/28 29/29/29
f 30/30/30 25/25/25 29/29/29
f 33/33/33 32/32/32 31/31/31
f 32/32/32 34/34/34 31/31/31
f 31/31/31 34/34/34 35/35/35
f 36/36/36 31/31/31 35/35/35
f 39/39/39 38/38/38 37/37/37
f 38/38/38 40/40/40 37/37/37
f 37/37/37 40/40/40 41/41/41
f 42/42/42 37/37/37 41/41/41
f 45/45/45 44/44/44 43/43/43
f 44/44/44 46/46/46 43/43/43
f 43/43/43 46/46/46 47/47/47
f 48/48/48 43/43/43 47/47/47
f 51/51/51 50/50/50 49/49/49
f 50/50/50 52/52/52 49/49/49
f 49/49/49 52/52/52 53/53/53
f 54/54/54 49/49/49 53/53/53
f 57/57/57 56/56/56 55/55/55
f 56/56/56 58/58/58 55/55/55
f 55/55/55 58/58/58 59/59/59
f 60/60/60 55/55/55 59/59/59
f 63/63/63 62/62/62 61/61/61
f 62/62/62 64/64/64 61/61/61
f 61/61/61 64/64/64 65/65/65
f 66/66/66 61/61/61 65/65/65
f 69/69/69 68/68/68 67/67/67
f 68/68/68 70/70/70 67/67/67
f 67/67/67 70/70/70 71/71/71
f 72/72/72 67/67/67 71/71/71
f 75/75/75 74/74/74 73/73/73
f 74/74/74 76/76/76 73/73/73
f 73/73/73 76/76/76 77/77/77
f 78/78/78 73/73/73 77/77/77
f 81/81/81 80/80/80 79/79/79
f 80/80/80 82/82/82 79/79/79
f 79/79/79 82/82/82 83/83/83
f 84/84/84 79/79/79 83/83/83
f 87/87/87 86/86/86 85/85/85
f 86/86/86 88/88/88 85/85/85
f 85/85/85 88/88/88 89/89/89
f 90/90/90 85/85/85 89/89/89
f 93/93/93 92/92/92 91/91/91
f 92/92/92 94/94/94 91/91/91
f 91/91/91 94/94/94 95/95/95
f 96/96/96 91/91/91 95/95/95
f 99/99/99 98/98/98 97/97/97
f 98/98/98 100/100/100 97/97/97
f 97/97/97 100/100/100 101/101/101
f 102/102/102 97/97/97 101/101/101
f 105/105/105 104/104/104 103/103/103
f 104/104/104 106/106/106 103/103/103
f 103/103/103 106/106/106 107/107/107
f 108/108/108 103/103/103 107/107/107
f 111/111/111 110/110/110 109/109/109
f 110/110/110 112/112/112 109/109/109
f 109/109/109 112/112/112 113/113/113
f 114/114/114 109/109/109 113/113/113
f 117/117/117 116/116/116 115/115/115
f 118/118/118 117/117/117 115/115/115
f 121/121/121 120/120/120 119/119/119
f 122/122/122 121/121/121 119/119/119
