g MailBox
v -0.1732645 -0.3189014 0.9188759
v -0.173265 0.3189008 0.1551101
v -0.173265 0.3189008 0.9188759
v 0.3007066 -0.3189009 0.1551101
v 0.3007066 -0.3189008 0.9188758
v -0.03807104 -0.3189014 1.078599
v 0.1904647 -0.3189015 1.078599
v -0.03807093 0.3189007 1.078599
v -0.1732649 0.2518416 0.9188759
v -0.1732645 -0.2518423 0.9188759
v -0.1732645 -0.3189014 0.1551101
v 0.3007067 0.3189011 0.1551101
v 0.3007067 0.3189011 0.9188758
v -0.03807094 0.2518416 1.078599
v -0.03807103 -0.2518423 1.078599
v 0.1904649 0.318901 1.078599
v 0.07967495 -0.2518422 0.9188756
v 0.08398643 0.2518415 0.9188759
v -0.1275478 -0.276029 0
v -0.07370418 -0.276029 0
v -0.1275478 -0.2227279 0
v -0.07370417 -0.2227279 0
v -0.07370418 -0.276029 0.1551101
v -0.1275478 -0.276029 0.15511
v -0.07370417 -0.2227279 0.1551101
v -0.1275478 -0.2227279 0.1551101
v -0.1275477 0.2227272 0
v -0.07370411 0.2227272 0
v -0.1275477 0.2760283 0
v -0.07370412 0.2760283 0
v -0.07370411 0.2227272 0.1551101
v -0.1275477 0.2227272 0.15511
v -0.07370412 0.2760283 0.1551101
v -0.1275477 0.2760283 0.1551101
v 0.2011458 -0.276029 0
v 0.2549894 -0.276029 0
v 0.2549894 -0.276029 0.1551101
v 0.2011458 -0.276029 0.15511
v 0.2549894 -0.2227279 0
v 0.2549894 -0.2227279 0.1551101
v 0.2011458 -0.2227279 0
v 0.2011458 -0.2227279 0.1551101
v 0.2011458 0.2227272 0
v 0.2549894 0.2227272 0
v 0.2549894 0.2227272 0.1551101
v 0.2011458 0.2227272 0.15511
v 0.2549894 0.2760283 0
v 0.2549894 0.2760283 0.1551101
v 0.2011458 0.2760283 0
v 0.2011458 0.2760283 0.1551101
v -0.1732645 -0.3189014 0.1551101
v 0.3007066 -0.3189008 0.9188758
v 0.3007066 -0.3189009 0.1551101
v 0.1904647 -0.3189015 1.078599
v -0.173265 0.3189008 0.1551101
v 0.1904649 0.318901 1.078599
v 0.3007067 0.3189011 0.9188758
v 0.3007067 0.3189011 0.1551101
v -0.1732645 -0.2518423 0.9188759
v -0.1732649 0.2518416 0.9188759
v 0.1904647 -0.3189015 1.078599
v 0.1904649 0.318901 1.078599
v -0.173265 0.3189008 0.1551101
v 0.3007066 -0.3189009 0.1551101
v 0.3007067 0.3189011 0.1551101
v -0.1732645 -0.3189014 0.1551101
v -0.173265 0.3189008 0.9188759
v -0.1732645 -0.3189014 0.9188759
v -0.03807104 -0.3189014 1.078599
v -0.03807093 0.3189007 1.078599
v -0.03807103 -0.2518423 1.078599
v -0.03807104 -0.3189014 1.078599
v -0.03807093 0.3189007 1.078599
v -0.03807094 0.2518416 1.078599
v -0.1732645 -0.2518423 0.9188759
v 0.07967495 -0.2518422 0.9188756
v -0.03807103 -0.2518423 1.078599
v -0.03807103 -0.2518423 1.078599
v 0.08398643 0.2518415 0.9188759
v -0.03807094 0.2518416 1.078599
v 0.07967495 -0.2518422 0.9188756
v -0.03807094 0.2518416 1.078599
v 0.08398643 0.2518415 0.9188759
v -0.1732649 0.2518416 0.9188759
v -0.07370418 -0.276029 0.1551101
v -0.07370418 -0.276029 0
v -0.07370417 -0.2227279 0.1551101
v -0.07370417 -0.2227279 0
v -0.1275478 -0.276029 0
v -0.1275478 -0.2227279 0.1551101
v -0.1275478 -0.276029 0.15511
v -0.1275478 -0.2227279 0
v -0.07370411 0.2227272 0.1551101
v -0.07370411 0.2227272 0
v -0.07370412 0.2760283 0.1551101
v -0.07370412 0.2760283 0
v -0.1275477 0.2227272 0
v -0.1275477 0.2760283 0.1551101
v -0.1275477 0.2227272 0.15511
v -0.1275477 0.2760283 0
v 0.2549894 -0.276029 0.1551101
v 0.2549894 -0.276029 0
v 0.2549894 -0.2227279 0.1551101
v 0.2549894 -0.2227279 0
v 0.2011458 -0.276029 0
v 0.2011458 -0.2227279 0.1551101
v 0.2011458 -0.276029 0.15511
v 0.2011458 -0.2227279 0
v 0.2549894 0.2227272 0.1551101
v 0.2549894 0.2227272 0
v 0.2549894 0.2760283 0.1551101
v 0.2549894 0.2760283 0
v 0.2011458 0.2227272 0
v 0.2011458 0.2760283 0.1551101
v 0.2011458 0.2227272 0.15511
v 0.2011458 0.2760283 0
vt 0.7723749 0.3442096
vt 0.7542173 0.2554838
vt 0.7723749 0.3442096
vt 0.792011 0.3125677
vt 0.792011 0.3442096
vt 0.7779757 0.3508268
vt 0.7874438 0.3508268
vt 0.7779757 0.3508268
vt 0.7602549 0.3160887
vt 0.8056012 0.3160886
vt 0.8116381 0.2554837
vt 0.7542179 0.3698969
vt 0.7542176 0.3092921
vt 0.7602549 0.3388762
vt 0.8056012 0.3388762
vt 0.7542176 0.3708893
vt 0.7304772 0.5181895
vt 0.7219158 0.5181877
vt 0.386346 0.7784781
vt 0.388803 0.778452
vt 0.3839137 0.7785038
vt 0.3912352 0.7784263
vt 0.388863 0.7841216
vt 0.386406 0.7841477
vt 0.3912952 0.7840959
vt 0.3839737 0.7841734
vt 0.386346 0.7784781
vt 0.388803 0.778452
vt 0.3839137 0.7785038
vt 0.3912352 0.7784263
vt 0.388863 0.7841216
vt 0.386406 0.7841477
vt 0.3912952 0.7840959
vt 0.3839737 0.7841734
vt 0.386346 0.7784781
vt 0.388803 0.778452
vt 0.388863 0.7841216
vt 0.386406 0.7841477
vt 0.3912352 0.7784263
vt 0.3912952 0.7840959
vt 0.3839137 0.7785038
vt 0.3839737 0.7841734
vt 0.386346 0.7784781
vt 0.388803 0.778452
vt 0.388863 0.7841216
vt 0.386406 0.7841477
vt 0.3912352 0.7784263
vt 0.3912952 0.7840959
vt 0.3839137 0.7785038
vt 0.3839737 0.7841734
vt 0.7723749 0.3125677
vt 0.8116383 0.309292
vt 0.8116387 0.3698967
vt 0.8116385 0.3708893
vt 0.7723749 0.3125677
vt 0.7874438 0.3508268
vt 0.792011 0.3442096
vt 0.792011 0.3125677
vt 0.7304772 0.5094275
vt 0.7219157 0.5094275
vt 0.8116385 0.2893147
vt 0.7542176 0.2893147
vt 0.7725655 0.3035351
vt 0.7919762 0.332173
vt 0.7919762 0.3035351
vt 0.7725656 0.3321731
vt 0.7542176 0.3160886
vt 0.8116387 0.3160886
vt 0.8116385 0.3388762
vt 0.7542176 0.3388762
vt 0.8056012 0.3388762
vt 0.8116385 0.3388762
vt 0.7542176 0.3388762
vt 0.7602549 0.3388762
vt 0.7885401 0.2570347
vt 0.8107122 0.2570347
vt 0.8003909 0.2710357
vt 0.7304569 0.5233642
vt 0.7219158 0.5181877
vt 0.7218955 0.5233306
vt 0.7304772 0.5181895
vt 0.8003909 0.2710357
vt 0.8110901 0.2570347
vt 0.7885401 0.2570347
vt 0.388863 0.7841216
vt 0.388803 0.778452
vt 0.3815168 0.7841995
vt 0.3814568 0.7785298
vt 0.386346 0.7784781
vt 0.3839737 0.7841734
vt 0.386406 0.7841477
vt 0.3839137 0.7785038
vt 0.388863 0.7841216
vt 0.388803 0.778452
vt 0.3815168 0.7841995
vt 0.3814568 0.7785298
vt 0.386346 0.7784781
vt 0.3839737 0.7841734
vt 0.386406 0.7841477
vt 0.3839137 0.7785038
vt 0.388863 0.7841216
vt 0.388803 0.778452
vt 0.3815168 0.7841995
vt 0.3814568 0.7785298
vt 0.386346 0.7784781
vt 0.3839737 0.7841734
vt 0.386406 0.7841477
vt 0.3839137 0.7785038
vt 0.388863 0.7841216
vt 0.388803 0.778452
vt 0.3815168 0.7841995
vt 0.3814568 0.7785298
vt 0.386346 0.7784781
vt 0.3839737 0.7841734
vt 0.386406 0.7841477
vt 0.3839137 0.7785038
vn 6.561583E-07 -1 -3.170227E-07
vn -1 -9.016596E-07 0
vn 5.053209E-07 1 0
vn 1.257758E-06 -1 -1.366713E-07
vn 5.954874E-06 -1 0
vn 0 -1 -5.642488E-07
vn 1.134252E-06 -1 -5.255172E-07
vn -8.212855E-07 1 2.441543E-07
vn -0.9737399 -1.373562E-06 0.2276632
vn -0.9737402 -7.811021E-07 0.2276623
vn -1 -7.966521E-07 0
vn 1 -1.794302E-07 0
vn 0.9547256 -2.027035E-07 0.2974879
vn -0.2771596 0 0.9608238
vn -0.2771602 0 0.9608237
vn 0.4647375 -1.250818E-07 0.8854485
vn 1.508147E-06 -7.702692E-07 1
vn 4.475891E-07 -2.286012E-07 1
vn 0 -1 0
vn 0 -1 0
vn 0 1 0
vn 1 0 0
vn 0 -1 0
vn 0 -1 0
vn 1 0 0
vn 0 1 0
vn 0 -1 0
vn 0 -1 0
vn 0 1 0
vn 1 0 0
vn 0 -1 0
vn 0 -1 0
vn 1 0 0
vn 0 1 0
vn 0 -1 0
vn 0 -1 0
vn 0 -1 0
vn 0 -1 0
vn 1 0 0
vn 1 0 0
vn -3.542385E-07 1 0
vn -3.542385E-07 1 0
vn 0 -1 0
vn 0 -1 0
vn 0 -1 0
vn 0 -1 0
vn 1 0 0
vn 1 0 0
vn 0 1 0
vn 0 1 0
vn 1.207256E-06 -1 0
vn 0.9547255 -1.713066E-07 0.2974883
vn 1 -1.794302E-07 0
vn 0.4647367 0 0.885449
vn -5.321688E-07 1 0
vn -9.141992E-07 1 1.741874E-07
vn -5.06576E-07 1 0
vn -5.231437E-07 1 0
vn 1.054778E-06 -5.38716E-07 1
vn 0 0 1
vn 0.4647367 0 0.885449
vn 0.4647375 -1.250818E-07 0.8854485
vn 0 0 -1
vn 0 0 -1
vn 0 0 -1
vn 0 0 -1
vn -0.938958 -1.86946E-06 0.3440319
vn -0.9389582 -7.184607E-07 0.344031
vn -0.4206773 0 0.9072104
vn -0.4206761 -1.293487E-07 0.9072109
vn -0.2771602 0 0.9608237
vn -0.4206773 0 0.9072104
vn -0.4206761 -1.293487E-07 0.9072109
vn -0.2771596 0 0.9608238
vn -3.770363E-07 1 1.997162E-07
vn -3.770363E-07 1 1.997162E-07
vn -3.770363E-07 1 1.997162E-07
vn -0.7945597 1.429197E-07 -0.607186
vn -0.7945597 1.429197E-07 -0.607186
vn -0.7945597 1.429197E-07 -0.607186
vn -0.8049051 0.006890352 -0.5933635
vn -3.70717E-07 -1 0
vn -3.70717E-07 -1 0
vn -3.70717E-07 -1 0
vn 1 0 0
vn 1 0 0
vn 0 1 0
vn 0 1 0
vn -1 1.789221E-07 0
vn -1 1.789221E-07 0
vn -1 1.789221E-07 0
vn -1 1.789221E-07 0
vn 1 0 0
vn 1 0 0
vn 0 1 0
vn 0 1 0
vn -1 1.789221E-07 0
vn -1 1.789221E-07 0
vn -1 1.789221E-07 0
vn -1 1.789221E-07 0
vn 1 0 0
vn 1 0 0
vn -3.542385E-07 1 0
vn -3.542385E-07 1 0
vn -1 0 0
vn -1 0 0
vn -1 0 0
vn -1 0 0
vn 1 0 0
vn 1 0 0
vn 0 1 0
vn 0 1 0
vn -1 0 0
vn -1 0 0
vn -1 0 0
vn -1 0 0
g MailBox_0
f 77/77/77 76/76/76 75/75/75
f 84/84/84 83/83/83 82/82/82
f 5/5/5 7/7/7 4/4/4
f 7/7/7 6/6/6 4/4/4
f 6/6/6 1/1/1 4/4/4
f 1/1/1 51/51/51 4/4/4
f 53/53/53 12/12/12 52/52/52
f 13/13/13 52/52/52 12/12/12
f 52/52/52 13/13/13 61/61/61
f 62/62/62 61/61/61 13/13/13
f 3/3/3 8/8/8 55/55/55
f 8/8/8 56/56/56 55/55/55
f 56/56/56 57/57/57 55/55/55
f 55/55/55 57/57/57 58/58/58
f 17/17/17 18/18/18 59/59/59
f 60/60/60 59/59/59 18/18/18
f 65/65/65 64/64/64 63/63/63
f 66/66/66 63/63/63 64/64/64
f 69/69/69 54/54/54 15/15/15
f 54/54/54 16/16/16 15/15/15
f 14/14/14 15/15/15 16/16/16
f 70/70/70 14/14/14 16/16/16
f 72/72/72 71/71/71 68/68/68
f 10/10/10 68/68/68 71/71/71
f 68/68/68 10/10/10 11/11/11
f 10/10/10 9/9/9 11/11/11
f 2/2/2 11/11/11 9/9/9
f 67/67/67 2/2/2 9/9/9
f 67/67/67 9/9/9 73/73/73
f 74/74/74 73/73/73 9/9/9
f 80/80/80 79/79/79 78/78/78
f 81/81/81 78/78/78 79/79/79
f 23/23/23 24/24/24 20/20/20
f 19/19/19 20/20/20 24/24/24
f 25/25/25 85/85/85 22/22/22
f 86/86/86 22/22/22 85/85/85
f 26/26/26 87/87/87 21/21/21
f 88/88/88 21/21/21 87/87/87
f 91/91/91 90/90/90 89/89/89
f 92/92/92 89/89/89 90/90/90
f 31/31/31 32/32/32 28/28/28
f 27/27/27 28/28/28 32/32/32
f 33/33/33 93/93/93 30/30/30
f 94/94/94 30/30/30 93/93/93
f 34/34/34 95/95/95 29/29/29
f 96/96/96 29/29/29 95/95/95
f 99/99/99 98/98/98 97/97/97
f 100/100/100 97/97/97 98/98/98
f 37/37/37 38/38/38 36/36/36
f 35/35/35 36/36/36 38/38/38
f 40/40/40 101/101/101 39/39/39
f 102/102/102 39/39/39 101/101/101
f 42/42/42 103/103/103 41/41/41
f 104/104/104 41/41/41 103/103/103
f 107/107/107 106/106/106 105/105/105
f 108/108/108 105/105/105 106/106/106
f 45/45/45 46/46/46 44/44/44
f 43/43/43 44/44/44 46/46/46
f 48/48/48 109/109/109 47/47/47
f 110/110/110 47/47/47 109/109/109
f 50/50/50 111/111/111 49/49/49
f 112/112/112 49/49/49 111/111/111
f 115/115/115 114/114/114 113/113/113
f 116/116/116 113/113/113 114/114/114
