g Parking_Enterence_B
v 5.231408 2.158919 0.4385296
v 7.499987 2.158918 -2.644941E-07
v 7.258552 2.158918 0.5290267
v 5.472844 2.158919 0.5290268
v 7.258552 2.158918 0.4385296
v 9.549258 -2.158937 0.4385301
v 5.231408 2.158919 0.5290268
v 9.549261 0.1096411 2.644936E-07
v 9.549261 0.1096411 0.5290272
v 7.499987 2.158918 0.5290267
v 9.549261 -0.1317932 0.5290272
v 9.549258 -1.917501 0.5290272
v 5.472844 2.158919 0.4385296
v 9.549258 -1.917501 0.4385301
v 9.549258 -2.158937 0.5290272
v 9.549261 -0.1317932 0.4385301
v 6.496077 -0.8942651 0.4385298
v 6.496077 -0.8942651 0.529027
v 8.100204 0.7098608 -2.142589E-13
v 8.100204 0.7098608 0.529027
v 7.929483 0.5391406 0.529027
v 6.666797 -0.7235446 0.529027
v 7.929483 0.5391406 0.4385298
v 6.666797 -0.7235446 0.4385298
v 5.560084 0.5065485 0.4385298
v 5.560084 0.5065485 0.5290269
v 8.765037 0.2656336 1.296373E-07
v 8.765037 0.2656336 0.5290271
v 7.43292 1.282301 0.5290269
v 7.989282 -1.607202 0.529027
v 8.672642 0.0425769 0.43853
v 5.783141 0.5989413 0.4385298
v 7.896888 -1.830258 0.4385299
v 7.896888 -1.830258 0.529027
v 7.655977 1.374694 -1.296378E-07
v 7.655977 1.374694 0.5290269
v 8.672642 0.0425769 0.5290271
v 5.783141 0.5989413 0.5290269
v 7.43292 1.282301 0.4385297
v 7.989282 -1.607202 0.4385299
v -5.231411 2.158926 0.4385297
v -7.49999 2.158924 -2.644941E-07
v -7.258554 2.158924 0.5290268
v -5.472848 2.158926 0.5290269
v -7.258554 2.158924 0.4385296
v -9.549261 -2.15893 0.4385301
v -5.231411 2.158926 0.5290269
v -9.549262 0.1096481 2.644937E-07
v -9.549262 0.1096481 0.5290273
v -7.49999 2.158924 0.5290268
v -9.549262 -0.1317865 0.5290273
v -9.549262 -1.917495 0.5290273
v -5.472848 2.158926 0.4385297
v -9.549262 -1.917495 0.4385301
v -9.549261 -2.15893 0.5290273
v -9.549262 -0.1317865 0.4385301
v -6.496079 -0.8942583 0.4385299
v -6.496079 -0.8942583 0.529027
v -8.100207 0.7098672 -2.142589E-13
v -8.100207 0.7098672 0.529027
v -7.929487 0.539147 0.529027
v -6.6668 -0.7235376 0.529027
v -7.929487 0.539147 0.4385299
v -6.6668 -0.7235376 0.4385299
v -5.560088 0.5065551 0.4385298
v -5.560088 0.5065551 0.529027
v -8.765038 0.2656406 1.296373E-07
v -8.765038 0.2656406 0.5290272
v -7.432925 1.282308 0.5290269
v -7.989285 -1.607195 0.5290271
v -8.672647 0.04258392 0.43853
v -5.783144 0.5989479 0.4385298
v -7.896891 -1.830251 0.43853
v -7.896891 -1.830251 0.5290271
v -7.655981 1.3747 -1.296378E-07
v -7.655981 1.3747 0.5290269
v -8.672647 0.04258392 0.5290272
v -5.783144 0.5989479 0.529027
v -7.432925 1.282308 0.4385298
v -7.989285 -1.607195 0.43853
v 9.549257 -2.158932 0.4385299
v 9.549257 -2.158932 0.529027
v 9.549258 -0.1317896 0.4385299
v 9.549258 -0.1317896 0.529027
v 9.549257 -1.917497 0.529027
v 9.549258 0.109646 0
v 9.549258 0.109646 0.529027
v 9.549257 -1.917497 0.4385299
v 14.99993 -2.158932 0.4385298
v 14.99993 0.1096466 0
v 14.99993 -2.158932 0.529027
v 14.99993 0.1096466 0.529027
v 14.99993 -0.1317889 0.529027
v 14.99993 -1.917497 0.529027
v 14.99993 -0.1317889 0.4385298
v 14.99993 -1.917497 0.4385298
v -14.99993 -2.158932 0.4385299
v -14.99993 -2.158932 0.529027
v -14.99993 -0.1317896 0.4385299
v -14.99993 -0.1317896 0.529027
v -14.99993 -1.917497 0.529027
v -14.99993 0.109646 0
v -14.99993 0.109646 0.529027
v -14.99993 -1.917497 0.4385299
v -9.549257 -2.158932 0.4385298
v -9.54926 0.1096466 0
v -9.549257 -2.158932 0.529027
v -9.54926 0.1096466 0.529027
v -9.54926 -0.1317889 0.529027
v -9.549257 -1.917497 0.529027
v -9.54926 -0.1317889 0.4385298
v -9.549257 -1.917497 0.4385298
v 7.499987 2.158918 0.5290267
v 7.655977 1.374694 0.5290269
v 9.549258 -2.158937 0.5290272
v 7.896888 -1.830258 0.529027
v 5.783141 0.5989413 0.4385298
v 5.472844 2.158919 0.4385296
v 8.672642 0.0425769 0.5290271
v 8.100204 0.7098608 0.529027
v 8.765037 0.2656336 0.5290271
v 5.783141 0.5989413 0.5290269
v 6.496077 -0.8942651 0.529027
v 5.560084 0.5065485 0.5290269
v 8.672642 0.0425769 0.43853
v 7.989282 -1.607202 0.529027
v 6.666797 -0.7235446 0.4385298
v 7.989282 -1.607202 0.4385299
v 6.666797 -0.7235446 0.529027
v 7.43292 1.282301 0.5290269
v 7.929483 0.5391406 0.4385298
v 7.43292 1.282301 0.4385297
v 7.929483 0.5391406 0.529027
v 7.929483 0.5391406 0.529027
v 7.929483 0.5391406 0.4385298
v 5.560084 0.5065485 0.4385298
v 5.560084 0.5065485 0.5290269
v 9.549261 -0.1317932 0.5290272
v 9.549261 0.1096411 0.5290272
v 5.472844 2.158919 0.5290268
v 5.231408 2.158919 0.5290268
v 9.549261 -0.1317932 0.4385301
v 9.549258 -1.917501 0.5290272
v 9.549258 -1.917501 0.4385301
v 7.258552 2.158918 0.5290267
v 7.258552 2.158918 0.4385296
v -7.49999 2.158924 0.5290268
v -7.655981 1.3747 0.5290269
v -9.549261 -2.15893 0.5290273
v -7.896891 -1.830251 0.5290271
v -5.783144 0.5989479 0.4385298
v -5.472848 2.158926 0.4385297
v -8.672647 0.04258392 0.5290272
v -8.100207 0.7098672 0.529027
v -8.765038 0.2656406 0.5290272
v -5.783144 0.5989479 0.529027
v -6.496079 -0.8942583 0.529027
v -5.560088 0.5065551 0.529027
v -8.672647 0.04258392 0.43853
v -7.989285 -1.607195 0.5290271
v -6.6668 -0.7235376 0.4385299
v -6.6668 -0.7235376 0.529027
v -7.989285 -1.607195 0.43853
v -7.432925 1.282308 0.5290269
v -7.929487 0.539147 0.4385299
v -7.929487 0.539147 0.529027
v -7.432925 1.282308 0.4385298
v -7.655981 1.3747 -1.296378E-07
v -7.655981 1.3747 0.5290269
v -5.783144 0.5989479 0.4385298
v -5.783144 0.5989479 0.529027
v -7.929487 0.539147 0.529027
v -7.929487 0.539147 0.4385299
v -5.560088 0.5065551 0.4385298
v -5.560088 0.5065551 0.529027
v -9.549262 -0.1317865 0.5290273
v -9.549262 0.1096481 0.5290273
v -5.472848 2.158926 0.5290269
v -5.231411 2.158926 0.5290269
v -9.549262 -0.1317865 0.4385301
v -9.549262 -1.917495 0.5290273
v -9.549262 -1.917495 0.4385301
v -7.258554 2.158924 0.5290268
v -7.258554 2.158924 0.4385296
v -5.560088 0.5065551 0.4385298
v 5.231408 2.158919 0.4385296
v 5.560084 0.5065485 0.4385298
v -5.231411 2.158926 0.4385297
v -6.496079 -0.8942583 0.4385299
v 6.496077 -0.8942651 0.4385298
v -7.896891 -1.830251 0.43853
v 7.896888 -1.830258 0.4385299
v -9.549261 -2.15893 0.4385301
v 9.549258 -2.158937 0.4385301
v 9.549257 -2.158932 0.529027
v 14.99993 -2.158932 0.529027
v 9.549258 0.109646 0.529027
v 14.99993 -0.1317889 0.529027
v 9.549258 -0.1317896 0.529027
v 14.99993 0.1096466 0.529027
v 9.549258 -0.1317896 0.4385299
v 14.99993 -0.1317889 0.4385298
v 9.549257 -1.917497 0.4385299
v 14.99993 -1.917497 0.529027
v 9.549257 -1.917497 0.529027
v 14.99993 -1.917497 0.4385298
v -14.99993 -2.158932 0.529027
v -9.549257 -2.158932 0.529027
v -14.99993 0.109646 0.529027
v -9.54926 -0.1317889 0.529027
v -14.99993 -0.1317896 0.529027
v -9.54926 0.1096466 0.529027
v -14.99993 -0.1317896 0.4385299
v -9.54926 -0.1317889 0.4385298
v -14.99993 -1.917497 0.4385299
v -9.549257 -1.917497 0.529027
v -14.99993 -1.917497 0.529027
v -9.549257 -1.917497 0.4385298
v 6.496077 -0.8942651 0.529027
v 7.896888 -1.830258 0.4385299
v 6.496077 -0.8942651 0.4385298
v 7.896888 -1.830258 0.529027
v -6.496079 -0.8942583 0.529027
v -7.896891 -1.830251 0.43853
v -7.896891 -1.830251 0.5290271
v -6.496079 -0.8942583 0.4385299
vt 0.128182 0.4577963
vt 0.1307091 0.4797571
vt 0.1262141 0.4786887
vt 0.1263704 0.4583924
vt 0.177175 0.4392759
vt 0.1281907 0.4963646
vt 0.1276597 0.4579209
vt 0.1307089 0.4978887
vt 0.1277041 0.498382
vt 0.1277044 0.4792638
vt 0.1262138 0.4989571
vt 0.1263096 0.4957715
vt 0.1771751 0.4536289
vt 0.1444083 0.4208622
vt 0.1276713 0.4962808
vt 0.1257036 0.4990923
vt 0.1281915 0.4770626
vt 0.1277584 0.4770723
vt 0.1307301 0.4888228
vt 0.1276421 0.4888228
vt 0.1262324 0.4888228
vt 0.1265464 0.4770842
vt 0.164155 0.433882
vt 0.154006 0.4440311
vt 0.1281579 0.4674352
vt 0.1277533 0.4674842
vt 0.1307289 0.4933448
vt 0.1276496 0.4936897
vt 0.1262476 0.4837483
vt 0.1265732 0.4864928
vt 0.1257238 0.4939849
vt 0.1646363 0.4511344
vt 0.1281629 0.4866745
vt 0.1277971 0.4866405
vt 0.130729 0.484301
vt 0.1276497 0.4839559
vt 0.1262475 0.4938974
vt 0.1264639 0.4676833
vt 0.1701289 0.437874
vt 0.1469027 0.4334009
vt 0.1258154 0.4582544
vt 0.1307162 0.4790274
vt 0.1262912 0.478467
vt 0.1277047 0.4587867
vt 0.1565261 0.4205656
vt 0.1258154 0.4963112
vt 0.1263525 0.4583387
vt 0.1307162 0.4981275
vt 0.1276672 0.4982096
vt 0.1276672 0.4789453
vt 0.1262912 0.4986879
vt 0.1277047 0.495779
vt 0.1421732 0.4205629
vt 0.1749365 0.4533264
vt 0.1263525 0.4962269
vt 0.1257246 0.4987711
vt 0.1258035 0.4772829
vt 0.1263168 0.4772829
vt 0.1306946 0.4885775
vt 0.1276023 0.4885775
vt 0.1262207 0.4885775
vt 0.1276704 0.4772829
vt 0.1619155 0.4335842
vt 0.1517665 0.4437332
vt 0.1258094 0.4678158
vt 0.1263186 0.4678678
vt 0.1307054 0.4933989
vt 0.1276072 0.4934508
vt 0.1262252 0.4835787
vt 0.1276724 0.4865879
vt 0.1257129 0.4936276
vt 0.1446646 0.433102
vt 0.1258094 0.4867499
vt 0.1263186 0.4866979
vt 0.1307054 0.4837561
vt 0.1276073 0.4837042
vt 0.1262252 0.4935762
vt 0.1276724 0.4679778
vt 0.1579259 0.4276116
vt 0.1623975 0.450835
vt 0.1258801 0.4993163
vt 0.1263759 0.4993163
vt 0.1258236 0.4993159
vt 0.1263194 0.4993159
vt 0.1276986 0.4993165
vt 0.130541 0.499316
vt 0.1276421 0.499316
vt 0.1589331 0.3758684
vt 0.1258801 0.4697524
vt 0.130541 0.4697521
vt 0.1263757 0.4697524
vt 0.1276418 0.4697521
vt 0.1263191 0.469752
vt 0.1276984 0.4697526
vt 0.1258236 0.469752
vt 0.1589331 0.4207921
vt 0.1258801 0.4993163
vt 0.1263759 0.4993163
vt 0.1258236 0.4993159
vt 0.1263194 0.4993159
vt 0.1276986 0.4993165
vt 0.130541 0.499316
vt 0.1276421 0.499316
vt 0.1442154 0.3758684
vt 0.1258801 0.4697524
vt 0.130541 0.4697521
vt 0.1263757 0.4697524
vt 0.1276418 0.4697521
vt 0.1263191 0.469752
vt 0.1276984 0.4697526
vt 0.1258236 0.469752
vt 0.1442154 0.4207921
vt 0.1277044 0.4792638
vt 0.1276497 0.4839559
vt 0.1276713 0.4962808
vt 0.1277971 0.4866405
vt 0.1258175 0.467714
vt 0.125834 0.4584077
vt 0.1262475 0.4938974
vt 0.1276421 0.4888228
vt 0.1276496 0.4936897
vt 0.1264639 0.4676833
vt 0.1277584 0.4770723
vt 0.1277533 0.4674842
vt 0.1601631 0.4279082
vt 0.1265732 0.4864928
vt 0.1259203 0.4770842
vt 0.1259187 0.4864459
vt 0.1265464 0.4770842
vt 0.1262476 0.4837483
vt 0.1256995 0.4888228
vt 0.1257239 0.4836607
vt 0.1262324 0.4888228
vt 0.1262324 0.4888228
vt 0.1256995 0.4888228
vt 0.1281579 0.4674352
vt 0.1277533 0.4674842
vt 0.1262138 0.4989571
vt 0.1277041 0.498382
vt 0.1263704 0.4583924
vt 0.1276597 0.4579209
vt 0.1587613 0.4208622
vt 0.1263096 0.4957715
vt 0.125794 0.4957119
vt 0.1262141 0.4786887
vt 0.125704 0.4785535
vt 0.1276672 0.4789453
vt 0.1276073 0.4837042
vt 0.1263525 0.4962269
vt 0.1263186 0.4866979
vt 0.1281972 0.4680299
vt 0.1282029 0.4588707
vt 0.1262252 0.4935762
vt 0.1276023 0.4885775
vt 0.1276072 0.4934508
vt 0.1276724 0.4679778
vt 0.1263168 0.4772829
vt 0.1263186 0.4678678
vt 0.167888 0.4375738
vt 0.1276724 0.4865879
vt 0.1281915 0.4772829
vt 0.1276704 0.4772829
vt 0.1281972 0.4865358
vt 0.1262252 0.4835787
vt 0.1257011 0.4885775
vt 0.1262207 0.4885775
vt 0.1257129 0.4835273
vt 0.1307054 0.4837561
vt 0.1276073 0.4837042
vt 0.1281972 0.4680299
vt 0.1276724 0.4679778
vt 0.1262207 0.4885775
vt 0.1257011 0.4885775
vt 0.1258094 0.4678158
vt 0.1263186 0.4678678
vt 0.1262912 0.4986879
vt 0.1276672 0.4982096
vt 0.1277047 0.4587867
vt 0.1263525 0.4583387
vt 0.1749339 0.4389736
vt 0.1277047 0.495779
vt 0.1282029 0.4956949
vt 0.1262912 0.478467
vt 0.1257246 0.4783837
vt 0.4678378 0.212808
vt 0.4083452 0.2036985
vt 0.4065332 0.212808
vt 0.4660259 0.2036985
vt 0.4729979 0.2205308
vt 0.4013732 0.2205308
vt 0.4807203 0.2256912
vt 0.3936508 0.2256912
vt 0.4898296 0.2275032
vt 0.3845415 0.2275032
vt 0.1263759 0.4993163
vt 0.1263757 0.4697524
vt 0.1276421 0.499316
vt 0.1263191 0.469752
vt 0.1263194 0.4993159
vt 0.1276418 0.4697521
vt 0.1442154 0.3758684
vt 0.1442154 0.4207921
vt 0.1281944 0.4993165
vt 0.1276984 0.4697526
vt 0.1276986 0.4993165
vt 0.1281945 0.4697526
vt 0.1263759 0.4993163
vt 0.1263757 0.4697524
vt 0.1276421 0.499316
vt 0.1263191 0.469752
vt 0.1263194 0.4993159
vt 0.1276418 0.4697521
vt 0.1589331 0.3758684
vt 0.1589331 0.4207921
vt 0.1281944 0.4993165
vt 0.1276984 0.4697526
vt 0.1276986 0.4993165
vt 0.1281945 0.4697526
vt 0.1277584 0.4770723
vt 0.1281629 0.4866745
vt 0.1281915 0.4770626
vt 0.1277971 0.4866405
vt 0.1263168 0.4772829
vt 0.1258094 0.4867499
vt 0.1263186 0.4866979
vt 0.1258035 0.4772829
vn -0.9807854 -0.1950899 0
vn 0.9807857 0.1950881 0
vn 0 1.740646E-07 1
vn 0.9807854 0.1950897 0
vn 0 1.031153E-07 1
vn -0.1950912 -0.9807851 0
vn -0.9807854 -0.1950898 0
vn 0.1950911 0.9807851 0
vn 0.1950911 0.9807851 0
vn 0.9807857 0.1950882 0
vn -0.1950901 -0.9807854 0
vn 0 0 1
vn 0 0 1
vn -1.09861E-07 0 1
vn -0.1950913 -0.9807851 0
vn -0.1950901 -0.9807854 0
vn -0.83147 -0.5555696 0
vn -0.83147 -0.5555696 0
vn 0.7071071 0.7071065 0
vn 0.707107 0.7071065 0
vn 0 0 1
vn 0 0 1
vn -1.040487E-07 0 1
vn 0 0 1
vn -0.83147 -0.5555696 0
vn -0.83147 -0.5555696 0
vn 0.3826835 0.9238794 0
vn 0.3826835 0.9238795 0
vn 0 1.797612E-07 1
vn 0 0 1
vn -0.3826835 -0.9238794 0
vn 0 0 1
vn -0.1950913 -0.9807851 0
vn -0.1950913 -0.9807851 0
vn 0.9238802 0.3826817 0
vn 0.9238802 0.3826818 0
vn -0.3826835 -0.9238794 0
vn 0.9238797 0.3826829 0
vn 0 1.005263E-07 1
vn 0 0 1
vn 0.9807854 -0.1950903 0
vn -0.9807854 0.1950895 0
vn 0 1.305484E-07 1
vn -0.9807855 0.1950889 0
vn 0 1.031153E-07 1
vn 0.1950912 -0.9807851 0
vn 0.9807854 -0.1950902 0
vn -0.1950911 0.9807851 0
vn -0.1950911 0.9807851 0
vn -0.9807854 0.1950895 0
vn 0.195091 -0.9807851 0
vn 0 0 1
vn 0 0 1
vn 0 0 1
vn 0.1950912 -0.9807851 0
vn 0.195091 -0.9807851 0
vn 0.8314703 -0.5555692 0
vn 0.8314703 -0.5555692 0
vn -0.7071074 0.7071061 0
vn -0.7071074 0.7071061 0
vn 0 0 1
vn 0 0 1
vn 1.047615E-07 0 1
vn 0 0 1
vn 0.8314703 -0.5555692 0
vn 0.8314703 -0.5555692 0
vn -0.3826841 0.9238793 0
vn -0.3826841 0.9238793 0
vn 0 1.305484E-07 1
vn 0 0 1
vn 0.3826837 -0.9238794 0
vn 0 0 1
vn 0.1950913 -0.9807851 0
vn 0.1950913 -0.9807851 0
vn -0.9238799 0.3826824 0
vn -0.9238799 0.3826824 0
vn 0.3826837 -0.9238794 0
vn -0.9238799 0.3826826 0
vn 0 1.005263E-07 1
vn 0 0 1
vn 0 -1 0
vn 0 -1 0
vn 1.119773E-07 -1 0
vn 1.119773E-07 -1 0
vn 0 0 1
vn -1.119773E-07 1 0
vn -1.119773E-07 1 0
vn 0 0 1
vn 0 -1 0
vn -1.119773E-07 1 0
vn 0 -1 0
vn -1.119773E-07 1 0
vn 1.119773E-07 -1 0
vn 0 0 1
vn 1.119773E-07 -1 0
vn 0 0 1
vn 0 -1 0
vn 0 -1 0
vn 1.119773E-07 -1 0
vn 1.119773E-07 -1 0
vn 0 0 1
vn -1.119773E-07 1 0
vn -1.119773E-07 1 0
vn 0 0 1
vn 0 -1 0
vn -1.119773E-07 1 0
vn 0 -1 0
vn -1.119773E-07 1 0
vn 1.119773E-07 -1 0
vn 0 0 1
vn 1.119773E-07 -1 0
vn 0 0 1
vn 0 1.797612E-07 1
vn 0 1.797612E-07 1
vn 0 0 1
vn 0 0 1
vn 0.9238797 0.382683 0
vn 0.9807854 0.1950897 0
vn -1.348199E-07 0 1
vn -1.348199E-07 0 1
vn -1.348199E-07 0 1
vn 0 0 1
vn 0 0 1
vn 0 0 1
vn -1.516392E-07 0 1
vn 0.3826841 0.9238793 0
vn 0.7071072 0.7071063 0
vn 0.3826841 0.9238793 0
vn 0.7071072 0.7071064 0
vn -0.92388 -0.3826824 0
vn -0.7071075 -0.7071061 0
vn -0.92388 -0.3826824 0
vn -0.7071075 -0.7071061 0
vn -0.7071075 -0.7071061 0
vn -0.7071075 -0.7071061 0
vn -0.9807854 -0.1950899 0
vn -0.9807854 -0.1950899 0
vn -1.459289E-07 0 1
vn -1.459289E-07 0 1
vn 0 0 1
vn 0 0 1
vn -1.347973E-07 0 1
vn 0.1950909 0.9807851 0
vn 0.1950909 0.9807851 0
vn -0.9807854 -0.1950893 0
vn -0.9807854 -0.1950893 0
vn 0 1.305484E-07 1
vn 0 1.348208E-07 1
vn 0 0 1
vn 0 0 1
vn -0.9238798 0.3826827 0
vn -0.9807855 0.1950889 0
vn 0 0 1
vn 0 0 1
vn 1.348211E-07 0 1
vn 0 0 1
vn 0 0 1
vn 0 0 1
vn 1.394126E-07 0 1
vn -0.3826842 0.9238792 0
vn -0.7071071 0.7071064 0
vn -0.7071072 0.7071064 0
vn -0.3826841 0.9238792 0
vn 0.9238797 -0.3826829 0
vn 0.7071073 -0.7071062 0
vn 0.7071074 -0.7071061 0
vn 0.9238797 -0.3826829 0
vn -0.9238799 0.3826824 0
vn -0.9238799 0.3826824 0
vn -0.9238798 0.3826827 0
vn -0.9238799 0.3826826 0
vn 0.7071074 -0.7071061 0
vn 0.7071073 -0.7071062 0
vn 0.9807854 -0.1950902 0
vn 0.9807854 -0.1950903 0
vn 1.608148E-07 0 1
vn 1.945719E-07 0 1
vn 0 0 1
vn 0 0 1
vn 1.347978E-07 0 1
vn -0.195091 0.9807851 0
vn -0.195091 0.9807851 0
vn 0.9807853 -0.1950906 0
vn 0.9807853 -0.1950906 0
vn 0 0 1
vn 0 0 1
vn 0 0 1
vn 0 0 1
vn 0 0 1
vn 0 0 1
vn 0 1.146609E-07 1
vn 0 0 1
vn 0 3.383258E-07 1
vn 0 4.742889E-07 1
vn 0 0 1
vn 0 0 1
vn 0 0 1
vn 0 0 1
vn 0 0 1
vn 0 0 1
vn 0 0 1
vn 0 0 1
vn 0 1 0
vn 0 1 0
vn 0 1 0
vn 0 1 0
vn 0 0 1
vn 0 0 1
vn 0 0 1
vn 0 0 1
vn 0 0 1
vn 0 0 1
vn 0 0 1
vn 0 0 1
vn 0 1 0
vn 0 1 0
vn 0 1 0
vn 0 1 0
vn -0.5555708 -0.8314693 0
vn -0.5555708 -0.8314693 0
vn -0.5555707 -0.8314693 0
vn -0.5555707 -0.8314693 0
vn 0.5555705 -0.8314695 0
vn 0.5555705 -0.8314695 0
vn 0.5555705 -0.8314695 0
vn 0.5555705 -0.8314694 0
g Parking_Enterence_B_0
f 34/34/34 33/33/33 15/15/15
f 6/6/6 15/15/15 33/33/33
f 2/2/2 10/10/10 35/35/35
f 36/36/36 35/35/35 10/10/10
f 36/36/36 20/20/20 35/35/35
f 19/19/19 35/35/35 20/20/20
f 20/20/20 28/28/28 19/19/19
f 27/27/27 19/19/19 28/28/28
f 28/28/28 9/9/9 27/27/27
f 8/8/8 27/27/27 9/9/9
f 3/3/3 29/29/29 113/113/113
f 114/114/114 113/113/113 29/29/29
f 29/29/29 21/21/21 114/114/114
f 120/120/120 114/114/114 21/21/21
f 21/21/21 119/119/119 120/120/120
f 121/121/121 120/120/120 119/119/119
f 119/119/119 138/138/138 121/121/121
f 139/139/139 121/121/121 138/138/138
f 12/12/12 30/30/30 115/115/115
f 116/116/116 115/115/115 30/30/30
f 30/30/30 22/22/22 116/116/116
f 123/123/123 116/116/116 22/22/22
f 22/22/22 122/122/122 123/123/123
f 124/124/124 123/123/123 122/122/122
f 122/122/122 140/140/140 124/124/124
f 141/141/141 124/124/124 140/140/140
f 13/13/13 32/32/32 5/5/5
f 39/39/39 5/5/5 32/32/32
f 32/32/32 24/24/24 39/39/39
f 23/23/23 39/39/39 24/24/24
f 24/24/24 40/40/40 23/23/23
f 125/125/125 23/23/23 40/40/40
f 40/40/40 14/14/14 125/125/125
f 142/142/142 125/125/125 14/14/14
f 118/118/118 4/4/4 117/117/117
f 38/38/38 117/117/117 4/4/4
f 38/38/38 129/129/129 117/117/117
f 127/127/127 117/117/117 129/129/129
f 129/129/129 126/126/126 127/127/127
f 128/128/128 127/127/127 126/126/126
f 126/126/126 143/143/143 128/128/128
f 144/144/144 128/128/128 143/143/143
f 16/16/16 11/11/11 31/31/31
f 37/37/37 31/31/31 11/11/11
f 37/37/37 134/134/134 31/31/31
f 135/135/135 31/31/31 134/134/134
f 25/25/25 17/17/17 26/26/26
f 18/18/18 26/26/26 17/17/17
f 133/133/133 130/130/130 131/131/131
f 132/132/132 131/131/131 130/130/130
f 130/130/130 145/145/145 132/132/132
f 146/146/146 132/132/132 145/145/145
f 221/221/221 220/220/220 219/219/219
f 222/222/222 219/219/219 220/220/220
f 1/1/1 136/136/136 7/7/7
f 137/137/137 7/7/7 136/136/136
f 46/46/46 73/73/73 55/55/55
f 74/74/74 55/55/55 73/73/73
f 42/42/42 75/75/75 50/50/50
f 76/76/76 50/50/50 75/75/75
f 43/43/43 147/147/147 69/69/69
f 148/148/148 69/69/69 147/147/147
f 69/69/69 148/148/148 61/61/61
f 154/154/154 61/61/61 148/148/148
f 61/61/61 154/154/154 153/153/153
f 155/155/155 153/153/153 154/154/154
f 153/153/153 155/155/155 176/176/176
f 177/177/177 176/176/176 155/155/155
f 52/52/52 149/149/149 70/70/70
f 150/150/150 70/70/70 149/149/149
f 70/70/70 150/150/150 62/62/62
f 157/157/157 62/62/62 150/150/150
f 62/62/62 157/157/157 156/156/156
f 158/158/158 156/156/156 157/157/157
f 156/156/156 158/158/158 178/178/178
f 179/179/179 178/178/178 158/158/158
f 53/53/53 45/45/45 72/72/72
f 79/79/79 72/72/72 45/45/45
f 72/72/72 79/79/79 64/64/64
f 63/63/63 64/64/64 79/79/79
f 64/64/64 63/63/63 80/80/80
f 159/159/159 80/80/80 63/63/63
f 80/80/80 159/159/159 54/54/54
f 180/180/180 54/54/54 159/159/159
f 152/152/152 151/151/151 44/44/44
f 78/78/78 44/44/44 151/151/151
f 56/56/56 71/71/71 51/51/51
f 77/77/77 51/51/51 71/71/71
f 77/77/77 71/71/71 172/172/172
f 173/173/173 172/172/172 71/71/71
f 58/58/58 57/57/57 66/66/66
f 65/65/65 66/66/66 57/57/57
f 166/166/166 165/165/165 164/164/164
f 167/167/167 164/164/164 165/165/165
f 164/164/164 167/167/167 183/183/183
f 184/184/184 183/183/183 167/167/167
f 225/225/225 224/224/224 223/223/223
f 226/226/226 223/223/223 224/224/224
f 169/169/169 168/168/168 60/60/60
f 59/59/59 60/60/60 168/168/168
f 60/60/60 59/59/59 68/68/68
f 67/67/67 68/68/68 59/59/59
f 68/68/68 67/67/67 49/49/49
f 48/48/48 49/49/49 67/67/67
f 171/171/171 170/170/170 162/162/162
f 161/161/161 162/162/162 170/170/170
f 162/162/162 161/161/161 160/160/160
f 163/163/163 160/160/160 161/161/161
f 160/160/160 163/163/163 181/181/181
f 182/182/182 181/181/181 163/163/163
f 175/175/175 174/174/174 47/47/47
f 41/41/41 47/47/47 174/174/174
f 188/188/188 185/185/185 186/186/186
f 187/187/187 186/186/186 185/185/185
f 185/185/185 189/189/189 187/187/187
f 190/190/190 187/187/187 189/189/189
f 189/189/189 191/191/191 190/190/190
f 192/192/192 190/190/190 191/191/191
f 191/191/191 193/193/193 192/192/192
f 194/194/194 192/192/192 193/193/193
f 91/91/91 82/82/82 89/89/89
f 81/81/81 89/89/89 82/82/82
f 196/196/196 94/94/94 195/195/195
f 85/85/85 195/195/195 94/94/94
f 93/93/93 84/84/84 95/95/95
f 83/83/83 95/95/95 84/84/84
f 87/87/87 92/92/92 86/86/86
f 90/90/90 86/86/86 92/92/92
f 199/199/199 198/198/198 197/197/197
f 200/200/200 197/197/197 198/198/198
f 88/88/88 96/96/96 201/201/201
f 202/202/202 201/201/201 96/96/96
f 205/205/205 204/204/204 203/203/203
f 206/206/206 203/203/203 204/204/204
f 107/107/107 98/98/98 105/105/105
f 97/97/97 105/105/105 98/98/98
f 208/208/208 110/110/110 207/207/207
f 101/101/101 207/207/207 110/110/110
f 109/109/109 100/100/100 111/111/111
f 99/99/99 111/111/111 100/100/100
f 103/103/103 108/108/108 102/102/102
f 106/106/106 102/102/102 108/108/108
f 211/211/211 210/210/210 209/209/209
f 212/212/212 209/209/209 210/210/210
f 104/104/104 112/112/112 213/213/213
f 214/214/214 213/213/213 112/112/112
f 217/217/217 216/216/216 215/215/215
f 218/218/218 215/215/215 216/216/216
