g Park_Corner_B
v 6.365679 -8.634239 0.2705603
v 8.634257 -8.634242 0.5290271
v 8.392822 -8.63424 0.5290271
v 6.607114 -8.63424 0.529027
v -8.634268 6.365695 0.2705601
v 8.634257 -8.634242 1.525879E-07
v -8.634266 6.365695 0.5290269
v 6.365679 -8.634239 0.529027
v -8.634265 8.392838 0.4385296
v 6.607114 -8.63424 0.43853
v 8.392822 -8.63424 0.4385301
v -8.634265 8.392838 0.5290268
v -8.634265 6.60713 0.5290269
v -8.634264 8.634272 -1.525879E-07
v -8.634264 8.634272 0.5290268
v -8.634265 6.60713 0.4385297
v 2.0146 2.014599 0.2705602
v 3.771033 3.771028 0
v 2.0146 2.014599 0.529027
v 3.771033 3.771028 0.529027
v 3.584101 3.5841 0.529027
v 2.201531 2.201529 0.529027
v 3.584101 3.5841 0.4385298
v 2.201531 2.201529 0.4385298
v -3.235869 5.522857 0.2705601
v 7.817737 -2.285303 1.242165E-07
v -3.235867 5.522857 0.5290269
v 7.817737 -2.285303 0.5290271
v -2.386457 7.573506 0.5290269
v 5.767085 -3.134709 0.529027
v 7.573501 -2.386468 0.43853
v -3.134702 5.76709 0.4385298
v 5.522851 -3.235875 0.2705603
v -2.28529 7.817741 -8.281097E-08
v 5.522849 -3.235875 0.529027
v -2.28529 7.817741 0.5290269
v 7.573501 -2.386468 0.5290271
v -3.134702 5.76709 0.5290269
v -2.386457 7.573506 0.4385297
v 5.767085 -3.134709 0.4385299
v -8.634268 -8.634256 0.2705513
v -6.071514 6.11769 0.2705601
v 8.548623 -5.473415 1.144409E-07
v -6.071516 6.11769 0.5290269
v 8.548623 -5.473415 0.5290271
v -5.627585 8.248879 0.5290268
v 6.417437 -5.917342 0.529027
v 8.2948 -5.526289 0.43853
v -6.01864 6.371515 0.4385297
v 4.125254 -0.5678351 0.2705602
v 0.8276953 6.060752 -4.140549E-08
v 4.125254 -0.5678351 0.529027
v 0.8276953 6.060752 0.5290269
v 6.017265 0.6963654 0.529027
v -0.4365088 4.168743 0.5290269
v 0.6771289 5.835413 0.4385298
v 4.350595 -0.4172674 0.4385299
v -0.5870752 3.943404 0.2705601
v 6.242607 0.8469336 7.629394E-08
v -0.5870752 3.943404 0.5290269
v 6.242607 0.8469336 0.529027
v 0.6771289 5.835413 0.5290269
v 4.350595 -0.4172668 0.529027
v 6.017265 0.6963654 0.4385299
v -0.4365088 4.168743 0.4385298
v 6.163608 -5.970214 0.2705602
v -5.57471 8.502705 -7.629394E-08
v 6.163608 -5.970214 0.529027
v -5.57471 8.502705 0.5290268
v 8.2948 -5.526289 0.5290271
v -6.01864 6.371515 0.5290269
v -5.627585 8.248878 0.4385297
v 6.417437 -5.917342 0.4385299
v 8.634257 -8.634242 0.5290271
v 8.548623 -5.473415 0.5290271
v -8.634266 6.365695 0.5290269
v -6.071516 6.11769 0.5290269
v 6.417437 -5.917342 0.4385299
v 6.607114 -8.63424 0.43853
v 0.8276953 6.060752 0.5290269
v 3.771033 3.771028 0.529027
v 2.0146 2.014599 0.529027
v 4.125254 -0.5678351 0.529027
v -0.4365088 4.168743 0.4385298
v 2.201531 2.201529 0.529027
v 2.201531 2.201529 0.4385298
v 3.584101 3.5841 0.529027
v 3.584101 3.5841 0.4385298
v 6.242607 0.8469336 0.529027
v 6.017265 0.6963654 0.529027
v 7.817737 -2.285303 0.5290271
v -3.235867 5.522857 0.5290269
v -0.4365088 4.168743 0.5290269
v -0.5870752 3.943404 0.5290269
v 6.017265 0.6963654 0.4385299
v 4.350595 -0.4172674 0.4385299
v 4.350595 -0.4172668 0.529027
v 5.767085 -3.134709 0.4385299
v 0.6771289 5.835413 0.4385298
v 0.6771289 5.835413 0.5290269
v -5.57471 8.502705 0.5290268
v -2.386457 7.573506 0.5290269
v -5.627585 8.248879 0.5290268
v -2.28529 7.817741 0.5290269
v 5.522849 -3.235875 0.529027
v 6.417437 -5.917342 0.529027
v 6.163608 -5.970214 0.529027
v 5.767085 -3.134709 0.529027
v -5.627585 8.248878 0.4385297
v -2.386457 7.573506 0.4385297
v -6.01864 6.371515 0.4385297
v -3.134702 5.76709 0.5290269
v -6.01864 6.371515 0.5290269
v -3.134702 5.76709 0.4385298
v 8.2948 -5.526289 0.43853
v 7.573501 -2.386468 0.5290271
v 8.2948 -5.526289 0.5290271
v 7.573501 -2.386468 0.43853
v -3.235869 5.522857 0.2705601
v -6.071514 6.11769 0.2705601
v 6.163608 -5.970214 0.2705602
v 5.522851 -3.235875 0.2705603
v 4.125254 -0.5678351 0.2705602
v 2.0146 2.014599 0.2705602
v -0.5870752 3.943404 0.2705601
v 2.201531 2.201529 0.4385298
v 3.584101 3.5841 0.4385298
v 6.365679 -8.634239 0.2705603
v -8.634264 8.634272 0.5290268
v -8.634265 8.392838 0.5290268
v 6.365679 -8.634239 0.529027
v 6.607114 -8.63424 0.529027
v -8.634265 8.392838 0.4385296
v -8.634265 6.60713 0.4385297
v -8.634265 6.60713 0.5290269
v 8.392822 -8.63424 0.4385301
v 8.392822 -8.63424 0.5290271
v -8.634268 6.365695 0.2705601
v -3.235869 5.522857 0.2705601
v -6.071516 6.11769 0.5290269
v -3.235867 5.522857 0.5290269
v -6.071514 6.11769 0.2705601
v 5.522851 -3.235875 0.2705603
v 4.125254 -0.5678351 0.529027
v 5.522849 -3.235875 0.529027
v 4.125254 -0.5678351 0.2705602
v 2.0146 2.014599 0.2705602
v -0.5870752 3.943404 0.5290269
v 2.0146 2.014599 0.529027
v -0.5870752 3.943404 0.2705601
v 6.163608 -5.970214 0.529027
v 6.163608 -5.970214 0.2705602
vt 1.265001 -0.2649985
vt 0.1299376 0.4060278
vt 0.1291278 0.4061462
vt 0.1299467 0.4176664
vt 0.129581 0.4980677
vt 0.1317204 0.4058826
vt 0.129894 0.4980919
vt 0.129145 0.417831
vt 0.1295786 0.498091
vt 0.1535078 0.4956565
vt 0.1406779 0.4956732
vt 0.1298909 0.4981194
vt 0.1307275 0.4982173
vt 0.1325262 0.4982427
vt 0.130726 0.4982142
vt 0.1556264 0.4927323
vt 0.1295676 0.4579901
vt 0.1325493 0.4521804
vt 0.1298754 0.4579945
vt 0.1307622 0.4521675
vt 0.1298726 0.4521776
vt 0.1307637 0.4579838
vt 0.1778132 0.4050523
vt 0.1877103 0.415022
vt 0.1295719 0.4795059
vt 0.1327762 0.4275615
vt 0.1298803 0.4795128
vt 0.1309896 0.427595
vt 0.1298767 0.4766637
vt 0.1310052 0.4363846
vt 0.1465023 0.4507784
vt 0.1618991 0.4532523
vt 0.1298087 0.4363969
vt 0.1325424 0.4766551
vt 0.1301159 0.4363823
vt 0.1307581 0.4766485
vt 0.1301007 0.4275877
vt 0.1307612 0.479508
vt 0.1295695 0.476657
vt 0.1594905 0.4561315
vt -0.2649977 -0.2650002
vt 0.1295781 0.4893509
vt 0.132494 0.4165351
vt 0.1298818 0.4893748
vt 0.1307123 0.4166389
vt 0.1298805 0.4879264
vt 0.1307949 0.4268016
vt 0.1413532 0.4733429
vt 0.1574329 0.4739496
vt 0.1296397 0.4466403
vt 0.1325481 0.4646742
vt 0.129945 0.4466383
vt 0.1307665 0.4646746
vt 0.1300371 0.439335
vt 0.1307681 0.4690104
vt 0.161553 0.4258634
vt 0.1696314 0.436581
vt 0.1295673 0.4690122
vt 0.132734 0.4393435
vt 0.1298656 0.469012
vt 0.1309475 0.4393355
vt 0.1298645 0.4646776
vt 0.1308541 0.4466422
vt 0.1297308 0.439337
vt 0.173489 0.4339219
vt 0.1296149 0.4268733
vt 0.1325321 0.4879301
vt 0.12992 0.426839
vt 0.1307478 0.4879059
vt 0.1298421 0.4166467
vt 0.1307505 0.4893752
vt 0.1295757 0.4879022
vt 0.1548455 0.4761337
vt 0.1299376 0.4060278
vt 0.1307123 0.4166389
vt 0.129894 0.4980919
vt 0.1298818 0.4893748
vt 0.1311 0.4267662
vt 0.130251 0.4176217
vt 0.1307665 0.4646746
vt 0.1307622 0.4521675
vt 0.1298754 0.4579945
vt 0.129945 0.4466383
vt 0.1310695 0.4690102
vt 0.1307637 0.4579838
vt 0.1310699 0.4579883
vt 0.1298726 0.4521776
vt 0.1295656 0.4521742
vt 0.1309475 0.4393355
vt 0.1300371 0.439335
vt 0.1309896 0.427595
vt 0.1298803 0.4795128
vt 0.1307681 0.4690104
vt 0.1298656 0.469012
vt 0.1576366 0.4286102
vt 0.1311592 0.4466402
vt 0.1308541 0.4466422
vt 0.1313113 0.4363695
vt 0.1295651 0.4646787
vt 0.1298645 0.4646776
vt 0.1307478 0.4879059
vt 0.1298767 0.4766637
vt 0.1298805 0.4879264
vt 0.1307581 0.4766485
vt 0.1301159 0.4363823
vt 0.1307949 0.4268016
vt 0.12992 0.426839
vt 0.1310052 0.4363846
vt 0.1439615 0.4710597
vt 0.1489507 0.4478039
vt 0.1310539 0.4893991
vt 0.1307612 0.479508
vt 0.1307505 0.4893752
vt 0.1310644 0.4795149
vt 0.1295373 0.4166788
vt 0.1301007 0.4275877
vt 0.1298421 0.4166467
vt 0.129794 0.427602
vt 0.2856404 1.179029
vt -0.003596544 1.239702
vt 1.24439 0.006732821
vt 1.179032 0.2856362
vt 1.036477 0.5577769
vt 0.8211894 0.8211859
vt 0.5558178 1.017925
vt 0.1850206 0.4177116
vt 0.1750509 0.4078146
vt 0.1288435 0.4178734
vt 0.130726 0.4982142
vt 0.1298909 0.4981194
vt 0.129145 0.417831
vt 0.1299467 0.4176664
vt 0.1427968 0.492655
vt 0.1310476 0.4982416
vt 0.1307275 0.4982173
vt 0.1288257 0.4061879
vt 0.1291278 0.4061462
vt -0.2649978 1.264999
vt 0.1295719 0.4795059
vt 0.1298818 0.4893748
vt 0.1298803 0.4795128
vt 0.1295781 0.4893509
vt 0.1298087 0.4363969
vt 0.129945 0.4466383
vt 0.1301159 0.4363823
vt 0.1296397 0.4466403
vt 0.1295676 0.4579901
vt 0.1298656 0.469012
vt 0.1298754 0.4579945
vt 0.1295673 0.4690122
vt 0.12992 0.426839
vt 0.1296149 0.4268733
vn -6.027243E-07 0 1
vn 0.9996332 0.02708259 0
vn 0 0 1
vn 0.9975719 0.06964456 0
vn -0.09632301 -0.9953501 4.549204E-07
vn 0.9996332 0.02708258 0
vn -0.09632315 -0.9953501 -9.098418E-07
vn -0.9971356 -0.07563423 0
vn -0.04782486 -0.9988557 0
vn 0 0 1
vn 0 0 1
vn -0.04782484 -0.9988557 2.577805E-07
vn 0 0 1
vn 0.04296245 0.9990767 0
vn 0.04296245 0.9990767 0
vn 0 0 1
vn -0.7742873 -0.6328343 0
vn 0.6926129 0.7213094 0
vn -0.7742873 -0.6328343 0
vn 0.6926129 0.7213094 0
vn -1.036921E-07 -1.000022E-07 1
vn 0 0 1
vn 0 0 1
vn 0 0 1
vn -0.5121517 -0.8588949 4.837644E-06
vn 0.9408544 0.3388111 0
vn -0.5121521 -0.8588948 0
vn 0.9408544 0.3388111 0
vn -0.3529734 -0.9356334 0
vn 0.937628 0.3476401 0
vn 0 0 1
vn 0 0 1
vn -0.9736245 -0.2281563 -9.196591E-06
vn 0.3518693 0.9360491 0
vn -0.9736243 -0.2281571 0
vn 0.3518694 0.9360491 0
vn 1.204045E-07 0 1
vn 0 0 1
vn -0.3529734 -0.9356334 1.162743E-07
vn 0 0 1
vn -1.333548E-07 -5.715889E-07 1
vn -0.09632316 -0.9953501 -9.098419E-07
vn 0.9920444 0.1258877 0
vn -0.09632315 -0.9953501 -9.098418E-07
vn 0.9920444 0.1258877 0
vn -0.1263011 -0.9919919 1.326561E-05
vn 0.9888235 0.1490909 0
vn 0 0 1
vn 0 0 1
vn -0.7742873 -0.6328343 0
vn 0.5542725 0.8323353 0
vn -0.7742873 -0.6328343 0
vn 0.5542725 0.8323353 0
vn -0.8343578 -0.5512233 0
vn 0.554509 0.8321778 0
vn 0 0 1
vn 0 0 1
vn -0.5121521 -0.8588948 0
vn 0.834354 0.5512291 0
vn -0.5121521 -0.8588948 0
vn 0.834354 0.5512291 0
vn -1.036921E-07 -1.000022E-07 1
vn 0 0 1
vn -0.8343578 -0.5512232 0
vn 0 0 1
vn -0.9736243 -0.2281571 0
vn 0.1238185 0.9923049 0
vn -0.9736243 -0.2281571 0
vn 0.1238185 0.9923049 0
vn 0 0 1
vn 0 0 1
vn -0.1263013 -0.9919919 1.325155E-05
vn 0 0 1
vn 0 0 1
vn 0 0 1
vn 0 0 1
vn 0 0 1
vn 0.9888235 0.1490909 0
vn 0.9975719 0.06964457 0
vn -1.036921E-07 -1.000022E-07 1
vn 0 0 1
vn 0 0 1
vn 0 0 1
vn 0.554509 0.8321778 0
vn 0.690497 0.7233353 0
vn 0.690497 0.7233353 0
vn -0.6923892 -0.7215242 0
vn -0.6923892 -0.7215242 0
vn 1.204045E-07 0 1
vn 1.204045E-07 0 1
vn 0 0 1
vn 0 0 1
vn 0 0 1
vn 0 0 1
vn 0 0 1
vn 0.8343456 0.5512416 -3.688359E-06
vn 0.8343452 0.5512423 -3.681244E-06
vn 0.937628 0.34764 0
vn -0.5542929 -0.8323216 0
vn -0.5542929 -0.8323216 0
vn 0 0 1
vn 0 0 1
vn 0 0 1
vn 0 0 1
vn 0 0 1
vn 0 0 1
vn 0 0 1
vn 0 0 1
vn 0 0 1
vn 0 0 1
vn 0.147673 0.9890363 0
vn 0.3622624 0.9320762 0
vn 0.147673 0.9890363 0
vn 0.3622626 0.932076 0
vn -0.9917336 -0.1283139 0
vn -0.9405172 -0.339746 0
vn -0.9917336 -0.1283139 0
vn -0.9405172 -0.3397463 0
vn -1.333548E-07 -5.715889E-07 1
vn -1.333548E-07 -5.715889E-07 1
vn -6.027243E-07 0 1
vn -5.323374E-07 -2.645562E-07 1
vn -5.323374E-07 -2.645562E-07 1
vn -3.637706E-07 -4.708957E-07 1
vn -3.637706E-07 -4.708957E-07 1
vn 0 0 1
vn 0 0 1
vn -0.9971356 -0.07563423 0
vn 0 0 1
vn 0 0 1
vn 0 0 1
vn 0 0 1
vn 0 0 1
vn 0.08971617 0.9959674 0
vn 0.08971618 0.9959674 0
vn -0.999503 -0.03152357 0
vn -0.999503 -0.03152357 0
vn 0 -5.849221E-07 1
vn -0.2053012 -0.9786988 1.939218E-06
vn -0.2053012 -0.9786988 1.939218E-06
vn -0.2053011 -0.9786988 1.939218E-06
vn -0.2053015 -0.9786987 -1.939221E-06
vn -0.8858247 -0.4640202 -8.367256E-06
vn -0.8858247 -0.4640202 -8.367257E-06
vn -0.8858247 -0.4640202 -8.367256E-06
vn -0.8858243 -0.4640208 0
vn -0.5955542 -0.8033152 0
vn -0.5955542 -0.803315 0
vn -0.5955542 -0.8033152 0
vn -0.5955542 -0.8033152 0
vn -0.9971356 -0.07563423 0
vn -0.9971356 -0.07563423 0
g Park_Corner_B_0
f 44/44/44 7/7/7 42/42/42
f 5/5/5 42/42/42 7/7/7
f 6/6/6 43/43/43 2/2/2
f 45/45/45 2/2/2 43/43/43
f 43/43/43 26/26/26 45/45/45
f 28/28/28 45/45/45 26/26/26
f 26/26/26 59/59/59 28/28/28
f 61/61/61 28/28/28 59/59/59
f 59/59/59 18/18/18 61/61/61
f 20/20/20 61/61/61 18/18/18
f 18/18/18 51/51/51 20/20/20
f 53/53/53 20/20/20 51/51/51
f 51/51/51 34/34/34 53/53/53
f 36/36/36 53/53/53 34/34/34
f 34/34/34 67/67/67 36/36/36
f 69/69/69 36/36/36 67/67/67
f 67/67/67 14/14/14 69/69/69
f 15/15/15 69/69/69 14/14/14
f 3/3/3 74/74/74 70/70/70
f 75/75/75 70/70/70 74/74/74
f 70/70/70 75/75/75 37/37/37
f 91/91/91 37/37/37 75/75/75
f 91/91/91 89/89/89 37/37/37
f 90/90/90 37/37/37 89/89/89
f 90/90/90 89/89/89 21/21/21
f 81/81/81 21/21/21 89/89/89
f 81/81/81 80/80/80 21/21/21
f 62/62/62 21/21/21 80/80/80
f 62/62/62 80/80/80 102/102/102
f 104/104/104 102/102/102 80/80/80
f 104/104/104 101/101/101 102/102/102
f 103/103/103 102/102/102 101/101/101
f 101/101/101 129/129/129 103/103/103
f 130/130/130 103/103/103 129/129/129
f 13/13/13 76/76/76 71/71/71
f 77/77/77 71/71/71 76/76/76
f 77/77/77 92/92/92 71/71/71
f 38/38/38 71/71/71 92/92/92
f 38/38/38 92/92/92 93/93/93
f 94/94/94 93/93/93 92/92/92
f 94/94/94 82/82/82 93/93/93
f 22/22/22 93/93/93 82/82/82
f 22/22/22 82/82/82 63/63/63
f 83/83/83 63/63/63 82/82/82
f 83/83/83 105/105/105 63/63/63
f 108/108/108 63/63/63 105/105/105
f 108/108/108 105/105/105 106/106/106
f 107/107/107 106/106/106 105/105/105
f 107/107/107 131/131/131 106/106/106
f 132/132/132 106/106/106 131/131/131
f 10/10/10 11/11/11 73/73/73
f 48/48/48 73/73/73 11/11/11
f 73/73/73 48/48/48 40/40/40
f 31/31/31 40/40/40 48/48/48
f 31/31/31 95/95/95 40/40/40
f 57/57/57 40/40/40 95/95/95
f 57/57/57 95/95/95 126/126/126
f 127/127/127 126/126/126 95/95/95
f 79/79/79 78/78/78 4/4/4
f 47/47/47 4/4/4 78/78/78
f 78/78/78 98/98/98 47/47/47
f 30/30/30 47/47/47 98/98/98
f 98/98/98 96/96/96 30/30/30
f 97/97/97 30/30/30 96/96/96
f 96/96/96 86/86/86 97/97/97
f 85/85/85 97/97/97 86/86/86
f 86/86/86 84/84/84 85/85/85
f 55/55/55 85/85/85 84/84/84
f 84/84/84 114/114/114 55/55/55
f 112/112/112 55/55/55 114/114/114
f 114/114/114 111/111/111 112/112/112
f 113/113/113 112/112/112 111/111/111
f 111/111/111 134/134/134 113/113/113
f 135/135/135 113/113/113 134/134/134
f 9/9/9 72/72/72 12/12/12
f 46/46/46 12/12/12 72/72/72
f 72/72/72 39/39/39 46/46/46
f 29/29/29 46/46/46 39/39/39
f 39/39/39 99/99/99 29/29/29
f 100/100/100 29/29/29 99/99/99
f 99/99/99 88/88/88 100/100/100
f 87/87/87 100/100/100 88/88/88
f 88/88/88 64/64/64 87/87/87
f 54/54/54 87/87/87 64/64/64
f 64/64/64 118/118/118 54/54/54
f 116/116/116 54/54/54 118/118/118
f 118/118/118 115/115/115 116/116/116
f 117/117/117 116/116/116 115/115/115
f 115/115/115 136/136/136 117/117/117
f 137/137/137 117/117/117 136/136/136
f 52/52/52 19/19/19 50/50/50
f 17/17/17 50/50/50 19/19/19
f 23/23/23 56/56/56 24/24/24
f 65/65/65 24/24/24 56/56/56
f 65/65/65 56/56/56 32/32/32
f 110/110/110 32/32/32 56/56/56
f 110/110/110 109/109/109 32/32/32
f 49/49/49 32/32/32 109/109/109
f 109/109/109 133/133/133 49/49/49
f 16/16/16 49/49/49 133/133/133
f 60/60/60 27/27/27 58/58/58
f 25/25/25 58/58/58 27/27/27
f 68/68/68 35/35/35 66/66/66
f 33/33/33 66/66/66 35/35/35
f 141/141/141 140/140/140 139/139/139
f 142/142/142 139/139/139 140/140/140
f 145/145/145 144/144/144 143/143/143
f 146/146/146 143/143/143 144/144/144
f 149/149/149 148/148/148 147/147/147
f 150/150/150 147/147/147 148/148/148
f 8/8/8 151/151/151 128/128/128
f 152/152/152 128/128/128 151/151/151
g Park_Corner_B_1
f 121/121/121 41/41/41 1/1/1
f 122/122/122 41/41/41 121/121/121
f 123/123/123 41/41/41 122/122/122
f 124/124/124 41/41/41 123/123/123
f 125/125/125 41/41/41 124/124/124
f 119/119/119 41/41/41 125/125/125
f 120/120/120 41/41/41 119/119/119
f 138/138/138 41/41/41 120/120/120
