g ParkLamp
v -0.2415702 -0.2415704 0
v 0.2415702 -0.2415704 0
v -0.2415702 0.2415704 0
v 0.2415702 0.2415704 0
v -0.2008182 -0.2008197 0.5411732
v 0.2008182 -0.2008197 0.5411732
v -0.2008182 0.2008185 0.5411732
v 0.2008182 0.2008185 0.5411732
v 0.1760619 -6.103515E-07 0.5411732
v 0.1244946 0.1244952 0.5411732
v 7.629394E-08 0.1760626 0.5411732
v -0.1244946 0.1244952 0.5411732
v -0.1760619 -6.103515E-07 0.5411732
v -0.1244946 -0.1244952 0.5411732
v 7.629394E-08 -0.1760626 0.5411732
v 0.1244946 -0.1244952 0.5411732
v 0.1760619 -6.103515E-07 0.7573459
v 0.1244946 0.1244952 0.7573459
v 7.629394E-08 0.1760626 0.7573459
v -0.1244946 0.1244952 0.7573459
v -0.1760619 -6.103515E-07 0.7573459
v -0.1244946 -0.1244952 0.7573459
v 7.629394E-08 -0.1760626 0.7573459
v 0.1244946 -0.1244952 0.7573459
v 0.112503 -6.103515E-07 0.8593759
v 0.07955162 0.07955261 0.8593759
v 7.629394E-08 0.1125031 0.8593759
v -0.07955162 0.07955261 0.8593759
v -0.112503 -6.103515E-07 0.8593759
v -0.07955162 -0.07955261 0.8593759
v 7.629394E-08 -0.1125031 0.8593759
v 0.07955162 -0.07955261 0.8593759
v 0.08213569 -6.103515E-07 0.8593757
v 0.04106789 0.0711322 0.8593757
v -0.04106789 0.0711322 0.8593757
v -0.08213569 -6.103515E-07 0.8593757
v -0.04106789 -0.0711322 0.8593757
v 0.04106789 -0.0711322 0.8593757
v 0.04515434 -6.103515E-07 2.50138
v 0.02257713 0.03910583 2.50138
v -0.02257713 0.03910583 2.50138
v -0.04515434 -6.103515E-07 2.50138
v -0.02257713 -0.03910583 2.50138
v 0.02257713 -0.03910583 2.50138
v 0.02257713 0.03910583 1.680378
v 0.04515434 -6.103515E-07 1.680378
v -0.02257713 0.03910583 1.680378
v -0.04515434 -6.103515E-07 1.680378
v -0.02257713 -0.03910583 1.680378
v 0.02257713 -0.03910583 1.680378
v -0.1433356 -0.1433356 2.623346
v 0.1433358 -0.1433356 2.623346
v -0.1433356 0.1433356 2.623346
v 0.1433358 0.1433356 2.623346
v -0.1807786 -0.1807782 3.053353
v 0.1807786 -0.1807782 3.053353
v -0.1807786 0.1807782 3.053353
v 0.1807786 0.1807782 3.053353
v -0.2122611 -0.2122601 3.053353
v 0.2122613 -0.2122601 3.053353
v -0.2122611 0.2122601 3.053353
v 0.2122613 0.2122601 3.053353
v -0.2122611 -0.2122601 3.076276
v 0.2122613 -0.2122601 3.076276
v -0.2122611 0.2122601 3.076276
v 0.2122613 0.2122601 3.076276
v -0.1017524 -0.1017535 3.221451
v 0.1017525 -0.1017535 3.221451
v -0.1017524 0.1017535 3.221451
v 0.1017525 0.1017535 3.221451
v -0.05940498 -0.05940613 3.221451
v 0.05940498 -0.05940613 3.221451
v -0.05940498 0.05940613 3.221451
v 0.05940498 0.05940613 3.221451
v -0.03861107 -0.03861023 3.295431
v 0.03861107 -0.03861023 3.295431
v -0.03861107 0.03861023 3.295431
v 0.03861107 0.03861023 3.295431
v -0.09362876 -6.103515E-07 2.628026
v -0.06620552 0.06620544 2.628026
v -0.06620552 0.06620544 2.513067
v -0.09362876 -6.103515E-07 2.513067
v 7.629394E-08 0.09362854 2.628026
v 7.629394E-08 0.09362854 2.513067
v 0.06620552 0.06620544 2.628026
v 0.06620552 0.06620544 2.513067
v 0.09362876 -6.103515E-07 2.628026
v 0.09362876 -6.103515E-07 2.513067
v 0.06620552 -0.06620544 2.628026
v 0.06620552 -0.06620544 2.513067
v 7.629394E-08 -0.09362854 2.628026
v 7.629394E-08 -0.09362854 2.513067
v -0.06620552 -0.06620544 2.628026
v -0.06620552 -0.06620544 2.513067
v -0.05982841 -6.103515E-07 2.458808
v -0.04230507 0.04230408 2.458808
v 7.629394E-08 0.05982849 2.458808
v 0.04230522 0.04230408 2.458808
v 0.05982856 -6.103515E-07 2.458808
v 0.04230522 -0.04230408 2.458808
v 7.629394E-08 -0.05982849 2.458808
v -0.04230507 -0.04230408 2.458808
v 0.2008182 -0.2008197 0.5411732
v -0.2008182 -0.2008197 0.5411732
v 0.2415702 -0.2415704 0
v 0.2008182 0.2008185 0.5411732
v 0.2008182 -0.2008197 0.5411732
v 0.2415702 0.2415704 0
v -0.2008182 0.2008185 0.5411732
v 0.2008182 0.2008185 0.5411732
v -0.2415702 0.2415704 0
v -0.2008182 -0.2008197 0.5411732
v -0.2415702 -0.2415704 0
v -0.2008182 0.2008185 0.5411732
v 7.629394E-08 0.1760626 0.5411732
v 7.629394E-08 0.1760626 0.7573459
v -0.1244946 0.1244952 0.5411732
v -0.1244946 0.1244952 0.7573459
v -0.1244946 -0.1244952 0.5411732
v -0.1244946 -0.1244952 0.7573459
v 7.629394E-08 -0.1760626 0.5411732
v 7.629394E-08 -0.1760626 0.7573459
v 0.1760619 -6.103515E-07 0.7573459
v 0.1760619 -6.103515E-07 0.5411732
v 0.07955162 0.07955261 0.8593759
v 0.112503 -6.103515E-07 0.8593759
v 0.1244946 0.1244952 0.7573459
v 7.629394E-08 0.1125031 0.8593759
v 0.07955162 0.07955261 0.8593759
v -0.07955162 0.07955261 0.8593759
v -0.1244946 0.1244952 0.7573459
v -0.112503 -6.103515E-07 0.8593759
v -0.1760619 -6.103515E-07 0.7573459
v -0.07955162 0.07955261 0.8593759
v -0.07955162 -0.07955261 0.8593759
v -0.112503 -6.103515E-07 0.8593759
v 7.629394E-08 -0.1125031 0.8593759
v -0.07955162 -0.07955261 0.8593759
v 0.07955162 -0.07955261 0.8593759
v 7.629394E-08 -0.1125031 0.8593759
v 0.112503 -6.103515E-07 0.8593759
v 0.02257713 0.03910583 1.680378
v 0.04106789 0.0711322 0.8593757
v -0.02257713 0.03910583 1.680378
v -0.04106789 0.0711322 0.8593757
v -0.04515434 -6.103515E-07 1.680378
v -0.08213569 -6.103515E-07 0.8593757
v -0.02257713 -0.03910583 1.680378
v -0.04106789 -0.0711322 0.8593757
v 0.08213569 -6.103515E-07 0.8593757
v 0.02257713 -0.03910583 1.680378
v 0.04515434 -6.103515E-07 1.680378
v 0.04106789 -0.0711322 0.8593757
v 0.02257713 0.03910583 2.50138
v -0.02257713 0.03910583 2.50138
v -0.04515434 -6.103515E-07 2.50138
v -0.02257713 -0.03910583 2.50138
v 0.04515434 -6.103515E-07 2.50138
v 0.02257713 -0.03910583 2.50138
v -0.1433356 -0.1433356 2.623346
v 0.1433358 -0.1433356 2.623346
v 0.1433358 -0.1433356 2.623346
v 0.1433358 0.1433356 2.623346
v 0.1807786 -0.1807782 3.053353
v 0.1433358 0.1433356 2.623346
v -0.1433356 0.1433356 2.623346
v 0.1807786 0.1807782 3.053353
v -0.1433356 0.1433356 2.623346
v -0.1807786 -0.1807782 3.053353
v -0.1433356 -0.1433356 2.623346
v -0.1807786 0.1807782 3.053353
v -0.2122611 -0.2122601 3.053353
v 0.2122613 -0.2122601 3.053353
v 0.2122613 -0.2122601 3.053353
v 0.2122613 0.2122601 3.053353
v 0.2122613 -0.2122601 3.076276
v 0.2122613 0.2122601 3.053353
v -0.2122611 0.2122601 3.053353
v 0.2122613 0.2122601 3.076276
v -0.2122611 0.2122601 3.053353
v -0.2122611 -0.2122601 3.076276
v -0.2122611 -0.2122601 3.053353
v -0.2122611 0.2122601 3.076276
v 0.1017525 -0.1017535 3.221451
v 0.1017525 0.1017535 3.221451
v -0.1017524 -0.1017535 3.221451
v -0.1017524 0.1017535 3.221451
v 0.05940498 -0.05940613 3.221451
v 0.03861107 -0.03861023 3.295431
v 0.05940498 0.05940613 3.221451
v 0.03861107 0.03861023 3.295431
v -0.05940498 0.05940613 3.221451
v -0.03861107 -0.03861023 3.295431
v -0.05940498 -0.05940613 3.221451
v -0.03861107 0.03861023 3.295431
v 0.03861107 0.03861023 3.295431
v -0.03861107 -0.03861023 3.295431
v -0.03861107 0.03861023 3.295431
v 0.03861107 -0.03861023 3.295431
v 0.1017525 0.1017535 3.221451
v -0.1017524 -0.1017535 3.221451
v -0.1017524 0.1017535 3.221451
v 0.1017525 -0.1017535 3.221451
v -0.06620552 0.06620544 2.628026
v -0.06620552 0.06620544 2.513067
v 0.06620552 0.06620544 2.628026
v 0.06620552 0.06620544 2.513067
v 0.09362876 -6.103515E-07 2.628026
v 0.09362876 -6.103515E-07 2.513067
v 7.629394E-08 -0.09362854 2.628026
v 7.629394E-08 -0.09362854 2.513067
v -0.06620552 -0.06620544 2.628026
v -0.09362876 -6.103515E-07 2.513067
v -0.04230507 0.04230408 2.458808
v -0.05982841 -6.103515E-07 2.458808
v 7.629394E-08 0.05982849 2.458808
v -0.04230507 0.04230408 2.458808
v 0.04230522 0.04230408 2.458808
v 0.05982856 -6.103515E-07 2.458808
v 0.04230522 0.04230408 2.458808
v 0.04230522 -0.04230408 2.458808
v 0.05982856 -6.103515E-07 2.458808
v 0.06620552 -0.06620544 2.513067
v 7.629394E-08 -0.05982849 2.458808
v 0.04230522 -0.04230408 2.458808
v -0.04230507 -0.04230408 2.458808
v -0.05982841 -6.103515E-07 2.458808
v -0.2122611 -0.2122601 3.076276
v 0.2122613 -0.2122601 3.076276
v 0.2122613 -0.2122601 3.076276
v 0.2122613 0.2122601 3.076276
v 0.2122613 0.2122601 3.076276
v -0.2122611 0.2122601 3.076276
v -0.2122611 0.2122601 3.076276
v -0.2122611 -0.2122601 3.076276
vt 0.0497404 0.2655454
vt 0.08229043 0.2655454
vt 0.0497404 0.3657305
vt 0.116108 0.331913
vt 0.05248597 0.3021085
vt 0.07954486 0.3021085
vt 0.05248597 0.3291674
vt 0.07954492 0.3291674
vt 0.5769778 0.7506315
vt 0.592499 0.7506315
vt 0.6073321 0.7506315
vt 0.6247764 0.7506315
vt 0.5141266 0.7506315
vt 0.5297343 0.7506315
vt 0.5454882 0.7506315
vt 0.5612646 0.7506315
vt 0.5769778 0.7716728
vt 0.592499 0.7716728
vt 0.6073321 0.7716728
vt 0.6247764 0.7716728
vt 0.5141266 0.7716728
vt 0.5297343 0.7716728
vt 0.5454882 0.7716728
vt 0.5612646 0.7716728
vt 0.5331034 0.8103038
vt 0.5294715 0.8190719
vt 0.5207034 0.8227038
vt 0.5119354 0.8190719
vt 0.5083035 0.8103038
vt 0.5119354 0.8015357
vt 0.5207034 0.7979038
vt 0.5294715 0.8015357
vt 0.5919548 0.7574551
vt 0.5974377 0.7576494
vt 0.6029115 0.7581041
vt 0.5755524 0.758004
vt 0.5810176 0.7576302
vt 0.5864816 0.7574526
vt 0.5907217 0.8674685
vt 0.5937418 0.8675193
vt 0.5967597 0.8675563
vt 0.5816414 0.8676438
vt 0.5846671 0.8675337
vt 0.5876958 0.8674702
vt 0.5937524 0.8125505
vt 0.5907248 0.8124828
vt 0.5967724 0.8126861
vt 0.5816376 0.8126832
vt 0.5846586 0.8125495
vt 0.5876912 0.8124826
vt 0.385824 0.8520703
vt 0.4217635 0.8520703
vt 0.385824 0.8161308
vt 0.4217635 0.8161308
vt 0.6693769 0.1817041
vt 0.6897326 0.1818203
vt 0.6897326 0.1818203
vt 0.6897326 0.1818203
vt 0.387786 0.8439151
vt 0.4298753 0.8439151
vt 0.387786 0.8018258
vt 0.4298753 0.8018258
vt 0.3827332 0.8669053
vt 0.3827331 0.7834702
vt 0.3827333 0.7834702
vt 0.3827331 0.7834702
vt 0.409052 0.8451862
vt 0.409052 0.8051893
vt 0.409052 0.8051893
vt 0.409052 0.8051893
vt 0.3988055 0.8214931
vt 0.4173135 0.8214933
vt 0.398805 0.8574653
vt 0.4260457 0.8487332
vt 0.4020446 0.8334643
vt 0.4140742 0.8334643
vt 0.4020445 0.845494
vt 0.4140743 0.845494
vt 0.5769778 0.7506315
vt 0.592499 0.7506315
vt 0.592499 0.7716728
vt 0.5769778 0.7716728
vt 0.6073321 0.7506315
vt 0.6073321 0.7716728
vt 0.6247764 0.7506315
vt 0.6247764 0.7716728
vt 0.5141266 0.7506315
vt 0.5141266 0.7716728
vt 0.5297343 0.7506315
vt 0.5297343 0.7716728
vt 0.5454882 0.7506315
vt 0.5454882 0.7716728
vt 0.5612646 0.7506315
vt 0.5612646 0.7716728
vt 0.5331034 0.8103038
vt 0.5294715 0.8190719
vt 0.5207034 0.8227038
vt 0.5119354 0.8190719
vt 0.5083035 0.8103038
vt 0.5119354 0.8015357
vt 0.5207034 0.7979038
vt 0.5294715 0.8015357
vt 0.07954486 0.3021085
vt 0.05248597 0.3021085
vt 0.116108 0.2993629
vt 0.07954492 0.3291674
vt 0.07954486 0.3021085
vt 0.08229043 0.3657305
vt 0.05248597 0.3291674
vt 0.07954492 0.3291674
vt 0.01592287 0.331913
vt 0.05248597 0.3021085
vt 0.01592287 0.299363
vt 0.05248597 0.3291674
vt 0.6073321 0.7506315
vt 0.6073321 0.7716728
vt 0.5002022 0.7506315
vt 0.5002022 0.7716728
vt 0.5297343 0.7506315
vt 0.5297343 0.7716728
vt 0.5454882 0.7506315
vt 0.5454882 0.7716728
vt 0.5769778 0.7716728
vt 0.5769778 0.7506315
vt 0.592499 0.7856505
vt 0.5769778 0.7856505
vt 0.592499 0.7716728
vt 0.6073321 0.7856505
vt 0.592499 0.7856505
vt 0.6247764 0.7856505
vt 0.5002022 0.7716728
vt 0.5141266 0.7856505
vt 0.5141266 0.7716728
vt 0.5002022 0.7856505
vt 0.5297343 0.7856505
vt 0.5141266 0.7856505
vt 0.5454882 0.7856505
vt 0.5297343 0.7856505
vt 0.5612646 0.7856505
vt 0.5454882 0.7856505
vt 0.5769778 0.7856505
vt 0.5937524 0.8125505
vt 0.5974377 0.7576494
vt 0.5786275 0.8128839
vt 0.5701035 0.7586704
vt 0.5816376 0.8126832
vt 0.5755524 0.758004
vt 0.5846586 0.8125495
vt 0.5810176 0.7576302
vt 0.5919548 0.7574551
vt 0.5876912 0.8124826
vt 0.5907248 0.8124828
vt 0.5864816 0.7574526
vt 0.5937418 0.8675193
vt 0.5786204 0.8677074
vt 0.5816414 0.8676438
vt 0.5846671 0.8675337
vt 0.5907217 0.8674685
vt 0.5876958 0.8674702
vt 0.67142 0.1561234
vt 0.6880104 0.1558692
vt 0.67142 0.1561234
vt 0.6880104 0.1558693
vt 0.6693769 0.1817041
vt 0.67142 0.1561234
vt 0.6880104 0.1558692
vt 0.6693769 0.1817041
vt 0.67142 0.1561234
vt 0.6897326 0.1818204
vt 0.6880104 0.1558693
vt 0.6693769 0.1817041
vt 0.3754714 0.8669053
vt 0.3754714 0.7834702
vt 0.3754714 0.8669053
vt 0.3754714 0.7834702
vt 0.3827332 0.8669053
vt 0.3754714 0.8669053
vt 0.3754714 0.7834702
vt 0.3827332 0.8669053
vt 0.3754714 0.8669053
vt 0.3827331 0.7834702
vt 0.3754714 0.7834702
vt 0.3827332 0.8669053
vt 0.409052 0.8451862
vt 0.409052 0.8451862
vt 0.409052 0.8051893
vt 0.409052 0.8451862
vt 0.4260455 0.8302248
vt 0.4140742 0.8334643
vt 0.4173136 0.8574653
vt 0.4140743 0.845494
vt 0.3900732 0.848733
vt 0.4020446 0.8334643
vt 0.3900734 0.8302248
vt 0.4020445 0.845494
vt 0.4140743 0.845494
vt 0.4020446 0.8334643
vt 0.4020445 0.845494
vt 0.4140742 0.8334643
vt 0.4298753 0.8439151
vt 0.387786 0.8018259
vt 0.387786 0.8439151
vt 0.4298753 0.8018259
vt 0.592499 0.7506315
vt 0.592499 0.7716728
vt 0.5002022 0.7506315
vt 0.5002022 0.7716728
vt 0.5141266 0.7506315
vt 0.5141266 0.7716728
vt 0.5454882 0.7506315
vt 0.5454882 0.7716728
vt 0.5612646 0.7506315
vt 0.5769778 0.7716728
vt 0.592499 0.7856505
vt 0.5769778 0.7856505
vt 0.6073321 0.7856505
vt 0.592499 0.7856505
vt 0.6247764 0.7856505
vt 0.5141266 0.7856505
vt 0.5002022 0.7856505
vt 0.5297343 0.7856505
vt 0.5141266 0.7856505
vt 0.5297343 0.7716728
vt 0.5454882 0.7856505
vt 0.5297343 0.7856505
vt 0.5612646 0.7856505
vt 0.5769778 0.7856505
vt 0.3827332 0.8669053
vt 0.3827331 0.7834702
vt 0.3827332 0.8669053
vt 0.3827331 0.7834702
vt 0.3827332 0.8669053
vt 0.3827333 0.7834702
vt 0.3827332 0.8669053
vt 0.3827331 0.7834702
vn 0 -0.9971769 0.07508814
vn 0 -0.9971769 0.07508814
vn 0 0.9971768 0.07509037
vn 0.9971768 0 0.07509038
vn 0 0 1
vn 0 0 1
vn 0 0 1
vn 0 0 1
vn 1 -1.745555E-06 0
vn 0.7071081 0.7071053 0
vn 2.310295E-07 1 0
vn -0.707108 0.7071055 0
vn -1 -1.719885E-06 0
vn -0.7071068 -0.7071068 0
vn 2.207615E-07 -1 0
vn 0.7071069 -0.7071066 0
vn 0.9659508 -1.848784E-06 0.2587259
vn 0.6830312 0.6830295 0.2587261
vn 9.046052E-07 0.9659505 0.2587271
vn -0.6830319 0.683029 0.2587256
vn -0.9659507 -1.4615E-06 0.258726
vn -0.6830299 -0.6830307 0.2587261
vn -4.720908E-07 -0.9659504 0.2587271
vn 0.6830308 -0.68303 0.2587255
vn 0.5671912 -2.141294E-06 0.8235862
vn 0.4010654 0.401068 0.8235843
vn 2.141288E-06 0.5671892 0.8235875
vn -0.4010667 0.4010658 0.8235846
vn -0.5671915 -1.046855E-06 0.8235859
vn -0.401064 -0.4010689 0.8235844
vn -1.748719E-06 -0.5671892 0.8235875
vn 0.4010652 -0.4010666 0.823585
vn 0.998987 -3.888593E-06 0.04499842
vn 0.4994971 0.8651461 0.04499842
vn -0.4994969 0.8651462 0.04499813
vn -0.998987 -3.777492E-06 0.04499824
vn -0.4994937 -0.8651481 0.04499824
vn 0.4994938 -0.8651481 0.04499813
vn 1 -7.033741E-06 0
vn 0.5000075 0.866021 0
vn -0.5000077 0.866021 0
vn -1 -6.769481E-06 0
vn -0.5000019 -0.8660244 0
vn 0.5000019 -0.8660243 0
vn 0.4998792 0.8657984 0.02266766
vn 0.999743 -6.591658E-06 0.02266759
vn -0.4998789 0.8657987 0.02266792
vn -0.999743 -7.015874E-06 0.02266775
vn -0.4998733 -0.8658019 0.02266765
vn 0.4998732 -0.8658019 0.02266775
vn 0 0 -1
vn 0 0 -1
vn 0 0 -1
vn 0 0 -1
vn 0 -0.9962304 -0.08674616
vn 0 -0.9962304 -0.08674617
vn 0 0.9962304 -0.08674616
vn 0.9962304 0 -0.08674652
vn 0 0 -1
vn 0 0 -1
vn 0 0 -1
vn 0 0 -1
vn 0 -1 0
vn 0 -1 0
vn 0 1 0
vn 1 0 0
vn 0 -0.7957052 0.6056841
vn 0 -0.7957052 0.6056842
vn 0 0.7957052 0.6056842
vn 0.7956995 0 0.6056916
vn 0 -0.9626883 0.2706129
vn 0 -0.9626883 0.2706129
vn 0 0.9626883 0.2706129
vn 0.9626949 0 0.270589
vn 0 -0.9626883 0.2706129
vn 0 -0.9626883 0.2706129
vn 0 0.9626883 0.2706129
vn 0.9626949 0 0.270589
vn -1 -3.244681E-06 0
vn -0.7071069 0.7071066 0
vn -0.6830306 0.6830291 -0.2587284
vn -0.9659504 -2.623356E-06 -0.2587273
vn 4.466567E-07 1 0
vn 1.902496E-06 0.9659505 -0.258727
vn 0.7071072 0.7071063 0
vn 0.6830291 0.6830303 -0.2587293
vn 1 -3.275485E-06 0
vn 0.9659505 -3.669305E-06 -0.2587267
vn 0.707105 -0.7071086 0
vn 0.6830286 -0.6830313 -0.2587281
vn 4.055848E-07 -1 0
vn -1.195774E-06 -0.9659505 -0.2587271
vn -0.7071046 -0.7071089 0
vn -0.6830266 -0.6830327 -0.2587297
vn -0.5671917 -1.498909E-06 -0.8235857
vn -0.401067 0.4010547 -0.8235899
vn 4.42537E-06 0.5671945 -0.8235839
vn 0.401065 0.40106 -0.8235884
vn 0.567193 -4.496734E-06 -0.823585
vn 0.4010654 -0.4010565 -0.8235898
vn -4.258824E-06 -0.5671946 -0.8235838
vn -0.4010612 -0.4010615 -0.8235894
vn 0 -0.9971769 0.07508813
vn 0 -0.9971769 0.07508813
vn 0.9971768 0 0.07509038
vn 0.9971768 0 0.07509038
vn 0.9971768 0 0.07509037
vn 0 0.9971768 0.07509037
vn 0 0.9971768 0.07509038
vn 0 0.9971768 0.07509038
vn -0.9971768 0 0.07509037
vn -0.9971768 0 0.07509038
vn -0.9971768 0 0.07509038
vn -0.9971768 0 0.07509038
vn 2.310295E-07 1 0
vn 9.046052E-07 0.9659505 0.2587271
vn -0.707108 0.7071055 0
vn -0.6830319 0.683029 0.2587256
vn -0.7071068 -0.7071068 0
vn -0.6830299 -0.6830307 0.2587261
vn 2.207615E-07 -1 0
vn -4.720908E-07 -0.9659504 0.2587271
vn 0.9659508 -1.848784E-06 0.2587259
vn 1 -1.745555E-06 0
vn 0.4010654 0.401068 0.8235843
vn 0.5671912 -2.141294E-06 0.8235862
vn 0.6830312 0.6830295 0.2587261
vn 2.141288E-06 0.5671892 0.8235875
vn 0.4010654 0.401068 0.8235843
vn -0.4010667 0.4010658 0.8235846
vn -0.6830319 0.683029 0.2587256
vn -0.5671915 -1.046855E-06 0.8235859
vn -0.9659507 -1.4615E-06 0.258726
vn -0.4010667 0.4010658 0.8235846
vn -0.401064 -0.4010689 0.8235844
vn -0.5671915 -1.046855E-06 0.8235859
vn -1.748719E-06 -0.5671892 0.8235875
vn -0.401064 -0.4010689 0.8235844
vn 0.4010652 -0.4010666 0.823585
vn -1.748719E-06 -0.5671892 0.8235875
vn 0.5671912 -2.141294E-06 0.8235862
vn 0.4998792 0.8657984 0.02266766
vn 0.4994971 0.8651461 0.04499842
vn -0.4998789 0.8657987 0.02266792
vn -0.4994969 0.8651462 0.04499813
vn -0.999743 -7.015874E-06 0.02266775
vn -0.998987 -3.777492E-06 0.04499824
vn -0.4998733 -0.8658019 0.02266765
vn -0.4994937 -0.8651481 0.04499824
vn 0.998987 -3.888593E-06 0.04499842
vn 0.4998732 -0.8658019 0.02266775
vn 0.999743 -6.591658E-06 0.02266759
vn 0.4994938 -0.8651481 0.04499813
vn 0.5000075 0.866021 0
vn -0.5000077 0.866021 0
vn -1 -6.769481E-06 0
vn -0.5000019 -0.8660244 0
vn 1 -7.033741E-06 0
vn 0.5000019 -0.8660243 0
vn 0 -0.9962304 -0.08674616
vn 0 -0.9962304 -0.08674617
vn 0.9962304 0 -0.08674652
vn 0.9962304 0 -0.08674652
vn 0.9962304 0 -0.08674652
vn 0 0.9962304 -0.08674616
vn 0 0.9962304 -0.08674616
vn 0 0.9962304 -0.08674617
vn -0.9962304 0 -0.08674687
vn -0.9962304 0 -0.08674688
vn -0.9962304 0 -0.08674687
vn -0.9962304 0 -0.08674687
vn 0 -1 0
vn 0 -1 0
vn 1 0 0
vn 1 0 0
vn 1 0 0
vn 0 1 0
vn 0 1 0
vn 0 1 0
vn -1 0 0
vn -1 0 0
vn -1 0 0
vn -1 0 0
vn 0.7956995 0 0.6056916
vn 0 0.7957052 0.6056841
vn -0.7956995 0 0.6056916
vn -0.7956995 0 0.6056916
vn 0.9626949 0 0.270589
vn 0.9626949 0 0.2705889
vn 0 0.9626883 0.2706129
vn 0 0.9626883 0.2706129
vn -0.9626949 0 0.270589
vn -0.9626949 0 0.270589
vn -0.9626949 0 0.270589
vn -0.9626949 0 0.2705889
vn 0 0 1
vn 0 0 1
vn 0 0 1
vn 0 0 1
vn 0 0 1
vn 0 0 1
vn 0 0 1
vn 0 0 1
vn -0.7071069 0.7071066 0
vn -0.6830306 0.6830291 -0.2587284
vn 0.7071072 0.7071063 0
vn 0.6830291 0.6830303 -0.2587293
vn 1 -3.275485E-06 0
vn 0.9659505 -3.669305E-06 -0.2587267
vn 4.055848E-07 -1 0
vn -1.195774E-06 -0.9659505 -0.2587271
vn -0.7071046 -0.7071089 0
vn -0.9659504 -2.623356E-06 -0.2587273
vn -0.401067 0.4010547 -0.8235899
vn -0.5671917 -1.498909E-06 -0.8235857
vn 4.42537E-06 0.5671945 -0.8235839
vn -0.401067 0.4010547 -0.8235899
vn 0.401065 0.40106 -0.8235884
vn 0.567193 -4.496734E-06 -0.823585
vn 0.401065 0.40106 -0.8235884
vn 0.4010654 -0.4010565 -0.8235898
vn 0.567193 -4.496734E-06 -0.823585
vn 0.6830286 -0.6830313 -0.2587281
vn -4.258824E-06 -0.5671946 -0.8235838
vn 0.4010654 -0.4010565 -0.8235898
vn -0.4010612 -0.4010615 -0.8235894
vn -0.5671917 -1.498909E-06 -0.8235857
vn 0 -0.7957052 0.6056842
vn 0 -0.7957052 0.6056842
vn 0.7956995 0 0.6056916
vn 0.7956995 0 0.6056916
vn 0 0.7957052 0.6056842
vn 0 0.7957052 0.6056842
vn -0.7956995 0 0.6056916
vn -0.7956995 0 0.6056916
g ParkLamp_0
f 6/6/6 8/8/8 5/5/5
f 7/7/7 5/5/5 8/8/8
f 2/2/2 103/103/103 1/1/1
f 104/104/104 1/1/1 103/103/103
f 4/4/4 106/106/106 105/105/105
f 107/107/107 105/105/105 106/106/106
f 3/3/3 109/109/109 108/108/108
f 110/110/110 108/108/108 109/109/109
f 113/113/113 112/112/112 111/111/111
f 114/114/114 111/111/111 112/112/112
f 11/11/11 19/19/19 10/10/10
f 18/18/18 10/10/10 19/19/19
f 10/10/10 18/18/18 9/9/9
f 17/17/17 9/9/9 18/18/18
f 18/18/18 125/125/125 17/17/17
f 126/126/126 17/17/17 125/125/125
f 12/12/12 20/20/20 115/115/115
f 116/116/116 115/115/115 20/20/20
f 20/20/20 130/130/130 116/116/116
f 128/128/128 116/116/116 130/130/130
f 116/116/116 128/128/128 127/127/127
f 129/129/129 127/127/127 128/128/128
f 118/118/118 117/117/117 21/21/21
f 13/13/13 21/21/21 117/117/117
f 21/21/21 13/13/13 22/22/22
f 14/14/14 22/22/22 13/13/13
f 22/22/22 135/135/135 21/21/21
f 136/136/136 21/21/21 135/135/135
f 15/15/15 23/23/23 119/119/119
f 120/120/120 119/119/119 23/23/23
f 23/23/23 137/137/137 120/120/120
f 138/138/138 120/120/120 137/137/137
f 124/124/124 123/123/123 16/16/16
f 24/24/24 16/16/16 123/123/123
f 123/123/123 141/141/141 24/24/24
f 16/16/16 24/24/24 121/121/121
f 139/139/139 24/24/24 141/141/141
f 122/122/122 121/121/121 24/24/24
f 24/24/24 139/139/139 122/122/122
f 140/140/140 122/122/122 139/139/139
f 27/27/27 28/28/28 26/26/26
f 28/28/28 32/32/32 26/26/26
f 26/26/26 32/32/32 25/25/25
f 30/30/30 32/32/32 28/28/28
f 29/29/29 30/30/30 28/28/28
f 31/31/31 32/32/32 30/30/30
f 133/133/133 132/132/132 131/131/131
f 134/134/134 131/131/131 132/132/132
f 33/33/33 34/34/34 46/46/46
f 45/45/45 46/46/46 34/34/34
f 45/45/45 40/40/40 46/46/46
f 39/39/39 46/46/46 40/40/40
f 143/143/143 35/35/35 142/142/142
f 47/47/47 142/142/142 35/35/35
f 47/47/47 41/41/41 142/142/142
f 154/154/154 142/142/142 41/41/41
f 145/145/145 36/36/36 144/144/144
f 48/48/48 144/144/144 36/36/36
f 48/48/48 42/42/42 144/144/144
f 155/155/155 144/144/144 42/42/42
f 147/147/147 37/37/37 146/146/146
f 49/49/49 146/146/146 37/37/37
f 49/49/49 43/43/43 146/146/146
f 156/156/156 146/146/146 43/43/43
f 149/149/149 38/38/38 148/148/148
f 50/50/50 148/148/148 38/38/38
f 50/50/50 44/44/44 148/148/148
f 157/157/157 148/148/148 44/44/44
f 153/153/153 150/150/150 151/151/151
f 152/152/152 151/151/151 150/150/150
f 152/152/152 158/158/158 151/151/151
f 159/159/159 151/151/151 158/158/158
f 53/53/53 54/54/54 51/51/51
f 52/52/52 51/51/51 54/54/54
f 161/161/161 56/56/56 160/160/160
f 55/55/55 160/160/160 56/56/56
f 163/163/163 58/58/58 162/162/162
f 164/164/164 162/162/162 58/58/58
f 166/166/166 57/57/57 165/165/165
f 167/167/167 165/165/165 57/57/57
f 170/170/170 169/169/169 168/168/168
f 171/171/171 168/168/168 169/169/169
f 61/61/61 62/62/62 59/59/59
f 60/60/60 59/59/59 62/62/62
f 173/173/173 64/64/64 172/172/172
f 63/63/63 172/172/172 64/64/64
f 175/175/175 66/66/66 174/174/174
f 176/176/176 174/174/174 66/66/66
f 178/178/178 65/65/65 177/177/177
f 179/179/179 177/177/177 65/65/65
f 182/182/182 181/181/181 180/180/180
f 183/183/183 180/180/180 181/181/181
f 229/229/229 68/68/68 228/228/228
f 67/67/67 228/228/228 68/68/68
f 231/231/231 70/70/70 230/230/230
f 184/184/184 230/230/230 70/70/70
f 233/233/233 69/69/69 232/232/232
f 185/185/185 232/232/232 69/69/69
f 235/235/235 186/186/186 234/234/234
f 187/187/187 234/234/234 186/186/186
f 72/72/72 76/76/76 71/71/71
f 75/75/75 71/71/71 76/76/76
f 74/74/74 78/78/78 188/188/188
f 189/189/189 188/188/188 78/78/78
f 73/73/73 77/77/77 190/190/190
f 191/191/191 190/190/190 77/77/77
f 194/194/194 193/193/193 192/192/192
f 195/195/195 192/192/192 193/193/193
f 198/198/198 197/197/197 196/196/196
f 199/199/199 196/196/196 197/197/197
f 202/202/202 201/201/201 200/200/200
f 203/203/203 200/200/200 201/201/201
f 80/80/80 81/81/81 79/79/79
f 82/82/82 79/79/79 81/81/81
f 79/79/79 82/82/82 212/212/212
f 81/81/81 214/214/214 82/82/82
f 215/215/215 82/82/82 214/214/214
f 85/85/85 86/86/86 83/83/83
f 84/84/84 83/83/83 86/86/86
f 86/86/86 218/218/218 84/84/84
f 83/83/83 84/84/84 204/204/204
f 216/216/216 84/84/84 218/218/218
f 205/205/205 204/204/204 84/84/84
f 84/84/84 216/216/216 205/205/205
f 217/217/217 205/205/205 216/216/216
f 87/87/87 88/88/88 206/206/206
f 207/207/207 206/206/206 88/88/88
f 88/88/88 219/219/219 207/207/207
f 220/220/220 207/207/207 219/219/219
f 91/91/91 92/92/92 89/89/89
f 90/90/90 89/89/89 92/92/92
f 89/89/89 90/90/90 208/208/208
f 209/209/209 208/208/208 90/90/90
f 90/90/90 221/221/221 209/209/209
f 222/222/222 209/209/209 221/221/221
f 97/97/97 98/98/98 96/96/96
f 98/98/98 102/102/102 96/96/96
f 96/96/96 102/102/102 95/95/95
f 100/100/100 102/102/102 98/98/98
f 99/99/99 100/100/100 98/98/98
f 101/101/101 102/102/102 100/100/100
f 225/225/225 223/223/223 224/224/224
f 211/211/211 224/224/224 223/223/223
f 224/224/224 211/211/211 226/226/226
f 94/94/94 226/226/226 211/211/211
f 211/211/211 210/210/210 94/94/94
f 226/226/226 94/94/94 227/227/227
f 93/93/93 94/94/94 210/210/210
f 213/213/213 227/227/227 94/94/94
f 94/94/94 93/93/93 213/213/213
