g Park_Sidewalk_Siple
v 7.499961 -1.134297 5.264282E-06
v 7.49996 1.13428 0.529027
v 7.49996 0.8928449 0.529027
v 7.499961 -0.8928626 0.529027
v -7.499979 -1.134298 5.264282E-06
v 7.49996 1.13428 0
v -7.499979 -1.134298 0.529027
v 7.499961 -1.134297 0.529027
v -7.499979 0.8928442 0.4385298
v 7.499961 -0.8928626 0.4385298
v 7.49996 0.8928449 0.4385298
v -7.499979 0.8928442 0.529027
v -7.499979 -0.8928632 0.529027
v -7.499979 1.13428 0
v -7.499979 1.13428 0.529027
v -7.499979 -0.8928632 0.4385298
v -7.499979 1.13428 0.529027
v 7.49996 1.13428 0.529027
v 7.499961 -1.134297 0.529027
v -7.499979 -1.134298 0.529027
v 7.499961 -0.8928626 0.4385298
v 7.499961 -0.8928626 0.529027
v -7.499979 -0.8928632 0.529027
v -7.499979 -0.8928632 0.4385298
v -7.499979 0.8928442 0.4385298
v -7.499979 0.8928442 0.529027
v 7.49996 0.8928449 0.529027
v 7.49996 0.8928449 0.4385298
vt 0.1301096 0.4993165
vt 0.1276421 0.4179578
vt 0.1263193 0.4179577
vt 0.1258885 0.4993163
vt 0.1301096 0.4179583
vt 0.130541 0.4179578
vt 0.1272112 0.4179583
vt 0.1272112 0.4993165
vt 0.1442154 0.3758684
vt 0.1589331 0.4994959
vt 0.1442154 0.4994959
vt 0.1263194 0.4993159
vt 0.1258885 0.4179581
vt 0.130541 0.499316
vt 0.1276421 0.499316
vt 0.1589331 0.3758684
vt 0.1276421 0.499316
vt 0.1276421 0.4179578
vt 0.1272112 0.4993165
vt 0.1272112 0.4179583
vt 0.1253926 0.4993163
vt 0.1258885 0.4993163
vt 0.1258885 0.4179581
vt 0.1253927 0.4179581
vt 0.1258236 0.4993159
vt 0.1263194 0.4993159
vt 0.1263193 0.4179577
vt 0.1258235 0.4179577
vn 0 -1 -5.768681E-07
vn 0 1 0
vn 0 0 1
vn 0 0 1
vn 0 -1 -5.768681E-07
vn 0 1 0
vn 0 -1 -5.768681E-07
vn 0 -1 -5.768681E-07
vn 0 0 1
vn 0 0 1
vn 0 0 1
vn 0 0 1
vn 0 0 1
vn 0 1 0
vn 0 1 0
vn 0 0 1
vn 0 0 1
vn 0 0 1
vn 0 0 1
vn 0 0 1
vn 0 1 0
vn 0 1 0
vn 0 1 0
vn 0 1 0
vn 0 -1 0
vn 0 -1 0
vn 0 -1 0
vn 0 -1 0
g Park_Sidewalk_Siple_0
f 8/8/8 7/7/7 5/5/5
f 1/1/1 8/8/8 5/5/5
f 15/15/15 2/2/2 6/6/6
f 14/14/14 15/15/15 6/6/6
f 17/17/17 12/12/12 3/3/3
f 18/18/18 17/17/17 3/3/3
f 19/19/19 4/4/4 13/13/13
f 20/20/20 19/19/19 13/13/13
f 9/9/9 16/16/16 10/10/10
f 11/11/11 9/9/9 10/10/10
f 23/23/23 22/22/22 21/21/21
f 24/24/24 23/23/23 21/21/21
f 27/27/27 26/26/26 25/25/25
f 28/28/28 27/27/27 25/25/25
