g Park_Sidewalk_Corner_A
v -2.158929 2.158928 -0.09049119
v -0.1096594 -2.15894 -0.0904866
v -2.158928 -0.1096582 -0.09049087
v -0.7098755 -0.7098828 -0.09049022
v -1.374707 -0.2656558 -0.09049015
v -0.265647 -1.374716 -0.09049038
v 1.917483 -2.158935 0.3480346
v 1.917483 -2.158935 0.4385317
v 0.1317749 -2.158934 0.4385316
v 2.158918 -2.158935 -0.09048453
v 2.158918 -2.158935 0.4385317
v 0.1317749 -2.158934 0.3480345
v -2.158931 -0.1096497 0.438525
v -0.1096606 -2.158934 0.4385316
v -2.158931 0.1317853 0.438525
v -2.158929 1.917493 0.438525
v -2.158929 1.917493 0.3480279
v -2.158929 2.158928 0.438525
v -2.158931 0.1317853 0.3480279
v 0.8942529 0.8942553 -0.09048474
v 0.8942529 0.8942559 0.4385207
v -0.7098755 -0.70987 0.4385207
v -0.5391552 -0.5391492 0.4385207
v 0.7235327 0.7235351 0.4385207
v -0.5391552 -0.5391492 0.3480236
v 0.7235327 0.7235351 0.3480236
v 1.830245 -0.5065573 -0.09048482
v 1.830245 -0.5065573 0.4385206
v -1.374707 -0.2656433 0.4385209
v -0.04259033 -1.28231 0.4385206
v -0.5989514 1.607192 0.4385208
v -1.282314 -0.04258606 0.3480237
v 1.607188 -0.5989502 0.3480235
v -0.5065564 1.830249 -0.09048466
v -0.5065576 1.830249 0.4385208
v -0.265647 -1.374703 0.4385206
v -1.282314 -0.04258606 0.4385209
v 1.607188 -0.5989502 0.4385206
v -0.04259033 -1.28231 0.3480235
v -0.5989514 1.607192 0.3480237
v -0.1096606 -2.158934 0.4385316
v -0.265647 -1.374703 0.4385206
v -2.158929 2.158928 0.438525
v -0.5065576 1.830249 0.4385208
v 1.917483 -2.158935 0.3480346
v 1.607188 -0.5989502 0.3480235
v -0.7098755 -0.70987 0.4385207
v -1.374707 -0.2656433 0.4385209
v -1.282314 -0.04258606 0.4385209
v 0.8942529 0.8942559 0.4385207
v 1.830245 -0.5065573 0.4385206
v 1.607188 -0.5989502 0.4385206
v -1.282314 -0.04258606 0.3480237
v 0.7235327 0.7235351 0.4385207
v 0.7235327 0.7235351 0.3480236
v -0.5989514 1.607192 0.3480237
v -0.5989514 1.607192 0.4385208
v -0.5391552 -0.5391492 0.4385207
v -0.5391552 -0.5391492 0.3480236
v -0.04259033 -1.28231 0.3480235
v -0.04259033 -1.28231 0.4385206
v -2.158931 -0.1096497 0.438525
v -2.158931 0.1317853 0.438525
v 2.158918 -2.158935 0.4385317
v 1.917483 -2.158935 0.4385317
v -2.158931 0.1317853 0.3480279
v -2.158929 1.917493 0.3480279
v -2.158929 1.917493 0.438525
v 0.1317749 -2.158934 0.3480345
v 0.1317749 -2.158934 0.4385316
v -0.5065576 1.830249 0.4385208
v -0.5065564 1.830249 -0.09048466
v 0.8942529 0.8942553 -0.09048474
v 0.8942529 0.8942559 0.4385207
v 1.830245 -0.5065573 0.4385206
v 1.830245 -0.5065573 -0.09048482
vt 0.1307071 0.4967709
vt 0.1307087 0.4792346
vt 0.1307643 0.4984365
vt 0.1307299 0.4888239
vt 0.1307313 0.4937207
vt 0.1307573 0.4839401
vt 0.1783232 0.4521364
vt 0.1263704 0.4583924
vt 0.1262141 0.4786887
vt 0.1307112 0.4578027
vt 0.1276597 0.4579209
vt 0.1783231 0.4377834
vt 0.1277041 0.498382
vt 0.1277044 0.4792638
vt 0.1262138 0.4989571
vt 0.1263096 0.4957715
vt 0.1455565 0.4193696
vt 0.1276713 0.4962808
vt 0.1257036 0.4990923
vt 0.1302903 0.4770422
vt 0.1277584 0.4770723
vt 0.1276421 0.4888228
vt 0.1262324 0.4888228
vt 0.1265464 0.4770842
vt 0.1653031 0.4323895
vt 0.1551541 0.4425385
vt 0.1301188 0.4673131
vt 0.1277533 0.4674842
vt 0.1276496 0.4936897
vt 0.1262476 0.4837483
vt 0.1265732 0.4864928
vt 0.1257238 0.4939849
vt 0.1657844 0.4496419
vt 0.1299353 0.4867542
vt 0.1277971 0.4866405
vt 0.1276497 0.4839559
vt 0.1262475 0.4938974
vt 0.1264639 0.4676833
vt 0.171277 0.4363815
vt 0.1480508 0.4319083
vt 0.1277044 0.4792638
vt 0.1276497 0.4839559
vt 0.1276713 0.4962808
vt 0.1277971 0.4866405
vt 0.125834 0.4584077
vt 0.1258175 0.467714
vt 0.1276421 0.4888228
vt 0.1276496 0.4936897
vt 0.1262475 0.4938974
vt 0.1277584 0.4770723
vt 0.1277533 0.4674842
vt 0.1264639 0.4676833
vt 0.1613112 0.4264157
vt 0.1265464 0.4770842
vt 0.1259203 0.4770842
vt 0.1259187 0.4864459
vt 0.1265732 0.4864928
vt 0.1262324 0.4888228
vt 0.1256995 0.4888228
vt 0.1257239 0.4836607
vt 0.1262476 0.4837483
vt 0.1277041 0.498382
vt 0.1262138 0.4989571
vt 0.1276597 0.4579209
vt 0.1263704 0.4583924
vt 0.1599094 0.4193696
vt 0.125794 0.4957119
vt 0.1263096 0.4957715
vt 0.125704 0.4785535
vt 0.1262141 0.4786887
vt 0.1277971 0.4866405
vt 0.1299353 0.4867542
vt 0.1302903 0.4770422
vt 0.1277584 0.4770723
vt 0.1277533 0.4674842
vt 0.1301188 0.4673131
vn 0.1950914 0.980785 2.191449E-07
vn -0.9807866 -0.1950835 2.40969E-06
vn -0.1950953 -0.9807843 1.906842E-05
vn -0.7071081 -0.7071054 1.708442E-05
vn -0.3826871 -0.923878 1.986869E-05
vn -0.9238815 -0.3826784 8.165138E-06
vn -1.745131E-06 8.717565E-06 1
vn -0.9807859 -0.1950873 0
vn -2.531392E-06 1.272622E-05 1
vn 0.9807859 0.1950873 0
vn 0.9807859 0.1950873 0
vn -1.745132E-06 8.717565E-06 1
vn -0.1950953 -0.9807843 1.906843E-05
vn -0.9807866 -0.1950835 2.40969E-06
vn 0.1950919 0.9807849 0
vn 2.513088E-06 -4.998878E-07 1
vn 3.321696E-06 -6.163145E-07 1
vn 0.1950914 0.980785 2.191449E-07
vn 0.1950919 0.9807849 0
vn 0.8314699 0.5555699 -3.287211E-07
vn 0.8314699 0.5555698 -3.28721E-07
vn -0.707105 -0.7071084 1.708449E-05
vn 1.498455E-07 -1.001231E-07 1
vn 0 0 1
vn 0 0 1
vn 0 0 1
vn 0.8314699 0.5555699 -3.287211E-07
vn 0.8314699 0.5555698 -3.28721E-07
vn -0.3826847 -0.923879 1.986869E-05
vn -2.531392E-06 1.272622E-05 1
vn 2.513088E-06 -4.998878E-07 1
vn 0.3826845 0.9238791 0
vn -8.555032E-07 4.333242E-06 1
vn 0.1950914 0.980785 2.191449E-07
vn 0.1950914 0.980785 2.191449E-07
vn -0.9238799 -0.3826826 8.16527E-06
vn 0.3826839 0.9238793 0
vn -0.9238805 -0.3826813 0
vn -8.555056E-07 4.333256E-06 1
vn 1.705199E-06 -3.246946E-07 1
vn -2.531392E-06 1.272622E-05 1
vn -2.531392E-06 1.272622E-05 1
vn 2.513088E-06 -4.998878E-07 1
vn 2.513088E-06 -4.998878E-07 1
vn -0.9807859 -0.1950873 0
vn -0.9238801 -0.3826821 0
vn 1.498455E-07 -1.001231E-07 1
vn 1.498455E-07 -1.001231E-07 1
vn 1.498455E-07 -1.001231E-07 1
vn 0 0 1
vn 0 0 1
vn 0 0 1
vn 1.7052E-06 -3.246947E-07 1
vn -0.7071074 -0.7071061 0
vn -0.7071074 -0.7071061 0
vn -0.3826846 -0.9238791 0
vn -0.3826842 -0.9238792 0
vn 0.7071066 0.7071069 0
vn 0.7071066 0.7071069 0
vn 0.9238805 0.3826813 0
vn 0.9238811 0.3826799 0
vn 4.772368E-06 -9.492762E-07 1
vn 4.772368E-06 -9.492762E-07 1
vn -1.317869E-06 6.625394E-06 1
vn -1.317869E-06 6.625394E-06 1
vn 3.321696E-06 -6.163145E-07 1
vn -0.1950915 -0.980785 0
vn -0.1950915 -0.980785 0
vn 0.9807866 0.1950837 0
vn 0.9807866 0.1950837 0
vn 0.5555711 0.8314691 1.643607E-07
vn 0.5555711 0.8314691 1.643607E-07
vn 0.5555711 0.8314691 1.643607E-07
vn 0.5555711 0.8314691 1.643607E-07
vn 0.9807859 0.1950873 0
vn 0.9807859 0.1950873 0
g Park_Sidewalk_Corner_A_0
f 35/35/35 34/34/34 1/1/1
f 18/18/18 35/35/35 1/1/1
f 14/14/14 36/36/36 2/2/2
f 36/36/36 6/6/6 2/2/2
f 4/4/4 6/6/6 36/36/36
f 22/22/22 4/4/4 36/36/36
f 5/5/5 4/4/4 22/22/22
f 29/29/29 5/5/5 22/22/22
f 3/3/3 5/5/5 29/29/29
f 13/13/13 3/3/3 29/29/29
f 42/42/42 41/41/41 9/9/9
f 30/30/30 42/42/42 9/9/9
f 47/47/47 42/42/42 30/30/30
f 23/23/23 47/47/47 30/30/30
f 48/48/48 47/47/47 23/23/23
f 49/49/49 48/48/48 23/23/23
f 62/62/62 48/48/48 49/49/49
f 63/63/63 62/62/62 49/49/49
f 44/44/44 43/43/43 16/16/16
f 31/31/31 44/44/44 16/16/16
f 50/50/50 44/44/44 31/31/31
f 24/24/24 50/50/50 31/31/31
f 51/51/51 50/50/50 24/24/24
f 52/52/52 51/51/51 24/24/24
f 64/64/64 51/51/51 52/52/52
f 65/65/65 64/64/64 52/52/52
f 39/39/39 12/12/12 7/7/7
f 33/33/33 39/39/39 7/7/7
f 25/25/25 39/39/39 33/33/33
f 26/26/26 25/25/25 33/33/33
f 53/53/53 25/25/25 26/26/26
f 40/40/40 53/53/53 26/26/26
f 66/66/66 53/53/53 40/40/40
f 17/17/17 66/66/66 40/40/40
f 8/8/8 38/38/38 45/45/45
f 38/38/38 46/46/46 45/45/45
f 55/55/55 46/46/46 38/38/38
f 54/54/54 55/55/55 38/38/38
f 56/56/56 55/55/55 54/54/54
f 57/57/57 56/56/56 54/54/54
f 67/67/67 56/56/56 57/57/57
f 68/68/68 67/67/67 57/57/57
f 15/15/15 37/37/37 19/19/19
f 37/37/37 32/32/32 19/19/19
f 59/59/59 32/32/32 37/37/37
f 58/58/58 59/59/59 37/37/37
f 60/60/60 59/59/59 58/58/58
f 61/61/61 60/60/60 58/58/58
f 69/69/69 60/60/60 61/61/61
f 70/70/70 69/69/69 61/61/61
f 27/27/27 20/20/20 21/21/21
f 28/28/28 27/27/27 21/21/21
f 73/73/73 72/72/72 71/71/71
f 74/74/74 73/73/73 71/71/71
f 10/10/10 76/76/76 75/75/75
f 11/11/11 10/10/10 75/75/75
