g Pavement_D_C
v -15 15 0.32707
v -15 -15 0.32707
v 15 15 0.32707
v 15 -15 0.32707
v -15 -1.180522 0.32707
v 15 -1.180522 0.32707
v 1.18051 -15 0.32707
v 1.18051 15 0.32707
v 1.18051 -1.180522 0.32707
v -15 15 1.525879E-07
v -15 -15 1.525879E-07
v 15 15 1.525879E-07
v 15 -15 1.525879E-07
v -15 -1.180522 1.525879E-07
v 15 -1.180522 1.525879E-07
v 1.18051 -15 1.525879E-07
v 1.18051 15 1.525879E-07
v 1.18051 -1.180522 0.32707
v -15 -1.180522 0.32707
v 1.18051 15 0.32707
v 1.18051 -1.180522 0.32707
v 1.18051 -1.180522 0.32707
v 15 -1.180522 0.32707
v 1.18051 -15 0.32707
v -15 -1.180522 0.32707
v -15 15 0.32707
v 1.18051 -15 0.32707
v -15 -15 0.32707
v 1.18051 15 0.32707
v 15 15 0.32707
v 15 -1.180522 0.32707
v 15 -15 0.32707
v -15 -15 0.32707
v -15 -1.180522 1.525879E-07
v -15 -1.180522 0.32707
v -15 -15 1.525879E-07
v 15 15 0.32707
v 15 -1.180522 1.525879E-07
v 15 -1.180522 0.32707
v 15 15 1.525879E-07
v 15 -15 0.32707
v 1.18051 -15 1.525879E-07
v 1.18051 -15 0.32707
v 15 -15 1.525879E-07
v -15 15 0.32707
v 1.18051 15 1.525879E-07
v 1.18051 15 0.32707
v -15 15 1.525879E-07
vt 0.500339 0.1239793
vt 0.500339 0.0008037129
vt 0.6235142 0.1239793
vt 0.6235142 0.0008037129
vt 0.500339 0.0008049483
vt 0.6235142 0.0008049483
vt 0.6235132 0.0008037129
vt 0.6235132 0.1239793
vt 0.6235132 0.0008049483
vt 0.5003697 0.0008028304
vt 0.5003697 0.0008028304
vt 0.5003698 0.0008028304
vt 0.5003697 0.0008028304
vt 0.6235136 0.0008028304
vt 0.6235136 0.0008028304
vt 0.6235136 0.0008028304
vt 0.6235137 0.0008028304
vt 0.6235132 0.123978
vt 0.500339 0.123978
vt 0.5003401 0.1239793
vt 0.5003401 0.0008049483
vt 0.5003401 0.123978
vt 0.6235142 0.123978
vt 0.5003401 0.0008037129
vt 0.6235136 0.002740625
vt 0.5003697 0.002740625
vt 0.6235136 0.002740625
vt 0.5003697 0.002740625
vt 0.6235137 0.002740625
vt 0.5003698 0.002740625
vt 0.6235136 0.002740625
vt 0.5003697 0.002740625
vt 0.6235136 0.002740625
vt 0.5003697 0.0008028304
vt 0.5003697 0.002740625
vt 0.6235136 0.0008028304
vt 0.6235136 0.002740625
vt 0.5003697 0.0008028304
vt 0.5003697 0.002740625
vt 0.6235136 0.0008028304
vt 0.6235135 0.002740625
vt 0.5003697 0.0008028304
vt 0.5003697 0.002740625
vt 0.6235135 0.0008028304
vt 0.6235136 0.002740625
vt 0.5003697 0.0008028304
vt 0.5003697 0.002740625
vt 0.6235136 0.0008028304
vn 0 0 1
vn 0 0 1
vn 0 0 1
vn 0 0 1
vn 0 0 1
vn 0 0 1
vn 0 0 1
vn 0 0 1
vn 0 0 1
vn -1 0 0
vn 0 -1 0
vn 0 1 0
vn 1 0 0
vn -1 0 0
vn 1 0 0
vn 0 -1 0
vn 0 1 0
vn 0 0 1
vn 0 0 1
vn 0 0 1
vn 0 0 1
vn 0 0 1
vn 0 0 1
vn 0 0 1
vn -1 0 0
vn -1 0 0
vn 0 -1 0
vn 0 -1 0
vn 0 1 0
vn 0 1 0
vn 1 0 0
vn 1 0 0
vn -1 0 0
vn -1 0 0
vn -1 0 0
vn -1 0 0
vn 1 0 0
vn 1 0 0
vn 1 0 0
vn 1 0 0
vn 0 -1 0
vn 0 -1 0
vn 0 -1 0
vn 0 -1 0
vn 0 1 0
vn 0 1 0
vn 0 1 0
vn 0 1 0
g Pavement_D_C_0
f 9/9/9 8/8/8 5/5/5
f 1/1/1 5/5/5 8/8/8
f 7/7/7 18/18/18 2/2/2
f 19/19/19 2/2/2 18/18/18
f 3/3/3 20/20/20 6/6/6
f 21/21/21 6/6/6 20/20/20
f 23/23/23 22/22/22 4/4/4
f 24/24/24 4/4/4 22/22/22
f 26/26/26 10/10/10 25/25/25
f 14/14/14 25/25/25 10/10/10
f 28/28/28 11/11/11 27/27/27
f 16/16/16 27/27/27 11/11/11
f 30/30/30 12/12/12 29/29/29
f 17/17/17 29/29/29 12/12/12
f 32/32/32 13/13/13 31/31/31
f 15/15/15 31/31/31 13/13/13
f 35/35/35 34/34/34 33/33/33
f 36/36/36 33/33/33 34/34/34
f 39/39/39 38/38/38 37/37/37
f 40/40/40 37/37/37 38/38/38
f 43/43/43 42/42/42 41/41/41
f 44/44/44 41/41/41 42/42/42
f 47/47/47 46/46/46 45/45/45
f 48/48/48 45/45/45 46/46/46
