g Pavement_D_D
v 7.499985 7.5 0.32707
v -7.499989 -7.500001 0.3270699
v -7.499988 7.499999 0.32707
v 2.684703 -2.684711 0.32707
v -1.220703E-06 7.5 0.32707
v -7.499988 -1.831055E-06 0.32707
v -1.723606 -5.776397 0.3270699
v 5.776381 1.723605 0.32707
v 7.499985 7.5 1.525879E-07
v -7.499989 -7.500001 1.525879E-07
v 2.684703 -2.684711 1.525879E-07
v -1.723606 -5.776397 1.525879E-07
v 5.776381 1.723605 1.525879E-07
v -1.723606 -5.776397 0.3270699
v -7.499989 -7.500001 0.3270699
v 5.776381 1.723605 0.32707
v 2.684703 -2.684711 0.32707
v 7.499985 7.5 0.32707
v 2.684703 -2.684711 0.32707
v -1.723606 -5.776397 1.525879E-07
v -1.723606 -5.776397 0.3270699
v 2.684703 -2.684711 1.525879E-07
v 5.776381 1.723605 1.525879E-07
v 5.776381 1.723605 0.32707
vt 0.6235142 0.123978
vt 0.5003401 0.0008037129
vt 0.5003401 0.123978
vt 0.5839731 0.04034513
vt 0.5619271 0.123978
vt 0.5003401 0.0623909
vt 0.5477735 0.0149573
vt 0.6093607 0.07654455
vt 0.6235136 0.0007601186
vt 0.5003697 0.0007601186
vt 0.5619417 0.0007601186
vt 0.5311557 0.0007601186
vt 0.5927277 0.0007601186
vt 0.5311557 0.002820989
vt 0.5003697 0.002820989
vt 0.5927277 0.002820989
vt 0.5619417 0.002820989
vt 0.6235136 0.002820989
vt 0.5619417 0.002820989
vt 0.5311557 0.0007601186
vt 0.5311557 0.002820989
vt 0.5619417 0.0007601186
vt 0.5927277 0.0007601186
vt 0.5927277 0.002820989
vn 0 0 1
vn 0 0 1
vn 0 0 1
vn 0 0 1
vn 0 0 1
vn 0 0 1
vn 0 0 1
vn 0 0 1
vn 0.9582506 -0.2859299 0
vn 0.2859306 -0.9582503 0
vn 0.8187205 -0.5741922 0
vn 0.2859307 -0.9582503 0
vn 0.8187205 -0.5741922 0
vn 0.2859306 -0.9582503 0
vn 0.2859307 -0.9582503 0
vn 0.8187205 -0.5741922 0
vn 0.8187205 -0.5741922 0
vn 0.9582506 -0.2859299 0
vn 0.5741938 -0.8187194 0
vn 0.5741938 -0.8187194 0
vn 0.5741938 -0.8187194 0
vn 0.5741938 -0.8187194 0
vn 0.9582506 -0.2859299 0
vn 0.9582506 -0.2859299 0
g Pavement_D_D_0
f 7/7/7 6/6/6 2/2/2
f 7/7/7 4/4/4 6/6/6
f 3/3/3 6/6/6 4/4/4
f 3/3/3 4/4/4 5/5/5
f 8/8/8 5/5/5 4/4/4
f 5/5/5 8/8/8 1/1/1
f 15/15/15 10/10/10 14/14/14
f 12/12/12 14/14/14 10/10/10
f 17/17/17 11/11/11 16/16/16
f 13/13/13 16/16/16 11/11/11
f 21/21/21 20/20/20 19/19/19
f 22/22/22 19/19/19 20/20/20
f 24/24/24 23/23/23 18/18/18
f 9/9/9 18/18/18 23/23/23
