g Pavement_B_B
v -7.5 7.500009 0.3270625
v 7.500009 5.45064 0.3270685
v 5.450662 7.5 0.3270642
v 6.899714 6.899697 0.3270649
v 6.234883 7.343925 0.327065
v 7.343943 6.234864 0.3270647
v 7.500002 -7.500005 0.3270763
v -7.5 -7.500009 0.3270625
v -7.5 7.500009 -1.373291E-06
v 7.500009 5.45064 4.653931E-06
v 5.450662 7.5 3.814697E-07
v 6.899714 6.899697 1.029968E-06
v 6.234883 7.343925 1.106262E-06
v 7.343943 6.234864 8.773803E-07
v 7.500002 -7.500005 1.239777E-05
v -7.5 -7.500009 -1.411438E-06
v -7.5 7.500009 0.3270625
v 5.450662 7.5 0.3270642
v 6.234883 7.343925 0.327065
v 6.899714 6.899697 0.3270649
v 7.343943 6.234864 0.3270647
v 6.899714 6.899697 1.029968E-06
v 6.899714 6.899697 0.3270649
v 7.500009 5.45064 0.3270685
v 7.500002 -7.500005 0.3270763
v -7.5 -7.500009 0.3270625
v -7.5 7.500009 -1.373291E-06
v -7.5 7.500009 0.3270625
v 7.500002 -7.500005 0.3270763
v 7.500002 -7.500005 1.239777E-05
v -7.5 -7.500009 -1.411438E-06
v -7.5 -7.500009 0.3270625
v 5.450662 7.5 0.3270642
v 5.450662 7.5 3.814697E-07
v 6.234883 7.343925 0.327065
v 6.234883 7.343925 1.106262E-06
v 7.343943 6.234864 0.3270647
v 7.343943 6.234864 8.773803E-07
v 7.500009 5.45064 0.3270685
v 7.500009 5.45064 4.653931E-06
vt 0.3753764 0.7495945
vt 0.49968 0.7346533
vt 0.4847391 0.7495945
vt 0.495304 0.7452182
vt 0.4904567 0.748457
vt 0.4985427 0.7403709
vt 0.49968 0.6252906
vt 0.3753764 0.6252906
vt 0.4901904 0.6251107
vt 0.4775075 0.6251107
vt 0.3881276 0.6251107
vt 0.4901904 0.6251107
vt 0.3816189 0.6251107
vt 0.4840162 0.6251107
vt 0.3754447 0.6251108
vt 0.4901903 0.6251937
vt 0.4901904 0.6277786
vt 0.3881276 0.6277786
vt 0.3816189 0.6277786
vt 0.4901904 0.6277785
vt 0.4840162 0.6277785
vt 0.3754448 0.6251107
vt 0.3754448 0.6277786
vt 0.4775075 0.6277786
vt 0.3754447 0.6277786
vt 0.4901903 0.6276956
vt 0.3754447 0.6251937
vt 0.3754447 0.6276956
vt 0.4901904 0.6276957
vt 0.4901904 0.6251938
vt 0.3754447 0.6251937
vt 0.3754447 0.6276956
vt 0.3881276 0.6277786
vt 0.3881276 0.6251107
vt 0.3816189 0.6277786
vt 0.3816189 0.6251107
vt 0.4840162 0.6277785
vt 0.4840162 0.6251107
vt 0.4775075 0.6277786
vt 0.4775075 0.6251107
vn -1.354958E-07 0 1
vn -9.206135E-07 5.979502E-07 1
vn -1.354959E-07 0 1
vn 0 -2.054934E-07 1
vn -8.089981E-07 5.789432E-07 1
vn 0 -2.054934E-07 1
vn -9.206135E-07 5.979502E-07 1
vn -1.354958E-07 0 1
vn 7.069349E-07 1 0
vn 0.9807675 0.1951791 0
vn 7.069349E-07 1 0
vn 0.8314691 0.5555712 0
vn 0.1951919 0.980765 0
vn 0.8314691 0.5555712 0
vn 1 -4.712905E-07 0
vn -1 0 0
vn 7.069349E-07 1 0
vn 7.069349E-07 1 0
vn 0.1951919 0.980765 0
vn 0.8314691 0.5555712 0
vn 0.8314691 0.5555712 0
vn 0.5555709 0.8314691 0
vn 0.5555708 0.8314692 0
vn 0.9807675 0.1951791 0
vn 1 -4.712905E-07 0
vn -1 0 0
vn -1 0 0
vn -1 0 0
vn 2.441406E-07 -1 0
vn 2.441406E-07 -1 0
vn 2.441406E-07 -1 0
vn 2.441406E-07 -1 0
vn 0.1951919 0.980765 0
vn 0.1951919 0.980765 0
vn 0.5555709 0.8314691 0
vn 0.5555708 0.8314692 0
vn 0.9807675 0.1951791 0
vn 0.9807675 0.1951791 0
vn 1 -4.712905E-07 0
vn 1 -4.712905E-07 0
g Pavement_B_B_0
f 1/1/1 8/8/8 3/3/3
f 3/3/3 8/8/8 5/5/5
f 5/5/5 8/8/8 4/4/4
f 4/4/4 8/8/8 6/6/6
f 6/6/6 8/8/8 2/2/2
f 2/2/2 8/8/8 7/7/7
f 11/11/11 9/9/9 17/17/17
f 18/18/18 11/11/11 17/17/17
f 13/13/13 34/34/34 33/33/33
f 19/19/19 13/13/13 33/33/33
f 14/14/14 12/12/12 20/20/20
f 21/21/21 14/14/14 20/20/20
f 22/22/22 36/36/36 35/35/35
f 23/23/23 22/22/22 35/35/35
f 10/10/10 38/38/38 37/37/37
f 24/24/24 10/10/10 37/37/37
f 15/15/15 40/40/40 39/39/39
f 25/25/25 15/15/15 39/39/39
f 27/27/27 16/16/16 26/26/26
f 28/28/28 27/27/27 26/26/26
f 31/31/31 30/30/30 29/29/29
f 32/32/32 31/31/31 29/29/29
