g Pavement_B_A
v 7.500005 -7.500005 0.32707
v 7.500005 7.500005 0.32707
v -7.499998 -7.500005 0.32707
v -7.499998 7.500005 0.32707
v 7.500005 -7.500005 1.525879E-07
v 7.500005 7.500005 1.525879E-07
v -7.499998 -7.500005 1.525879E-07
v -7.499998 7.500005 1.525879E-07
v 7.500005 7.500005 0.32707
v 7.500005 -7.500005 0.32707
v 7.500005 -7.500005 0.32707
v -7.499998 -7.500005 0.32707
v 7.500005 -7.500005 1.525879E-07
v -7.499998 7.500005 0.32707
v 7.500005 7.500005 1.525879E-07
v 7.500005 7.500005 0.32707
v -7.499998 -7.500005 0.32707
v -7.499998 7.500005 1.525879E-07
v -7.499998 7.500005 0.32707
v -7.499998 -7.500005 1.525879E-07
vt 0.4998733 0.6252885
vt 0.4998733 0.7498054
vt 0.3753565 0.6252885
vt 0.3753565 0.7498054
vt 0.3753865 0.6252876
vt 0.4998727 0.6252876
vt 0.3753864 0.6252876
vt 0.4998727 0.6252876
vt 0.4998727 0.6272465
vt 0.3753865 0.6272465
vt 0.4998726 0.6272465
vt 0.3753864 0.6272465
vt 0.4998726 0.6252876
vt 0.4998727 0.6272465
vt 0.3753865 0.6252876
vt 0.3753865 0.6272465
vt 0.4998727 0.6272465
vt 0.3753864 0.6252876
vt 0.3753864 0.6272465
vt 0.4998727 0.6252876
vn 0 0 1
vn 0 0 1
vn 0 0 1
vn 0 0 1
vn 1 0 0
vn 1 0 0
vn 0 -1 0
vn 0 1 0
vn 1 0 0
vn 1 0 0
vn 0 -1 0
vn 0 -1 0
vn 0 -1 0
vn 0 1 0
vn 0 1 0
vn 0 1 0
vn -1 0 0
vn -1 0 0
vn -1 0 0
vn -1 0 0
g Pavement_B_A_0
f 2/2/2 4/4/4 1/1/1
f 3/3/3 1/1/1 4/4/4
f 10/10/10 5/5/5 9/9/9
f 6/6/6 9/9/9 5/5/5
f 12/12/12 7/7/7 11/11/11
f 13/13/13 11/11/11 7/7/7
f 16/16/16 15/15/15 14/14/14
f 8/8/8 14/14/14 15/15/15
f 19/19/19 18/18/18 17/17/17
f 20/20/20 17/17/17 18/18/18
