g Pavement_C_A
v 7.500005 -7.500005 0.32707
v 7.500005 7.500005 0.32707
v -7.499998 -7.500005 0.32707
v -7.499998 7.500005 0.32707
v 7.500005 -7.500005 1.525879E-07
v 7.500005 7.500005 1.525879E-07
v -7.499998 -7.500005 1.525879E-07
v -7.499998 7.500005 1.525879E-07
v 7.500005 7.500005 0.32707
v 7.500005 -7.500005 0.32707
v 7.500005 -7.500005 0.32707
v -7.499998 -7.500005 0.32707
v 7.500005 -7.500005 1.525879E-07
v -7.499998 7.500005 0.32707
v 7.500005 7.500005 1.525879E-07
v 7.500005 7.500005 0.32707
v -7.499998 -7.500005 0.32707
v -7.499998 7.500005 1.525879E-07
v -7.499998 7.500005 0.32707
v -7.499998 -7.500005 1.525879E-07
vt 0.1248317 0.6251593
vt 0.1248317 0.7499521
vt 3.895034E-05 0.6251593
vt 3.895034E-05 0.7499521
vt 6.899108E-05 0.6251584
vt 0.1248311 0.6251584
vt 6.893148E-05 0.6251584
vt 0.1248311 0.6251584
vt 0.1248311 0.6271216
vt 6.899108E-05 0.6271216
vt 0.124831 0.6271216
vt 6.893148E-05 0.6271216
vt 0.124831 0.6251584
vt 0.1248311 0.6271216
vt 6.905069E-05 0.6251584
vt 6.905069E-05 0.6271216
vt 0.124831 0.6271216
vt 6.893148E-05 0.6251584
vt 6.893148E-05 0.6271216
vt 0.124831 0.6251584
vn 0 0 1
vn 0 0 1
vn 0 0 1
vn 0 0 1
vn 1 0 0
vn 1 0 0
vn 0 -1 0
vn 0 1 0
vn 1 0 0
vn 1 0 0
vn 0 -1 0
vn 0 -1 0
vn 0 -1 0
vn 0 1 0
vn 0 1 0
vn 0 1 0
vn -1 0 0
vn -1 0 0
vn -1 0 0
vn -1 0 0
g Pavement_C_A_0
f 2/2/2 4/4/4 1/1/1
f 3/3/3 1/1/1 4/4/4
f 10/10/10 5/5/5 9/9/9
f 6/6/6 9/9/9 5/5/5
f 12/12/12 7/7/7 11/11/11
f 13/13/13 11/11/11 7/7/7
f 16/16/16 15/15/15 14/14/14
f 8/8/8 14/14/14 15/15/15
f 19/19/19 18/18/18 17/17/17
f 20/20/20 17/17/17 18/18/18
