g Pavement_A_E
v 7.49999 -5.187988E-06 0.32707
v 7.49999 7.499998 0.32707
v 2.684704 -2.684711 0.32707
v -1.723606 -5.776396 0.32707
v 5.776382 1.723606 0.32707
v 7.49999 7.499998 1.525879E-07
v 2.684704 -2.684711 1.525879E-07
v -1.723606 -5.776396 1.525879E-07
v 5.776382 1.723606 1.525879E-07
v 7.499989 -7.500009 0.32707
v -7.499998 -7.500009 0.32707
v 7.499995 -7.500014 1.525879E-07
v -7.499998 -7.500009 1.525879E-07
v -3.967285E-06 -7.500009 0.32707
v -6.103515E-06 -7.500014 1.525879E-07
v 7.499995 -9.765625E-06 1.525879E-07
v -7.499998 -7.500009 0.32707
v -1.723606 -5.776396 0.32707
v 2.684704 -2.684711 0.32707
v 5.776382 1.723606 0.32707
v 7.49999 7.499998 0.32707
v 7.49999 -5.187988E-06 0.32707
v 7.49999 7.499998 1.525879E-07
v 7.49999 7.499998 0.32707
v -3.967285E-06 -7.500009 0.32707
v 7.499989 -7.500009 0.32707
v -7.499998 -7.500009 0.32707
v -7.499998 -7.500009 1.525879E-07
v 7.499989 -7.500009 0.32707
v 7.499995 -7.500014 1.525879E-07
v -1.723606 -5.776396 0.32707
v 2.684704 -2.684711 1.525879E-07
v 2.684704 -2.684711 0.32707
v -1.723606 -5.776396 1.525879E-07
v 5.776382 1.723606 0.32707
v 5.776382 1.723606 1.525879E-07
vt 0.3749333 0.1875347
vt 0.3749333 0.2499311
vt 0.3348725 0.1651992
vt 0.2981974 0.1394778
vt 0.3605937 0.2018743
vt 0.2501706 0.1250941
vt 0.3125517 0.1250941
vt 0.3437423 0.1250941
vt 0.2813612 0.1250941
vt 0.3749333 0.1251382
vt 0.2501406 0.1251382
vt 0.3749326 0.1251374
vt 0.3749328 0.1250941
vt 0.312537 0.1251382
vt 0.3125516 0.1251374
vt 0.3125517 0.1251374
vt 0.3749328 0.127182
vt 0.3437423 0.127182
vt 0.3125517 0.127182
vt 0.2813612 0.127182
vt 0.2501706 0.127182
vt 0.3125517 0.1271006
vt 0.3749328 0.1251374
vt 0.3749328 0.1271006
vt 0.3125516 0.1271006
vt 0.3749326 0.1271006
vt 0.2501706 0.1271006
vt 0.2501706 0.1251374
vt 0.2501706 0.1271006
vt 0.2501706 0.1251374
vt 0.3437423 0.127182
vt 0.3125517 0.1250941
vt 0.3125517 0.127182
vt 0.3437423 0.1250941
vt 0.2813612 0.127182
vt 0.2813612 0.1250941
vn 0 0 1
vn 0 0 1
vn 0 0 1
vn 0 0 1
vn 0 0 1
vn -0.9582503 0.2859306 0
vn -0.8187206 0.5741922 0
vn -0.2859313 0.9582502 0
vn -0.8187206 0.5741922 0
vn 0 0 1
vn 0 0 1
vn 0 -1 1.86612E-05
vn -0.2859313 0.9582502 0
vn 0 0 1
vn 0 -1 1.86612E-05
vn 1 6.51041E-07 1.492895E-05
vn -0.2859313 0.9582502 0
vn -0.2859313 0.9582502 0
vn -0.8187206 0.5741922 0
vn -0.8187206 0.5741922 0
vn -0.9582502 0.2859307 0
vn 1 6.51041E-07 1.492895E-05
vn 1 6.51041E-07 1.492895E-05
vn 1 0 0
vn 0 -1 1.86612E-05
vn 0 -1 1.86612E-05
vn -8.13803E-07 -1 0
vn -8.138029E-07 -1 0
vn 1 0 1.86612E-05
vn 1 0 1.86612E-05
vn -0.5741936 0.8187196 0
vn -0.5741936 0.8187196 0
vn -0.5741936 0.8187196 0
vn -0.5741936 0.8187196 0
vn -0.9582503 0.2859307 0
vn -0.9582502 0.2859307 0
g Pavement_A_E_0
f 14/14/14 4/4/4 11/11/11
f 4/4/4 14/14/14 3/3/3
f 10/10/10 3/3/3 14/14/14
f 10/10/10 1/1/1 3/3/3
f 5/5/5 3/3/3 1/1/1
f 2/2/2 5/5/5 1/1/1
f 18/18/18 8/8/8 17/17/17
f 13/13/13 17/17/17 8/8/8
f 20/20/20 9/9/9 19/19/19
f 7/7/7 19/19/19 9/9/9
f 33/33/33 32/32/32 31/31/31
f 34/34/34 31/31/31 32/32/32
f 21/21/21 6/6/6 35/35/35
f 36/36/36 35/35/35 6/6/6
f 24/24/24 22/22/22 23/23/23
f 16/16/16 23/23/23 22/22/22
f 22/22/22 29/29/29 16/16/16
f 30/30/30 16/16/16 29/29/29
f 26/26/26 25/25/25 12/12/12
f 15/15/15 12/12/12 25/25/25
f 25/25/25 27/27/27 15/15/15
f 28/28/28 15/15/15 27/27/27
