g Pavement_C_E
v 7.499983 -7.500002 0.32707
v 7.499985 -6.103515E-07 0.32707
v -1.831055E-06 -7.500002 0.3270699
v 7.499985 7.500001 0.32707
v -7.499989 -7.500001 0.3270699
v 2.684704 -2.684711 0.32707
v -1.723606 -5.776396 0.32707
v 5.776382 1.723606 0.32707
v 7.499985 7.500001 1.525879E-07
v -7.499989 -7.500001 1.525879E-07
v 2.684704 -2.684711 1.525879E-07
v -1.723606 -5.776396 1.525879E-07
v 5.776382 1.723606 1.525879E-07
v -7.499989 -7.500001 0.3270699
v -1.723606 -5.776396 0.32707
v 2.684704 -2.684711 0.32707
v 5.776382 1.723606 0.32707
v 7.499985 7.500001 0.32707
v -1.723606 -5.776396 0.32707
v 2.684704 -2.684711 1.525879E-07
v 2.684704 -2.684711 0.32707
v -1.723606 -5.776396 1.525879E-07
v 5.776382 1.723606 0.32707
v 5.776382 1.723606 1.525879E-07
vt 0.1248317 0.6251593
vt 0.1248317 0.6875557
vt 0.06243529 0.6251593
vt 0.1248317 0.7499521
vt 3.895034E-05 0.6251593
vt 0.08477082 0.6652203
vt 0.0480957 0.6394988
vt 0.1104921 0.7018954
vt 6.899108E-05 0.6251151
vt 0.1248311 0.6251151
vt 0.06245007 0.6251151
vt 0.09364059 0.6251151
vt 0.0312595 0.6251151
vt 0.1248311 0.627203
vt 0.09364059 0.627203
vt 0.06245007 0.627203
vt 0.0312595 0.627203
vt 6.899108E-05 0.627203
vt 0.09364059 0.627203
vt 0.06245007 0.6251151
vt 0.06245007 0.627203
vt 0.09364059 0.6251151
vt 0.0312595 0.627203
vt 0.0312595 0.6251151
vn 0 0 1
vn 0 0 1
vn 0 0 1
vn 0 0 1
vn 0 0 1
vn 0 0 1
vn 0 0 1
vn 0 0 1
vn -0.9582506 0.2859297 0
vn -0.2859307 0.9582502 0
vn -0.8187206 0.5741922 0
vn -0.2859308 0.9582502 0
vn -0.8187206 0.5741922 0
vn -0.2859308 0.9582502 0
vn -0.2859308 0.9582502 0
vn -0.8187206 0.5741922 0
vn -0.8187206 0.5741922 0
vn -0.9582506 0.2859297 0
vn -0.5741936 0.8187196 0
vn -0.5741936 0.8187196 0
vn -0.5741936 0.8187196 0
vn -0.5741936 0.8187196 0
vn -0.9582506 0.2859297 0
vn -0.9582506 0.2859297 0
g Pavement_C_E_0
f 3/3/3 7/7/7 5/5/5
f 7/7/7 3/3/3 6/6/6
f 1/1/1 6/6/6 3/3/3
f 1/1/1 2/2/2 6/6/6
f 8/8/8 6/6/6 2/2/2
f 4/4/4 8/8/8 2/2/2
f 15/15/15 12/12/12 14/14/14
f 10/10/10 14/14/14 12/12/12
f 17/17/17 13/13/13 16/16/16
f 11/11/11 16/16/16 13/13/13
f 21/21/21 20/20/20 19/19/19
f 22/22/22 19/19/19 20/20/20
f 18/18/18 9/9/9 23/23/23
f 24/24/24 23/23/23 9/9/9
