g PlantPot_C
v -1.259211 -0.8674951 0
v 1.614878 -0.5118275 0
v -1.614878 0.5118275 0
v 1.259211 0.8674951 0
v -1.259211 -0.8674951 0.7669531
v 1.614878 -0.5118275 0.7669531
v -1.614878 0.5118275 0.7669531
v 1.259211 0.8674951 0.7669531
v -1.04378 -0.6520649 0.7669531
v 1.399448 -0.2963973 0.7669531
v 1.04378 0.6520649 0.7669531
v -1.399448 0.2963973 0.7669531
v -1.04378 -0.6520649 0.5838373
v 1.399448 -0.2963973 0.5838373
v 1.04378 0.6520649 0.5838373
v -1.399448 0.2963973 0.5838373
v -1.614878 -0.5118275 0
v 1.259211 -0.8674951 0
v -1.259211 0.8674951 0
v 1.614878 0.5118275 0
v -1.614878 -0.5118275 0.7669531
v 1.259211 -0.8674951 0.7669531
v -1.259211 0.8674951 0.7669531
v 1.614878 0.5118275 0.7669531
v -1.399448 -0.2963973 0.7669531
v 1.04378 -0.6520649 0.7669531
v 1.399448 0.2963973 0.7669531
v -1.04378 0.6520649 0.7669531
v -1.399448 -0.2963973 0.5838373
v 1.04378 -0.6520649 0.5838373
v 1.399448 0.2963973 0.5838373
v -1.04378 0.6520649 0.5838373
v -1.259211 -0.8674951 0.7669531
v 1.259211 -0.8674951 0.7669531
v 1.614878 -0.5118275 0.7669531
v 1.614878 0.5118275 0.7669531
v 1.259211 0.8674951 0.7669531
v -1.259211 0.8674951 0.7669531
v -1.614878 0.5118275 0.7669531
v -1.614878 -0.5118275 0.7669531
v -1.04378 -0.6520649 0.7669531
v 1.04378 -0.6520649 0.5838373
v 1.04378 -0.6520649 0.7669531
v -1.04378 -0.6520649 0.5838373
v 1.399448 -0.2963973 0.7669531
v 1.399448 0.2963973 0.5838373
v 1.399448 0.2963973 0.7669531
v 1.399448 -0.2963973 0.5838373
v 1.04378 0.6520649 0.7669531
v -1.04378 0.6520649 0.5838373
v -1.04378 0.6520649 0.7669531
v 1.04378 0.6520649 0.5838373
v -1.399448 0.2963973 0.7669531
v -1.399448 -0.2963973 0.5838373
v -1.399448 -0.2963973 0.7669531
v -1.399448 0.2963973 0.5838373
v 1.259211 -0.8674951 0
v 1.614878 -0.5118275 0.7669531
v 1.614878 -0.5118275 0
v 1.259211 -0.8674951 0.7669531
v -1.259211 -0.8674951 0.7669531
v -1.614878 -0.5118275 0
v -1.614878 -0.5118275 0.7669531
v -1.259211 -0.8674951 0
v 1.259211 0.8674951 0.7669531
v 1.259211 0.8674951 0
v -1.259211 0.8674951 0
v -1.259211 0.8674951 0.7669531
v -1.04378 -0.6520649 0.7669531
v -1.259211 -0.8674951 0.7669531
v 1.259211 -0.8674951 0.7669531
v 1.04378 -0.6520649 0.7669531
v 1.04378 0.6520649 0.7669531
v 1.259211 0.8674951 0.7669531
v -1.259211 0.8674951 0.7669531
v -1.04378 0.6520649 0.7669531
v -1.399448 -0.2963973 0.7669531
v -1.04378 -0.6520649 0.5838373
v -1.04378 -0.6520649 0.7669531
v -1.399448 -0.2963973 0.5838373
v 1.04378 -0.6520649 0.7669531
v 1.399448 -0.2963973 0.5838373
v 1.399448 -0.2963973 0.7669531
v 1.04378 -0.6520649 0.5838373
v 1.04378 0.6520649 0.5838373
v 1.04378 0.6520649 0.7669531
v -1.04378 0.6520649 0.7669531
v -1.04378 0.6520649 0.5838373
vt 0.6500477 0.8758089
vt 0.6708884 0.875976
vt 0.6706184 0.8759847
vt 0.6495453 0.8760578
vt 0.6500477 0.9062817
vt 0.6702679 0.9065962
vt 0.6699688 0.9066533
vt 0.6495454 0.9065306
vt 0.6586072 0.9148412
vt 0.6793543 0.9151698
vt 0.6581048 0.9150901
vt 0.6791018 0.9152426
vt 0.1270742 1.14854
vt 1 1.275614
vt 0.8729258 1.614485
vt 0 1.48741
vt 0.7134811 0.8759833
vt 0.7501103 0.8758089
vt 0.7496079 0.8760578
vt 0.7136829 0.8759755
vt 0.7141115 0.9066525
vt 0.7501103 0.9062817
vt 0.7496079 0.9065306
vt 0.7143405 0.9065959
vt 0.7050031 0.9152423
vt 0.7415507 0.9148412
vt 0.7052146 0.9151697
vt 0.7410483 0.9150901
vt 0 1.275614
vt 0.8729258 1.14854
vt 1 1.48741
vt 0.1270742 1.614485
vt 0.6500477 0.9062817
vt 0.7501103 0.9062817
vt 0.6702679 0.9065962
vt 0.7143405 0.9065959
vt 0.6495454 0.9065306
vt 0.7496079 0.9065306
vt 0.6699688 0.9066533
vt 0.7141115 0.9066525
vt 0.6586072 0.9148412
vt 0.7415507 0.9221168
vt 0.7415507 0.9148412
vt 0.6586072 0.9221168
vt 0.6793543 0.9151698
vt 0.7048895 0.9225553
vt 0.7052146 0.9151697
vt 0.6797027 0.9225553
vt 0.6581048 0.9150901
vt 0.7410483 0.9223657
vt 0.7410483 0.9150901
vt 0.6581048 0.9223657
vt 0.6791018 0.9152426
vt 0.7046588 0.9226396
vt 0.7050031 0.9152423
vt 0.6794322 0.92264
vt 0.6499779 0.8761016
vt 0.6702679 0.9065962
vt 0.6708884 0.875976
vt 0.6492646 0.9069753
vt 0.7351485 0.9070365
vt 0.7134811 0.8759833
vt 0.7141115 0.9066525
vt 0.7344248 0.876112
vt 0.7353441 0.9069744
vt 0.7345933 0.8761007
vt 0.6496745 0.8761151
vt 0.6489322 0.9070394
vt 0.7253311 0.9157886
vt 0.7351485 0.9070365
vt 0.6492646 0.9069753
vt 0.6590589 0.9157073
vt 0.7255102 0.9157065
vt 0.7353441 0.9069744
vt 0.6489322 0.9070394
vt 0.6587744 0.9157912
vt 0.7050031 0.9152423
vt 0.7252967 0.9227073
vt 0.7253311 0.9157886
vt 0.7046588 0.9226396
vt 0.6590589 0.9157073
vt 0.6797027 0.9225553
vt 0.6793543 0.9151698
vt 0.659098 0.9226149
vt 0.7254944 0.9226142
vt 0.7255102 0.9157065
vt 0.6587744 0.9157912
vt 0.6587949 0.9227097
vn -0.3826834 -0.9238795 0
vn 0.9238795 -0.3826834 0
vn -0.9238795 0.3826834 0
vn 0.3826834 0.9238795 0
vn -0.3826834 -0.9238795 0
vn 0.9238795 -0.3826834 0
vn -0.9238795 0.3826834 0
vn 0.3826834 0.9238795 0
vn 0 0 1
vn 0 0 1
vn 0 0 1
vn 0 0 1
vn 0 0 1
vn 0 0 1
vn 0 0 1
vn 0 0 1
vn -0.9238795 -0.3826834 0
vn 0.3826834 -0.9238795 0
vn -0.3826834 0.9238795 0
vn 0.9238795 0.3826834 0
vn -0.9238795 -0.3826834 0
vn 0.3826834 -0.9238795 0
vn -0.3826834 0.9238795 0
vn 0.9238795 0.3826834 0
vn 0 0 1
vn 0 0 1
vn 0 0 1
vn 0 0 1
vn 0 0 1
vn 0 0 1
vn 0 0 1
vn 0 0 1
vn 0 0 1
vn 0 0 1
vn 0 0 1
vn 0 0 1
vn 0 0 1
vn 0 0 1
vn 0 0 1
vn 0 0 1
vn 0.3826835 0.9238795 0
vn -0.3826835 0.9238795 0
vn -0.3826834 0.9238795 0
vn 0.3826834 0.9238795 0
vn -0.9238795 0.3826834 0
vn -0.9238795 -0.3826834 0
vn -0.9238795 -0.3826834 0
vn -0.9238795 0.3826834 0
vn -0.3826835 -0.9238795 0
vn 0.3826835 -0.9238795 0
vn 0.3826834 -0.9238795 0
vn -0.3826834 -0.9238795 0
vn 0.9238795 -0.3826834 0
vn 0.9238795 0.3826834 0
vn 0.9238795 0.3826834 0
vn 0.9238795 -0.3826834 0
vn 0.3826834 -0.9238795 0
vn 0.9238795 -0.3826834 0
vn 0.9238795 -0.3826834 0
vn 0.3826834 -0.9238795 0
vn -0.3826834 -0.9238795 0
vn -0.9238795 -0.3826834 0
vn -0.9238795 -0.3826834 0
vn -0.3826834 -0.9238795 0
vn 0.3826834 0.9238795 0
vn 0.3826834 0.9238795 0
vn -0.3826834 0.9238795 0
vn -0.3826834 0.9238795 0
vn 0 0 1
vn 0 0 1
vn 0 0 1
vn 0 0 1
vn 0 0 1
vn 0 0 1
vn 0 0 1
vn 0 0 1
vn 0.9238795 0.3826834 0
vn 0.3826834 0.9238795 0
vn 0.3826835 0.9238795 0
vn 0.9238795 0.3826834 0
vn -0.3826834 0.9238795 0
vn -0.9238795 0.3826834 0
vn -0.9238795 0.3826834 0
vn -0.3826835 0.9238795 0
vn -0.3826834 -0.9238795 0
vn -0.3826835 -0.9238795 0
vn 0.3826834 -0.9238795 0
vn 0.3826835 -0.9238795 0
g PlantPot_C_0
f 30/30/30 14/14/14 13/13/13
f 14/14/14 15/15/15 13/13/13
f 31/31/31 15/15/15 14/14/14
f 15/15/15 16/16/16 13/13/13
f 13/13/13 16/16/16 29/29/29
f 32/32/32 16/16/16 15/15/15
g PlantPot_C_1
f 18/18/18 22/22/22 1/1/1
f 5/5/5 1/1/1 22/22/22
f 6/6/6 2/2/2 24/24/24
f 20/20/20 24/24/24 2/2/2
f 24/24/24 20/20/20 65/65/65
f 66/66/66 65/65/65 20/20/20
f 19/19/19 23/23/23 4/4/4
f 8/8/8 4/4/4 23/23/23
f 17/17/17 21/21/21 3/3/3
f 7/7/7 3/3/3 21/21/21
f 3/3/3 7/7/7 67/67/67
f 68/68/68 67/67/67 7/7/7
f 34/34/34 26/26/26 33/33/33
f 9/9/9 33/33/33 26/26/26
f 38/38/38 28/28/28 37/37/37
f 11/11/11 37/37/37 28/28/28
f 43/43/43 42/42/42 41/41/41
f 44/44/44 41/41/41 42/42/42
f 48/48/48 45/45/45 46/46/46
f 47/47/47 46/46/46 45/45/45
f 46/46/46 47/47/47 85/85/85
f 86/86/86 85/85/85 47/47/47
f 51/51/51 50/50/50 49/49/49
f 52/52/52 49/49/49 50/50/50
f 55/55/55 54/54/54 53/53/53
f 56/56/56 53/53/53 54/54/54
f 53/53/53 56/56/56 87/87/87
f 88/88/88 87/87/87 56/56/56
f 59/59/59 58/58/58 57/57/57
f 60/60/60 57/57/57 58/58/58
f 63/63/63 62/62/62 61/61/61
f 64/64/64 61/61/61 62/62/62
f 70/70/70 69/69/69 40/40/40
f 25/25/25 40/40/40 69/69/69
f 40/40/40 25/25/25 39/39/39
f 12/12/12 39/39/39 25/25/25
f 39/39/39 12/12/12 75/75/75
f 76/76/76 75/75/75 12/12/12
f 72/72/72 71/71/71 10/10/10
f 35/35/35 10/10/10 71/71/71
f 10/10/10 35/35/35 27/27/27
f 36/36/36 27/27/27 35/35/35
f 27/27/27 36/36/36 73/73/73
f 74/74/74 73/73/73 36/36/36
f 79/79/79 78/78/78 77/77/77
f 80/80/80 77/77/77 78/78/78
f 83/83/83 82/82/82 81/81/81
f 84/84/84 81/81/81 82/82/82
