g PlantPot_D
v -2.573875 -0.8674951 0
v 2.573875 -0.8674951 0
v -2.573875 0.8674951 0
v 2.573875 0.8674951 0
v -2.573875 -0.8674951 0.7669531
v 2.573875 -0.8674951 0.7669531
v -2.573875 0.8674951 0.7669531
v 2.573875 0.8674951 0.7669531
v -2.358445 -0.6520649 0.7669531
v 2.358445 -0.6520649 0.7669531
v 2.358445 0.6520649 0.7669531
v -2.358445 0.6520649 0.7669531
v -2.358445 -0.6520649 0.5838373
v 2.358445 -0.6520649 0.5838373
v 2.358445 0.6520649 0.5838373
v -2.358445 0.6520649 0.5838373
v 2.573875 -0.8674951 0
v 2.573875 -0.8674951 0.7669531
v 2.573875 0.8674951 0
v 2.573875 0.8674951 0.7669531
v -2.573875 0.8674951 0
v -2.573875 0.8674951 0.7669531
v -2.573875 -0.8674951 0.7669531
v -2.573875 -0.8674951 0
v -2.573875 -0.8674951 0.7669531
v 2.573875 -0.8674951 0.7669531
v 2.573875 -0.8674951 0.7669531
v 2.358445 -0.6520649 0.7669531
v 2.573875 0.8674951 0.7669531
v 2.573875 0.8674951 0.7669531
v 2.358445 0.6520649 0.7669531
v -2.573875 0.8674951 0.7669531
v -2.573875 0.8674951 0.7669531
v -2.358445 0.6520649 0.7669531
v -2.358445 -0.6520649 0.7669531
v -2.573875 -0.8674951 0.7669531
v -2.358445 -0.6520649 0.7669531
v -2.358445 -0.6520649 0.5838373
v 2.358445 -0.6520649 0.5838373
v 2.358445 -0.6520649 0.7669531
v 2.358445 -0.6520649 0.7669531
v 2.358445 -0.6520649 0.5838373
v 2.358445 0.6520649 0.5838373
v 2.358445 0.6520649 0.7669531
v 2.358445 0.6520649 0.7669531
v 2.358445 0.6520649 0.5838373
v -2.358445 0.6520649 0.5838373
v -2.358445 0.6520649 0.7669531
v -2.358445 0.6520649 0.7669531
v -2.358445 0.6520649 0.5838373
v -2.358445 -0.6520649 0.5838373
v -2.358445 -0.6520649 0.7669531
vt 0.6257087 0.8769933
vt 0.7490193 0.8769933
vt 0.7491375 0.8769933
vt 0.7492498 0.8772185
vt 0.6257087 0.9070842
vt 0.7490193 0.9070842
vt 0.7491375 0.9070842
vt 0.7492498 0.9072948
vt 0.6308691 0.9155365
vt 0.7438588 0.9155365
vt 0.7440918 0.915743
vt 0.743977 0.9155365
vt 5.960464E-08 1.046945
vt 1 1.046945
vt 1 1.323426
vt 5.960464E-08 1.323426
vt 0.7077098 0.8772185
vt 0.7077098 0.9072948
vt 0.6258269 0.8769933
vt 0.6258269 0.9070842
vt 0.7077098 0.8772595
vt 0.7077098 0.9073358
vt 0.7492498 0.9073358
vt 0.7492498 0.8772595
vt 0.6257087 0.9070842
vt 0.7490193 0.9070842
vt 0.7077098 0.9072948
vt 0.7128677 0.915743
vt 0.7492498 0.9072948
vt 0.6258269 0.9070842
vt 0.6309873 0.9155365
vt 0.7491375 0.9070842
vt 0.7077098 0.9073358
vt 0.7128677 0.915784
vt 0.7440918 0.9157838
vt 0.7492498 0.9073358
vt 0.6308691 0.9155365
vt 0.6308691 0.922721
vt 0.7438588 0.922721
vt 0.7438588 0.9155365
vt 0.7128677 0.915743
vt 0.7128677 0.9229239
vt 0.7440918 0.9229239
vt 0.7440918 0.915743
vt 0.6309873 0.9155365
vt 0.6309873 0.922721
vt 0.743977 0.922721
vt 0.743977 0.9155365
vt 0.7128677 0.915784
vt 0.7128677 0.9229649
vt 0.7440918 0.9229649
vt 0.7440918 0.9157838
vn 0 -1 0
vn 0 -1 0
vn 0 1 0
vn 1 0 0
vn 0 -1 0
vn 0 -1 0
vn 0 1 0
vn 1 0 0
vn 0 0 1
vn 0 0 1
vn 0 0 1
vn 0 0 1
vn 0 0 1
vn 0 0 1
vn 0 0 1
vn 0 0 1
vn 1 0 0
vn 1 0 0
vn 0 1 0
vn 0 1 0
vn -1 0 0
vn -1 0 0
vn -1 0 0
vn -1 0 0
vn 0 0 1
vn 0 0 1
vn 0 0 1
vn 0 0 1
vn 0 0 1
vn 0 0 1
vn 0 0 1
vn 0 0 1
vn 0 0 1
vn 0 0 1
vn 0 0 1
vn 0 0 1
vn 0 1 0
vn 0 1 0
vn 0 1 0
vn 0 1 0
vn -1 0 0
vn -1 0 0
vn -1 0 0
vn -1 0 0
vn 0 -1 0
vn 0 -1 0
vn 0 -1 0
vn 0 -1 0
vn 1 0 0
vn 1 0 0
vn 1 0 0
vn 1 0 0
g PlantPot_D_0
f 15/15/15 16/16/16 13/13/13
f 14/14/14 15/15/15 13/13/13
g PlantPot_D_1
f 6/6/6 5/5/5 1/1/1
f 2/2/2 6/6/6 1/1/1
f 8/8/8 18/18/18 17/17/17
f 4/4/4 8/8/8 17/17/17
f 7/7/7 20/20/20 19/19/19
f 3/3/3 7/7/7 19/19/19
f 23/23/23 22/22/22 21/21/21
f 24/24/24 23/23/23 21/21/21
f 10/10/10 9/9/9 25/25/25
f 26/26/26 10/10/10 25/25/25
f 11/11/11 28/28/28 27/27/27
f 29/29/29 11/11/11 27/27/27
f 12/12/12 31/31/31 30/30/30
f 32/32/32 12/12/12 30/30/30
f 35/35/35 34/34/34 33/33/33
f 36/36/36 35/35/35 33/33/33
f 39/39/39 38/38/38 37/37/37
f 40/40/40 39/39/39 37/37/37
f 43/43/43 42/42/42 41/41/41
f 44/44/44 43/43/43 41/41/41
f 47/47/47 46/46/46 45/45/45
f 48/48/48 47/47/47 45/45/45
f 51/51/51 50/50/50 49/49/49
f 52/52/52 51/51/51 49/49/49
