g PlantPot_B
v -0.3100306 -0.5470712 0
v 0.5343263 -0.3227754 0
v -0.5343263 0.3227754 0
v 0.3100305 0.5470712 0
v -0.3100306 -0.5470712 0.7669531
v 0.5343263 -0.3227754 0.7669531
v -0.5343263 0.3227754 0.7669531
v 0.3100305 0.5470712 0.7669531
v -0.1741731 -0.4112137 0.7669531
v 0.3984688 -0.186918 0.7669531
v 0.174173 0.4112137 0.7669531
v -0.3984689 0.186918 0.7669531
v -0.1741731 -0.4112137 0.5838373
v 0.3984688 -0.186918 0.5838373
v 0.174173 0.4112137 0.5838373
v -0.3984689 0.186918 0.5838373
v -0.5343263 -0.3227754 0
v 0.3100305 -0.5470712 0
v -0.3100306 0.5470712 0
v 0.5343263 0.3227754 0
v -0.5343263 -0.3227754 0.7669531
v 0.3100305 -0.5470712 0.7669531
v -0.3100306 0.5470712 0.7669531
v 0.5343263 0.3227754 0.7669531
v -0.3984689 -0.186918 0.7669531
v 0.174173 -0.4112137 0.7669531
v 0.3984688 0.186918 0.7669531
v -0.1741731 0.4112137 0.7669531
v -0.3984689 -0.186918 0.5838373
v 0.174173 -0.4112137 0.5838373
v 0.3984688 0.186918 0.5838373
v -0.1741731 0.4112137 0.5838373
v -0.3100306 -0.5470712 0.7669531
v 0.3100305 -0.5470712 0.7669531
v 0.5343263 -0.3227754 0.7669531
v 0.5343263 0.3227754 0.7669531
v 0.3100305 0.5470712 0.7669531
v -0.3100306 0.5470712 0.7669531
v -0.5343263 0.3227754 0.7669531
v -0.5343263 -0.3227754 0.7669531
v -0.1741731 -0.4112137 0.7669531
v 0.174173 -0.4112137 0.5838373
v 0.174173 -0.4112137 0.7669531
v -0.1741731 -0.4112137 0.5838373
v 0.3984688 -0.186918 0.7669531
v 0.3984688 0.186918 0.5838373
v 0.3984688 0.186918 0.7669531
v 0.3984688 -0.186918 0.5838373
v 0.174173 0.4112137 0.7669531
v -0.1741731 0.4112137 0.5838373
v -0.1741731 0.4112137 0.7669531
v 0.174173 0.4112137 0.5838373
v -0.3984689 0.186918 0.7669531
v -0.3984689 -0.186918 0.5838373
v -0.3984689 -0.186918 0.7669531
v -0.3984689 0.186918 0.5838373
v 0.3100305 -0.5470712 0
v 0.5343263 -0.3227754 0.7669531
v 0.5343263 -0.3227754 0
v 0.3100305 -0.5470712 0.7669531
v -0.3100306 -0.5470712 0.7669531
v -0.5343263 -0.3227754 0
v -0.5343263 -0.3227754 0.7669531
v -0.3100306 -0.5470712 0
v 0.3100305 0.5470712 0.7669531
v 0.3100305 0.5470712 0
v -0.3100306 0.5470712 0
v -0.5343263 0.3227754 0.7669531
v -0.5343263 0.3227754 0
v -0.3100306 0.5470712 0.7669531
v -0.1741731 -0.4112137 0.7669531
v -0.3100306 -0.5470712 0.7669531
v 0.3100305 -0.5470712 0.7669531
v 0.174173 -0.4112137 0.7669531
v 0.174173 0.4112137 0.7669531
v 0.3100305 0.5470712 0.7669531
v -0.3100306 0.5470712 0.7669531
v -0.1741731 0.4112137 0.7669531
v -0.3984689 -0.186918 0.7669531
v -0.1741731 -0.4112137 0.5838373
v -0.1741731 -0.4112137 0.7669531
v -0.3984689 -0.186918 0.5838373
v 0.174173 -0.4112137 0.7669531
v 0.174173 -0.4112137 0.5838373
v 0.3984688 0.186918 0.7669531
v 0.174173 0.4112137 0.5838373
v 0.174173 0.4112137 0.7669531
v 0.3984688 0.186918 0.5838373
v -0.1741731 0.4112137 0.7669531
v -0.3984689 0.186918 0.5838373
v -0.3984689 0.186918 0.7669531
v -0.1741731 0.4112137 0.5838373
vt 0.7110441 0.8758089
vt 0.6756809 0.8758347
vt 0.6755329 0.8755731
vt 0.6495453 0.8760578
vt 0.7110441 0.9062817
vt 0.6750605 0.9064549
vt 0.6755329 0.9067861
vt 0.6495454 0.9065306
vt 0.7196037 0.9148412
vt 0.6793543 0.9150285
vt 0.6581048 0.9150901
vt 0.6795688 0.9151754
vt 0.675571 1.14854
vt 1 1.275614
vt 0.8729258 1.614485
vt 0.5484965 1.48741
vt 0.7108842 0.8755731
vt 0.7501103 0.8758089
vt 0.6886114 0.8760578
vt 0.7109553 0.8758342
vt 0.7108842 0.9067861
vt 0.7501103 0.9062817
vt 0.6886114 0.9065307
vt 0.7115659 0.9064547
vt 0.7050827 0.9151754
vt 0.7415507 0.9148412
vt 0.7052146 0.9150284
vt 0.6800519 0.9150901
vt 0.5484968 1.275614
vt 0.8729258 1.14854
vt 1 1.48741
vt 0.675571 1.614485
vt 0.7110441 0.9062817
vt 0.7501103 0.9062817
vt 0.6750605 0.9064549
vt 0.7115659 0.9064547
vt 0.6495454 0.9065306
vt 0.6886114 0.9065307
vt 0.6755329 0.9067861
vt 0.7108842 0.9067861
vt 0.7196037 0.9148412
vt 0.7415507 0.9221168
vt 0.7415507 0.9148412
vt 0.7196037 0.9221168
vt 0.6793543 0.9150285
vt 0.7048895 0.922414
vt 0.7052146 0.9150284
vt 0.6797027 0.9224141
vt 0.6581048 0.9150901
vt 0.6800519 0.9223657
vt 0.6800519 0.9150901
vt 0.6581048 0.9223657
vt 0.6795688 0.9151754
vt 0.7050827 0.9221719
vt 0.7050827 0.9151754
vt 0.6795688 0.9221719
vt 0.6499779 0.8759604
vt 0.6750605 0.9064549
vt 0.6756809 0.8758347
vt 0.6492646 0.906834
vt 0.7350543 0.9067861
vt 0.7108842 0.8755731
vt 0.7108842 0.9067861
vt 0.7350543 0.8755731
vt 0.7353441 0.9068331
vt 0.7345933 0.8759594
vt 0.6502321 0.8755731
vt 0.6755329 0.9067861
vt 0.6755329 0.8755731
vt 0.6502321 0.9067861
vt 0.7259736 0.9151754
vt 0.7350543 0.9067861
vt 0.6492646 0.906834
vt 0.6590589 0.915566
vt 0.7255102 0.9155653
vt 0.7353441 0.9068331
vt 0.6502321 0.9067861
vt 0.6583039 0.9151754
vt 0.7050827 0.9151754
vt 0.7259736 0.9221719
vt 0.7259736 0.9151754
vt 0.7050827 0.9221719
vt 0.6590589 0.915566
vt 0.659098 0.9224737
vt 0.7052146 0.9150284
vt 0.7254944 0.922473
vt 0.7255102 0.9155653
vt 0.7048895 0.922414
vt 0.6583039 0.9151754
vt 0.6795688 0.9221719
vt 0.6795688 0.9151754
vt 0.6583039 0.9221719
vn -0.3826834 -0.9238795 0
vn 0.9238795 -0.3826834 0
vn -0.9238795 0.3826834 0
vn 0.3826834 0.9238795 0
vn -0.3826835 -0.9238795 0
vn 0.9238795 -0.3826834 0
vn -0.9238795 0.3826833 0
vn 0.3826834 0.9238795 0
vn 0 0 1
vn 0 0 1
vn 0 0 1
vn 0 0 1
vn 0 0 1
vn 0 0 1
vn 0 0 1
vn 0 0 1
vn -0.9238795 -0.3826833 0
vn 0.3826835 -0.9238795 0
vn -0.3826835 0.9238795 0
vn 0.9238795 0.3826834 0
vn -0.9238795 -0.3826834 0
vn 0.3826834 -0.9238795 0
vn -0.3826834 0.9238795 0
vn 0.9238795 0.3826834 0
vn 0 0 1
vn 0 0 1
vn 0 0 1
vn 0 0 1
vn 0 0 1
vn 0 0 1
vn 0 0 1
vn 0 0 1
vn 0 0 1
vn 0 0 1
vn 0 0 1
vn 0 0 1
vn 0 0 1
vn 0 0 1
vn 0 0 1
vn 0 0 1
vn 0.3826834 0.9238795 0
vn -0.3826834 0.9238795 0
vn -0.3826835 0.9238795 0
vn 0.3826834 0.9238795 0
vn -0.9238795 0.3826834 0
vn -0.9238795 -0.3826834 0
vn -0.9238795 -0.3826834 0
vn -0.9238795 0.3826834 0
vn -0.3826834 -0.9238795 0
vn 0.3826834 -0.9238795 0
vn 0.3826834 -0.9238795 0
vn -0.3826835 -0.9238795 0
vn 0.9238795 -0.3826835 0
vn 0.9238795 0.3826835 0
vn 0.9238795 0.3826834 0
vn 0.9238795 -0.3826834 0
vn 0.3826835 -0.9238795 0
vn 0.9238795 -0.3826834 0
vn 0.9238795 -0.3826834 0
vn 0.3826834 -0.9238795 0
vn -0.3826835 -0.9238795 0
vn -0.9238795 -0.3826833 0
vn -0.9238795 -0.3826834 0
vn -0.3826834 -0.9238795 0
vn 0.3826834 0.9238795 0
vn 0.3826834 0.9238795 0
vn -0.3826835 0.9238795 0
vn -0.9238795 0.3826833 0
vn -0.9238795 0.3826834 0
vn -0.3826834 0.9238795 0
vn 0 0 1
vn 0 0 1
vn 0 0 1
vn 0 0 1
vn 0 0 1
vn 0 0 1
vn 0 0 1
vn 0 0 1
vn 0.9238795 0.3826834 0
vn 0.3826834 0.9238795 0
vn 0.3826834 0.9238795 0
vn 0.9238795 0.3826835 0
vn -0.3826835 0.9238795 0
vn -0.3826834 0.9238795 0
vn -0.9238795 -0.3826834 0
vn -0.3826835 -0.9238795 0
vn -0.3826834 -0.9238795 0
vn -0.9238795 -0.3826834 0
vn 0.3826834 -0.9238795 0
vn 0.9238795 -0.3826834 0
vn 0.9238795 -0.3826835 0
vn 0.3826834 -0.9238795 0
g PlantPot_B_0
f 30/30/30 14/14/14 13/13/13
f 14/14/14 15/15/15 13/13/13
f 31/31/31 15/15/15 14/14/14
f 15/15/15 16/16/16 13/13/13
f 13/13/13 16/16/16 29/29/29
f 32/32/32 16/16/16 15/15/15
g PlantPot_B_1
f 18/18/18 22/22/22 1/1/1
f 5/5/5 1/1/1 22/22/22
f 6/6/6 2/2/2 24/24/24
f 20/20/20 24/24/24 2/2/2
f 24/24/24 20/20/20 65/65/65
f 66/66/66 65/65/65 20/20/20
f 19/19/19 23/23/23 4/4/4
f 8/8/8 4/4/4 23/23/23
f 17/17/17 21/21/21 3/3/3
f 7/7/7 3/3/3 21/21/21
f 34/34/34 26/26/26 33/33/33
f 9/9/9 33/33/33 26/26/26
f 38/38/38 28/28/28 37/37/37
f 11/11/11 37/37/37 28/28/28
f 43/43/43 42/42/42 41/41/41
f 44/44/44 41/41/41 42/42/42
f 47/47/47 46/46/46 45/45/45
f 48/48/48 45/45/45 46/46/46
f 45/45/45 48/48/48 83/83/83
f 84/84/84 83/83/83 48/48/48
f 51/51/51 50/50/50 49/49/49
f 52/52/52 49/49/49 50/50/50
f 55/55/55 54/54/54 53/53/53
f 56/56/56 53/53/53 54/54/54
f 59/59/59 58/58/58 57/57/57
f 60/60/60 57/57/57 58/58/58
f 63/63/63 62/62/62 61/61/61
f 64/64/64 61/61/61 62/62/62
f 69/69/69 68/68/68 67/67/67
f 70/70/70 67/67/67 68/68/68
f 72/72/72 71/71/71 40/40/40
f 25/25/25 40/40/40 71/71/71
f 40/40/40 25/25/25 39/39/39
f 12/12/12 39/39/39 25/25/25
f 39/39/39 12/12/12 77/77/77
f 78/78/78 77/77/77 12/12/12
f 74/74/74 73/73/73 10/10/10
f 35/35/35 10/10/10 73/73/73
f 10/10/10 35/35/35 27/27/27
f 36/36/36 27/27/27 35/35/35
f 27/27/27 36/36/36 75/75/75
f 76/76/76 75/75/75 36/36/36
f 81/81/81 80/80/80 79/79/79
f 82/82/82 79/79/79 80/80/80
f 87/87/87 86/86/86 85/85/85
f 88/88/88 85/85/85 86/86/86
f 91/91/91 90/90/90 89/89/89
f 92/92/92 89/89/89 90/90/90
