g RoadCone_D
v 0.1303521 0 0
v 0.09217288 0.09217288 0
v -5.697873E-09 0.1303521 0
v -0.09217288 0.09217288 0
v -0.1303521 -1.139575E-08 0
v -0.09217286 -0.0921729 0
v 1.554434E-09 -0.1303521 0
v 0.09217287 -0.0921729 0
v 0.1303521 0 0.03877592
v 0.09217288 0.09217288 0.03877592
v -5.697873E-09 0.1303521 0.03877592
v -0.09217288 0.09217288 0.03877592
v -0.1303521 -1.139575E-08 0.03877592
v -0.09217286 -0.0921729 0.03877592
v 1.554434E-09 -0.1303521 0.03877592
v 0.09217287 -0.0921729 0.03877592
v 0.09156586 0 0.08024702
v 0.06474684 0.06474684 0.08024702
v -4.002471E-09 0.09156586 0.08024702
v -0.06474684 0.06474684 0.08024702
v -0.09156586 -8.004942E-09 0.08024702
v -0.06474683 -0.06474686 0.08024702
v 1.091912E-09 -0.09156586 0.08024702
v 0.06474683 -0.06474686 0.08024702
v 0.05281923 0 0.08024706
v 0.03734883 0.03734883 0.08024706
v -2.308802E-09 0.05281923 0.08024706
v -0.03734883 0.03734883 0.08024706
v -0.05281923 -4.617603E-09 0.08024706
v -0.03734883 -0.03734884 0.08024706
v 6.29863E-10 -0.05281923 0.08024706
v 0.03734883 -0.03734884 0.08024706
v 0.05281923 0 0.9608472
v 0.03734883 0.03734883 0.9608472
v -2.308802E-09 0.05281923 0.9608472
v -0.03734883 0.03734883 0.9608472
v -0.05281923 -4.617603E-09 0.9608472
v -0.03734883 -0.03734884 0.9608472
v 6.29863E-10 -0.05281923 0.9608472
v 0.03734883 -0.03734884 0.9608472
v -5.697873E-09 0.1303521 0
v -5.697873E-09 0.1303521 0.03877592
v -0.1303521 -1.139575E-08 0
v -0.1303521 -1.139575E-08 0.03877592
v 1.554434E-09 -0.1303521 0
v 1.554434E-09 -0.1303521 0.03877592
v 0.1303521 0 0.03877592
v 0.1303521 0 0
v 1.554434E-09 -0.1303521 0
v -0.1303521 -1.139575E-08 0
v -0.09217286 -0.0921729 0
v -5.697873E-09 0.1303521 0
v -0.09217288 0.09217288 0
v 0.1303521 0 0
v 0.09217288 0.09217288 0
v 0.09217287 -0.0921729 0
v 0.06474684 0.06474684 0.08024702
v 0.09156586 0 0.08024702
v -4.002471E-09 0.09156586 0.08024702
v -0.06474684 0.06474684 0.08024702
v -4.002471E-09 0.09156586 0.08024702
v -0.09156586 -8.004942E-09 0.08024702
v -0.06474683 -0.06474686 0.08024702
v -0.09156586 -8.004942E-09 0.08024702
v 1.091912E-09 -0.09156586 0.08024702
v 0.06474683 -0.06474686 0.08024702
v 1.091912E-09 -0.09156586 0.08024702
v 0.09156586 0 0.08024702
v 0.03734883 0.03734883 0.9608472
v 0.05281923 0 0.9608472
v -2.308802E-09 0.05281923 0.9608472
v -2.308802E-09 0.05281923 0.08024706
v -0.03734883 0.03734883 0.9608472
v -2.308802E-09 0.05281923 0.9608472
v -0.05281923 -4.617603E-09 0.9608472
v -0.05281923 -4.617603E-09 0.08024706
v -0.03734883 -0.03734884 0.9608472
v -0.05281923 -4.617603E-09 0.9608472
v 6.29863E-10 -0.05281923 0.9608472
v 6.29863E-10 -0.05281923 0.08024706
v 0.03734883 -0.03734884 0.9608472
v 6.29863E-10 -0.05281923 0.9608472
v 0.05281923 0 0.9608472
v 0.05281923 0 0.08024706
vt 0.9069604 0.2920144
vt 0.9056515 0.2951745
vt 0.9024914 0.2964835
vt 0.8993313 0.2951745
vt 0.8980223 0.2920144
vt 0.8993313 0.2888542
vt 0.9024914 0.2875453
vt 0.9056515 0.2888542
vt 0.9063065 0.2920144
vt 0.9051891 0.2947121
vt 0.9024914 0.2958295
vt 0.8997936 0.2947121
vt 0.8986762 0.2920144
vt 0.8997936 0.2893166
vt 0.9024914 0.2881992
vt 0.9051891 0.2893166
vt 0.9050428 0.2920144
vt 0.9042956 0.2938185
vt 0.9024914 0.2945659
vt 0.9006872 0.2938185
vt 0.8999399 0.2920144
vt 0.9006872 0.2902102
vt 0.9024914 0.2894629
vt 0.9042956 0.2902102
vt 0.9196026 0.2874276
vt 0.9223463 0.2874276
vt 0.9250899 0.2874276
vt 0.9278335 0.2874276
vt 0.9305771 0.2874276
vt 0.9113718 0.2874276
vt 0.9141154 0.2874276
vt 0.916859 0.2874276
vt 0.9068933 0.2920104
vt 0.9056322 0.2950549
vt 0.9025877 0.296316
vt 0.8995432 0.2950549
vt 0.8982822 0.2920104
vt 0.8995432 0.2889659
vt 0.9025877 0.2877049
vt 0.9056322 0.2889659
vt 0.9024914 0.2964835
vt 0.9024914 0.2958295
vt 0.8980223 0.2920144
vt 0.8986762 0.2920144
vt 0.9024914 0.2875453
vt 0.9024914 0.2881992
vt 0.9063065 0.2920144
vt 0.9069604 0.2920144
vt 0.9067068 0.2919756
vt 0.9024137 0.2962686
vt 0.9054493 0.2950112
vt 0.8981208 0.2919756
vt 0.8993781 0.2950112
vt 0.9024137 0.2876825
vt 0.8993781 0.28894
vt 0.9054493 0.28894
vt 0.9042956 0.2938185
vt 0.9050428 0.2920144
vt 0.9024914 0.2945659
vt 0.9006872 0.2938185
vt 0.9024914 0.2945659
vt 0.8999399 0.2920144
vt 0.9006872 0.2902102
vt 0.8999399 0.2920144
vt 0.9024914 0.2894629
vt 0.9042956 0.2902102
vt 0.9024914 0.2894629
vt 0.9050428 0.2920144
vt 0.9223463 0.3227633
vt 0.9196026 0.3227634
vt 0.9250899 0.3227633
vt 0.9250899 0.2874276
vt 0.9278335 0.3227633
vt 0.9250899 0.3227633
vt 0.9305771 0.3227633
vt 0.9086282 0.2874276
vt 0.9113718 0.3227634
vt 0.9086282 0.3227634
vt 0.9141154 0.3227634
vt 0.9141154 0.2874276
vt 0.916859 0.3227634
vt 0.9141154 0.3227634
vt 0.9196026 0.3227634
vt 0.9196026 0.2874276
vn 0.7763821 0 -0.6302624
vn 0.5489851 0.548985 -0.6302625
vn 0 0.7763823 -0.6302624
vn -0.5489851 0.5489851 -0.6302625
vn -0.7763823 0 -0.6302623
vn -0.548985 -0.5489852 -0.6302624
vn 0 -0.7763821 -0.6302625
vn 0.5489851 -0.5489852 -0.6302624
vn 0.9405206 0 0.3397365
vn 0.6650485 0.6650485 0.3397365
vn -1.037289E-07 0.9405206 0.3397365
vn -0.6650485 0.6650485 0.3397365
vn -0.9405206 -1.570752E-07 0.3397365
vn -0.6650484 -0.6650487 0.3397365
vn 0 -0.9405206 0.3397365
vn 0.6650484 -0.6650486 0.3397365
vn 0.4748181 0 0.8800839
vn 0.3357471 0.3357471 0.8800839
vn 0 0.4748181 0.8800839
vn -0.3357471 0.3357471 0.8800839
vn -0.4748182 0 0.8800839
vn -0.3357471 -0.3357472 0.8800839
vn 0 -0.4748181 0.8800839
vn 0.335747 -0.3357471 0.8800839
vn 1 0 0
vn 0.7071068 0.7071068 0
vn 0 1 0
vn -0.7071068 0.7071068 0
vn -1 0 0
vn -0.7071066 -0.7071068 0
vn 0 -1 0
vn 0.7071066 -0.7071068 0
vn 0.7763821 0 0.6302624
vn 0.5489851 0.5489851 0.6302624
vn 0 0.7763823 0.6302623
vn -0.5489851 0.548985 0.6302626
vn -0.7763821 0 0.6302624
vn -0.548985 -0.5489851 0.6302626
vn 0 -0.7763822 0.6302624
vn 0.548985 -0.5489851 0.6302624
vn 0 0.7763823 -0.6302624
vn -1.037289E-07 0.9405206 0.3397365
vn -0.7763823 0 -0.6302623
vn -0.9405206 -1.570752E-07 0.3397365
vn 0 -0.7763821 -0.6302625
vn 0 -0.9405206 0.3397365
vn 0.9405206 0 0.3397365
vn 0.7763821 0 -0.6302624
vn 0 -0.7763821 -0.6302625
vn -0.7763823 0 -0.6302623
vn -0.548985 -0.5489852 -0.6302624
vn 0 0.7763823 -0.6302624
vn -0.5489851 0.5489851 -0.6302625
vn 0.7763821 0 -0.6302624
vn 0.5489851 0.548985 -0.6302625
vn 0.5489851 -0.5489852 -0.6302624
vn 0.3357471 0.3357471 0.8800839
vn 0.4748181 0 0.8800839
vn 0 0.4748181 0.8800839
vn -0.3357471 0.3357471 0.8800839
vn 0 0.4748181 0.8800839
vn -0.4748182 0 0.8800839
vn -0.3357471 -0.3357472 0.8800839
vn -0.4748182 0 0.8800839
vn 0 -0.4748181 0.8800839
vn 0.335747 -0.3357471 0.8800839
vn 0 -0.4748181 0.8800839
vn 0.4748181 0 0.8800839
vn 0.5489851 0.5489851 0.6302624
vn 0.7763821 0 0.6302624
vn 0 0.7763823 0.6302623
vn 0 1 0
vn -0.5489851 0.548985 0.6302626
vn 0 0.7763823 0.6302623
vn -0.7763821 0 0.6302624
vn -1 0 0
vn -0.548985 -0.5489851 0.6302626
vn -0.7763821 0 0.6302624
vn 0 -0.7763822 0.6302624
vn 0 -1 0
vn 0.548985 -0.5489851 0.6302624
vn 0 -0.7763822 0.6302624
vn 0.7763821 0 0.6302624
vn 1 0 0
g RoadCone_D_0
f 3/3/3 11/11/11 2/2/2
f 10/10/10 2/2/2 11/11/11
f 11/11/11 59/59/59 10/10/10
f 2/2/2 10/10/10 1/1/1
f 57/57/57 10/10/10 59/59/59
f 9/9/9 1/1/1 10/10/10
f 10/10/10 57/57/57 9/9/9
f 58/58/58 9/9/9 57/57/57
f 5/5/5 13/13/13 4/4/4
f 12/12/12 4/4/4 13/13/13
f 13/13/13 62/62/62 12/12/12
f 4/4/4 12/12/12 41/41/41
f 60/60/60 12/12/12 62/62/62
f 42/42/42 41/41/41 12/12/12
f 12/12/12 60/60/60 42/42/42
f 61/61/61 42/42/42 60/60/60
f 7/7/7 15/15/15 6/6/6
f 14/14/14 6/6/6 15/15/15
f 15/15/15 65/65/65 14/14/14
f 6/6/6 14/14/14 43/43/43
f 63/63/63 14/14/14 65/65/65
f 44/44/44 43/43/43 14/14/14
f 14/14/14 63/63/63 44/44/44
f 64/64/64 44/44/44 63/63/63
f 48/48/48 47/47/47 8/8/8
f 16/16/16 8/8/8 47/47/47
f 47/47/47 68/68/68 16/16/16
f 8/8/8 16/16/16 45/45/45
f 66/66/66 16/16/16 68/68/68
f 46/46/46 45/45/45 16/16/16
f 16/16/16 66/66/66 46/46/46
f 67/67/67 46/46/46 66/66/66
f 51/51/51 50/50/50 49/49/49
f 50/50/50 54/54/54 49/49/49
f 49/49/49 54/54/54 56/56/56
f 52/52/52 54/54/54 50/50/50
f 53/53/53 52/52/52 50/50/50
f 55/55/55 54/54/54 52/52/52
f 19/19/19 20/20/20 18/18/18
f 20/20/20 24/24/24 18/18/18
f 18/18/18 24/24/24 17/17/17
f 22/22/22 24/24/24 20/20/20
f 21/21/21 22/22/22 20/20/20
f 23/23/23 24/24/24 22/22/22
f 35/35/35 36/36/36 34/34/34
f 36/36/36 40/40/40 34/34/34
f 34/34/34 40/40/40 33/33/33
f 38/38/38 40/40/40 36/36/36
f 37/37/37 38/38/38 36/36/36
f 39/39/39 40/40/40 38/38/38
f 70/70/70 25/25/25 69/69/69
f 26/26/26 69/69/69 25/25/25
f 69/69/69 26/26/26 71/71/71
f 27/27/27 71/71/71 26/26/26
f 74/74/74 72/72/72 73/73/73
f 28/28/28 73/73/73 72/72/72
f 73/73/73 28/28/28 75/75/75
f 29/29/29 75/75/75 28/28/28
f 78/78/78 76/76/76 77/77/77
f 30/30/30 77/77/77 76/76/76
f 77/77/77 30/30/30 79/79/79
f 31/31/31 79/79/79 30/30/30
f 82/82/82 80/80/80 81/81/81
f 32/32/32 81/81/81 80/80/80
f 81/81/81 32/32/32 83/83/83
f 84/84/84 83/83/83 32/32/32
