g Road_Streight_Double_A
v 0 0 0.4385335
v -10.46282 0 0.4385335
v -12.7314 0 3.685088E-06
v -12.48996 0 0.5290307
v -10.70425 0 0.5290307
v -12.48996 0 0.4385335
v -5.231413 0 0.4385335
v 0 14.99994 0.4385335
v -10.46282 14.99994 0.4385335
v -10.46282 0 0.5290307
v -12.7314 14.99994 3.685088E-06
v -12.7314 14.99994 0.5290307
v -12.7314 0 0.5290307
v -12.48996 14.99994 0.5290307
v -10.70425 14.99994 0.5290307
v -10.70425 0 0.4385335
v -10.70425 14.99994 0.4385335
v -5.231413 14.99994 0.4385335
v -10.46282 14.99994 0.5290307
v -12.48996 14.99994 0.4385335
v 5.231413 0 0.4385335
v 10.46282 0 0.4385335
v 10.46282 0 0.5290307
v 12.7314 0 0.5290307
v 12.7314 0 3.685088E-06
v 12.48996 0 0.5290307
v 10.70425 0 0.5290307
v 10.70425 0 0.4385335
v 12.48996 0 0.4385335
v 5.231413 14.99994 0.4385335
v 10.46282 14.99994 0.4385335
v 10.46282 14.99994 0.5290307
v 12.7314 14.99994 0.5290307
v 12.7314 14.99994 3.685088E-06
v 12.48996 14.99994 0.5290307
v 10.70425 14.99994 0.5290307
v 10.70425 14.99994 0.4385335
v 12.48996 14.99994 0.4385335
v -12.7314 0 0.5290307
v -12.7314 14.99994 0.5290307
v -10.46282 14.99994 0.5290307
v -10.46282 0 0.5290307
v -10.70425 14.99994 0.4385335
v -10.70425 0 0.5290307
v -10.70425 0 0.4385335
v -10.70425 14.99994 0.5290307
v -12.48996 0 0.4385335
v -12.48996 14.99994 0.5290307
v -12.48996 14.99994 0.4385335
v -12.48996 0 0.5290307
v -10.46282 0 0.4385335
v -5.231413 14.99994 0.4385335
v -5.231413 0 0.4385335
v -10.46282 14.99994 0.4385335
v 12.7314 0 0.5290307
v 12.7314 14.99994 0.5290307
v 10.46282 14.99994 0.5290307
v 10.46282 0 0.5290307
v 10.70425 14.99994 0.4385335
v 10.70425 0 0.5290307
v 10.70425 14.99994 0.5290307
v 10.70425 0 0.4385335
v 12.48996 0 0.4385335
v 12.48996 14.99994 0.5290307
v 12.48996 0 0.5290307
v 12.48996 14.99994 0.4385335
v 10.46282 0 0.4385335
v 5.231413 14.99994 0.4385335
v 10.46282 14.99994 0.4385335
v 5.231413 0 0.4385335
v 0 0 0.4385335
v 0 14.99994 0.4385335
vt 0.9998004 0.7506785
vt 0.1281945 0.4179581
vt 0.1258251 0.4179578
vt 0.1300468 0.4179577
vt 0.1263759 0.4179583
vt 0.1463909 0.4994957
vt 0.9382701 0.7506785
vt 0.9998004 0.8736575
vt 0.1281945 0.4993163
vt 0.1276986 0.4179581
vt 0.1258251 0.499316
vt 0.128724 0.499316
vt 0.128724 0.4179578
vt 0.1300468 0.4993159
vt 0.1263759 0.4993165
vt 0.1316735 0.4994957
vt 0.1316735 0.3758686
vt 0.9382701 0.8736576
vt 0.1276987 0.4993163
vt 0.1463909 0.3758686
vt 0.9382701 0.7506785
vt 0.1281945 0.4179581
vt 0.1276986 0.4179581
vt 0.128724 0.4179578
vt 0.1258251 0.4179578
vt 0.1300468 0.4179577
vt 0.1263759 0.4179583
vt 0.1316735 0.4994957
vt 0.1463909 0.4994957
vt 0.9382701 0.8736576
vt 0.1281945 0.4993163
vt 0.1276987 0.4993163
vt 0.128724 0.499316
vt 0.1258251 0.499316
vt 0.1300468 0.4993159
vt 0.1263759 0.4993165
vt 0.1316735 0.3758686
vt 0.1463909 0.3758686
vt 0.128724 0.4179578
vt 0.128724 0.499316
vt 0.1276987 0.4993163
vt 0.1276986 0.4179581
vt 0.1258801 0.4993165
vt 0.1263759 0.4179583
vt 0.1258801 0.4179583
vt 0.1263759 0.4993165
vt 0.1305426 0.4179577
vt 0.1300468 0.4993159
vt 0.1305426 0.4993159
vt 0.1300468 0.4179577
vt 0.8752026 0.8736575
vt 0.9382002 0.7506785
vt 0.9382002 0.8736575
vt 0.8752026 0.7506785
vt 0.128724 0.4179578
vt 0.128724 0.499316
vt 0.1276987 0.4993163
vt 0.1276986 0.4179581
vt 0.1258801 0.4993165
vt 0.1263759 0.4179583
vt 0.1263759 0.4993165
vt 0.1258801 0.4179583
vt 0.1305426 0.4179577
vt 0.1300468 0.4993159
vt 0.1300468 0.4179577
vt 0.1305426 0.4993159
vt 0.8752026 0.8736575
vt 0.9382002 0.7506785
vt 0.8752026 0.7506785
vt 0.9382002 0.8736575
vt 0.9998004 0.7506785
vt 0.9998004 0.8736575
vn 0 0 1
vn 1 0 0
vn -1 0 0
vn 0 0 1
vn 0 0 1
vn 0 0 1
vn 0 0 1
vn 0 0 1
vn 1 0 0
vn 1 0 0
vn -1 0 0
vn -1 0 0
vn -1 0 0
vn 0 0 1
vn 0 0 1
vn 0 0 1
vn 0 0 1
vn 0 0 1
vn 1 0 0
vn 0 0 1
vn 0 0 1
vn -1 0 0
vn -1 0 0
vn 1 0 0
vn 1 0 0
vn 0 0 1
vn 0 0 1
vn 0 0 1
vn 0 0 1
vn 0 0 1
vn -1 0 0
vn -1 0 0
vn 1 0 0
vn 1 0 0
vn 0 0 1
vn 0 0 1
vn 0 0 1
vn 0 0 1
vn 0 0 1
vn 0 0 1
vn 0 0 1
vn 0 0 1
vn -1 0 0
vn -1 0 0
vn -1 0 0
vn -1 0 0
vn 1 0 0
vn 1 0 0
vn 1 0 0
vn 1 0 0
vn 0 0 1
vn 0 0 1
vn 0 0 1
vn 0 0 1
vn 0 0 1
vn 0 0 1
vn 0 0 1
vn 0 0 1
vn 1 0 0
vn 1 0 0
vn 1 0 0
vn 1 0 0
vn -1 0 0
vn -1 0 0
vn -1 0 0
vn -1 0 0
vn 0 0 1
vn 0 0 1
vn 0 0 1
vn 0 0 1
vn 0 0 1
vn 0 0 1
g Road_Streight_Double_A_0
f 8/8/8 18/18/18 1/1/1
f 7/7/7 1/1/1 18/18/18
f 19/19/19 10/10/10 9/9/9
f 2/2/2 9/9/9 10/10/10
f 13/13/13 12/12/12 3/3/3
f 11/11/11 3/3/3 12/12/12
f 4/4/4 14/14/14 39/39/39
f 40/40/40 39/39/39 14/14/14
f 15/15/15 5/5/5 41/41/41
f 42/42/42 41/41/41 5/5/5
f 16/16/16 17/17/17 6/6/6
f 20/20/20 6/6/6 17/17/17
f 45/45/45 44/44/44 43/43/43
f 46/46/46 43/43/43 44/44/44
f 49/49/49 48/48/48 47/47/47
f 50/50/50 47/47/47 48/48/48
f 53/53/53 52/52/52 51/51/51
f 54/54/54 51/51/51 52/52/52
f 21/21/21 30/30/30 71/71/71
f 72/72/72 71/71/71 30/30/30
f 22/22/22 23/23/23 31/31/31
f 32/32/32 31/31/31 23/23/23
f 34/34/34 33/33/33 25/25/25
f 24/24/24 25/25/25 33/33/33
f 56/56/56 35/35/35 55/55/55
f 26/26/26 55/55/55 35/35/35
f 58/58/58 27/27/27 57/57/57
f 36/36/36 57/57/57 27/27/27
f 38/38/38 37/37/37 29/29/29
f 28/28/28 29/29/29 37/37/37
f 61/61/61 60/60/60 59/59/59
f 62/62/62 59/59/59 60/60/60
f 65/65/65 64/64/64 63/63/63
f 66/66/66 63/63/63 64/64/64
f 69/69/69 68/68/68 67/67/67
f 70/70/70 67/67/67 68/68/68
