g Road_BusStop
v -7.321327 -14.99994 0.4385298
v -7.321327 -14.99994 0.529027
v -9.589905 -14.99994 0.529027
v -9.34847 -14.99994 0.4385298
v -7.562762 -14.99994 0.4385298
v -2.089922 -14.99994 0.4385298
v 3.14149 -14.99994 0.4385302
v 3.141484 0 0.4385298
v -7.321327 0 0.4385298
v -9.589905 -14.99994 0
v -9.589905 0 0
v -9.34847 -14.99994 0.529027
v -9.34847 0 0.529027
v -7.562762 0 0.529027
v -7.562762 -14.99994 0.529027
v -9.34847 0 0.4385298
v -2.089922 0 0.4385298
v -7.321327 14.99994 0.4385298
v -7.321327 0 0.529027
v -9.589905 14.99994 0
v -9.589905 14.99994 0.529027
v -9.589905 0 0.529027
v -9.34847 14.99994 0.529027
v -7.562762 14.99994 0.529027
v -7.562762 0 0.4385298
v -7.562762 14.99994 0.4385298
v -2.089922 14.99994 0.4385298
v -7.321327 14.99994 0.529027
v -9.34847 14.99994 0.4385298
v 7.321332 8.632774 0.4385303
v 7.321318 8.632776 0.5290252
v 7.321346 -8.632784 0.4385303
v 9.34848 -8.632783 0.4385282
v 9.34848 -8.632782 0.5290253
v 7.562775 -8.632783 0.5290252
v 9.589915 -8.632782 3.713112E-06
v 9.589915 -8.632782 0.5290253
v 7.562773 -8.632783 0.4385282
v 7.321338 -8.632783 0.5290252
v 5.168639 -14.99994 0.4385282
v 5.168639 -14.99994 0.5290253
v 3.382932 -14.99994 0.5290252
v 5.410074 -14.99994 3.706895E-06
v 5.410074 -14.99994 0.5290253
v 3.382932 -14.99994 0.4385282
v 3.141496 -14.99994 0.5290252
v 3.141469 14.99993 0.4385302
v 5.168597 14.99992 0.4385282
v 5.168597 14.99992 0.5290253
v 3.38289 14.99992 0.5290252
v 5.410032 14.99992 3.706895E-06
v 5.410032 14.99992 0.5290253
v 3.38289 14.99992 0.4385282
v 3.141454 14.99992 0.5290252
v 9.589893 8.632775 0.5290253
v 9.589893 8.632775 3.713112E-06
v 9.348458 8.632775 0.5290253
v 7.562753 8.632776 0.5290252
v 7.562751 8.632776 0.4385282
v 9.348458 8.632776 0.4385282
v 7.321328 -3.312439E-06 0.5290252
v 7.321351 -2.318707E-06 0.4385301
v 9.589905 -3.312439E-06 0.5290253
v 9.589905 -3.312439E-06 3.713112E-06
v 9.348469 -3.312439E-06 0.5290253
v 7.562764 -3.312439E-06 0.5290252
v 7.562762 -3.312439E-06 0.4385282
v 9.348469 -3.312439E-06 0.4385282
v -9.589905 -14.99994 0.529027
v -9.589905 0 0.529027
v -7.321327 0 0.529027
v -7.321327 -14.99994 0.529027
v -7.562762 0 0.4385298
v -7.562762 -14.99994 0.529027
v -7.562762 -14.99994 0.4385298
v -7.562762 0 0.529027
v -9.34847 -14.99994 0.4385298
v -9.34847 0 0.529027
v -9.34847 0 0.4385298
v -9.34847 -14.99994 0.529027
v -7.321327 -14.99994 0.4385298
v -2.089922 0 0.4385298
v -2.089922 -14.99994 0.4385298
v -7.321327 0 0.4385298
v 3.141484 0 0.4385298
v -2.089922 0 0.4385298
v -7.321327 0 0.529027
v -7.321327 0 0.4385298
v -9.589905 0 0
v -9.589905 0 0.529027
v -9.589905 0 0.529027
v -9.34847 0 0.529027
v -9.589905 14.99994 0.529027
v -7.321327 14.99994 0.529027
v -7.562762 0 0.529027
v -7.321327 0 0.529027
v -9.34847 0 0.4385298
v -7.562762 0 0.4385298
v -7.562762 14.99994 0.4385298
v -7.562762 0 0.529027
v -7.562762 0 0.4385298
v -7.562762 14.99994 0.529027
v -9.34847 0 0.4385298
v -9.34847 14.99994 0.529027
v -9.34847 14.99994 0.4385298
v -9.34847 0 0.529027
v -7.321327 0 0.4385298
v -2.089922 14.99994 0.4385298
v -2.089922 0 0.4385298
v -7.321327 14.99994 0.4385298
v 3.141484 0 0.4385298
v 3.14149 -14.99994 0.4385302
v 3.141469 14.99993 0.4385302
v 7.321351 -2.318707E-06 0.4385301
v 3.141484 0 0.4385298
v 7.321351 -2.318707E-06 0.4385301
v 7.321332 8.632774 0.4385303
v 9.589915 -8.632782 0.5290253
v 9.589905 -3.312439E-06 0.5290253
v 7.321318 8.632776 0.5290252
v 7.321328 -3.312439E-06 0.5290252
v 7.562762 -3.312439E-06 0.4385282
v 7.562764 -3.312439E-06 0.5290252
v 7.562773 -8.632783 0.4385282
v 9.348469 -3.312439E-06 0.4385282
v 9.348469 -3.312439E-06 0.5290253
v 9.589915 -8.632782 3.713112E-06
v 9.589915 -8.632782 0.5290253
v 5.410074 -14.99994 0.5290253
v 9.34848 -8.632782 0.5290253
v 9.589915 -8.632782 0.5290253
v 7.562773 -8.632783 0.4385282
v 9.34848 -8.632783 0.4385282
v 7.562773 -8.632783 0.4385282
v 7.562775 -8.632783 0.5290252
v 3.382932 -14.99994 0.4385282
v 3.14149 -14.99994 0.4385302
v 7.321346 -8.632784 0.4385303
v 3.141496 -14.99994 0.5290252
v 7.562775 -8.632783 0.5290252
v 3.382932 -14.99994 0.5290252
v 7.321338 -8.632783 0.5290252
v 5.168639 -14.99994 0.4385282
v 9.34848 -8.632782 0.5290253
v 5.168639 -14.99994 0.5290253
v 9.34848 -8.632783 0.4385282
v 5.410032 14.99992 0.5290253
v 9.348458 8.632775 0.5290253
v 9.589893 8.632775 0.5290253
v 9.348458 8.632776 0.4385282
v 7.562751 8.632776 0.4385282
v 3.38289 14.99992 0.4385282
v 7.562753 8.632776 0.5290252
v 3.141469 14.99993 0.4385302
v 7.321318 8.632776 0.5290252
v 7.321332 8.632774 0.4385303
v 3.141454 14.99992 0.5290252
v 7.562753 8.632776 0.5290252
v 7.321318 8.632776 0.5290252
v 3.38289 14.99992 0.5290252
v 5.168597 14.99992 0.4385282
v 9.348458 8.632775 0.5290253
v 9.348458 8.632776 0.4385282
v 5.168597 14.99992 0.5290253
v 7.321346 -8.632784 0.4385303
v 7.321338 -8.632783 0.5290252
v 9.589893 8.632775 3.713112E-06
v 9.589893 8.632775 0.5290253
v 9.589893 8.632775 0.5290253
v 9.348458 8.632775 0.5290253
v 7.321338 -8.632783 0.5290252
v 7.562775 -8.632783 0.5290252
v 9.348458 8.632776 0.4385282
v 7.562751 8.632776 0.4385282
v 7.562751 8.632776 0.4385282
v 7.562753 8.632776 0.5290252
v 9.34848 -8.632783 0.4385282
v 9.34848 -8.632782 0.5290253
vt 0.1281945 0.4179581
vt 0.1276986 0.4179581
vt 0.128724 0.4179578
vt 0.1713915 0.499496
vt 0.1566738 0.499496
vt 0.06303684 0.375523
vt 0.1246721 0.375523
vt 0.1246721 0.498502
vt 0.1281945 0.4993163
vt 0.1258251 0.4179578
vt 0.1258251 0.499316
vt 0.1300468 0.4179577
vt 0.1300468 0.4993159
vt 0.1263759 0.4993165
vt 0.1263759 0.4179583
vt 0.1713915 0.3758685
vt 0.06303684 0.4985021
vt 0.1281945 0.4993163
vt 0.1276987 0.4993163
vt 0.1258251 0.499316
vt 0.128724 0.499316
vt 0.128724 0.499316
vt 0.1300468 0.4993159
vt 0.1263759 0.4993165
vt 0.1566738 0.3758685
vt 0.1316735 0.3758686
vt 0.9382701 0.8736576
vt 0.1276987 0.4993163
vt 0.1463909 0.3758686
vt 0.892476 0.8016118
vt 0.1276987 0.4997703
vt 0.9808751 0.8020962
vt 0.1463909 0.4994957
vt 0.1300468 0.4061232
vt 0.1263759 0.4061238
vt 0.1258251 0.4061233
vt 0.128724 0.4061233
vt 0.1316735 0.4994957
vt 0.1276982 0.4406584
vt 0.1463909 0.4994957
vt 0.1300468 0.3906006
vt 0.1263759 0.3906012
vt 0.1258251 0.3906007
vt 0.128724 0.3906007
vt 0.1316735 0.4994957
vt 0.1276986 0.3906011
vt 0.9998004 0.8736575
vt 0.1463909 0.4994957
vt 0.1300468 0.3906006
vt 0.1263759 0.3906012
vt 0.1258251 0.3906007
vt 0.128724 0.3906007
vt 0.1316735 0.4994957
vt 0.1276986 0.3906011
vt 0.128724 0.4406581
vt 0.1258252 0.4406581
vt 0.1300468 0.4997698
vt 0.1263765 0.4997704
vt 0.1702859 0.4438767
vt 0.1305426 0.4997698
vt 0.1276987 0.452947
vt 0.9808751 0.8687981
vt 0.1287243 0.4529466
vt 0.1258251 0.4529466
vt 0.1300468 0.4529465
vt 0.1263762 0.4529471
vt 0.1316735 0.4378235
vt 0.1463909 0.4378235
vt 0.128724 0.4179578
vt 0.128724 0.499316
vt 0.1276987 0.4993163
vt 0.1276986 0.4179581
vt 0.1258801 0.4993165
vt 0.1263759 0.4179583
vt 0.1258801 0.4179583
vt 0.1263759 0.4993165
vt 0.1305426 0.4179577
vt 0.1300468 0.4993159
vt 0.1305426 0.4993159
vt 0.1300468 0.4179577
vt 0.0002249675 0.498502
vt 0.06296693 0.375523
vt 0.06296693 0.498502
vt 0.0002249675 0.375523
vt 0.9998004 0.7506785
vt 0.9382701 0.7506785
vt 0.1276986 0.4179581
vt 0.1281945 0.4179581
vt 0.1258251 0.4179578
vt 0.128724 0.4179578
vt 0.128724 0.4179578
vt 0.1300468 0.4179577
vt 0.128724 0.499316
vt 0.1276987 0.4993163
vt 0.1263759 0.4179583
vt 0.1276986 0.4179581
vt 0.1463909 0.4994957
vt 0.1316735 0.4994957
vt 0.1258801 0.4993165
vt 0.1263759 0.4179583
vt 0.1258801 0.4179583
vt 0.1263759 0.4993165
vt 0.1305426 0.4179577
vt 0.1300468 0.4993159
vt 0.1305426 0.4993159
vt 0.1300468 0.4179577
vt 0.8752026 0.8736575
vt 0.9382002 0.7506785
vt 0.9382002 0.8736575
vt 0.8752026 0.7506785
vt 0.9485791 0.8687981
vt 0.9485791 0.7528999
vt 0.9247718 0.7524154
vt 0.892476 0.8683135
vt 0.9247718 0.8683135
vt 0.1281945 0.452947
vt 0.1281945 0.4997703
vt 0.128724 0.4061233
vt 0.1287243 0.4529466
vt 0.1276987 0.4997703
vt 0.1276987 0.452947
vt 0.1258801 0.4529471
vt 0.1263762 0.4529471
vt 0.1258801 0.4061238
vt 0.1305426 0.4529465
vt 0.1300468 0.4529465
vt 0.1258252 0.4406581
vt 0.128724 0.4406581
vt 0.128724 0.3906007
vt 0.1300464 0.4406579
vt 0.128724 0.4406581
vt 0.1702859 0.4438767
vt 0.1850033 0.4438767
vt 0.1258805 0.4406586
vt 0.126376 0.4406585
vt 0.1258801 0.3906012
vt 0.1281945 0.3906011
vt 0.128194 0.4406585
vt 0.1276986 0.3906011
vt 0.126376 0.4406585
vt 0.1263759 0.3906012
vt 0.1276982 0.4406584
vt 0.1305426 0.3906006
vt 0.1300464 0.4406579
vt 0.1300468 0.3906006
vt 0.1305423 0.440658
vt 0.128724 0.3906007
vt 0.1300464 0.4406579
vt 0.128724 0.4406581
vt 0.1850033 0.4438767
vt 0.1258805 0.4406586
vt 0.1258801 0.3906012
vt 0.126376 0.4406585
vt 0.1281945 0.3906011
vt 0.1276982 0.4406584
vt 0.128194 0.4406585
vt 0.1276986 0.3906011
vt 0.126376 0.4406585
vt 0.1276982 0.4406584
vt 0.1263759 0.3906012
vt 0.1305426 0.3906006
vt 0.1300464 0.4406579
vt 0.1305423 0.440658
vt 0.1300468 0.3906006
vt 0.1281945 0.4061237
vt 0.1276986 0.4061237
vt 0.1258251 0.4997699
vt 0.1287246 0.49977
vt 0.1287246 0.49977
vt 0.1300468 0.4997698
vt 0.1276986 0.4061237
vt 0.1263759 0.4061238
vt 0.1463909 0.3761514
vt 0.1316735 0.3761514
vt 0.1258801 0.4997704
vt 0.1263765 0.4997704
vt 0.1305426 0.4061232
vt 0.1300468 0.4061232
vn 1 0 0
vn 1 0 0
vn -1 0 0
vn 0 0 1
vn 0 0 1
vn 0 0 1
vn 0 0 1
vn 0 0 1
vn 1 0 0
vn -1 0 0
vn -1 0 0
vn 0 0 1
vn 0 0 1
vn 0 0 1
vn 0 0 1
vn 0 0 1
vn 0 0 1
vn 1 0 0
vn 1 0 0
vn -1 0 0
vn -1 0 0
vn -1 0 0
vn 0 0 1
vn 0 0 1
vn 0 0 1
vn 0 0 1
vn 0 0 1
vn 1 0 0
vn 0 0 1
vn 0 0 1
vn -1 -1.201928E-06 -0.0002495494
vn 0 0 1
vn 0 0 1
vn 0 0 1
vn 0.9581142 -0.2863864 -1.292388E-05
vn 0.958114 -0.2863873 0
vn 0.958114 -0.2863871 0
vn 0 0 1
vn -0.835964 0.5487842 9.163117E-05
vn 0 0 1
vn 0 0 1
vn 0.8359641 -0.5487841 0
vn 0.8359641 -0.5487841 0
vn 0.8359641 -0.5487841 0
vn 0 0 1
vn -0.835964 0.5487841 9.163117E-05
vn 0 0 1
vn 0 0 1
vn 0 0 1
vn 0.8359623 0.5487868 0
vn 0.8359623 0.5487869 0
vn 0.8359623 0.5487869 0
vn 0 0 1
vn -0.8359622 -0.5487871 -0.0001649281
vn 0.9581131 0.28639 0
vn 0.9581131 0.2863899 0
vn -0.9581131 -0.2863901 -1.916917E-06
vn 0 0 1
vn 0 0 1
vn -0.9581128 -0.2863911 -1.931546E-06
vn -1 -1.201928E-06 -0.0002495494
vn 0 0 1
vn 1 1.27263E-06 0
vn 1 1.27263E-06 0
vn 0 0 1
vn 0 0 1
vn 0 0 1
vn 0 0 1
vn 0 0 1
vn 0 0 1
vn 0 0 1
vn 0 0 1
vn -1 0 0
vn -1 0 0
vn -1 0 0
vn -1 0 0
vn 1 0 0
vn 1 0 0
vn 1 0 0
vn 1 0 0
vn 0 0 1
vn 0 0 1
vn 0 0 1
vn 0 0 1
vn 0 0 1
vn 0 0 1
vn 1 0 0
vn 1 0 0
vn -1 0 0
vn -1 0 0
vn 0 0 1
vn 0 0 1
vn 0 0 1
vn 0 0 1
vn 0 0 1
vn 0 0 1
vn 0 0 1
vn 0 0 1
vn -1 0 0
vn -1 0 0
vn -1 0 0
vn -1 0 0
vn 1 0 0
vn 1 0 0
vn 1 0 0
vn 1 0 0
vn 0 0 1
vn 0 0 1
vn 0 0 1
vn 0 0 1
vn 0 0 1
vn 0 0 1
vn 0 0 1
vn 0 0 1
vn 0 0 1
vn -1 -1.201928E-06 -0.0002495494
vn -1 -2.121045E-06 -0.0001618702
vn 0 0 1
vn 0 0 1
vn 0 0 1
vn 0 0 1
vn 1 1.272629E-06 -1.348887E-05
vn 1 1.272629E-06 -1.348887E-05
vn 0.9581138 -0.2863878 -1.287937E-05
vn -1 -1.272629E-06 0
vn -1 -1.272629E-06 0
vn 0.958114 -0.2863873 0
vn 0.958114 -0.2863871 0
vn 0 0 1
vn 0 0 1
vn 0 0 1
vn 0 0 1
vn 0 0 1
vn 0.9581138 -0.2863878 -1.287937E-05
vn 0.9581142 -0.2863864 -1.292388E-05
vn 0.8359641 -0.5487841 0
vn -0.835964 0.5487841 9.163118E-05
vn -0.835963 0.5487859 -8.069969E-05
vn 0 0 1
vn 0 0 1
vn 0 0 1
vn 0 0 1
vn -0.8359641 0.5487841 0
vn -0.9581143 0.286386 -1.916902E-06
vn -0.8359641 0.5487841 0
vn -0.9581137 0.2863882 -1.931526E-06
vn 0 0 1
vn 0 0 1
vn 0 0 1
vn 0 0 1
vn 0.958113 0.2863905 -1.287936E-05
vn 0.8359624 0.5487868 0
vn 0.9581133 0.2863893 -1.292387E-05
vn -0.8359624 -0.5487866 -0.0001242134
vn -0.8359624 -0.5487866 -0.0001242134
vn -0.8359624 -0.5487866 -0.0001242134
vn 0 0 1
vn 0 0 1
vn 0 0 1
vn 0 0 1
vn -0.8359623 -0.5487868 0
vn -0.9581131 -0.2863901 -1.916917E-06
vn -0.9581128 -0.2863911 -1.931546E-06
vn -0.8359623 -0.5487868 0
vn -1 -1.201928E-06 -8.767972E-05
vn -1 -1.201928E-06 -8.767973E-05
vn 0.9581131 0.2863899 0
vn 0.9581131 0.28639 0
vn 0 0 1
vn 0 0 1
vn 0 0 1
vn 0 0 1
vn 0 0 1
vn 0 0 1
vn 0.958113 0.2863905 -1.287936E-05
vn 0.9581133 0.2863893 -1.292387E-05
vn -0.9581137 0.2863882 -1.931526E-06
vn -0.9581143 0.286386 -1.916902E-06
g Road_BusStop_0
f 8/8/8 17/17/17 7/7/7
f 6/6/6 7/7/7 17/17/17
f 19/19/19 2/2/2 9/9/9
f 1/1/1 9/9/9 2/2/2
f 3/3/3 22/22/22 10/10/10
f 11/11/11 10/10/10 22/22/22
f 12/12/12 13/13/13 69/69/69
f 70/70/70 69/69/69 13/13/13
f 14/14/14 15/15/15 71/71/71
f 72/72/72 71/71/71 15/15/15
f 5/5/5 25/25/25 4/4/4
f 16/16/16 4/4/4 25/25/25
f 75/75/75 74/74/74 73/73/73
f 76/76/76 73/73/73 74/74/74
f 79/79/79 78/78/78 77/77/77
f 80/80/80 77/77/77 78/78/78
f 83/83/83 82/82/82 81/81/81
f 84/84/84 81/81/81 82/82/82
f 47/47/47 27/27/27 85/85/85
f 86/86/86 85/85/85 27/27/27
f 28/28/28 87/87/87 18/18/18
f 88/88/88 18/18/18 87/87/87
f 90/90/90 21/21/21 89/89/89
f 20/20/20 89/89/89 21/21/21
f 92/92/92 23/23/23 91/91/91
f 93/93/93 91/91/91 23/23/23
f 24/24/24 95/95/95 94/94/94
f 96/96/96 94/94/94 95/95/95
f 98/98/98 26/26/26 97/97/97
f 29/29/29 97/97/97 26/26/26
f 101/101/101 100/100/100 99/99/99
f 102/102/102 99/99/99 100/100/100
f 105/105/105 104/104/104 103/103/103
f 106/106/106 103/103/103 104/104/104
f 109/109/109 108/108/108 107/107/107
f 110/110/110 107/107/107 108/108/108
f 112/112/112 32/32/32 111/111/111
f 62/62/62 111/111/111 32/32/32
f 115/115/115 114/114/114 113/113/113
f 30/30/30 113/113/113 114/114/114
f 117/117/117 116/116/116 31/31/31
f 61/61/61 31/31/31 116/116/116
f 116/116/116 165/165/165 61/61/61
f 166/166/166 61/61/61 165/165/165
f 36/36/36 64/64/64 37/37/37
f 63/63/63 37/37/37 64/64/64
f 64/64/64 167/167/167 63/63/63
f 168/168/168 63/63/63 167/167/167
f 34/34/34 118/118/118 65/65/65
f 119/119/119 65/65/65 118/118/118
f 119/119/119 169/169/169 65/65/65
f 170/170/170 65/65/65 169/169/169
f 58/58/58 120/120/120 66/66/66
f 121/121/121 66/66/66 120/120/120
f 121/121/121 171/171/171 66/66/66
f 172/172/172 66/66/66 171/171/171
f 38/38/38 33/33/33 67/67/67
f 68/68/68 67/67/67 33/33/33
f 68/68/68 173/173/173 67/67/67
f 174/174/174 67/67/67 173/173/173
f 124/124/124 122/122/122 35/35/35
f 123/123/123 35/35/35 122/122/122
f 122/122/122 175/175/175 123/123/123
f 176/176/176 123/123/123 175/175/175
f 60/60/60 125/125/125 57/57/57
f 126/126/126 57/57/57 125/125/125
f 125/125/125 177/177/177 126/126/126
f 178/178/178 126/126/126 177/177/177
f 128/128/128 44/44/44 127/127/127
f 43/43/43 127/127/127 44/44/44
f 131/131/131 130/130/130 129/129/129
f 41/41/41 129/129/129 130/130/130
f 133/133/133 132/132/132 40/40/40
f 45/45/45 40/40/40 132/132/132
f 135/135/135 42/42/42 134/134/134
f 136/136/136 134/134/134 42/42/42
f 46/46/46 39/39/39 137/137/137
f 138/138/138 137/137/137 39/39/39
f 141/141/141 140/140/140 139/139/139
f 142/142/142 139/139/139 140/140/140
f 145/145/145 144/144/144 143/143/143
f 146/146/146 143/143/143 144/144/144
f 51/51/51 52/52/52 56/56/56
f 55/55/55 56/56/56 52/52/52
f 49/49/49 148/148/148 147/147/147
f 149/149/149 147/147/147 148/148/148
f 53/53/53 59/59/59 48/48/48
f 150/150/150 48/48/48 59/59/59
f 152/152/152 50/50/50 151/151/151
f 153/153/153 151/151/151 50/50/50
f 156/156/156 155/155/155 154/154/154
f 54/54/54 154/154/154 155/155/155
f 159/159/159 158/158/158 157/157/157
f 160/160/160 157/157/157 158/158/158
f 163/163/163 162/162/162 161/161/161
f 164/164/164 161/161/161 162/162/162
