g RoadBlock_B
v 0.01905762 -0.7217798 0.0352557
v 0.01905762 -0.7217798 1.103848
v 0.01905762 -0.6705102 0.0352557
v 0.01905762 -0.6705102 1.103848
v -0.01905762 -0.7217798 0.0352557
v -0.01905762 -0.7217798 1.103848
v -0.01905762 -0.6705102 0.0352557
v -0.01905762 -0.6705102 1.103848
v -0.534292 -0.757019 0
v 0.534292 -0.757019 7.629394E-08
v -0.534292 -0.635271 0
v 0.534292 -0.635271 7.629394E-08
v -0.534292 -0.757019 0.03811535
v 0.534292 -0.757019 0.03811542
v -0.534292 -0.635271 0.03811535
v 0.534292 -0.635271 0.03811542
v 0.01905762 0.7217749 0.0352557
v 0.01905762 0.7217749 1.103848
v 0.01905762 0.6705053 0.0352557
v 0.01905762 0.6705053 1.103848
v -0.01905762 0.7217749 0.0352557
v -0.01905762 0.7217749 1.103848
v -0.01905762 0.6705053 0.0352557
v -0.01905762 0.6705053 1.103848
v -0.534292 0.7570142 0
v 0.534292 0.7570142 7.629394E-08
v -0.534292 0.6352661 0
v 0.534292 0.6352661 7.629394E-08
v -0.534292 0.7570142 0.03811535
v 0.534292 0.7570142 0.03811542
v -0.534292 0.6352661 0.03811535
v 0.534292 0.6352661 0.03811542
v -0.03994629 0.8604345 0.2728988
v -0.03994629 -0.860437 0.2728988
v -0.01152832 -0.860437 0.2728988
v -0.01152832 0.8604345 0.2728988
v -0.03994629 0.8604345 0.441887
v -0.01152832 0.8604345 0.441887
v -0.01152832 -0.860437 0.441887
v -0.03994629 -0.860437 0.441887
v -0.03994629 0.8604345 0.5813684
v -0.03994629 -0.860437 0.5813684
v -0.01152832 -0.860437 0.5813684
v -0.01152832 0.8604345 0.5813684
v -0.03994629 0.8604345 0.7503566
v -0.01152832 0.8604345 0.7503566
v -0.01152832 -0.860437 0.7503566
v -0.03994629 -0.860437 0.7503566
v -0.03994629 0.8604345 0.8885351
v -0.03994629 -0.860437 0.8885351
v -0.01152832 -0.860437 0.8885351
v -0.01152832 0.8604345 0.8885351
v -0.03994629 0.8604345 1.057523
v -0.01152832 0.8604345 1.057523
v -0.01152832 -0.860437 1.057523
v -0.03994629 -0.860437 1.057523
v 0.01905762 -0.7217798 0.0352557
v -0.01905762 -0.7217798 0.0352557
v -0.01905762 -0.7217798 1.103848
v 0.01905762 -0.7217798 1.103848
v 0.01905762 -0.7217798 1.103848
v -0.01905762 -0.7217798 1.103848
v -0.01905762 -0.6705102 1.103848
v 0.01905762 -0.6705102 1.103848
v 0.01905762 -0.6705102 1.103848
v -0.01905762 -0.6705102 1.103848
v -0.01905762 -0.6705102 0.0352557
v 0.01905762 -0.6705102 0.0352557
v -0.534292 -0.757019 0
v -0.534292 -0.757019 0.03811535
v 0.534292 -0.757019 0.03811542
v 0.534292 -0.757019 7.629394E-08
v 0.534292 -0.757019 7.629394E-08
v 0.534292 -0.757019 0.03811542
v 0.534292 -0.635271 0.03811542
v 0.534292 -0.635271 7.629394E-08
v 0.534292 -0.635271 7.629394E-08
v 0.534292 -0.635271 0.03811542
v -0.534292 -0.635271 0.03811535
v -0.534292 -0.635271 0
v -0.534292 -0.635271 0
v -0.534292 -0.635271 0.03811535
v -0.534292 -0.757019 0.03811535
v -0.534292 -0.757019 0
v 0.01905762 0.7217749 0.0352557
v 0.01905762 0.7217749 1.103848
v -0.01905762 0.7217749 1.103848
v -0.01905762 0.7217749 0.0352557
v 0.01905762 0.7217749 1.103848
v 0.01905762 0.6705053 1.103848
v -0.01905762 0.6705053 1.103848
v -0.01905762 0.7217749 1.103848
v 0.01905762 0.6705053 1.103848
v 0.01905762 0.6705053 0.0352557
v -0.01905762 0.6705053 0.0352557
v -0.01905762 0.6705053 1.103848
v -0.534292 0.7570142 0
v 0.534292 0.7570142 7.629394E-08
v 0.534292 0.7570142 0.03811542
v -0.534292 0.7570142 0.03811535
v 0.534292 0.7570142 7.629394E-08
v 0.534292 0.6352661 7.629394E-08
v 0.534292 0.6352661 0.03811542
v 0.534292 0.7570142 0.03811542
v 0.534292 0.6352661 7.629394E-08
v -0.534292 0.6352661 0
v -0.534292 0.6352661 0.03811535
v 0.534292 0.6352661 0.03811542
v -0.534292 0.6352661 0
v -0.534292 0.7570142 0
v -0.534292 0.7570142 0.03811535
v -0.534292 0.6352661 0.03811535
v -0.03994629 0.8604345 0.2728988
v -0.01152832 0.8604345 0.2728988
v -0.01152832 0.8604345 0.441887
v -0.03994629 0.8604345 0.441887
v -0.01152832 0.8604345 0.2728988
v -0.01152832 -0.860437 0.2728988
v -0.01152832 -0.860437 0.441887
v -0.01152832 0.8604345 0.441887
v -0.01152832 -0.860437 0.2728988
v -0.03994629 -0.860437 0.2728988
v -0.03994629 -0.860437 0.441887
v -0.01152832 -0.860437 0.441887
v -0.03994629 -0.860437 0.2728988
v -0.03994629 0.8604345 0.2728988
v -0.03994629 0.8604345 0.441887
v -0.03994629 -0.860437 0.441887
v -0.03994629 0.8604345 0.5813684
v -0.01152832 0.8604345 0.5813684
v -0.01152832 0.8604345 0.7503566
v -0.03994629 0.8604345 0.7503566
v -0.01152832 0.8604345 0.5813684
v -0.01152832 -0.860437 0.5813684
v -0.01152832 -0.860437 0.7503566
v -0.01152832 0.8604345 0.7503566
v -0.01152832 -0.860437 0.5813684
v -0.03994629 -0.860437 0.5813684
v -0.03994629 -0.860437 0.7503566
v -0.01152832 -0.860437 0.7503566
v -0.03994629 -0.860437 0.5813684
v -0.03994629 0.8604345 0.5813684
v -0.03994629 0.8604345 0.7503566
v -0.03994629 -0.860437 0.7503566
v -0.03994629 0.8604345 0.8885351
v -0.01152832 0.8604345 0.8885351
v -0.01152832 0.8604345 1.057523
v -0.03994629 0.8604345 1.057523
v -0.01152832 0.8604345 0.8885351
v -0.01152832 -0.860437 0.8885351
v -0.01152832 -0.860437 1.057523
v -0.01152832 0.8604345 1.057523
v -0.01152832 -0.860437 0.8885351
v -0.03994629 -0.860437 0.8885351
v -0.03994629 -0.860437 1.057523
v -0.01152832 -0.860437 1.057523
v -0.03994629 -0.860437 0.8885351
v -0.03994629 0.8604345 0.8885351
v -0.03994629 0.8604345 1.057523
v -0.03994629 -0.860437 1.057523
vt 0.4164102 0.7801703
vt 0.4168752 0.8633127
vt 0.4258825 0.7801172
vt 0.4263475 0.8632596
vt 0.4134448 0.7801868
vt 0.4139095 0.8633292
vt 0.4039725 0.7802399
vt 0.4044373 0.863382
vt 0.4138465 0.8479156
vt 0.4133431 0.789525
vt 0.3980488 0.8480518
vt 0.3975454 0.7896612
vt 0.4159292 0.8478976
vt 0.4154258 0.7895071
vt 0.4317268 0.8477613
vt 0.4312235 0.7893708
vt 0.4164102 0.7801703
vt 0.4168752 0.8633127
vt 0.4258825 0.7801172
vt 0.4263475 0.8632596
vt 0.4134448 0.7801868
vt 0.4139095 0.8633292
vt 0.4039725 0.7802399
vt 0.4044373 0.863382
vt 0.4138465 0.8479156
vt 0.4133431 0.789525
vt 0.3980488 0.8480518
vt 0.3975454 0.7896612
vt 0.4159292 0.8478976
vt 0.4154258 0.7895071
vt 0.4317268 0.8477613
vt 0.4312235 0.7893708
vt 0.5034434 0.4416925
vt 0.5034434 0.4960052
vt 0.5055524 0.4960052
vt 0.5055524 0.4416925
vt 0.5032389 0.4416925
vt 0.5041734 0.4416925
vt 0.5041734 0.4960052
vt 0.5032389 0.4960052
vt 0.5034434 0.4326224
vt 0.5034434 0.4869351
vt 0.5055524 0.4869351
vt 0.5055524 0.4326224
vt 0.5032389 0.4326224
vt 0.5041734 0.4326224
vt 0.5041734 0.4869351
vt 0.5032389 0.4869351
vt 0.5034434 0.4416925
vt 0.5034434 0.4960052
vt 0.5055524 0.4960052
vt 0.5055524 0.4416925
vt 0.5032389 0.4416925
vt 0.5041734 0.4416925
vt 0.5041734 0.4960052
vt 0.5032389 0.4960052
vt 0.4164102 0.7801703
vt 0.4134448 0.7801868
vt 0.4139095 0.8633292
vt 0.4168752 0.8633127
vt 0.4139262 0.8662948
vt 0.4139095 0.8633292
vt 0.4044373 0.863382
vt 0.4044539 0.8663477
vt 0.4014718 0.8633987
vt 0.4044373 0.863382
vt 0.4039725 0.7802399
vt 0.401007 0.7802563
vt 0.4138465 0.8479156
vt 0.4159292 0.8478976
vt 0.4154258 0.7895071
vt 0.4133431 0.789525
vt 0.4154079 0.7874244
vt 0.4154258 0.7895071
vt 0.4312235 0.7893708
vt 0.4312055 0.7872881
vt 0.4333062 0.7893528
vt 0.4312235 0.7893708
vt 0.4317268 0.8477613
vt 0.4338096 0.8477435
vt 0.4317449 0.8498442
vt 0.4317268 0.8477613
vt 0.4159292 0.8478976
vt 0.4159471 0.8499803
vt 0.4164102 0.7801703
vt 0.4168752 0.8633127
vt 0.4139095 0.8633292
vt 0.4134448 0.7801868
vt 0.4139262 0.8662948
vt 0.4044539 0.8663477
vt 0.4044373 0.863382
vt 0.4139095 0.8633292
vt 0.4014718 0.8633987
vt 0.401007 0.7802563
vt 0.4039725 0.7802399
vt 0.4044373 0.863382
vt 0.4138465 0.8479156
vt 0.4133431 0.789525
vt 0.4154258 0.7895071
vt 0.4159292 0.8478976
vt 0.4154079 0.7874244
vt 0.4312055 0.7872881
vt 0.4312235 0.7893708
vt 0.4154258 0.7895071
vt 0.4333062 0.7893528
vt 0.4338096 0.8477435
vt 0.4317268 0.8477613
vt 0.4312235 0.7893708
vt 0.4317449 0.8498442
vt 0.4159471 0.8499803
vt 0.4159292 0.8478976
vt 0.4317268 0.8477613
vt 0.5005386 0.4955014
vt 0.5014897 0.4955014
vt 0.5012937 0.4960689
vt 0.5003427 0.4960689
vt 0.5056084 0.4416925
vt 0.5056084 0.4960052
vt 0.5021305 0.4960052
vt 0.5021305 0.4416925
vt 0.5005386 0.4955014
vt 0.5014897 0.4955014
vt 0.5012937 0.4960689
vt 0.5003427 0.4960689
vt 0.505792 0.4960052
vt 0.505792 0.4416925
vt 0.5019221 0.4416925
vt 0.5022618 0.4960052
vt 0.5005386 0.4864312
vt 0.5014897 0.4864312
vt 0.5012937 0.4869987
vt 0.5003427 0.4869987
vt 0.5056084 0.4326224
vt 0.5056084 0.4869351
vt 0.5021305 0.4869351
vt 0.5021305 0.4326224
vt 0.5005386 0.4864312
vt 0.5014897 0.4864312
vt 0.5012937 0.4869987
vt 0.5003427 0.4869987
vt 0.505792 0.4869351
vt 0.505792 0.4326224
vt 0.5019221 0.4326224
vt 0.5022618 0.4869351
vt 0.5005386 0.4955014
vt 0.5014897 0.4955014
vt 0.5012937 0.4960689
vt 0.5003427 0.4960689
vt 0.5056084 0.4416925
vt 0.5056084 0.4960052
vt 0.5021305 0.4960052
vt 0.5021305 0.4416925
vt 0.5005386 0.4955014
vt 0.5014897 0.4955014
vt 0.5012937 0.4960689
vt 0.5003427 0.4960689
vt 0.505792 0.4960052
vt 0.505792 0.4416925
vt 0.5019221 0.4416925
vt 0.5022618 0.4960052
vn 1 0 0
vn 1 0 0
vn 1 0 0
vn 1 0 0
vn -1 0 0
vn -1 0 0
vn -1 0 0
vn -1 0 0
vn 0 0 -1
vn 0 0 -1
vn 0 0 -1
vn 0 0 -1
vn 0 0 1
vn 0 0 1
vn 0 0 1
vn 0 0 1
vn 1 0 0
vn 1 0 0
vn 1 0 0
vn 1 0 0
vn -1 0 0
vn -1 0 0
vn -1 0 0
vn -1 0 0
vn 0 0 -1
vn 0 0 -1
vn 0 0 -1
vn 0 0 -1
vn 0 0 1
vn 0 0 1
vn 0 0 1
vn 0 0 1
vn -1.342354E-06 0 -1
vn -1.342354E-06 0 -1
vn -1.342354E-06 0 -1
vn -1.342354E-06 0 -1
vn 0 0 1
vn 0 0 1
vn 0 0 1
vn 0 0 1
vn -1.342354E-06 0 -1
vn -1.342354E-06 0 -1
vn -1.342354E-06 0 -1
vn -1.342354E-06 0 -1
vn 0 0 1
vn 0 0 1
vn 0 0 1
vn 0 0 1
vn 0 0 -1
vn 0 0 -1
vn 0 0 -1
vn 0 0 -1
vn -2.684709E-06 0 1
vn -2.684709E-06 0 1
vn -2.684709E-06 0 1
vn -2.684709E-06 0 1
vn 0 -1 0
vn 0 -1 0
vn 0 -1 0
vn 0 -1 0
vn 0 0 1
vn 0 0 1
vn 0 0 1
vn 0 0 1
vn 0 1 0
vn 0 1 0
vn 0 1 0
vn 0 1 0
vn 0 -1 0
vn 0 -1 0
vn 0 -1 0
vn 0 -1 0
vn 1 0 0
vn 1 0 0
vn 1 0 0
vn 1 0 0
vn 0 1 0
vn 0 1 0
vn 0 1 0
vn 0 1 0
vn -1 0 0
vn -1 0 0
vn -1 0 0
vn -1 0 0
vn 0 1 0
vn 0 1 0
vn 0 1 0
vn 0 1 0
vn 0 0 1
vn 0 0 1
vn 0 0 1
vn 0 0 1
vn 0 -1 0
vn 0 -1 0
vn 0 -1 0
vn 0 -1 0
vn 0 1 0
vn 0 1 0
vn 0 1 0
vn 0 1 0
vn 1 0 0
vn 1 0 0
vn 1 0 0
vn 1 0 0
vn 0 -1 0
vn 0 -1 0
vn 0 -1 0
vn 0 -1 0
vn -1 0 0
vn -1 0 0
vn -1 0 0
vn -1 0 0
vn 0 1 0
vn 0 1 0
vn 0 1 0
vn 0 1 0
vn 1 0 0
vn 1 0 0
vn 1 0 0
vn 1 0 0
vn 0 -1 0
vn 0 -1 0
vn 0 -1 0
vn 0 -1 0
vn -1 0 0
vn -1 0 0
vn -1 0 0
vn -1 0 0
vn 0 1 0
vn 0 1 0
vn 0 1 0
vn 0 1 0
vn 1 0 0
vn 1 0 0
vn 1 0 0
vn 1 0 0
vn 0 -1 0
vn 0 -1 0
vn 0 -1 0
vn 0 -1 0
vn -1 0 0
vn -1 0 0
vn -1 0 0
vn -1 0 0
vn 0 1 0
vn 0 1 0
vn 0 1 0
vn 0 1 0
vn 1 0 0
vn 1 0 0
vn 1 0 0
vn 1 0 0
vn 0 -1 0
vn 0 -1 0
vn 0 -1 0
vn 0 -1 0
vn -1 0 0
vn -1 0 0
vn -1 0 0
vn -1 0 0
g RoadBlock_B_0
f 4/4/4 2/2/2 1/1/1
f 3/3/3 4/4/4 1/1/1
f 8/8/8 7/7/7 5/5/5
f 6/6/6 8/8/8 5/5/5
f 59/59/59 58/58/58 57/57/57
f 60/60/60 59/59/59 57/57/57
f 63/63/63 62/62/62 61/61/61
f 64/64/64 63/63/63 61/61/61
f 67/67/67 66/66/66 65/65/65
f 68/68/68 67/67/67 65/65/65
f 12/12/12 10/10/10 9/9/9
f 11/11/11 12/12/12 9/9/9
f 16/16/16 15/15/15 13/13/13
f 14/14/14 16/16/16 13/13/13
f 71/71/71 70/70/70 69/69/69
f 72/72/72 71/71/71 69/69/69
f 75/75/75 74/74/74 73/73/73
f 76/76/76 75/75/75 73/73/73
f 79/79/79 78/78/78 77/77/77
f 80/80/80 79/79/79 77/77/77
f 83/83/83 82/82/82 81/81/81
f 84/84/84 83/83/83 81/81/81
f 20/20/20 19/19/19 17/17/17
f 18/18/18 20/20/20 17/17/17
f 24/24/24 22/22/22 21/21/21
f 23/23/23 24/24/24 21/21/21
f 87/87/87 86/86/86 85/85/85
f 88/88/88 87/87/87 85/85/85
f 91/91/91 90/90/90 89/89/89
f 92/92/92 91/91/91 89/89/89
f 95/95/95 94/94/94 93/93/93
f 96/96/96 95/95/95 93/93/93
f 28/28/28 27/27/27 25/25/25
f 26/26/26 28/28/28 25/25/25
f 32/32/32 30/30/30 29/29/29
f 31/31/31 32/32/32 29/29/29
f 99/99/99 98/98/98 97/97/97
f 100/100/100 99/99/99 97/97/97
f 103/103/103 102/102/102 101/101/101
f 104/104/104 103/103/103 101/101/101
f 107/107/107 106/106/106 105/105/105
f 108/108/108 107/107/107 105/105/105
f 111/111/111 110/110/110 109/109/109
f 112/112/112 111/111/111 109/109/109
f 35/35/35 34/34/34 33/33/33
f 36/36/36 35/35/35 33/33/33
f 39/39/39 38/38/38 37/37/37
f 40/40/40 39/39/39 37/37/37
f 115/115/115 114/114/114 113/113/113
f 116/116/116 115/115/115 113/113/113
f 119/119/119 118/118/118 117/117/117
f 120/120/120 119/119/119 117/117/117
f 123/123/123 122/122/122 121/121/121
f 124/124/124 123/123/123 121/121/121
f 127/127/127 126/126/126 125/125/125
f 128/128/128 127/127/127 125/125/125
f 43/43/43 42/42/42 41/41/41
f 44/44/44 43/43/43 41/41/41
f 47/47/47 46/46/46 45/45/45
f 48/48/48 47/47/47 45/45/45
f 131/131/131 130/130/130 129/129/129
f 132/132/132 131/131/131 129/129/129
f 135/135/135 134/134/134 133/133/133
f 136/136/136 135/135/135 133/133/133
f 139/139/139 138/138/138 137/137/137
f 140/140/140 139/139/139 137/137/137
f 143/143/143 142/142/142 141/141/141
f 144/144/144 143/143/143 141/141/141
f 51/51/51 50/50/50 49/49/49
f 52/52/52 51/51/51 49/49/49
f 55/55/55 54/54/54 53/53/53
f 56/56/56 55/55/55 53/53/53
f 147/147/147 146/146/146 145/145/145
f 148/148/148 147/147/147 145/145/145
f 151/151/151 150/150/150 149/149/149
f 152/152/152 151/151/151 149/149/149
f 155/155/155 154/154/154 153/153/153
f 156/156/156 155/155/155 153/153/153
f 159/159/159 158/158/158 157/157/157
f 160/160/160 159/159/159 157/157/157
