g Road_Cross_A_A
v 7.499983 -14.99994 0
v 5.231406 -14.99994 0.529027
v 5.47284 -14.99994 0.4385298
v 7.258548 -14.99994 0.529027
v -5.231406 -14.99994 0.4385298
v -5.231406 -14.99994 0.529027
v -7.499983 -14.99994 0.529027
v -7.258548 -14.99994 0.4385298
v -5.47284 -14.99994 0.4385298
v 0 -14.99994 0.4385298
v 5.231406 -14.99994 0.4385298
v 7.499983 -14.99994 0.529027
v 7.258548 -14.99994 0.4385298
v 5.47284 -14.99994 0.529027
v -7.499983 -14.99994 0
v -7.258548 -14.99994 0.529027
v -5.47284 -14.99994 0.529027
v -5.231685 -5.231685 0.4385298
v -5.231685 -5.231685 0.529027
v -7.258935 -7.258934 0.529027
v -5.473133 -5.473132 0.529027
v -5.473133 -5.473132 0.4385298
v -14.99994 5.231406 0.4385298
v -14.99994 5.231406 0.529027
v -14.99994 7.499985 0
v -14.99994 7.499985 0.529027
v -14.99994 7.258547 0.529027
v -14.99994 5.47284 0.529027
v -14.99994 5.47284 0.4385298
v -14.99994 7.258547 0.4385298
v -14.99994 0 0.4385298
v -14.99994 -7.499985 0
v -14.99994 -7.499985 0.529027
v -7.500384 -7.500384 0.529027
v -7.500384 -7.500384 0
v -14.99994 -7.25855 0.529027
v -14.99994 -5.472844 0.4385298
v -7.258935 -7.258934 0.4385298
v -14.99994 -7.25855 0.4385298
v -14.99994 -5.472844 0.529027
v -14.99994 -5.231406 0.4385298
v -14.99994 -5.231406 0.529027
v 5.231685 -5.231685 0.4385298
v 7.500383 -7.500384 0
v 5.231685 -5.231685 0.529027
v 7.500383 -7.500384 0.529027
v 7.258935 -7.258934 0.529027
v 5.473132 -5.473132 0.529027
v 7.258935 -7.258934 0.4385298
v 5.473132 -5.473132 0.4385298
v 14.99993 -7.499985 0
v 14.99993 -7.499985 0.529027
v 14.99994 -7.25855 0.529027
v 14.99993 -5.472844 0.4385298
v 14.99994 -7.25855 0.4385298
v 14.99993 -5.472844 0.529027
v 14.99994 -2.649951E-06 0.4385298
v 14.99993 -5.231406 0.4385298
v 0 0 0.4385298
v 14.99994 7.499979 0
v 14.99994 7.499979 0.529027
v 14.99994 7.258545 0.529027
v 14.99994 5.472838 0.4385298
v 14.99994 7.258545 0.4385298
v 14.99994 5.472838 0.529027
v 5.473134 5.473132 0.529027
v 5.231686 5.231682 0.4385298
v 14.99994 5.231401 0.4385298
v 5.231686 5.231682 0.529027
v 14.99994 5.231401 0.529027
v -7.499983 14.99994 0
v -7.499983 14.99994 0.529027
v -7.499582 7.499584 0.529027
v -7.499582 7.499584 0
v -7.258549 14.99994 0.529027
v -7.258162 7.258163 0.529027
v -5.472841 14.99994 0.4385298
v -5.47255 5.472549 0.4385298
v -7.258162 7.258163 0.4385298
v -7.258549 14.99994 0.4385298
v -5.472841 14.99994 0.529027
v -5.47255 5.472549 0.529027
v 2.76926E-06 14.99994 0.4385298
v -5.231126 5.231125 0.4385298
v -5.231403 14.99994 0.4385298
v 7.499986 14.99994 0
v 7.500386 7.500382 0
v 7.500386 7.500382 0.529027
v 7.499986 14.99994 0.529027
v 7.25855 14.99994 0.529027
v 7.258936 7.258932 0.529027
v 5.472844 14.99994 0.4385298
v 7.25855 14.99994 0.4385298
v 7.258936 7.258932 0.4385298
v 5.473134 5.473132 0.4385298
v 5.472844 14.99994 0.529027
v 5.231409 14.99994 0.4385298
v 5.231409 14.99994 0.529027
v 14.99993 -5.231406 0.529027
v -5.231126 5.231125 0.529027
v -5.231403 14.99994 0.529027
v 7.500383 -7.500384 0.529027
v 7.499983 -14.99994 0.529027
v 5.473132 -5.473132 0.4385298
v 5.47284 -14.99994 0.4385298
v -7.500384 -7.500384 0.529027
v -7.499983 -14.99994 0.529027
v -5.473133 -5.473132 0.4385298
v -5.47284 -14.99994 0.4385298
v 0 0 0.4385298
v 0 -14.99994 0.4385298
v -5.231685 -5.231685 0.4385298
v -5.231406 -14.99994 0.4385298
v -5.473133 -5.473132 0.529027
v -5.231406 -14.99994 0.529027
v -5.47284 -14.99994 0.529027
v -5.231685 -5.231685 0.529027
v -7.258548 -14.99994 0.529027
v -7.258935 -7.258934 0.4385298
v -7.258548 -14.99994 0.4385298
v -7.258935 -7.258934 0.529027
v -7.499582 7.499584 0.529027
v -14.99994 7.499985 0.529027
v -5.47255 5.472549 0.4385298
v -14.99994 5.47284 0.4385298
v -7.500384 -7.500384 0
v -7.500384 -7.500384 0.529027
v -14.99994 -7.499985 0.529027
v -5.473133 -5.473132 0.4385298
v -14.99994 -5.472844 0.4385298
v -5.473133 -5.473132 0.529027
v -14.99994 0 0.4385298
v -5.231685 -5.231685 0.4385298
v -5.231685 -5.231685 0.529027
v -14.99994 -5.231406 0.4385298
v -14.99994 -5.231406 0.529027
v -14.99994 -5.472844 0.529027
v -14.99994 -7.25855 0.529027
v -7.258935 -7.258934 0.4385298
v -7.258935 -7.258934 0.529027
v -14.99994 -7.25855 0.4385298
v 5.231406 -14.99994 0.4385298
v 5.231685 -5.231685 0.4385298
v 5.231406 -14.99994 0.529027
v 5.473132 -5.473132 0.529027
v 5.47284 -14.99994 0.529027
v 5.231685 -5.231685 0.529027
v 7.258548 -14.99994 0.4385298
v 7.258935 -7.258934 0.529027
v 7.258548 -14.99994 0.529027
v 7.258935 -7.258934 0.4385298
v -5.231126 5.231125 0.4385298
v -14.99994 5.231406 0.4385298
v -5.47255 5.472549 0.529027
v -14.99994 5.231406 0.529027
v -14.99994 5.47284 0.529027
v -5.231126 5.231125 0.529027
v -14.99994 7.258547 0.529027
v -7.258162 7.258163 0.4385298
v -14.99994 7.258547 0.4385298
v -7.258162 7.258163 0.529027
v 7.500383 -7.500384 0
v 7.500383 -7.500384 0.529027
v 14.99993 -7.499985 0.529027
v 5.473132 -5.473132 0.4385298
v 14.99993 -5.472844 0.4385298
v 5.473132 -5.473132 0.529027
v 7.500386 7.500382 0.529027
v 14.99994 7.499979 0.529027
v 5.473134 5.473132 0.4385298
v 14.99994 5.472838 0.4385298
v 14.99994 -2.649951E-06 0.4385298
v 5.231686 5.231682 0.4385298
v 14.99994 5.231401 0.4385298
v 5.473134 5.473132 0.529027
v 14.99994 5.231401 0.529027
v 5.231686 5.231682 0.529027
v 14.99994 5.472838 0.529027
v 14.99994 7.258545 0.529027
v 7.258936 7.258932 0.4385298
v 7.258936 7.258932 0.529027
v 14.99994 7.258545 0.4385298
v -7.499582 7.499584 0
v -7.499582 7.499584 0.529027
v -7.499983 14.99994 0.529027
v -5.47255 5.472549 0.4385298
v -5.472841 14.99994 0.4385298
v -5.47255 5.472549 0.529027
v 7.500386 7.500382 0
v 7.500386 7.500382 0.529027
v 7.499986 14.99994 0.529027
v 5.473134 5.473132 0.4385298
v 5.473134 5.473132 0.529027
v 5.472844 14.99994 0.4385298
v 2.76926E-06 14.99994 0.4385298
v 5.231686 5.231682 0.4385298
v 5.231409 14.99994 0.4385298
v 5.231686 5.231682 0.529027
v 5.231409 14.99994 0.529027
v 5.472844 14.99994 0.529027
v 7.25855 14.99994 0.529027
v 7.258936 7.258932 0.4385298
v 7.25855 14.99994 0.4385298
v 7.258936 7.258932 0.529027
v 14.99993 -5.231406 0.4385298
v 5.231685 -5.231685 0.529027
v 5.231685 -5.231685 0.4385298
v 14.99993 -5.231406 0.529027
v 14.99993 -5.472844 0.529027
v 14.99994 -7.25855 0.4385298
v 7.258935 -7.258934 0.529027
v 7.258935 -7.258934 0.4385298
v 14.99994 -7.25855 0.529027
v -5.231126 5.231125 0.4385298
v -5.231126 5.231125 0.529027
v -5.231403 14.99994 0.4385298
v -5.231403 14.99994 0.529027
v -5.472841 14.99994 0.529027
v -7.258549 14.99994 0.529027
v -7.258162 7.258163 0.4385298
v -7.258162 7.258163 0.529027
v -7.258549 14.99994 0.4385298
v 0 0 0.4385298
v -7.500384 -7.500384 0.529027
v -7.258935 -7.258934 0.529027
v -7.258935 -7.258934 0.4385298
v -5.473133 -5.473132 0.4385298
v 0 0 0.4385298
v -5.231685 -5.231685 0.4385298
v -5.473133 -5.473132 0.529027
v -5.231685 -5.231685 0.529027
v 7.500383 -7.500384 0.529027
v 7.258935 -7.258934 0.529027
v 7.258935 -7.258934 0.4385298
v 5.473132 -5.473132 0.4385298
v 0 0 0.4385298
v 5.231685 -5.231685 0.4385298
v 0 0 0.4385298
v -7.499582 7.499584 0.529027
v -7.258162 7.258163 0.529027
v -7.258162 7.258163 0.4385298
v -5.47255 5.472549 0.4385298
v 0 0 0.4385298
v -5.231126 5.231125 0.4385298
v 7.500386 7.500382 0.529027
v 7.258936 7.258932 0.529027
v 7.258936 7.258932 0.4385298
v 5.473134 5.473132 0.4385298
v 0 0 0.4385298
v 5.231686 5.231682 0.4385298
v 5.473134 5.473132 0.529027
v 5.231686 5.231682 0.529027
v 5.473132 -5.473132 0.529027
v 5.231685 -5.231685 0.529027
v -5.47255 5.472549 0.529027
v -5.231126 5.231125 0.529027
vt 0.1305616 0.4179578
vt 0.126343 0.4179581
vt 0.1862036 0.4994957
vt 0.1263399 0.4179577
vt 0.3752072 0.2287308
vt 0.1276986 0.4179581
vt 0.128724 0.4179578
vt 0.1713915 0.499496
vt 0.1566738 0.499496
vt 0.4372135 0.1267368
vt 0.4998499 0.1267368
vt 0.1276627 0.4179578
vt 0.1714859 0.4994957
vt 0.1276658 0.4179583
vt 0.1258251 0.4179578
vt 0.1300468 0.4179577
vt 0.1263759 0.4179583
vt 0.3752072 0.1623123
vt 0.1276987 0.4709387
vt 0.1300468 0.459942
vt 0.1263759 0.4696291
vt 0.1566738 0.4209797
vt 0.4998499 0.1267368
vt 0.126343 0.4179581
vt 0.1305616 0.4179578
vt 0.1276627 0.4179578
vt 0.1263399 0.4179577
vt 0.1276658 0.4179583
vt 0.1862036 0.4994957
vt 0.1714859 0.4994957
vt 0.4372135 0.1267368
vt 0.1258251 0.4179578
vt 0.128724 0.4179578
vt 0.128724 0.4586325
vt 0.1258251 0.4586325
vt 0.1300468 0.4179577
vt 0.1566738 0.499496
vt 0.1713915 0.4356989
vt 0.1713915 0.499496
vt 0.1263759 0.4179583
vt 0.3752072 0.2287308
vt 0.1276986 0.4179581
vt 0.4998499 0.1931554
vt 0.1305616 0.4586325
vt 0.126343 0.4709386
vt 0.1276627 0.4586325
vt 0.1263399 0.459942
vt 0.1276658 0.4696291
vt 0.1714859 0.4356988
vt 0.1862036 0.4209797
vt 0.1305616 0.4179578
vt 0.1276627 0.4179578
vt 0.1263399 0.4179577
vt 0.1862036 0.4994957
vt 0.1714859 0.4994957
vt 0.1276658 0.4179583
vt 0.4372135 0.1267368
vt 0.4998499 0.1267368
vt 0.4372135 0.2287309
vt 0.1258251 0.4179578
vt 0.128724 0.4179578
vt 0.1300468 0.4179577
vt 0.1566738 0.499496
vt 0.1713915 0.499496
vt 0.1263759 0.4179583
vt 0.1263759 0.4696291
vt 0.3752072 0.1623123
vt 0.3752072 0.2287308
vt 0.1276987 0.4709387
vt 0.1276986 0.4179581
vt 0.1305616 0.4179578
vt 0.1276627 0.4179578
vt 0.1276627 0.4586411
vt 0.1305616 0.4586411
vt 0.1263399 0.4179577
vt 0.1263399 0.4599504
vt 0.1862036 0.4994957
vt 0.1862036 0.4209701
vt 0.1714859 0.435686
vt 0.1714859 0.4994957
vt 0.1276658 0.4179583
vt 0.1276658 0.4696355
vt 0.4372135 0.1267368
vt 0.4998499 0.193163
vt 0.4998499 0.1267368
vt 0.1258251 0.4179578
vt 0.1258251 0.4586325
vt 0.128724 0.4586325
vt 0.128724 0.4179578
vt 0.1300468 0.4179577
vt 0.1300468 0.459942
vt 0.1566738 0.499496
vt 0.1713915 0.499496
vt 0.1713915 0.4356989
vt 0.1566738 0.4209797
vt 0.1263759 0.4179583
vt 0.3752072 0.2287308
vt 0.1276986 0.4179581
vt 0.126343 0.4179581
vt 0.126343 0.4709447
vt 0.126343 0.4179581
vt 0.1276627 0.4586325
vt 0.1276627 0.4179578
vt 0.1281615 0.4696291
vt 0.1281615 0.4179583
vt 0.128724 0.4586325
vt 0.128724 0.4179578
vt 0.1258801 0.4696291
vt 0.1258801 0.4179583
vt 0.4371436 0.1267368
vt 0.4371436 0.2287308
vt 0.1281945 0.4709387
vt 0.1281945 0.4179581
vt 0.1263759 0.4696291
vt 0.1276986 0.4179581
vt 0.1263759 0.4179583
vt 0.1276987 0.4709387
vt 0.1300468 0.4179577
vt 0.1305426 0.459942
vt 0.1305426 0.4179577
vt 0.1300468 0.459942
vt 0.1276627 0.4586411
vt 0.1276627 0.4179578
vt 0.1281615 0.4696355
vt 0.1281615 0.4179583
vt 0.1258251 0.4586325
vt 0.128724 0.4586325
vt 0.128724 0.4179578
vt 0.1258801 0.4696291
vt 0.1258801 0.4179583
vt 0.1263759 0.4696291
vt 0.4371436 0.2287308
vt 0.1281945 0.4709387
vt 0.1276987 0.4709387
vt 0.1281945 0.4179581
vt 0.1276986 0.4179581
vt 0.1263759 0.4179583
vt 0.1300468 0.4179577
vt 0.1305426 0.459942
vt 0.1300468 0.459942
vt 0.1305426 0.4179577
vt 0.1258472 0.4179581
vt 0.1258472 0.4709386
vt 0.126343 0.4179581
vt 0.1276658 0.4696291
vt 0.1276658 0.4179583
vt 0.126343 0.4709386
vt 0.1258441 0.4179577
vt 0.1263399 0.459942
vt 0.1263399 0.4179577
vt 0.1258441 0.459942
vt 0.1258472 0.4709447
vt 0.1258472 0.4179581
vt 0.1276658 0.4696355
vt 0.126343 0.4179581
vt 0.1276658 0.4179583
vt 0.126343 0.4709447
vt 0.1263399 0.4179577
vt 0.1258441 0.4599504
vt 0.1258441 0.4179577
vt 0.1263399 0.4599504
vt 0.1305616 0.4586325
vt 0.1276627 0.4586325
vt 0.1276627 0.4179578
vt 0.1281615 0.4696291
vt 0.1281615 0.4179583
vt 0.1276658 0.4696291
vt 0.128724 0.4586325
vt 0.128724 0.4179578
vt 0.1258801 0.4696291
vt 0.1258801 0.4179583
vt 0.4371436 0.2287308
vt 0.1281945 0.4709387
vt 0.1281945 0.4179581
vt 0.1263759 0.4696291
vt 0.1276986 0.4179581
vt 0.1276987 0.4709387
vt 0.1263759 0.4179583
vt 0.1300468 0.4179577
vt 0.1305426 0.459942
vt 0.1300468 0.459942
vt 0.1305426 0.4179577
vt 0.1305616 0.4586411
vt 0.1276627 0.4586411
vt 0.1276627 0.4179578
vt 0.1281615 0.4696355
vt 0.1281615 0.4179583
vt 0.1276658 0.4696355
vt 0.1258251 0.4586325
vt 0.128724 0.4586325
vt 0.128724 0.4179578
vt 0.1258801 0.4696291
vt 0.1263759 0.4696291
vt 0.1258801 0.4179583
vt 0.4371436 0.2287308
vt 0.1281945 0.4709387
vt 0.1281945 0.4179581
vt 0.1276987 0.4709387
vt 0.1276986 0.4179581
vt 0.1263759 0.4179583
vt 0.1300468 0.4179577
vt 0.1305426 0.459942
vt 0.1305426 0.4179577
vt 0.1300468 0.459942
vt 0.1258472 0.4179581
vt 0.126343 0.4709386
vt 0.1258472 0.4709386
vt 0.126343 0.4179581
vt 0.1276658 0.4179583
vt 0.1258441 0.4179577
vt 0.1263399 0.459942
vt 0.1258441 0.459942
vt 0.1263399 0.4179577
vt 0.1258472 0.4709447
vt 0.126343 0.4709447
vt 0.1258472 0.4179581
vt 0.126343 0.4179581
vt 0.1276658 0.4179583
vt 0.1263399 0.4179577
vt 0.1258441 0.4599504
vt 0.1263399 0.4599504
vt 0.1258441 0.4179577
vt 0.4372135 0.2287309
vt 0.128724 0.4586325
vt 0.1300468 0.459942
vt 0.1713915 0.4356989
vt 0.1566738 0.4209797
vt 0.4371436 0.1267368
vt 0.3752072 0.1623123
vt 0.1263759 0.4696291
vt 0.1276987 0.4709387
vt 0.1276627 0.4586325
vt 0.1263399 0.459942
vt 0.1714859 0.4356988
vt 0.1862036 0.4209797
vt 0.4372135 0.2287309
vt 0.4998499 0.1931554
vt 0.4371436 0.1267368
vt 0.1276627 0.4586411
vt 0.1263399 0.4599504
vt 0.1714859 0.435686
vt 0.1862036 0.4209701
vt 0.4372135 0.2287309
vt 0.4998499 0.193163
vt 0.128724 0.4586325
vt 0.1300468 0.459942
vt 0.1713915 0.4356989
vt 0.1566738 0.4209797
vt 0.4371436 0.1267368
vt 0.3752072 0.1623123
vt 0.1263759 0.4696291
vt 0.1276987 0.4709387
vt 0.1276658 0.4696291
vt 0.126343 0.4709386
vt 0.1276658 0.4696355
vt 0.126343 0.4709447
vn 1 -5.330721E-05 0
vn -1 2.855481E-05 0
vn 0 0 1
vn 0 0 1
vn 0 0 1
vn 1 2.855481E-05 0
vn -1 -5.33886E-05 0
vn 0 0 1
vn 0 0 1
vn 0 0 1
vn 0 0 1
vn 1 -5.330721E-05 0
vn 0 0 1
vn 1 -3.062391E-05 0
vn -1 -5.33886E-05 0
vn 0 0 1
vn -1 -3.068798E-05 0
vn 0 0 1
vn 1 2.855481E-05 0
vn 0 0 1
vn -0.7071066 -0.7071069 0
vn 0 0 1
vn 0 0 1
vn -2.874062E-05 -1 0
vn 5.338289E-05 1 0
vn 5.33829E-05 1 0
vn 0 0 1
vn 3.055798E-05 1 0
vn 0 0 1
vn 0 0 1
vn 0 0 1
vn -5.330722E-05 -1 0
vn -5.330722E-05 -1 0
vn -0.7071068 -0.7071068 0
vn -0.7071071 -0.7071064 0
vn 0 0 1
vn 0 0 1
vn 0 0 1
vn 0 0 1
vn -3.030358E-05 -1 0
vn 0 0 1
vn 2.849234E-05 1 0
vn 0 0 1
vn 0.7071068 -0.7071068 0
vn -1 2.855481E-05 0
vn 0.7071068 -0.7071068 0
vn 0 0 1
vn 0.7071066 -0.7071069 0
vn 0 0 1
vn 0 0 1
vn 5.330722E-05 -1 0
vn 5.330722E-05 -1 0
vn 0 0 1
vn 0 0 1
vn 0 0 1
vn 3.030359E-05 -1 0
vn 0 0 1
vn 0 0 1
vn 0 0 1
vn 5.371417E-05 1 0
vn 5.371417E-05 1 0
vn 0 0 1
vn 0 0 1
vn 0 0 1
vn 3.088019E-05 1 0
vn 0.7071069 0.7071066 0
vn 0 0 1
vn 0 0 1
vn -2.874228E-05 -1 0
vn -2.874228E-05 -1 0
vn -1 -5.346426E-05 0
vn -1 -5.346426E-05 0
vn -0.7071068 0.7071066 0
vn -0.7071068 0.7071068 0
vn 0 0 1
vn 0 0 1
vn 0 0 1
vn 0 0 1
vn 0 0 1
vn 0 0 1
vn -1 -3.055797E-05 0
vn -0.7071068 0.7071068 0
vn 0 0 1
vn 0 0 1
vn 0 0 1
vn 1 5.330721E-05 0
vn 0.7071071 0.7071064 0
vn 0.7071069 0.7071066 0
vn 1 5.330721E-05 0
vn 0 0 1
vn 0 0 1
vn 0 0 1
vn 0 0 1
vn 0 0 1
vn 0 0 1
vn 1 3.04317E-05 0
vn 0 0 1
vn -1 -2.836735E-05 0
vn -2.849234E-05 1 0
vn -2.874062E-05 -1 0
vn 1 2.836574E-05 0
vn 0 0 1
vn 0 0 1
vn 0.7071066 -0.7071069 0
vn 1 -3.062391E-05 0
vn 0 0 1
vn 0 0 1
vn -0.7071066 -0.7071069 0
vn -1 -3.068798E-05 0
vn 0 0 1
vn 0 0 1
vn 1 2.855481E-05 0
vn 1 2.855481E-05 0
vn 0 0 1
vn 0 0 1
vn 0 0 1
vn 0 0 1
vn 1 4.998872E-05 0
vn 0.7071066 0.7071069 0
vn 1 4.998872E-05 0
vn 0.7071066 0.7071069 0
vn 0 0 1
vn 0 0 1
vn -0.7071068 0.7071068 0
vn 3.055798E-05 1 0
vn -0.7071071 -0.7071064 0
vn -0.7071068 -0.7071068 0
vn 0 0 1
vn -0.7071066 -0.7071069 0
vn -3.030358E-05 -1 0
vn -0.7071066 -0.7071069 0
vn 0 0 1
vn 2.849234E-05 1 0
vn 2.849234E-05 1 0
vn 2.849234E-05 1 0
vn 0 0 1
vn 0 0 1
vn 4.959451E-05 1 0
vn 0.7071066 0.7071069 0
vn 0.7071066 0.7071069 0
vn 4.959451E-05 1 0
vn -1 2.855481E-05 0
vn -1 2.855481E-05 0
vn 0 0 1
vn 0 0 1
vn 0 0 1
vn 0 0 1
vn -1 4.998872E-05 0
vn -0.7071055 0.7071081 0
vn -1 4.998872E-05 0
vn -0.7071066 0.7071069 0
vn -2.874062E-05 -1 0
vn -2.874062E-05 -1 0
vn 0 0 1
vn 0 0 1
vn 0 0 1
vn 0 0 1
vn -4.958955E-05 -1 0
vn 0.7071058 -0.7071077 0
vn -4.958955E-05 -1 0
vn 0.7071069 -0.7071066 0
vn 0.7071068 -0.7071068 0
vn 0.7071068 -0.7071068 0
vn 0 0 1
vn 0.7071066 -0.7071069 0
vn 3.030359E-05 -1 0
vn 0.7071066 -0.7071069 0
vn 0 0 1
vn 0 0 1
vn 0.7071069 0.7071066 0
vn 3.088019E-05 1 0
vn 0 0 1
vn -2.874228E-05 -1 0
vn -2.874228E-05 -1 0
vn 0 0 1
vn 0 0 1
vn 0 0 1
vn 0 0 1
vn -4.998876E-05 -1 0
vn -0.7071068 -0.7071068 0
vn -0.7071068 -0.7071068 0
vn -4.998875E-05 -1 0
vn -0.7071068 0.7071068 0
vn -0.7071068 0.7071066 0
vn 0 0 1
vn -0.7071068 0.7071068 0
vn -1 -3.055797E-05 0
vn -0.7071068 0.7071068 0
vn 0.7071071 0.7071064 0
vn 0.7071069 0.7071066 0
vn 0 0 1
vn 0.7071069 0.7071066 0
vn 0.7071069 0.7071066 0
vn 1 3.04317E-05 0
vn 0 0 1
vn -1 -2.836735E-05 0
vn -1 -2.836735E-05 0
vn -1 -2.836735E-05 0
vn 0 0 1
vn 0 0 1
vn -1 -4.990985E-05 0
vn -0.7071068 -0.7071068 0
vn -1 -4.990985E-05 0
vn -0.7071068 -0.7071068 0
vn -2.849234E-05 1 0
vn -2.849234E-05 1 0
vn -2.849234E-05 1 0
vn 0 0 1
vn 0 0 1
vn -4.959451E-05 1 0
vn -0.7071055 0.7071081 0
vn -0.7071066 0.7071069 0
vn -4.959451E-05 1 0
vn 1 2.836574E-05 0
vn 1 2.836573E-05 0
vn 1 2.836573E-05 0
vn 0 0 1
vn 0 0 1
vn 1 5.006258E-05 0
vn 0.7071058 -0.7071077 0
vn 0.7071069 -0.7071066 0
vn 1 5.006257E-05 0
vn 0 0 1
vn 0 0 1
vn 0 0 1
vn 0 0 1
vn 0 0 1
vn 0 0 1
vn 0 0 1
vn 0 0 1
vn 0 0 1
vn 0 0 1
vn 0 0 1
vn 0 0 1
vn 0 0 1
vn 0 0 1
vn 0 0 1
vn 0 0 1
vn 0 0 1
vn 0 0 1
vn 0 0 1
vn 0 0 1
vn 0 0 1
vn 0 0 1
vn 0 0 1
vn 0 0 1
vn 0 0 1
vn 0 0 1
vn 0 0 1
vn 0 0 1
vn 0 0 1
vn 0 0 1
vn 0 0 1
vn 0 0 1
vn 0 0 1
vn 0 0 1
g Road_Cross_A_A_0
f 46/46/46 12/12/12 44/44/44
f 1/1/1 44/44/44 12/12/12
f 103/103/103 102/102/102 4/4/4
f 47/47/47 4/4/4 102/102/102
f 13/13/13 49/49/49 3/3/3
f 50/50/50 3/3/3 49/49/49
f 48/48/48 14/14/14 104/104/104
f 105/105/105 104/104/104 14/14/14
f 43/43/43 59/59/59 11/11/11
f 10/10/10 11/11/11 59/59/59
f 34/34/34 35/35/35 7/7/7
f 15/15/15 7/7/7 35/35/35
f 20/20/20 106/106/106 16/16/16
f 107/107/107 16/16/16 106/106/106
f 22/22/22 38/38/38 9/9/9
f 8/8/8 9/9/9 38/38/38
f 21/21/21 108/108/108 17/17/17
f 109/109/109 17/17/17 108/108/108
f 111/111/111 110/110/110 5/5/5
f 18/18/18 5/5/5 110/110/110
f 113/113/113 112/112/112 6/6/6
f 19/19/19 6/6/6 112/112/112
f 116/116/116 115/115/115 114/114/114
f 117/117/117 114/114/114 115/115/115
f 120/120/120 119/119/119 118/118/118
f 121/121/121 118/118/118 119/119/119
f 73/73/73 74/74/74 26/26/26
f 25/25/25 26/26/26 74/74/74
f 76/76/76 122/122/122 27/27/27
f 123/123/123 27/27/27 122/122/122
f 78/78/78 79/79/79 29/29/29
f 30/30/30 29/29/29 79/79/79
f 82/82/82 124/124/124 28/28/28
f 125/125/125 28/28/28 124/124/124
f 31/31/31 223/223/223 23/23/23
f 84/84/84 23/23/23 223/223/223
f 32/32/32 126/126/126 33/33/33
f 127/127/127 33/33/33 126/126/126
f 128/128/128 224/224/224 36/36/36
f 225/225/225 36/36/36 224/224/224
f 39/39/39 226/226/226 37/37/37
f 227/227/227 37/37/37 226/226/226
f 130/130/130 129/129/129 40/40/40
f 131/131/131 40/40/40 129/129/129
f 229/229/229 228/228/228 41/41/41
f 132/132/132 41/41/41 228/228/228
f 134/134/134 133/133/133 42/42/42
f 135/135/135 42/42/42 133/133/133
f 231/231/231 136/136/136 230/230/230
f 137/137/137 230/230/230 136/136/136
f 140/140/140 139/139/139 138/138/138
f 141/141/141 138/138/138 139/139/139
f 2/2/2 45/45/45 142/142/142
f 143/143/143 142/142/142 45/45/45
f 146/146/146 145/145/145 144/144/144
f 147/147/147 144/144/144 145/145/145
f 150/150/150 149/149/149 148/148/148
f 151/151/151 148/148/148 149/149/149
f 153/153/153 152/152/152 24/24/24
f 100/100/100 24/24/24 152/152/152
f 156/156/156 155/155/155 154/154/154
f 157/157/157 154/154/154 155/155/155
f 160/160/160 159/159/159 158/158/158
f 161/161/161 158/158/158 159/159/159
f 51/51/51 52/52/52 162/162/162
f 163/163/163 162/162/162 52/52/52
f 233/233/233 232/232/232 53/53/53
f 164/164/164 53/53/53 232/232/232
f 235/235/235 234/234/234 54/54/54
f 55/55/55 54/54/54 234/234/234
f 166/166/166 56/56/56 165/165/165
f 167/167/167 165/165/165 56/56/56
f 57/57/57 236/236/236 58/58/58
f 237/237/237 58/58/58 236/236/236
f 60/60/60 87/87/87 61/61/61
f 88/88/88 61/61/61 87/87/87
f 169/169/169 168/168/168 62/62/62
f 91/91/91 62/62/62 168/168/168
f 64/64/64 94/94/94 63/63/63
f 95/95/95 63/63/63 94/94/94
f 171/171/171 170/170/170 65/65/65
f 66/66/66 65/65/65 170/170/170
f 67/67/67 238/238/238 68/68/68
f 172/172/172 68/68/68 238/238/238
f 69/69/69 173/173/173 70/70/70
f 174/174/174 70/70/70 173/173/173
f 177/177/177 176/176/176 175/175/175
f 178/178/178 175/175/175 176/176/176
f 181/181/181 180/180/180 179/179/179
f 182/182/182 179/179/179 180/180/180
f 71/71/71 183/183/183 72/72/72
f 184/184/184 72/72/72 183/183/183
f 185/185/185 239/239/239 75/75/75
f 240/240/240 75/75/75 239/239/239
f 80/80/80 241/241/241 77/77/77
f 242/242/242 77/77/77 241/241/241
f 187/187/187 186/186/186 81/81/81
f 188/188/188 81/81/81 186/186/186
f 244/244/244 243/243/243 85/85/85
f 83/83/83 85/85/85 243/243/243
f 190/190/190 189/189/189 89/89/89
f 86/86/86 89/89/89 189/189/189
f 246/246/246 245/245/245 90/90/90
f 191/191/191 90/90/90 245/245/245
f 248/248/248 247/247/247 92/92/92
f 93/93/93 92/92/92 247/247/247
f 193/193/193 192/192/192 96/96/96
f 194/194/194 96/96/96 192/192/192
f 195/195/195 249/249/249 97/97/97
f 250/250/250 97/97/97 249/249/249
f 197/197/197 196/196/196 98/98/98
f 198/198/198 98/98/98 196/196/196
f 200/200/200 199/199/199 251/251/251
f 252/252/252 251/251/251 199/199/199
f 203/203/203 202/202/202 201/201/201
f 204/204/204 201/201/201 202/202/202
f 207/207/207 206/206/206 205/205/205
f 99/99/99 205/205/205 206/206/206
f 254/254/254 253/253/253 208/208/208
f 209/209/209 208/208/208 253/253/253
f 212/212/212 211/211/211 210/210/210
f 213/213/213 210/210/210 211/211/211
f 215/215/215 214/214/214 101/101/101
f 216/216/216 101/101/101 214/214/214
f 256/256/256 217/217/217 255/255/255
f 218/218/218 255/255/255 217/217/217
f 221/221/221 220/220/220 219/219/219
f 222/222/222 219/219/219 220/220/220
