g Road_Cross_B_A
v -14.99994 10.46281 0.4385298
v -14.99994 10.46281 0.529027
v -14.99994 12.73139 0
v -14.99994 12.73139 0.529027
v -14.99994 12.48995 0.529027
v -14.99994 10.70425 0.529027
v -14.99994 10.70425 0.4385298
v -14.99994 12.48995 0.4385298
v -14.99994 5.231406 0.4385298
v 14.99994 5.231404 0.4385298
v 0 5.231406 0.4385298
v 14.99994 12.73139 0
v 14.99994 12.73139 0.529027
v 14.99994 12.48995 0.529027
v 14.99994 10.70424 0.4385298
v 5.473134 10.70454 0.4385298
v 14.99994 12.48995 0.4385298
v 14.99994 10.70424 0.529027
v 5.231686 10.46309 0.4385298
v 14.99994 10.46281 0.4385298
v 14.99994 10.46281 0.529027
v -7.499983 20.23135 0
v -7.499983 20.23135 0.529027
v -7.499582 12.73099 0.529027
v -7.499582 12.73099 0
v -7.258549 20.23135 0.529027
v -7.258162 12.48957 0.529027
v -5.472841 20.23135 0.4385298
v -5.47255 10.70396 0.4385298
v -7.258162 12.48957 0.4385298
v -7.258549 20.23135 0.4385298
v -5.472841 20.23135 0.529027
v -5.47255 10.70396 0.529027
v 2.76926E-06 20.23135 0.4385298
v -5.231126 10.46253 0.4385298
v -5.231403 20.23135 0.4385298
v 7.499986 20.23134 0
v 7.500386 12.73179 0
v 7.500386 12.73179 0.529027
v 7.499986 20.23134 0.529027
v 7.25855 20.23135 0.529027
v 7.258936 12.49034 0.529027
v 5.472844 20.23135 0.4385298
v 7.25855 20.23135 0.4385298
v 7.258936 12.49034 0.4385298
v 5.473134 10.70454 0.529027
v 5.472844 20.23135 0.529027
v 5.231409 20.23135 0.4385298
v 5.231686 10.46309 0.529027
v 5.231409 20.23135 0.529027
v -5.231126 10.46253 0.529027
v -5.231403 20.23135 0.529027
v 0 0 0.4385298
v -5.230846 0 0.4385298
v -14.99994 0 0.4385298
v 5.231963 0 0.4385298
v -14.99994 -12.73139 0
v -14.99994 -12.73139 0.529027
v -14.99994 -12.48995 0.529027
v -14.99994 -10.70424 0.4385298
v -14.99994 -12.48995 0.4385298
v -14.99994 -10.70424 0.529027
v -14.99994 -5.231404 0.4385298
v 0 -5.231404 0.4385298
v -14.99994 -10.46281 0.4385298
v -14.99994 -10.46281 0.529027
v 14.99994 -5.231402 0.4385298
v 14.99993 0 0.4385298
v 14.99994 -12.73138 0
v 14.99994 -12.73138 0.529027
v 14.99994 -12.48995 0.529027
v 14.99994 -10.70424 0.4385298
v 14.99994 -12.48995 0.4385298
v 14.99994 -10.70424 0.529027
v 14.99994 -10.46281 0.4385298
v 14.99994 -10.46281 0.529027
v -7.499983 -20.23134 0
v -7.499582 -12.73099 0
v -7.499582 -12.73099 0.529027
v -7.499983 -20.23134 0.529027
v -7.258549 -20.23134 0.529027
v -7.258162 -12.48957 0.529027
v -5.472841 -20.23134 0.4385298
v -7.258549 -20.23134 0.4385298
v -7.258162 -12.48957 0.4385298
v -5.47255 -10.70395 0.4385298
v -5.47255 -10.70395 0.529027
v -5.472841 -20.23134 0.529027
v 2.76926E-06 -20.23134 0.4385298
v -5.231403 -20.23134 0.4385298
v -5.231126 -10.46253 0.4385298
v 7.499986 -20.23134 0
v 7.499986 -20.23134 0.529027
v 7.500386 -12.73179 0.529027
v 7.500386 -12.73179 0
v 7.25855 -20.23134 0.529027
v 7.258936 -12.49034 0.529027
v 5.472844 -20.23134 0.4385298
v 5.473134 -10.70454 0.4385298
v 7.258936 -12.49034 0.4385298
v 7.25855 -20.23134 0.4385298
v 5.472844 -20.23134 0.529027
v 5.473134 -10.70454 0.529027
v 5.231686 -10.46309 0.4385298
v 5.231409 -20.23134 0.4385298
v 5.231686 -10.46309 0.529027
v 5.231409 -20.23134 0.529027
v -5.231126 -10.46253 0.529027
v -5.231403 -20.23134 0.529027
v -7.499582 12.73099 0.529027
v -14.99994 12.73139 0.529027
v -5.47255 10.70396 0.4385298
v -14.99994 10.70425 0.4385298
v -14.99994 5.231406 0.4385298
v 0 5.231406 0.4385298
v -5.231126 10.46253 0.4385298
v -14.99994 10.46281 0.4385298
v -5.47255 10.70396 0.529027
v -14.99994 10.46281 0.529027
v -14.99994 10.70425 0.529027
v -5.231126 10.46253 0.529027
v -14.99994 12.48995 0.529027
v -7.258162 12.48957 0.4385298
v -14.99994 12.48995 0.4385298
v -7.258162 12.48957 0.529027
v 7.500386 12.73179 0.529027
v 14.99994 12.73139 0.529027
v 5.473134 10.70454 0.4385298
v 14.99994 10.70424 0.4385298
v 14.99994 5.231404 0.4385298
v 5.231686 10.46309 0.4385298
v 14.99994 10.46281 0.4385298
v 5.473134 10.70454 0.529027
v 14.99994 10.46281 0.529027
v 5.231686 10.46309 0.529027
v 14.99994 10.70424 0.529027
v 14.99994 12.48995 0.529027
v 7.258936 12.49034 0.4385298
v 7.258936 12.49034 0.529027
v 14.99994 12.48995 0.4385298
v -7.499582 12.73099 0
v -7.499582 12.73099 0.529027
v -7.499983 20.23135 0.529027
v -5.47255 10.70396 0.4385298
v -5.472841 20.23135 0.4385298
v -5.47255 10.70396 0.529027
v 7.500386 12.73179 0
v 7.500386 12.73179 0.529027
v 7.499986 20.23134 0.529027
v 5.473134 10.70454 0.4385298
v 5.473134 10.70454 0.529027
v 5.472844 20.23135 0.4385298
v 2.76926E-06 20.23135 0.4385298
v 5.231686 10.46309 0.4385298
v 5.231409 20.23135 0.4385298
v 5.231686 10.46309 0.529027
v 5.231409 20.23135 0.529027
v 5.472844 20.23135 0.529027
v 7.25855 20.23135 0.529027
v 7.258936 12.49034 0.4385298
v 7.25855 20.23135 0.4385298
v 7.258936 12.49034 0.529027
v -5.231126 10.46253 0.4385298
v -5.231126 10.46253 0.529027
v -5.231403 20.23135 0.4385298
v -5.231403 20.23135 0.529027
v -5.472841 20.23135 0.529027
v -7.258549 20.23135 0.529027
v -7.258162 12.48957 0.4385298
v -7.258162 12.48957 0.529027
v -7.258549 20.23135 0.4385298
v 0 0 0.4385298
v -7.499582 -12.73099 0.529027
v -14.99994 -12.73139 0.529027
v -5.47255 -10.70395 0.4385298
v -14.99994 -10.70424 0.4385298
v -14.99994 -5.231404 0.4385298
v 0 -5.231404 0.4385298
v -5.231126 -10.46253 0.4385298
v -14.99994 -10.46281 0.4385298
v -5.47255 -10.70395 0.529027
v -14.99994 -10.46281 0.529027
v -5.231126 -10.46253 0.529027
v -14.99994 -10.70424 0.529027
v -14.99994 -12.48995 0.529027
v -7.258162 -12.48957 0.4385298
v -7.258162 -12.48957 0.529027
v -14.99994 -12.48995 0.4385298
v 7.500386 -12.73179 0.529027
v 14.99994 -12.73138 0.529027
v 5.473134 -10.70454 0.4385298
v 14.99994 -10.70424 0.4385298
v 14.99994 -5.231402 0.4385298
v 5.231686 -10.46309 0.4385298
v 14.99994 -10.46281 0.4385298
v 5.473134 -10.70454 0.529027
v 14.99994 -10.46281 0.529027
v 14.99994 -10.70424 0.529027
v 5.231686 -10.46309 0.529027
v 14.99994 -12.48995 0.529027
v 7.258936 -12.49034 0.4385298
v 14.99994 -12.48995 0.4385298
v 7.258936 -12.49034 0.529027
v -7.499582 -12.73099 0
v -7.499582 -12.73099 0.529027
v -7.499983 -20.23134 0.529027
v -5.47255 -10.70395 0.4385298
v -5.47255 -10.70395 0.529027
v -5.472841 -20.23134 0.4385298
v 7.500386 -12.73179 0
v 7.500386 -12.73179 0.529027
v 7.499986 -20.23134 0.529027
v 5.473134 -10.70454 0.4385298
v 5.472844 -20.23134 0.4385298
v 5.473134 -10.70454 0.529027
v 2.76926E-06 -20.23134 0.4385298
v 5.231686 -10.46309 0.4385298
v 5.231686 -10.46309 0.529027
v 5.231409 -20.23134 0.4385298
v 5.231409 -20.23134 0.529027
v 5.472844 -20.23134 0.529027
v 7.25855 -20.23134 0.529027
v 7.258936 -12.49034 0.4385298
v 7.258936 -12.49034 0.529027
v 7.25855 -20.23134 0.4385298
v -5.231126 -10.46253 0.4385298
v -5.231403 -20.23134 0.4385298
v -5.231126 -10.46253 0.529027
v -5.231403 -20.23134 0.529027
v -5.472841 -20.23134 0.529027
v -7.258549 -20.23134 0.529027
v -7.258162 -12.48957 0.4385298
v -7.258549 -20.23134 0.4385298
v -7.258162 -12.48957 0.529027
v 0 5.231406 0.4385298
v 0 5.231406 0.4385298
v -7.499582 12.73099 0.529027
v -7.258162 12.48957 0.529027
v -7.258162 12.48957 0.4385298
v -5.47255 10.70396 0.4385298
v 0 5.231406 0.4385298
v -5.231126 10.46253 0.4385298
v 7.500386 12.73179 0.529027
v 7.258936 12.49034 0.529027
v 7.258936 12.49034 0.4385298
v 5.473134 10.70454 0.4385298
v 0 5.231406 0.4385298
v 5.231686 10.46309 0.4385298
v 5.473134 10.70454 0.529027
v 5.231686 10.46309 0.529027
v -5.47255 10.70396 0.529027
v -5.231126 10.46253 0.529027
v 5.231963 0 0.4385298
v 0 5.231406 0.4385298
v -5.230846 0 0.4385298
v 0 5.231406 0.4385298
v -5.230846 0 0.4385298
v -14.99994 0 0.4385298
v 5.231963 0 0.4385298
v 14.99993 0 0.4385298
v 0 -5.231404 0.4385298
v 0 -5.231404 0.4385298
v -7.499582 -12.73099 0.529027
v -7.258162 -12.48957 0.529027
v -7.258162 -12.48957 0.4385298
v -5.47255 -10.70395 0.4385298
v 0 -5.231404 0.4385298
v -5.231126 -10.46253 0.4385298
v 7.500386 -12.73179 0.529027
v 7.258936 -12.49034 0.529027
v 7.258936 -12.49034 0.4385298
v 5.473134 -10.70454 0.4385298
v 0 -5.231404 0.4385298
v 5.231686 -10.46309 0.4385298
v 5.473134 -10.70454 0.529027
v 5.231686 -10.46309 0.529027
v -5.47255 -10.70395 0.529027
v -5.231126 -10.46253 0.529027
v 5.231963 0 0.4385298
v 0 -5.231404 0.4385298
v 0 0 0.4385298
v 0 0 0.4385298
v 0 -5.231404 0.4385298
v -5.230846 0 0.4385298
vt 0.4998499 0.1267368
vt 0.126343 0.4179581
vt 0.1305616 0.4179578
vt 0.1276627 0.4179578
vt 0.1263399 0.4179577
vt 0.1276658 0.4179583
vt 0.1862036 0.4994957
vt 0.1714859 0.4994957
vt 0.4372135 0.1267368
vt 0.4372135 0.1267368
vt 0.4372135 0.2287309
vt 0.1258251 0.4179578
vt 0.128724 0.4179578
vt 0.1300468 0.4179577
vt 0.1566738 0.499496
vt 0.1566738 0.4209797
vt 0.1713915 0.499496
vt 0.1263759 0.4179583
vt 0.3752072 0.1623123
vt 0.3752072 0.2287308
vt 0.1276986 0.4179581
vt 0.1305616 0.4179578
vt 0.1276627 0.4179578
vt 0.1276627 0.4586411
vt 0.1305616 0.4586411
vt 0.1263399 0.4179577
vt 0.1263399 0.4599504
vt 0.1862036 0.4994957
vt 0.1862036 0.4209701
vt 0.1714859 0.435686
vt 0.1714859 0.4994957
vt 0.1276658 0.4179583
vt 0.1276658 0.4696355
vt 0.4372135 0.1267368
vt 0.4998499 0.193163
vt 0.4998499 0.1267368
vt 0.1258251 0.4179578
vt 0.1258251 0.4586325
vt 0.128724 0.4586325
vt 0.128724 0.4179578
vt 0.1300468 0.4179577
vt 0.1300468 0.459942
vt 0.1566738 0.499496
vt 0.1713915 0.499496
vt 0.1713915 0.4356989
vt 0.1263759 0.4696291
vt 0.1263759 0.4179583
vt 0.3752072 0.2287308
vt 0.1276987 0.4709387
vt 0.1276986 0.4179581
vt 0.126343 0.4709447
vt 0.126343 0.4179581
vt 0.4372135 0.1931593
vt 0.3752072 0.1623122
vt 0.3752072 0.2287308
vt 0.4998499 0.1931554
vt 0.1305616 0.4179578
vt 0.1276627 0.4179578
vt 0.1263399 0.4179577
vt 0.1862036 0.4994957
vt 0.1714859 0.4994957
vt 0.1276658 0.4179583
vt 0.4372135 0.1267368
vt 0.4372135 0.2287309
vt 0.4998499 0.1267368
vt 0.126343 0.4179581
vt 0.4372135 0.1267368
vt 0.4998499 0.1267368
vt 0.1258251 0.4179578
vt 0.128724 0.4179578
vt 0.1300468 0.4179577
vt 0.1566738 0.499496
vt 0.1713915 0.499496
vt 0.1263759 0.4179583
vt 0.3752072 0.2287308
vt 0.1276986 0.4179581
vt 0.1305616 0.4179578
vt 0.1305616 0.4586411
vt 0.1276627 0.4586411
vt 0.1276627 0.4179578
vt 0.1263399 0.4179577
vt 0.1263399 0.4599504
vt 0.1862036 0.4994957
vt 0.1714859 0.4994957
vt 0.1714859 0.435686
vt 0.1862036 0.4209701
vt 0.1276658 0.4696355
vt 0.1276658 0.4179583
vt 0.4372135 0.1267368
vt 0.4998499 0.1267368
vt 0.4998499 0.193163
vt 0.1258251 0.4179578
vt 0.128724 0.4179578
vt 0.128724 0.4586325
vt 0.1258251 0.4586325
vt 0.1300468 0.4179577
vt 0.1300468 0.459942
vt 0.1566738 0.499496
vt 0.1566738 0.4209797
vt 0.1713915 0.4356989
vt 0.1713915 0.499496
vt 0.1263759 0.4179583
vt 0.1263759 0.4696291
vt 0.3752072 0.1623123
vt 0.3752072 0.2287308
vt 0.1276987 0.4709387
vt 0.1276986 0.4179581
vt 0.126343 0.4709447
vt 0.126343 0.4179581
vt 0.1276627 0.4586411
vt 0.1276627 0.4179578
vt 0.1281615 0.4696355
vt 0.1281615 0.4179583
vt 0.4371436 0.2287308
vt 0.4371436 0.1267368
vt 0.1258472 0.4709447
vt 0.1258472 0.4179581
vt 0.1276658 0.4696355
vt 0.126343 0.4179581
vt 0.1276658 0.4179583
vt 0.126343 0.4709447
vt 0.1263399 0.4179577
vt 0.1258441 0.4599504
vt 0.1258441 0.4179577
vt 0.1263399 0.4599504
vt 0.128724 0.4586325
vt 0.128724 0.4179578
vt 0.1258801 0.4696291
vt 0.1258801 0.4179583
vt 0.4371436 0.2287308
vt 0.1281945 0.4709387
vt 0.1281945 0.4179581
vt 0.1263759 0.4696291
vt 0.1276986 0.4179581
vt 0.1276987 0.4709387
vt 0.1263759 0.4179583
vt 0.1300468 0.4179577
vt 0.1305426 0.459942
vt 0.1300468 0.459942
vt 0.1305426 0.4179577
vt 0.1305616 0.4586411
vt 0.1276627 0.4586411
vt 0.1276627 0.4179578
vt 0.1281615 0.4696355
vt 0.1281615 0.4179583
vt 0.1276658 0.4696355
vt 0.1258251 0.4586325
vt 0.128724 0.4586325
vt 0.128724 0.4179578
vt 0.1258801 0.4696291
vt 0.1263759 0.4696291
vt 0.1258801 0.4179583
vt 0.4371436 0.2287308
vt 0.1281945 0.4709387
vt 0.1281945 0.4179581
vt 0.1276987 0.4709387
vt 0.1276986 0.4179581
vt 0.1263759 0.4179583
vt 0.1300468 0.4179577
vt 0.1305426 0.459942
vt 0.1305426 0.4179577
vt 0.1300468 0.459942
vt 0.1258472 0.4709447
vt 0.126343 0.4709447
vt 0.1258472 0.4179581
vt 0.126343 0.4179581
vt 0.1276658 0.4179583
vt 0.1263399 0.4179577
vt 0.1258441 0.4599504
vt 0.1263399 0.4599504
vt 0.1258441 0.4179577
vt 0.4371436 0.1623085
vt 0.1276627 0.4586411
vt 0.1276627 0.4179578
vt 0.1281615 0.4696355
vt 0.1281615 0.4179583
vt 0.4371436 0.2287308
vt 0.4371436 0.1267368
vt 0.1258472 0.4709447
vt 0.1258472 0.4179581
vt 0.1276658 0.4696355
vt 0.126343 0.4179581
vt 0.126343 0.4709447
vt 0.1276658 0.4179583
vt 0.1263399 0.4179577
vt 0.1258441 0.4599504
vt 0.1263399 0.4599504
vt 0.1258441 0.4179577
vt 0.128724 0.4586325
vt 0.128724 0.4179578
vt 0.1258801 0.4696291
vt 0.1258801 0.4179583
vt 0.4371436 0.2287308
vt 0.1281945 0.4709387
vt 0.1281945 0.4179581
vt 0.1263759 0.4696291
vt 0.1276986 0.4179581
vt 0.1263759 0.4179583
vt 0.1276987 0.4709387
vt 0.1300468 0.4179577
vt 0.1305426 0.459942
vt 0.1305426 0.4179577
vt 0.1300468 0.459942
vt 0.1305616 0.4586411
vt 0.1276627 0.4586411
vt 0.1276627 0.4179578
vt 0.1281615 0.4696355
vt 0.1276658 0.4696355
vt 0.1281615 0.4179583
vt 0.1258251 0.4586325
vt 0.128724 0.4586325
vt 0.128724 0.4179578
vt 0.1258801 0.4696291
vt 0.1258801 0.4179583
vt 0.1263759 0.4696291
vt 0.4371436 0.2287308
vt 0.1281945 0.4709387
vt 0.1276987 0.4709387
vt 0.1281945 0.4179581
vt 0.1276986 0.4179581
vt 0.1263759 0.4179583
vt 0.1300468 0.4179577
vt 0.1305426 0.459942
vt 0.1300468 0.459942
vt 0.1305426 0.4179577
vt 0.1258472 0.4709447
vt 0.1258472 0.4179581
vt 0.126343 0.4709447
vt 0.126343 0.4179581
vt 0.1276658 0.4179583
vt 0.1263399 0.4179577
vt 0.1258441 0.4599504
vt 0.1258441 0.4179577
vt 0.1263399 0.4599504
vt 0.4372135 0.2287309
vt 0.4371436 0.1267368
vt 0.1276627 0.4586411
vt 0.1263399 0.4599504
vt 0.1714859 0.435686
vt 0.1862036 0.4209701
vt 0.4372135 0.2287309
vt 0.4998499 0.193163
vt 0.128724 0.4586325
vt 0.1300468 0.459942
vt 0.1713915 0.4356989
vt 0.1566738 0.4209797
vt 0.4371436 0.1267368
vt 0.3752072 0.1623123
vt 0.1263759 0.4696291
vt 0.1276987 0.4709387
vt 0.1276658 0.4696355
vt 0.126343 0.4709447
vt 0.4998499 0.1931592
vt 0.4372135 0.2287309
vt 0.3752072 0.1623085
vt 0.4371436 0.1267368
vt 0.3752072 0.1623122
vt 0.3752072 0.2287308
vt 0.4998499 0.1931554
vt 0.4998499 0.1267368
vt 0.4372135 0.2287309
vt 0.4371436 0.1267368
vt 0.1276627 0.4586411
vt 0.1263399 0.4599504
vt 0.1714859 0.435686
vt 0.1862036 0.4209701
vt 0.4372135 0.2287309
vt 0.4998499 0.193163
vt 0.128724 0.4586325
vt 0.1300468 0.459942
vt 0.1713915 0.4356989
vt 0.1566738 0.4209797
vt 0.4371436 0.1267368
vt 0.3752072 0.1623123
vt 0.1263759 0.4696291
vt 0.1276987 0.4709387
vt 0.1276658 0.4696355
vt 0.126343 0.4709447
vt 0.4998499 0.1931592
vt 0.4372135 0.2287309
vt 0.4372135 0.1931593
vt 0.4371436 0.1623085
vt 0.4371436 0.1267368
vt 0.3752072 0.1623085
vn 0 0 1
vn -2.874062E-05 -1 0
vn 5.338289E-05 1 0
vn 5.33829E-05 1 0
vn 0 0 1
vn 3.049391E-05 1 0
vn 0 0 1
vn 0 0 1
vn 0 0 1
vn 0 0 1
vn 0 0 1
vn 5.371417E-05 1 0
vn 5.371417E-05 1 0
vn 0 0 1
vn 0 0 1
vn 0 0 1
vn 0 0 1
vn 3.088019E-05 1 0
vn 0 0 1
vn 0 0 1
vn -2.874228E-05 -1 0
vn -1 -5.346427E-05 0
vn -1 -5.346427E-05 0
vn -0.7071068 0.7071068 0
vn -0.7071068 0.7071068 0
vn 0 0 1
vn 0 0 1
vn 0 0 1
vn 0 0 1
vn 0 0 1
vn 0 0 1
vn -1 -3.055797E-05 0
vn -0.7071068 0.7071068 0
vn 0 0 1
vn 0 0 1
vn 0 0 1
vn 1 5.330721E-05 0
vn 0.7071071 0.7071064 0
vn 0.7071069 0.7071066 0
vn 1 5.330721E-05 0
vn 0 0 1
vn 0 0 1
vn 0 0 1
vn 0 0 1
vn 0 0 1
vn 0.7071069 0.7071066 0
vn 1 3.04317E-05 0
vn 0 0 1
vn -2.874228E-05 -1 0
vn -1 -2.836735E-05 0
vn -2.874062E-05 -1 0
vn 1 2.836574E-05 0
vn 0 0 1
vn 0 0 1
vn 0 0 1
vn 0 0 1
vn 5.338289E-05 -1 0
vn 5.33829E-05 -1 0
vn 0 0 1
vn 0 0 1
vn 0 0 1
vn 3.062204E-05 -1 0
vn 0 0 1
vn 0 0 1
vn 0 0 1
vn -2.861566E-05 1 0
vn 0 0 1
vn 0 0 1
vn 5.35514E-05 -1 0
vn 5.355141E-05 -1 0
vn 0 0 1
vn 0 0 1
vn 0 0 1
vn 3.088019E-05 -1 0
vn 0 0 1
vn -2.874228E-05 1 0
vn -1 5.346427E-05 0
vn -0.7071068 -0.7071068 0
vn -0.7071068 -0.7071066 0
vn -1 5.346427E-05 0
vn 0 0 1
vn 0 0 1
vn 0 0 1
vn 0 0 1
vn 0 0 1
vn 0 0 1
vn -0.7071068 -0.7071068 0
vn -1 3.055798E-05 0
vn 0 0 1
vn 0 0 1
vn 0 0 1
vn 1 -5.330721E-05 0
vn 1 -5.330721E-05 0
vn 0.7071069 -0.7071066 0
vn 0.7071071 -0.7071065 0
vn 0 0 1
vn 0 0 1
vn 0 0 1
vn 0 0 1
vn 0 0 1
vn 0 0 1
vn 1 -3.043171E-05 0
vn 0.7071069 -0.7071066 0
vn 0 0 1
vn 0 0 1
vn -2.874228E-05 1 0
vn -1 2.836736E-05 0
vn -2.861566E-05 1 0
vn 1 -2.836575E-05 0
vn 0 0 1
vn 0 0 1
vn -0.7071068 0.7071068 0
vn 3.049391E-05 1 0
vn 0 0 1
vn 0 0 1
vn -2.874062E-05 -1 0
vn -2.874062E-05 -1 0
vn 0 0 1
vn 0 0 1
vn 0 0 1
vn 0 0 1
vn -4.951072E-05 -1 0
vn 0.7071069 -0.7071066 0
vn -4.951072E-05 -1 0
vn 0.7071069 -0.7071066 0
vn 0 0 1
vn 0 0 1
vn 0.7071069 0.7071066 0
vn 3.088019E-05 1 0
vn 0 0 1
vn -2.874228E-05 -1 0
vn -2.874228E-05 -1 0
vn 0 0 1
vn 0 0 1
vn 0 0 1
vn 0 0 1
vn -4.998876E-05 -1 0
vn -0.7071068 -0.7071068 0
vn -0.7071068 -0.7071068 0
vn -4.998875E-05 -1 0
vn -0.7071068 0.7071068 0
vn -0.7071068 0.7071068 0
vn 0 0 1
vn -0.7071068 0.7071068 0
vn -1 -3.055797E-05 0
vn -0.7071068 0.7071068 0
vn 0.7071071 0.7071064 0
vn 0.7071069 0.7071066 0
vn 0 0 1
vn 0.7071069 0.7071066 0
vn 0.7071069 0.7071066 0
vn 1 3.04317E-05 0
vn 0 0 1
vn -1 -2.836735E-05 0
vn -1 -2.836735E-05 0
vn -1 -2.836735E-05 0
vn 0 0 1
vn 0 0 1
vn -1 -4.990985E-05 0
vn -0.7071068 -0.7071068 0
vn -1 -4.990985E-05 0
vn -0.7071068 -0.7071068 0
vn 1 2.836574E-05 0
vn 1 2.836573E-05 0
vn 1 2.836573E-05 0
vn 0 0 1
vn 0 0 1
vn 1 5.006258E-05 0
vn 0.7071069 -0.7071066 0
vn 0.7071069 -0.7071066 0
vn 1 5.006257E-05 0
vn 0 0 1
vn 0 0 1
vn 0 0 1
vn -0.7071068 -0.7071068 0
vn 3.062204E-05 -1 0
vn 0 0 1
vn 0 0 1
vn -2.861566E-05 1 0
vn -2.861566E-05 1 0
vn 0 0 1
vn 0 0 1
vn 0 0 1
vn 0 0 1
vn -4.982607E-05 1 0
vn 0.7071057 0.7071078 0
vn 0.7071068 0.7071068 0
vn -4.982607E-05 1 0
vn 0 0 1
vn 0 0 1
vn 0.7071069 -0.7071066 0
vn 3.088019E-05 -1 0
vn 0 0 1
vn -2.874228E-05 1 0
vn -2.874228E-05 1 0
vn 0 0 1
vn 0 0 1
vn 0 0 1
vn 0 0 1
vn -5.030414E-05 1 0
vn -0.7071069 0.7071066 0
vn -5.030413E-05 1 0
vn -0.7071069 0.7071066 0
vn -0.7071068 -0.7071068 0
vn -0.7071068 -0.7071066 0
vn 0 0 1
vn -0.7071068 -0.7071068 0
vn -0.7071068 -0.7071068 0
vn -1 3.055797E-05 0
vn 0.7071071 -0.7071065 0
vn 0.7071069 -0.7071066 0
vn 0 0 1
vn 0.7071069 -0.7071066 0
vn 1 -3.043171E-05 0
vn 0.7071069 -0.7071066 0
vn 0 0 1
vn -1 2.836736E-05 0
vn -1 2.836736E-05 0
vn -1 2.836736E-05 0
vn 0 0 1
vn 0 0 1
vn -1 4.990987E-05 0
vn -0.7071069 0.7071066 0
vn -0.7071069 0.7071066 0
vn -1 4.990988E-05 0
vn 1 -2.836575E-05 0
vn 1 -2.836574E-05 0
vn 1 -2.836574E-05 0
vn 0 0 1
vn 0 0 1
vn 1 -5.006257E-05 0
vn 0.7071057 0.7071078 0
vn 1 -5.006256E-05 0
vn 0.7071068 0.7071068 0
vn 0 0 1
vn 0 0 1
vn 0 0 1
vn 0 0 1
vn 0 0 1
vn 0 0 1
vn 0 0 1
vn 0 0 1
vn 0 0 1
vn 0 0 1
vn 0 0 1
vn 0 0 1
vn 0 0 1
vn 0 0 1
vn 0 0 1
vn 0 0 1
vn 0 0 1
vn 0 0 1
vn 0 0 1
vn 0 0 1
vn 0 0 1
vn 0 0 1
vn 0 0 1
vn 0 0 1
vn 0 0 1
vn 0 0 1
vn 0 0 1
vn 0 0 1
vn 0 0 1
vn 0 0 1
vn 0 0 1
vn 0 0 1
vn 0 0 1
vn 0 0 1
vn 0 0 1
vn 0 0 1
vn 0 0 1
vn 0 0 1
vn 0 0 1
vn 0 0 1
vn 0 0 1
vn 0 0 1
vn 0 0 1
vn 0 0 1
vn 0 0 1
vn 0 0 1
vn 0 0 1
vn 0 0 1
vn 0 0 1
vn 0 0 1
g Road_Cross_B_A_0
f 254/254/254 53/53/53 253/253/253
f 256/256/256 255/255/255 172/172/172
f 281/281/281 280/280/280 279/279/279
f 284/284/284 283/283/283 282/282/282
f 24/24/24 25/25/25 4/4/4
f 3/3/3 4/4/4 25/25/25
f 27/27/27 110/110/110 5/5/5
f 111/111/111 5/5/5 110/110/110
f 29/29/29 30/30/30 7/7/7
f 8/8/8 7/7/7 30/30/30
f 33/33/33 112/112/112 6/6/6
f 113/113/113 6/6/6 112/112/112
f 9/9/9 11/11/11 1/1/1
f 35/35/35 1/1/1 11/11/11
f 55/55/55 54/54/54 114/114/114
f 115/115/115 114/114/114 54/54/54
f 117/117/117 116/116/116 2/2/2
f 51/51/51 2/2/2 116/116/116
f 120/120/120 119/119/119 118/118/118
f 121/121/121 118/118/118 119/119/119
f 124/124/124 123/123/123 122/122/122
f 125/125/125 122/122/122 123/123/123
f 235/235/235 56/56/56 10/10/10
f 68/68/68 10/10/10 56/56/56
f 12/12/12 38/38/38 13/13/13
f 39/39/39 13/13/13 38/38/38
f 127/127/127 126/126/126 14/14/14
f 42/42/42 14/14/14 126/126/126
f 17/17/17 45/45/45 15/15/15
f 16/16/16 15/15/15 45/45/45
f 129/129/129 128/128/128 18/18/18
f 46/46/46 18/18/18 128/128/128
f 19/19/19 236/236/236 20/20/20
f 130/130/130 20/20/20 236/236/236
f 49/49/49 131/131/131 21/21/21
f 132/132/132 21/21/21 131/131/131
f 135/135/135 134/134/134 133/133/133
f 136/136/136 133/133/133 134/134/134
f 139/139/139 138/138/138 137/137/137
f 140/140/140 137/137/137 138/138/138
f 22/22/22 141/141/141 23/23/23
f 142/142/142 23/23/23 141/141/141
f 143/143/143 237/237/237 26/26/26
f 238/238/238 26/26/26 237/237/237
f 31/31/31 239/239/239 28/28/28
f 240/240/240 28/28/28 239/239/239
f 145/145/145 144/144/144 32/32/32
f 146/146/146 32/32/32 144/144/144
f 242/242/242 241/241/241 36/36/36
f 34/34/34 36/36/36 241/241/241
f 148/148/148 147/147/147 40/40/40
f 37/37/37 40/40/40 147/147/147
f 244/244/244 243/243/243 41/41/41
f 149/149/149 41/41/41 243/243/243
f 246/246/246 245/245/245 43/43/43
f 44/44/44 43/43/43 245/245/245
f 151/151/151 150/150/150 47/47/47
f 152/152/152 47/47/47 150/150/150
f 153/153/153 247/247/247 48/48/48
f 248/248/248 48/48/48 247/247/247
f 155/155/155 154/154/154 50/50/50
f 156/156/156 50/50/50 154/154/154
f 158/158/158 157/157/157 249/249/249
f 250/250/250 249/249/249 157/157/157
f 161/161/161 160/160/160 159/159/159
f 162/162/162 159/159/159 160/160/160
f 164/164/164 163/163/163 52/52/52
f 165/165/165 52/52/52 163/163/163
f 252/252/252 166/166/166 251/251/251
f 167/167/167 251/251/251 166/166/166
f 170/170/170 169/169/169 168/168/168
f 171/171/171 168/168/168 169/169/169
f 57/57/57 78/78/78 58/58/58
f 79/79/79 58/58/58 78/78/78
f 174/174/174 173/173/173 59/59/59
f 82/82/82 59/59/59 173/173/173
f 61/61/61 85/85/85 60/60/60
f 86/86/86 60/60/60 85/85/85
f 176/176/176 175/175/175 62/62/62
f 87/87/87 62/62/62 175/175/175
f 91/91/91 64/64/64 65/65/65
f 63/63/63 65/65/65 64/64/64
f 178/178/178 257/257/257 177/177/177
f 258/258/258 177/177/177 257/257/257
f 108/108/108 179/179/179 66/66/66
f 180/180/180 66/66/66 179/179/179
f 183/183/183 182/182/182 181/181/181
f 184/184/184 181/181/181 182/182/182
f 187/187/187 186/186/186 185/185/185
f 188/188/188 185/185/185 186/186/186
f 260/260/260 259/259/259 67/67/67
f 261/261/261 67/67/67 259/259/259
f 94/94/94 95/95/95 70/70/70
f 69/69/69 70/70/70 95/95/95
f 97/97/97 189/189/189 71/71/71
f 190/190/190 71/71/71 189/189/189
f 99/99/99 100/100/100 72/72/72
f 73/73/73 72/72/72 100/100/100
f 103/103/103 191/191/191 74/74/74
f 192/192/192 74/74/74 191/191/191
f 193/193/193 262/262/262 75/75/75
f 104/104/104 75/75/75 262/262/262
f 195/195/195 194/194/194 76/76/76
f 106/106/106 76/76/76 194/194/194
f 198/198/198 197/197/197 196/196/196
f 199/199/199 196/196/196 197/197/197
f 202/202/202 201/201/201 200/200/200
f 203/203/203 200/200/200 201/201/201
f 205/205/205 204/204/204 80/80/80
f 77/77/77 80/80/80 204/204/204
f 264/264/264 263/263/263 81/81/81
f 206/206/206 81/81/81 263/263/263
f 266/266/266 265/265/265 83/83/83
f 84/84/84 83/83/83 265/265/265
f 208/208/208 207/207/207 88/88/88
f 209/209/209 88/88/88 207/207/207
f 89/89/89 267/267/267 90/90/90
f 268/268/268 90/90/90 267/267/267
f 92/92/92 210/210/210 93/93/93
f 211/211/211 93/93/93 210/210/210
f 212/212/212 269/269/269 96/96/96
f 270/270/270 96/96/96 269/269/269
f 101/101/101 271/271/271 98/98/98
f 272/272/272 98/98/98 271/271/271
f 214/214/214 213/213/213 102/102/102
f 215/215/215 102/102/102 213/213/213
f 274/274/274 273/273/273 105/105/105
f 216/216/216 105/105/105 273/273/273
f 218/218/218 217/217/217 107/107/107
f 219/219/219 107/107/107 217/217/217
f 276/276/276 220/220/220 275/275/275
f 221/221/221 275/275/275 220/220/220
f 224/224/224 223/223/223 222/222/222
f 225/225/225 222/222/222 223/223/223
f 227/227/227 226/226/226 109/109/109
f 228/228/228 109/109/109 226/226/226
f 230/230/230 229/229/229 277/277/277
f 278/278/278 277/277/277 229/229/229
f 233/233/233 232/232/232 231/231/231
f 234/234/234 231/231/231 232/232/232
