g Road_End_B
v -5.231406 -3.777134 0.4385298
v -7.499983 -3.777134 0
v -7.258548 -3.777134 0.529027
v -5.47284 -3.777134 0.529027
v -7.258548 -3.777134 0.4385298
v -5.231406 -3.777134 0.529027
v -7.499983 -3.777134 0.529027
v -5.47284 -3.777134 0.4385298
v -4.047467 -0.07324402 0.4385298
v -5.651594 1.530882 0
v -5.480873 1.360162 0.5290269
v -4.218187 0.09747589 0.5290269
v -5.480873 1.360162 0.4385298
v -4.047467 -0.07324402 0.5290269
v -5.651594 1.530882 0.5290269
v -4.218187 0.09747589 0.4385298
v -5.080367 -1.707502 0.4385298
v -7.016719 -0.9054388 0
v -6.810641 -0.9907992 0.5290269
v -5.286445 -1.622142 0.5290269
v -6.810641 -0.9907992 0.4385298
v -5.080367 -1.707502 0.5290269
v -7.016719 -0.9054388 0.5290269
v -5.286445 -1.622142 0.4385298
v -2.464664 1.228699 0.4385298
v -3.266727 3.16505 0
v -3.181368 2.958973 0.5290269
v -2.550024 1.434776 0.5290269
v -3.181368 2.958973 0.4385298
v -2.464664 1.228699 0.5290269
v -3.266727 3.16505 0.5290269
v -2.550024 1.434776 0.4385298
v 0 -0.07324402 0.4385298
v 0 1.749991 0.4385298
v 0 1.508556 0.4385298
v 0 1.508556 0.5290269
v 0 3.777134 0
v 7.499983 -3.777134 0.529027
v 7.258548 -3.777134 0.529027
v 6.810641 -0.9907992 0.5290269
v 7.016719 -0.9054388 0.5290269
v 5.47284 -3.777134 0.4385298
v 5.47284 -3.777134 0.529027
v 5.286445 -1.622142 0.5290269
v 5.286445 -1.622142 0.4385298
v 7.258548 -3.777134 0.4385298
v 6.810641 -0.9907992 0.4385298
v 5.231406 -3.777134 0.529027
v 5.231406 -3.777134 0.4385298
v 5.080367 -1.707502 0.4385298
v 5.080367 -1.707502 0.5290269
v 7.499983 -3.777134 0
v 7.016719 -0.9054388 0
v 5.651594 1.530882 0.5290269
v 5.480873 1.360162 0.5290269
v 3.181368 2.958973 0.5290269
v 3.266727 3.16505 0.5290269
v 4.218187 0.09747589 0.4385298
v 4.218187 0.09747589 0.5290269
v 2.550024 1.434776 0.5290269
v 2.550024 1.434776 0.4385298
v 5.480873 1.360162 0.4385298
v 3.181368 2.958973 0.4385298
v 4.047467 -0.07324402 0.5290269
v 4.047467 -0.07324402 0.4385298
v 2.464664 1.228699 0.4385298
v 2.464664 1.228699 0.5290269
v 5.651594 1.530882 0
v 3.266727 3.16505 0
v 0 3.535699 0.5290269
v 0 3.777133 0.5290269
v 0 1.749991 0.5290269
v 0 3.535699 0.4385298
v 0 -3.777134 0.4385298
v 0 -1.707502 0.4385298
v -6.810641 -0.9907992 0.5290269
v -7.258548 -3.777134 0.529027
v -7.499983 -3.777134 0.529027
v -7.016719 -0.9054388 0.5290269
v -5.231406 -3.777134 0.529027
v -5.286445 -1.622142 0.5290269
v -5.080367 -1.707502 0.5290269
v -5.47284 -3.777134 0.529027
v -5.47284 -3.777134 0.4385298
v -6.810641 -0.9907992 0.4385298
v -5.286445 -1.622142 0.4385298
v -7.258548 -3.777134 0.4385298
v -3.181368 2.958973 0.5290269
v -5.480873 1.360162 0.5290269
v -5.651594 1.530882 0.5290269
v -3.266727 3.16505 0.5290269
v -4.047467 -0.07324402 0.5290269
v -2.550024 1.434776 0.5290269
v -2.464664 1.228699 0.5290269
v -4.218187 0.09747589 0.5290269
v -4.218187 0.09747589 0.4385298
v -3.181368 2.958973 0.4385298
v -2.550024 1.434776 0.4385298
v -5.480873 1.360162 0.4385298
v -5.651594 1.530882 0.5290269
v -5.651594 1.530882 0
v -3.181368 2.958973 0.5290269
v 0 3.535699 0.5290269
v -3.181368 2.958973 0.4385298
v -2.464664 1.228699 0.5290269
v -2.464664 1.228699 0.4385298
v 0 3.777133 0.5290269
v 0 1.508556 0.5290269
v 0 1.749991 0.5290269
v 0 1.749991 0.4385298
v 0 3.535699 0.4385298
v -5.231406 -3.777134 0.4385298
v -5.080367 -1.707502 0.4385298
v -4.047467 -0.07324402 0.4385298
v -2.464664 1.228699 0.4385298
v 0 1.508556 0.4385298
v 6.810641 -0.9907992 0.5290269
v 7.258548 -3.777134 0.529027
v 7.499983 -3.777134 0.529027
v 7.016719 -0.9054388 0.5290269
v 5.231406 -3.777134 0.529027
v 5.286445 -1.622142 0.5290269
v 5.47284 -3.777134 0.529027
v 5.080367 -1.707502 0.5290269
v 5.47284 -3.777134 0.4385298
v 6.810641 -0.9907992 0.4385298
v 7.258548 -3.777134 0.4385298
v 5.286445 -1.622142 0.4385298
v 3.181368 2.958973 0.5290269
v 5.480873 1.360162 0.5290269
v 5.651594 1.530882 0.5290269
v 3.266727 3.16505 0.5290269
v 4.047467 -0.07324402 0.5290269
v 2.550024 1.434776 0.5290269
v 4.218187 0.09747589 0.5290269
v 2.464664 1.228699 0.5290269
v 4.218187 0.09747589 0.4385298
v 3.181368 2.958973 0.4385298
v 5.480873 1.360162 0.4385298
v 2.550024 1.434776 0.4385298
v 5.480873 1.360162 0.4385298
v 5.480873 1.360162 0.5290269
v 5.651594 1.530882 0.5290269
v 5.651594 1.530882 0
v 0 1.749991 0.5290269
v 0 1.749991 0.4385298
v 2.464664 1.228699 0.5290269
v 2.464664 1.228699 0.4385298
v 5.231406 -3.777134 0.4385298
v 5.080367 -1.707502 0.4385298
v 4.047467 -0.07324402 0.4385298
v 2.464664 1.228699 0.4385298
v -4.218187 0.09747589 0.5290269
v -5.286445 -1.622142 0.4385298
v -4.218187 0.09747589 0.4385298
v -5.286445 -1.622142 0.5290269
v -5.480873 1.360162 0.4385298
v -6.810641 -0.9907992 0.5290269
v -5.480873 1.360162 0.5290269
v -6.810641 -0.9907992 0.4385298
v -4.047467 -0.07324402 0.4385298
v -5.080367 -1.707502 0.5290269
v -4.047467 -0.07324402 0.5290269
v -5.080367 -1.707502 0.4385298
v -7.016719 -0.9054388 0
v -7.016719 -0.9054388 0.5290269
v -2.550024 1.434776 0.4385298
v -2.550024 1.434776 0.5290269
v -3.266727 3.16505 0
v -3.266727 3.16505 0.5290269
v 4.218187 0.09747589 0.5290269
v 5.286445 -1.622142 0.4385298
v 5.286445 -1.622142 0.5290269
v 4.218187 0.09747589 0.4385298
v 6.810641 -0.9907992 0.5290269
v 6.810641 -0.9907992 0.4385298
v 4.047467 -0.07324402 0.4385298
v 5.080367 -1.707502 0.5290269
v 5.080367 -1.707502 0.4385298
v 4.047467 -0.07324402 0.5290269
v 7.016719 -0.9054388 0
v 7.016719 -0.9054388 0.5290269
v 0 3.535699 0.5290269
v 0 3.777133 0.5290269
v 2.550024 1.434776 0.4385298
v 2.550024 1.434776 0.5290269
v 0 3.535699 0.4385298
v 3.181368 2.958973 0.5290269
v 3.181368 2.958973 0.4385298
v 0 3.535699 0.5290269
v 0 1.508556 0.4385298
v 0 1.508556 0.5290269
v 0 3.777133 0.5290269
v 3.266727 3.16505 0
v 3.266727 3.16505 0.5290269
v 0 3.777134 0
v 0 1.508556 0.5290269
v 0 1.749991 0.5290269
v 0 1.749991 0.4385298
v 0 3.535699 0.4385298
v 0 -1.707502 0.4385298
v 0 -3.777134 0.4385298
v 0 -0.07324402 0.4385298
v 0 1.508556 0.4385298
vt 0.12921 0.4745058
vt 0.1325675 0.4744998
vt 0.1297053 0.4744998
vt 0.13071 0.4745058
vt 0.1292635 0.4744998
vt 0.1298935 0.4745058
vt 0.1309148 0.4744998
vt 0.1314601 0.4745058
vt 0.12921 0.45399
vt 0.1325675 0.4451216
vt 0.1297053 0.4451216
vt 0.13071 0.45399
vt 0.1292635 0.4451216
vt 0.1298935 0.45399
vt 0.1309148 0.4451216
vt 0.1314601 0.45399
vt 0.12921 0.4640677
vt 0.1325675 0.4595539
vt 0.1297053 0.4595539
vt 0.13071 0.4640677
vt 0.1292635 0.4595539
vt 0.1298935 0.4640677
vt 0.1309148 0.4595539
vt 0.1314601 0.4640677
vt 0.12921 0.4439213
vt 0.1325675 0.430774
vt 0.1297053 0.430774
vt 0.13071 0.4439213
vt 0.1292635 0.430774
vt 0.1298935 0.4439213
vt 0.1309148 0.430774
vt 0.1314601 0.4439213
vt 0.4087946 0.2010495
vt 0.1314601 0.4321198
vt 0.12921 0.4321198
vt 0.1298935 0.4321198
vt 0.1325675 0.4147919
vt 0.1309148 0.4744998
vt 0.1297053 0.4744998
vt 0.1297053 0.4595539
vt 0.1309148 0.4595539
vt 0.1314601 0.4745058
vt 0.13071 0.4745058
vt 0.13071 0.4640677
vt 0.1314601 0.4640677
vt 0.1292635 0.4744998
vt 0.1292635 0.4595539
vt 0.1298935 0.4745058
vt 0.12921 0.4745058
vt 0.12921 0.4640677
vt 0.1298935 0.4640677
vt 0.1325675 0.4744998
vt 0.1325675 0.4595539
vt 0.1309148 0.4451216
vt 0.1297053 0.4451216
vt 0.1297053 0.430774
vt 0.1309148 0.430774
vt 0.1314601 0.45399
vt 0.13071 0.45399
vt 0.13071 0.4439213
vt 0.1314601 0.4439213
vt 0.1292635 0.4451216
vt 0.1292635 0.430774
vt 0.1298935 0.45399
vt 0.12921 0.45399
vt 0.12921 0.4439213
vt 0.1298935 0.4439213
vt 0.1325675 0.4451216
vt 0.1325675 0.430774
vt 0.1297053 0.4147919
vt 0.1309148 0.4147919
vt 0.13071 0.4321198
vt 0.1292635 0.4147919
vt 0.4367882 0.1337932
vt 0.4355904 0.1616489
vt 0.1297053 0.4595539
vt 0.1297053 0.4744998
vt 0.1309148 0.4744998
vt 0.1309148 0.4595539
vt 0.1298935 0.4745058
vt 0.13071 0.4640677
vt 0.1298935 0.4640677
vt 0.13071 0.4745058
vt 0.1846142 0.4893949
vt 0.1969488 0.4637046
vt 0.1828956 0.4695257
vt 0.2010786 0.4893949
vt 0.1297053 0.430774
vt 0.1297053 0.4451216
vt 0.1309148 0.4451216
vt 0.1309148 0.430774
vt 0.1298935 0.45399
vt 0.13071 0.4439213
vt 0.1298935 0.4439213
vt 0.13071 0.45399
vt 0.1730462 0.4536707
vt 0.1634866 0.4272874
vt 0.1576655 0.4413407
vt 0.1846882 0.4420286
vt 0.1309148 0.4451216
vt 0.1325675 0.4451216
vt 0.1297053 0.430774
vt 0.1297053 0.4147919
vt 0.1292635 0.430774
vt 0.1298935 0.4439213
vt 0.12921 0.4439213
vt 0.1309148 0.4147919
vt 0.1298935 0.4321198
vt 0.13071 0.4321198
vt 0.1341541 0.4384343
vt 0.1341541 0.4219699
vt 0.3754078 0.1332676
vt 0.3755363 0.16131
vt 0.3755069 0.1833748
vt 0.3755352 0.2010036
vt 0.3753932 0.2165378
vt 0.1297053 0.4595539
vt 0.1297053 0.4744998
vt 0.1309148 0.4744998
vt 0.1309148 0.4595539
vt 0.1298935 0.4745058
vt 0.13071 0.4640677
vt 0.13071 0.4745058
vt 0.1298935 0.4640677
vt 0.1846142 0.4893949
vt 0.1969488 0.4637046
vt 0.2010786 0.4893949
vt 0.1828956 0.4695257
vt 0.1297053 0.430774
vt 0.1297053 0.4451216
vt 0.1309148 0.4451216
vt 0.1309148 0.430774
vt 0.1298935 0.45399
vt 0.13071 0.4439213
vt 0.13071 0.45399
vt 0.1298935 0.4439213
vt 0.1730462 0.4536707
vt 0.1634866 0.4272874
vt 0.1846882 0.4420286
vt 0.1576655 0.4413407
vt 0.1292635 0.4451216
vt 0.1297053 0.4451216
vt 0.1309148 0.4451216
vt 0.1325675 0.4451216
vt 0.13071 0.4321198
vt 0.1314601 0.4321198
vt 0.1298935 0.4439213
vt 0.12921 0.4439213
vt 0.3754078 0.1332676
vt 0.3755363 0.16131
vt 0.3755069 0.1833748
vt 0.3755352 0.2010036
vt 0.13071 0.45399
vt 0.1314601 0.4640677
vt 0.1314601 0.45399
vt 0.13071 0.4640677
vt 0.1292635 0.4451216
vt 0.1297053 0.4595539
vt 0.1297053 0.4451216
vt 0.1292635 0.4595539
vt 0.12921 0.45399
vt 0.1298935 0.4640677
vt 0.1298935 0.45399
vt 0.12921 0.4640677
vt 0.1325675 0.4595539
vt 0.1309148 0.4595539
vt 0.1314601 0.4439213
vt 0.13071 0.4439213
vt 0.1325675 0.430774
vt 0.1309148 0.430774
vt 0.13071 0.45399
vt 0.1314601 0.4640677
vt 0.13071 0.4640677
vt 0.1314601 0.45399
vt 0.1297053 0.4595539
vt 0.1292635 0.4595539
vt 0.12921 0.45399
vt 0.1298935 0.4640677
vt 0.12921 0.4640677
vt 0.1298935 0.45399
vt 0.1325675 0.4595539
vt 0.1309148 0.4595539
vt 0.1297053 0.4147919
vt 0.1309148 0.4147919
vt 0.1314601 0.4439213
vt 0.13071 0.4439213
vt 0.1292635 0.4147919
vt 0.1297053 0.430774
vt 0.1292635 0.430774
vt 0.1297053 0.4147919
vt 0.12921 0.4321198
vt 0.1298935 0.4321198
vt 0.1309148 0.4147919
vt 0.1325675 0.430774
vt 0.1309148 0.430774
vt 0.1325675 0.4147919
vt 0.1298935 0.4321198
vt 0.13071 0.4321198
vt 0.1341541 0.4384343
vt 0.1341541 0.4219699
vt 0.4355904 0.1616489
vt 0.4367882 0.1337932
vt 0.4087946 0.2010495
vt 0.3753932 0.2165378
vn 0.9973477 -0.07278473 0
vn -0.9861339 0.1659519 0
vn 0 0 1
vn -0.9962801 0.08617318 0
vn 0.9873247 -0.1587136 0
vn 0.9973477 -0.07278473 0
vn 0 0 1
vn -0.9962801 0.08617317 0
vn 0.635259 -0.7722992 0
vn -0.5652533 0.8249174 0
vn 0 0 1
vn -0.6254847 0.7802364 0
vn 0.5708613 -0.8210465 0
vn 0.635259 -0.7722992 0
vn 0 0 1
vn -0.6254846 0.7802365 0
vn 0.9973477 -0.07278473 0
vn -0.9861339 0.1659519 0
vn 0 0 1
vn -0.9962801 0.08617317 0
vn 0.9873247 -0.1587136 0
vn 0.9973477 -0.07278474 0
vn 0 0 1
vn -0.9962801 0.08617318 0
vn 0.635259 -0.7722992 0
vn -0.5652533 0.8249174 0
vn 0 0 1
vn -0.6254846 0.7802365 0
vn 0.5708613 -0.8210465 0
vn 0.635259 -0.7722991 0
vn 0 0 1
vn -0.6254847 0.7802364 0
vn 0 0 1
vn -0.1226788 0.9924465 0
vn 0.1128228 -0.9936152 0
vn 0.1128228 -0.9936152 0
vn -0.1841642 0.9828955 1.133991E-06
vn 0 0 1
vn 0 0 1
vn 0 0 1
vn 0 0 1
vn 0.9962801 0.08617317 0
vn 0.9962801 0.08617318 0
vn 0.9962801 0.08617317 0
vn 0.9962801 0.08617318 0
vn -0.9873247 -0.1587136 0
vn -0.9873247 -0.1587136 0
vn -0.9973477 -0.07278473 0
vn -0.9973477 -0.07278474 0
vn -0.9973477 -0.07278473 0
vn -0.9973477 -0.07278473 0
vn 0.9861339 0.1659519 0
vn 0.9861339 0.1659519 0
vn 0 0 1
vn 0 0 1
vn 0 0 1
vn 0 0 1
vn 0.6254846 0.7802365 0
vn 0.6254847 0.7802364 0
vn 0.6254846 0.7802365 0
vn 0.6254847 0.7802364 0
vn -0.5708613 -0.8210465 0
vn -0.5708613 -0.8210465 0
vn -0.635259 -0.7722992 0
vn -0.635259 -0.7722991 0
vn -0.635259 -0.7722992 0
vn -0.635259 -0.7722992 0
vn 0.5652533 0.8249174 0
vn 0.5652533 0.8249174 0
vn 0 0 1
vn 0 0 1
vn -0.1226788 0.9924465 0
vn 0.1783749 -0.9839626 0
vn 0 0 1
vn 0 0 1
vn 0.9873247 -0.1587136 0
vn 0.9873247 -0.1587136 0
vn -0.9861339 0.1659519 0
vn -0.9861339 0.1659519 0
vn 0 0 1
vn 0 0 1
vn 0 0 1
vn 0 0 1
vn 0 0 1
vn 0 0 1
vn 0 0 1
vn 0 0 1
vn 0.5708613 -0.8210465 0
vn 0.5708613 -0.8210465 0
vn -0.5652533 0.8249174 0
vn -0.5652533 0.8249174 0
vn 0 0 1
vn 0 0 1
vn 0 0 1
vn 0 0 1
vn 0 0 1
vn 0 0 1
vn 0 0 1
vn 0 0 1
vn -0.872386 0.4888176 0
vn -0.872386 0.4888177 0
vn 0.1783749 -0.9839626 0
vn 0.1783749 -0.9839626 0
vn 0.1783749 -0.9839626 0
vn 0.1128228 -0.9936152 0
vn 0.1128228 -0.9936152 0
vn -0.1841642 0.9828955 1.133991E-06
vn 0 0 1
vn 0 0 1
vn 0 0 1
vn 0 0 1
vn 0 0 1
vn 0 0 1
vn 0 0 1
vn 0 0 1
vn 0 0 1
vn -0.9873247 -0.1587136 0
vn -0.9873247 -0.1587136 0
vn 0.9861339 0.1659519 0
vn 0.9861339 0.1659519 0
vn 0 0 1
vn 0 0 1
vn 0 0 1
vn 0 0 1
vn 0 0 1
vn 0 0 1
vn 0 0 1
vn 0 0 1
vn -0.5708613 -0.8210465 0
vn -0.5708613 -0.8210465 0
vn 0.5652533 0.8249174 0
vn 0.5652533 0.8249174 0
vn 0 0 1
vn 0 0 1
vn 0 0 1
vn 0 0 1
vn 0 0 1
vn 0 0 1
vn 0 0 1
vn 0 0 1
vn -0.87041 -0.4923278 0
vn -0.87041 -0.4923278 0
vn 0.872386 0.4888176 0
vn 0.872386 0.4888177 0
vn 0.1226788 0.9924465 0
vn 0.1226788 0.9924465 0
vn -0.1128228 -0.9936152 0
vn -0.1128228 -0.9936152 0
vn 0 0 1
vn 0 0 1
vn 0 0 1
vn 0 0 1
vn -0.849439 0.5276869 0
vn -0.849439 0.5276869 0
vn -0.8494388 0.527687 0
vn -0.8494388 0.527687 0
vn 0.87041 -0.4923278 0
vn 0.87041 -0.4923278 0
vn 0.87041 -0.4923278 0
vn 0.87041 -0.4923278 0
vn 0.8453167 -0.5342656 0
vn 0.8453166 -0.5342656 0
vn 0.8453167 -0.5342656 0
vn 0.8453167 -0.5342656 0
vn -0.872386 0.4888176 0
vn -0.872386 0.4888177 0
vn -0.1226788 0.9924465 0
vn -0.1226788 0.9924465 0
vn -0.1841642 0.9828955 1.133991E-06
vn -0.1841641 0.9828955 0
vn 0.849439 0.5276869 0
vn 0.849439 0.5276869 0
vn 0.8494388 0.527687 0
vn 0.8494388 0.527687 0
vn -0.87041 -0.4923278 0
vn -0.87041 -0.4923278 0
vn -0.8453166 -0.5342656 0
vn -0.8453167 -0.5342656 0
vn -0.8453167 -0.5342656 0
vn -0.8453167 -0.5342656 0
vn 0.872386 0.4888176 0
vn 0.872386 0.4888177 0
vn 0 0 1
vn 0 0 1
vn 0.1226788 0.9924465 0
vn 0.1226788 0.9924465 0
vn -0.1783749 -0.9839626 0
vn -0.1783749 -0.9839626 0
vn -0.1783749 -0.9839626 0
vn -0.1783749 -0.9839626 0
vn -0.1128228 -0.9936152 0
vn -0.1128228 -0.9936152 0
vn 0.184164 0.9828955 0
vn 0.1841641 0.9828955 0
vn 0.1841641 0.9828955 0
vn 0.1841642 0.9828955 1.133991E-06
vn 0 0 1
vn 0 0 1
vn 0 0 1
vn 0 0 1
vn 0 0 1
vn 0 0 1
vn 0 0 1
vn 0 0 1
g Road_End_B_0
f 7/7/7 3/3/3 23/23/23
f 19/19/19 23/23/23 3/3/3
f 19/19/19 11/11/11 23/23/23
f 15/15/15 23/23/23 11/11/11
f 15/15/15 11/11/11 31/31/31
f 27/27/27 31/31/31 11/11/11
f 27/27/27 70/70/70 31/31/31
f 71/71/71 31/31/31 70/70/70
f 20/20/20 24/24/24 4/4/4
f 8/8/8 4/4/4 24/24/24
f 21/21/21 76/76/76 5/5/5
f 77/77/77 5/5/5 76/76/76
f 17/17/17 22/22/22 1/1/1
f 6/6/6 1/1/1 22/22/22
f 79/79/79 18/18/18 78/78/78
f 2/2/2 78/78/78 18/18/18
f 83/83/83 80/80/80 81/81/81
f 82/82/82 81/81/81 80/80/80
f 82/82/82 92/92/92 81/81/81
f 95/95/95 81/81/81 92/92/92
f 95/95/95 92/92/92 93/93/93
f 94/94/94 93/93/93 92/92/92
f 94/94/94 108/108/108 93/93/93
f 109/109/109 93/93/93 108/108/108
f 87/87/87 84/84/84 85/85/85
f 86/86/86 85/85/85 84/84/84
f 86/86/86 96/96/96 85/85/85
f 99/99/99 85/85/85 96/96/96
f 99/99/99 96/96/96 97/97/97
f 98/98/98 97/97/97 96/96/96
f 98/98/98 110/110/110 97/97/97
f 111/111/111 97/97/97 110/110/110
f 28/28/28 32/32/32 12/12/12
f 16/16/16 12/12/12 32/32/32
f 29/29/29 88/88/88 13/13/13
f 89/89/89 13/13/13 88/88/88
f 25/25/25 30/30/30 9/9/9
f 14/14/14 9/9/9 30/30/30
f 91/91/91 26/26/26 90/90/90
f 10/10/10 90/90/90 26/26/26
f 155/155/155 154/154/154 153/153/153
f 156/156/156 153/153/153 154/154/154
f 159/159/159 158/158/158 157/157/157
f 160/160/160 157/157/157 158/158/158
f 163/163/163 162/162/162 161/161/161
f 164/164/164 161/161/161 162/162/162
f 101/101/101 165/165/165 100/100/100
f 166/166/166 100/100/100 165/165/165
f 34/34/34 167/167/167 72/72/72
f 168/168/168 72/72/72 167/167/167
f 103/103/103 102/102/102 73/73/73
f 104/104/104 73/73/73 102/102/102
f 36/36/36 105/105/105 35/35/35
f 106/106/106 35/35/35 105/105/105
f 37/37/37 169/169/169 107/107/107
f 170/170/170 107/107/107 169/169/169
f 74/74/74 75/75/75 112/112/112
f 113/113/113 112/112/112 75/75/75
f 113/113/113 75/75/75 114/114/114
f 33/33/33 114/114/114 75/75/75
f 114/114/114 33/33/33 115/115/115
f 116/116/116 115/115/115 33/33/33
f 38/38/38 41/41/41 39/39/39
f 40/40/40 39/39/39 41/41/41
f 40/40/40 41/41/41 55/55/55
f 54/54/54 55/55/55 41/41/41
f 54/54/54 57/57/57 55/55/55
f 56/56/56 55/55/55 57/57/57
f 56/56/56 57/57/57 183/183/183
f 184/184/184 183/183/183 57/57/57
f 42/42/42 45/45/45 43/43/43
f 44/44/44 43/43/43 45/45/45
f 118/118/118 117/117/117 46/46/46
f 47/47/47 46/46/46 117/117/117
f 48/48/48 51/51/51 49/49/49
f 50/50/50 49/49/49 51/51/51
f 52/52/52 53/53/53 119/119/119
f 120/120/120 119/119/119 53/53/53
f 123/123/123 122/122/122 121/121/121
f 124/124/124 121/121/121 122/122/122
f 124/124/124 122/122/122 133/133/133
f 135/135/135 133/133/133 122/122/122
f 135/135/135 134/134/134 133/133/133
f 136/136/136 133/133/133 134/134/134
f 136/136/136 134/134/134 197/197/197
f 198/198/198 197/197/197 134/134/134
f 127/127/127 126/126/126 125/125/125
f 128/128/128 125/125/125 126/126/126
f 128/128/128 126/126/126 137/137/137
f 139/139/139 137/137/137 126/126/126
f 139/139/139 138/138/138 137/137/137
f 140/140/140 137/137/137 138/138/138
f 140/140/140 138/138/138 199/199/199
f 200/200/200 199/199/199 138/138/138
f 58/58/58 61/61/61 59/59/59
f 60/60/60 59/59/59 61/61/61
f 130/130/130 129/129/129 62/62/62
f 63/63/63 62/62/62 129/129/129
f 64/64/64 67/67/67 65/65/65
f 66/66/66 65/65/65 67/67/67
f 68/68/68 69/69/69 131/131/131
f 132/132/132 131/131/131 69/69/69
f 173/173/173 172/172/172 171/171/171
f 174/174/174 171/171/171 172/172/172
f 176/176/176 175/175/175 141/141/141
f 142/142/142 141/141/141 175/175/175
f 179/179/179 178/178/178 177/177/177
f 180/180/180 177/177/177 178/178/178
f 182/182/182 181/181/181 143/143/143
f 144/144/144 143/143/143 181/181/181
f 186/186/186 185/185/185 145/145/145
f 146/146/146 145/145/145 185/185/185
f 189/189/189 188/188/188 187/187/187
f 190/190/190 187/187/187 188/188/188
f 148/148/148 147/147/147 191/191/191
f 192/192/192 191/191/191 147/147/147
f 195/195/195 194/194/194 193/193/193
f 196/196/196 193/193/193 194/194/194
f 202/202/202 149/149/149 201/201/201
f 150/150/150 201/201/201 149/149/149
f 150/150/150 151/151/151 201/201/201
f 203/203/203 201/201/201 151/151/151
f 151/151/151 152/152/152 203/203/203
f 204/204/204 203/203/203 152/152/152
