g Road_Streight_A
v 5.231406 0 0.4385298
v 7.499983 0 0.529027
v 7.258548 0 0.529027
v 5.47284 0 0.529027
v -5.231406 0 0.4385298
v -7.499983 0 0
v -7.258548 0 0.529027
v -5.47284 0 0.529027
v -7.258548 0 0.4385298
v 0 0 0.4385298
v 5.231406 14.99994 0.4385298
v 7.499983 0 0
v 5.231406 14.99994 0.529027
v 5.231406 0 0.529027
v 7.258548 14.99994 0.4385298
v 5.47284 0 0.4385298
v 7.258548 0 0.4385298
v 7.258548 14.99994 0.529027
v 5.47284 14.99994 0.529027
v -5.231406 14.99994 0.4385298
v -5.231406 0 0.529027
v -7.499983 14.99994 0
v -7.499983 14.99994 0.529027
v -7.499983 0 0.529027
v -7.258548 14.99994 0.529027
v -5.47284 14.99994 0.529027
v -5.47284 0 0.4385298
v -5.47284 14.99994 0.4385298
v 0 14.99994 0.4385298
v 7.499983 14.99994 0
v 7.499983 14.99994 0.529027
v 5.47284 14.99994 0.4385298
v -5.231406 14.99994 0.529027
v -7.258548 14.99994 0.4385298
v 7.499983 0 0.529027
v 7.499983 14.99994 0.529027
v 5.231406 14.99994 0.529027
v 5.231406 0 0.529027
v 5.47284 14.99994 0.4385298
v 5.47284 0 0.529027
v 5.47284 14.99994 0.529027
v 5.47284 0 0.4385298
v 7.258548 0 0.4385298
v 7.258548 14.99994 0.529027
v 7.258548 0 0.529027
v 7.258548 14.99994 0.4385298
v 5.231406 0 0.4385298
v 5.231406 14.99994 0.4385298
v -7.499983 0 0.529027
v -7.499983 14.99994 0.529027
v -5.231406 14.99994 0.529027
v -5.231406 0 0.529027
v -5.47284 14.99994 0.4385298
v -5.47284 0 0.529027
v -5.47284 0 0.4385298
v -5.47284 14.99994 0.529027
v -7.258548 0 0.4385298
v -7.258548 14.99994 0.529027
v -7.258548 14.99994 0.4385298
v -7.258548 0 0.529027
v -5.231406 0 0.4385298
v 0 14.99994 0.4385298
v 0 0 0.4385298
v -5.231406 14.99994 0.4385298
vt 0.1258801 0.4179581
vt 0.1276421 0.4179578
vt 0.1263193 0.4179577
vt 0.1276986 0.4179583
vt 0.1281945 0.4179581
vt 0.1258251 0.4179578
vt 0.1300468 0.4179577
vt 0.1263759 0.4179583
vt 0.1463909 0.4994957
vt 0.9382701 0.7506785
vt 0.1258801 0.4993163
vt 0.130541 0.4179578
vt 0.1263759 0.4993163
vt 0.1263759 0.4179581
vt 0.1442154 0.3758684
vt 0.1589331 0.4994959
vt 0.1442154 0.4994959
vt 0.1263194 0.4993159
vt 0.1276986 0.4993165
vt 0.1281945 0.4993163
vt 0.1276986 0.4179581
vt 0.1258251 0.499316
vt 0.128724 0.499316
vt 0.128724 0.4179578
vt 0.1300468 0.4993159
vt 0.1263759 0.4993165
vt 0.1316735 0.4994957
vt 0.1316735 0.3758686
vt 0.9382701 0.8736576
vt 0.130541 0.499316
vt 0.1276421 0.499316
vt 0.1589331 0.3758684
vt 0.1276987 0.4993163
vt 0.1463909 0.3758686
vt 0.1276421 0.4179578
vt 0.1276421 0.499316
vt 0.1263759 0.4993163
vt 0.1263759 0.4179581
vt 0.1281944 0.4993165
vt 0.1276986 0.4179583
vt 0.1276986 0.4993165
vt 0.1281945 0.4179583
vt 0.1258235 0.4179577
vt 0.1263194 0.4993159
vt 0.1263193 0.4179577
vt 0.1258236 0.4993159
vt 0.9998004 0.7506785
vt 0.9998004 0.8736575
vt 0.128724 0.4179578
vt 0.128724 0.499316
vt 0.1276987 0.4993163
vt 0.1276986 0.4179581
vt 0.1258801 0.4993165
vt 0.1263759 0.4179583
vt 0.1258801 0.4179583
vt 0.1263759 0.4993165
vt 0.1305426 0.4179577
vt 0.1300468 0.4993159
vt 0.1305426 0.4993159
vt 0.1300468 0.4179577
vt 0.8752026 0.8736575
vt 0.9382002 0.7506785
vt 0.9382002 0.8736575
vt 0.8752026 0.7506785
vn -1 0 0
vn 1 0 0
vn 0 0 1
vn 0 0 1
vn 1 0 0
vn -1 0 0
vn 0 0 1
vn 0 0 1
vn 0 0 1
vn 0 0 1
vn -1 0 0
vn 1 0 0
vn -1 0 0
vn -1 0 0
vn 0 0 1
vn 0 0 1
vn 0 0 1
vn 0 0 1
vn 0 0 1
vn 1 0 0
vn 1 0 0
vn -1 0 0
vn -1 0 0
vn -1 0 0
vn 0 0 1
vn 0 0 1
vn 0 0 1
vn 0 0 1
vn 0 0 1
vn 1 0 0
vn 1 0 0
vn 0 0 1
vn 1 0 0
vn 0 0 1
vn 0 0 1
vn 0 0 1
vn 0 0 1
vn 0 0 1
vn 1 0 0
vn 1 0 0
vn 1 0 0
vn 1 0 0
vn -1 0 0
vn -1 0 0
vn -1 0 0
vn -1 0 0
vn 0 0 1
vn 0 0 1
vn 0 0 1
vn 0 0 1
vn 0 0 1
vn 0 0 1
vn -1 0 0
vn -1 0 0
vn -1 0 0
vn -1 0 0
vn 1 0 0
vn 1 0 0
vn 1 0 0
vn 1 0 0
vn 0 0 1
vn 0 0 1
vn 0 0 1
vn 0 0 1
g Road_Streight_A_0
f 1/1/1 14/14/14 11/11/11
f 13/13/13 11/11/11 14/14/14
f 30/30/30 31/31/31 12/12/12
f 2/2/2 12/12/12 31/31/31
f 36/36/36 18/18/18 35/35/35
f 3/3/3 35/35/35 18/18/18
f 38/38/38 4/4/4 37/37/37
f 19/19/19 37/37/37 4/4/4
f 15/15/15 32/32/32 17/17/17
f 16/16/16 17/17/17 32/32/32
f 41/41/41 40/40/40 39/39/39
f 42/42/42 39/39/39 40/40/40
f 45/45/45 44/44/44 43/43/43
f 46/46/46 43/43/43 44/44/44
f 48/48/48 29/29/29 47/47/47
f 10/10/10 47/47/47 29/29/29
f 33/33/33 21/21/21 20/20/20
f 5/5/5 20/20/20 21/21/21
f 24/24/24 23/23/23 6/6/6
f 22/22/22 6/6/6 23/23/23
f 7/7/7 25/25/25 49/49/49
f 50/50/50 49/49/49 25/25/25
f 26/26/26 8/8/8 51/51/51
f 52/52/52 51/51/51 8/8/8
f 27/27/27 28/28/28 9/9/9
f 34/34/34 9/9/9 28/28/28
f 55/55/55 54/54/54 53/53/53
f 56/56/56 53/53/53 54/54/54
f 59/59/59 58/58/58 57/57/57
f 60/60/60 57/57/57 58/58/58
f 63/63/63 62/62/62 61/61/61
f 64/64/64 61/61/61 62/62/62
