g Road_Crosswalk
v 5.231406 12.30131 0.4385298
v 7.499983 12.30131 0.529027
v 7.258548 12.30131 0.529027
v 5.47284 12.30131 0.529027
v -5.231406 12.30131 0.4385298
v -7.499983 12.30131 0
v -7.258548 12.30131 0.529027
v -5.47284 12.30131 0.529027
v -7.258548 12.30131 0.4385298
v 0 12.30131 0.4385298
v 7.499983 12.30131 0
v 5.231406 12.30131 0.529027
v 5.47284 12.30131 0.4385298
v 7.258548 12.30131 0.4385298
v -5.231406 12.30131 0.529027
v -7.499983 12.30131 0.529027
v -5.47284 12.30131 0.4385298
v 5.231406 14.99996 0.4385298
v 7.499983 14.99996 0
v 5.231406 14.99996 0.5290269
v 7.499983 14.99996 0.5290269
v 7.258547 14.99996 0.5290269
v 5.47284 14.99996 0.5290269
v 7.258547 14.99996 0.4385298
v 5.47284 14.99996 0.4385298
v -5.231406 14.99996 0.4385298
v -5.231406 14.99996 0.5290269
v -7.499983 14.99996 0
v -7.499983 14.99996 0.5290269
v -7.258547 14.99996 0.5290269
v -5.47284 14.99996 0.5290269
v -7.258547 14.99996 0.4385298
v -5.47284 14.99996 0.4385298
v 0 14.99996 0.4385298
v 5.231406 9.617956 0.4385298
v 7.499983 9.617956 0
v 5.231406 9.617956 0.5290269
v 7.499983 9.617956 0.5290269
v 7.258547 9.617956 0.5290269
v 5.47284 9.617956 0.5290269
v 7.258547 9.617956 0.4385298
v 5.47284 9.617956 0.4385298
v -5.231406 9.617956 0.4385298
v -5.231406 9.617956 0.5290269
v -7.499983 9.617956 0
v -7.499983 9.617956 0.5290269
v -7.258547 9.617956 0.5290269
v -5.47284 9.617956 0.5290269
v -7.258547 9.617956 0.4385298
v -5.47284 9.617956 0.4385298
v 0 9.617956 0.4385298
v 7.499983 6.62763 0
v 7.499983 6.62763 0.5290269
v 5.47284 6.62763 0.5290269
v 7.258547 6.62763 0.4385298
v -5.231406 6.62763 0.4385298
v -5.231406 6.62763 0.5290269
v -7.258547 6.62763 0.5290269
v -5.47284 6.62763 0.4385298
v 0 6.62763 0.4385298
v 5.231406 6.627631 0.4385298
v 5.231406 6.627631 0.5290269
v 7.258547 6.627631 0.5290269
v 5.47284 6.627631 0.4385298
v -7.499983 6.627631 0
v -7.499983 6.627631 0.5290269
v -5.47284 6.627631 0.5290269
v -7.258547 6.627631 0.4385298
v 7.499983 -14.99996 0
v 5.231406 -14.99996 0.529027
v 5.47284 -14.99996 0.4385298
v 7.258548 -14.99996 0.529027
v -5.231406 -14.99996 0.4385298
v -5.231406 -14.99996 0.529027
v -7.499983 -14.99996 0.529027
v -7.258548 -14.99996 0.4385298
v -5.47284 -14.99996 0.4385298
v 0 -14.99996 0.4385298
v 5.231406 -14.99996 0.4385298
v 5.231406 -6.103515E-06 0.4385298
v 7.499983 -14.99996 0.529027
v 7.499983 -6.103515E-06 0.529027
v 7.258548 -14.99996 0.4385298
v 5.47284 -14.99996 0.529027
v 7.258548 -6.103515E-06 0.529027
v 5.47284 -6.103515E-06 0.529027
v -5.231406 -6.103515E-06 0.4385298
v -7.499983 -14.99996 0
v -7.499983 -6.103515E-06 0
v -7.258548 -14.99996 0.529027
v -7.258548 -6.103515E-06 0.529027
v -5.47284 -6.103515E-06 0.529027
v -5.47284 -14.99996 0.529027
v -7.258548 -6.103515E-06 0.4385298
v 0 -6.103515E-06 0.4385298
v 7.499983 -6.103515E-06 0
v 5.231406 -6.103515E-06 0.529027
v 5.47284 -6.103515E-06 0.4385298
v 7.258548 -6.103515E-06 0.4385298
v -5.231406 -6.103515E-06 0.529027
v -7.499983 -6.103515E-06 0.529027
v -5.47284 -6.103515E-06 0.4385298
v 5.231406 12.30131 0.529027
v 5.231406 9.617956 0.5290269
v -5.231406 12.30131 0.529027
v -5.231406 9.617956 0.5290269
v 7.499983 12.30131 0.529027
v 7.499983 14.99996 0.5290269
v 7.258548 12.30131 0.529027
v 7.258548 12.30131 0.4385298
v 5.47284 14.99996 0.4385298
v 5.47284 12.30131 0.529027
v 5.47284 12.30131 0.4385298
v 5.231406 12.30131 0.4385298
v -7.499983 12.30131 0.529027
v -7.499983 14.99996 0.5290269
v -7.258548 12.30131 0.529027
v -7.258548 12.30131 0.4385298
v -5.47284 12.30131 0.529027
v -5.47284 14.99996 0.4385298
v -5.47284 12.30131 0.4385298
v -5.231406 12.30131 0.4385298
v 5.231406 12.30131 0.4385298
v 5.231406 12.30131 0.529027
v 5.231406 14.99996 0.4385298
v 5.231406 12.30131 0.529027
v 5.47284 14.99996 0.5290269
v 5.47284 12.30131 0.529027
v 5.231406 14.99996 0.5290269
v 7.258548 12.30131 0.4385298
v 7.258547 14.99996 0.5290269
v 7.258548 12.30131 0.529027
v 7.258547 14.99996 0.4385298
v -5.231406 12.30131 0.529027
v -5.231406 14.99996 0.4385298
v -5.231406 12.30131 0.4385298
v -5.47284 12.30131 0.529027
v -5.231406 14.99996 0.5290269
v -5.231406 12.30131 0.529027
v -5.47284 14.99996 0.5290269
v -7.258548 12.30131 0.529027
v -7.258547 14.99996 0.4385298
v -7.258548 12.30131 0.4385298
v -7.258547 14.99996 0.5290269
v 7.499983 12.30131 0
v 7.499983 12.30131 0.529027
v 7.499983 12.30131 0.529027
v 7.258547 9.617956 0.5290269
v 7.258548 12.30131 0.529027
v 7.499983 9.617956 0.5290269
v 5.231406 6.627631 0.5290269
v 7.258548 12.30131 0.4385298
v 5.47284 12.30131 0.4385298
v 7.258547 9.617956 0.4385298
v 5.47284 12.30131 0.4385298
v 5.47284 9.617956 0.5290269
v 5.47284 12.30131 0.529027
v 5.47284 9.617956 0.4385298
v 5.231406 9.617956 0.4385298
v -7.499983 12.30131 0.529027
v -7.499983 12.30131 0
v -7.258548 12.30131 0.529027
v -7.499983 9.617956 0.5290269
v -7.499983 12.30131 0.529027
v -7.258547 9.617956 0.5290269
v -5.231406 6.62763 0.5290269
v -5.47284 12.30131 0.4385298
v -7.258547 9.617956 0.4385298
v -7.258548 12.30131 0.4385298
v -5.47284 12.30131 0.529027
v -5.47284 9.617956 0.4385298
v -5.47284 12.30131 0.4385298
v -5.47284 9.617956 0.5290269
v -5.231406 9.617956 0.4385298
v 7.258547 6.627631 0.5290269
v 7.499983 6.62763 0.5290269
v 7.258547 6.62763 0.4385298
v 5.47284 6.62763 0.5290269
v 5.47284 6.627631 0.4385298
v 5.231406 6.627631 0.4385298
v -7.499983 6.627631 0.5290269
v -7.258547 6.62763 0.5290269
v -7.258547 6.627631 0.4385298
v -5.47284 6.62763 0.4385298
v -5.47284 6.627631 0.5290269
v -5.231406 6.62763 0.4385298
v 7.499983 6.62763 0
v 7.499983 6.62763 0.5290269
v 7.499983 -6.103515E-06 0.529027
v 7.258547 6.627631 0.5290269
v 7.499983 6.62763 0.5290269
v 5.47284 6.627631 0.4385298
v 7.258547 6.62763 0.4385298
v 5.47284 6.627631 0.4385298
v 5.47284 6.62763 0.5290269
v 5.47284 -6.103515E-06 0.4385298
v 0 6.62763 0.4385298
v 5.231406 6.627631 0.4385298
v -7.499983 6.627631 0
v -7.499983 6.627631 0.5290269
v -7.258547 6.62763 0.5290269
v -7.499983 -6.103515E-06 0.529027
v -7.499983 6.627631 0.5290269
v -5.47284 6.62763 0.4385298
v -7.258547 6.627631 0.4385298
v -5.47284 6.62763 0.4385298
v -5.47284 6.627631 0.5290269
v -5.47284 -6.103515E-06 0.4385298
v 0 6.62763 0.4385298
v -5.231406 6.62763 0.4385298
v 0 -6.103515E-06 0.4385298
v 5.231406 -6.103515E-06 0.4385298
v 5.231406 6.627631 0.5290269
v 5.231406 6.627631 0.4385298
v 5.231406 -6.103515E-06 0.529027
v 5.47284 6.62763 0.5290269
v 5.47284 -6.103515E-06 0.529027
v 5.231406 6.627631 0.5290269
v 7.258548 -6.103515E-06 0.4385298
v 7.258547 6.627631 0.5290269
v 7.258548 -6.103515E-06 0.529027
v 7.258547 6.62763 0.4385298
v -5.231406 6.62763 0.4385298
v -5.231406 -6.103515E-06 0.4385298
v -5.231406 6.62763 0.5290269
v -5.47284 -6.103515E-06 0.529027
v -5.231406 6.62763 0.5290269
v -5.231406 -6.103515E-06 0.529027
v -5.47284 6.627631 0.5290269
v -7.258548 -6.103515E-06 0.529027
v -7.258547 6.627631 0.4385298
v -7.258548 -6.103515E-06 0.4385298
v -7.258547 6.62763 0.5290269
v 5.231406 -6.103515E-06 0.4385298
v 5.231406 -6.103515E-06 0.529027
v 7.499983 -6.103515E-06 0.529027
v 7.499983 -6.103515E-06 0
v 7.499983 -14.99996 0.529027
v 7.258548 -6.103515E-06 0.529027
v 7.499983 -6.103515E-06 0.529027
v 5.231406 -6.103515E-06 0.529027
v 5.231406 -14.99996 0.529027
v 5.47284 -6.103515E-06 0.529027
v 5.47284 -6.103515E-06 0.4385298
v 7.258548 -6.103515E-06 0.4385298
v 5.47284 -6.103515E-06 0.4385298
v 5.47284 -14.99996 0.529027
v 5.47284 -6.103515E-06 0.529027
v 5.47284 -14.99996 0.4385298
v 7.258548 -14.99996 0.4385298
v 7.258548 -6.103515E-06 0.529027
v 7.258548 -14.99996 0.529027
v 7.258548 -6.103515E-06 0.4385298
v 5.231406 -14.99996 0.4385298
v 5.231406 -6.103515E-06 0.4385298
v -5.231406 -6.103515E-06 0.4385298
v -5.231406 -6.103515E-06 0.529027
v -7.499983 -6.103515E-06 0.529027
v -7.499983 -6.103515E-06 0
v -7.499983 -14.99996 0.529027
v -7.258548 -6.103515E-06 0.529027
v -7.499983 -6.103515E-06 0.529027
v -5.231406 -6.103515E-06 0.529027
v -5.47284 -6.103515E-06 0.529027
v -5.231406 -14.99996 0.529027
v -5.47284 -6.103515E-06 0.4385298
v -7.258548 -6.103515E-06 0.4385298
v -5.47284 -6.103515E-06 0.4385298
v -5.47284 -14.99996 0.529027
v -5.47284 -14.99996 0.4385298
v -5.47284 -6.103515E-06 0.529027
v -7.258548 -14.99996 0.4385298
v -7.258548 -6.103515E-06 0.529027
v -7.258548 -6.103515E-06 0.4385298
v -7.258548 -14.99996 0.529027
v -5.231406 -14.99996 0.4385298
v 0 -14.99996 0.4385298
v -5.231406 -6.103515E-06 0.4385298
v 5.231406 12.30131 0.4385298
v 0 12.30131 0.4385298
v -5.231406 12.30131 0.4385298
v 0 -6.103515E-06 0.4385298
v 0 -6.103515E-06 0.4385298
vt 0.1258472 0.4993163
vt 0.1276421 0.4179578
vt 0.1263399 0.4993159
vt 0.1276657 0.4993165
vt 0.1281945 0.4993163
vt 0.1258251 0.4179578
vt 0.1300468 0.4993159
vt 0.1263759 0.4993165
vt 0.1305426 0.4993159
vt 0.4376505 0.2490584
vt 0.130541 0.4179578
vt 0.126343 0.4993163
vt 0.1589331 0.4994959
vt 0.1258441 0.4993159
vt 0.1276987 0.4993163
vt 0.128724 0.4179578
vt 0.1316735 0.4994957
vt 0.4998499 0.2269332
vt 0.130541 0.432595
vt 0.1263765 0.4325954
vt 0.1276427 0.432595
vt 0.1263199 0.4325949
vt 0.1276992 0.4325955
vt 0.1442154 0.477254
vt 0.1589331 0.477254
vt 0.3752072 0.2269331
vt 0.1276981 0.4325954
vt 0.1258251 0.432595
vt 0.1287234 0.432595
vt 0.1300462 0.4325949
vt 0.1263753 0.4325955
vt 0.1463909 0.4772538
vt 0.1316735 0.4772538
vt 0.4376505 0.2269331
vt 0.1258472 0.4847621
vt 0.1305616 0.4847617
vt 0.1263424 0.4847621
vt 0.1276621 0.4847617
vt 0.1263393 0.4847616
vt 0.1276652 0.4847622
vt 0.1258441 0.4847616
vt 0.1862036 0.3979844
vt 0.1281945 0.4847621
vt 0.1276993 0.4847621
vt 0.1258251 0.4847617
vt 0.1287246 0.4847617
vt 0.1300474 0.4847616
vt 0.1263765 0.4847622
vt 0.1305426 0.4847616
vt 0.1566738 0.3979843
vt 0.4376718 0.226948
vt 0.1305616 0.4639916
vt 0.127662 0.4639916
vt 0.1276651 0.4639921
vt 0.1258441 0.4639915
vt 0.1281945 0.463992
vt 0.1276993 0.463992
vt 0.1300475 0.4639915
vt 0.1566738 0.4295454
vt 0.4376718 0.1955524
vt 0.1258472 0.463992
vt 0.1263424 0.463992
vt 0.1263393 0.4639915
vt 0.1862036 0.4295453
vt 0.1258251 0.4639916
vt 0.1287247 0.4639916
vt 0.1263766 0.4639921
vt 0.1305426 0.4639915
vt 0.1305616 0.4179578
vt 0.126343 0.4179581
vt 0.1862036 0.4994957
vt 0.1263399 0.4179577
vt 0.1281945 0.4179581
vt 0.1276986 0.4179581
vt 0.128724 0.4179578
vt 0.1713915 0.499496
vt 0.1566738 0.499496
vt 0.06303684 0.375523
vt 0.1258472 0.4179581
vt 0.1246721 0.375523
vt 0.1276627 0.4179578
vt 0.1276627 0.4179578
vt 0.1714859 0.4994957
vt 0.1276658 0.4179583
vt 0.1263399 0.4179577
vt 0.1276658 0.4179583
vt 0.0002249675 0.498502
vt 0.1258251 0.4179578
vt 0.1258251 0.4179578
vt 0.1300468 0.4179577
vt 0.1300468 0.4179577
vt 0.1263759 0.4179583
vt 0.1263759 0.4179583
vt 0.1713915 0.499496
vt 0.06303684 0.375523
vt 0.1305616 0.4179578
vt 0.126343 0.4179581
vt 0.1862036 0.4994957
vt 0.1714859 0.4994957
vt 0.1276986 0.4179581
vt 0.128724 0.4179578
vt 0.1566738 0.499496
vt 0.126343 0.4993163
vt 0.1263424 0.4847621
vt 0.1276987 0.4993163
vt 0.1276993 0.4847621
vt 0.1276421 0.4179578
vt 0.1276427 0.432595
vt 0.1263193 0.4179577
vt 0.1442154 0.4994959
vt 0.1281945 0.4325955
vt 0.1276986 0.4179583
vt 0.1281945 0.4179583
vt 0.4998499 0.2490584
vt 0.128724 0.4179578
vt 0.1287234 0.432595
vt 0.1300468 0.4179577
vt 0.1463909 0.4994957
vt 0.1263759 0.4179583
vt 0.1258801 0.4325955
vt 0.1258801 0.4179583
vt 0.3752072 0.2490583
vt 0.1258801 0.4179581
vt 0.1263759 0.4179581
vt 0.1258801 0.4325954
vt 0.1263759 0.4179581
vt 0.1276992 0.4325955
vt 0.1276986 0.4179583
vt 0.1263765 0.4325954
vt 0.1258235 0.4179577
vt 0.1263199 0.4325949
vt 0.1263193 0.4179577
vt 0.1258236 0.4325949
vt 0.1276986 0.4179581
vt 0.1281945 0.4325954
vt 0.1281945 0.4179581
vt 0.1263759 0.4179583
vt 0.1276981 0.4325954
vt 0.1276986 0.4179581
vt 0.1263753 0.4325955
vt 0.1300468 0.4179577
vt 0.1305426 0.4325949
vt 0.1305426 0.4179577
vt 0.1300462 0.4325949
vt 0.1305616 0.499316
vt 0.1276627 0.499316
vt 0.1276627 0.499316
vt 0.1263393 0.4847616
vt 0.1263399 0.4993159
vt 0.1276621 0.4847617
vt 0.1263424 0.463992
vt 0.1714859 0.3758686
vt 0.1862036 0.3758686
vt 0.1714859 0.3979844
vt 0.1281615 0.4993165
vt 0.1276652 0.4847622
vt 0.1276657 0.4993165
vt 0.1281615 0.4847622
vt 0.4998499 0.2269479
vt 0.128724 0.499316
vt 0.1258251 0.499316
vt 0.1300468 0.4993159
vt 0.1287246 0.4847617
vt 0.128724 0.499316
vt 0.1300474 0.4847616
vt 0.1276993 0.463992
vt 0.1566738 0.3758685
vt 0.1713915 0.3979843
vt 0.1713915 0.3758685
vt 0.1263759 0.4993165
vt 0.1258801 0.4847622
vt 0.1258801 0.4993165
vt 0.1263765 0.4847622
vt 0.3752072 0.2269479
vt 0.1263393 0.4639915
vt 0.127662 0.4639916
vt 0.1714859 0.4295453
vt 0.1276651 0.4639921
vt 0.1281616 0.4639921
vt 0.4998499 0.1955523
vt 0.1287247 0.4639916
vt 0.1300475 0.4639915
vt 0.1713915 0.4295454
vt 0.1258801 0.4639921
vt 0.1263766 0.4639921
vt 0.3752072 0.1955523
vt 0.1305616 0.4539053
vt 0.1276628 0.4539053
vt 0.1276627 0.4179578
vt 0.12634 0.4539052
vt 0.1276628 0.4539053
vt 0.1862036 0.4448718
vt 0.1714859 0.4448718
vt 0.1281615 0.4539058
vt 0.1276659 0.4539058
vt 0.1281615 0.4179583
vt 0.06303684 0.4298605
vt 0.1246721 0.4298605
vt 0.1258251 0.4539053
vt 0.1287239 0.4539053
vt 0.1300467 0.4539052
vt 0.128724 0.4179578
vt 0.1287239 0.4539053
vt 0.1566738 0.444872
vt 0.1713915 0.444872
vt 0.1258801 0.4539058
vt 0.1263758 0.4539058
vt 0.1258801 0.4179583
vt 0.06296693 0.4441645
vt 0.0002249675 0.4441645
vt 0.06296693 0.498502
vt 0.1258472 0.4179581
vt 0.1263431 0.4539057
vt 0.1258472 0.4539057
vt 0.126343 0.4179581
vt 0.1276659 0.4539058
vt 0.1276658 0.4179583
vt 0.1263431 0.4539057
vt 0.1258441 0.4179577
vt 0.12634 0.4539052
vt 0.1263399 0.4179577
vt 0.1258441 0.4539052
vt 0.1281945 0.4539057
vt 0.1281945 0.4179581
vt 0.1276986 0.4539057
vt 0.1263759 0.4179583
vt 0.1276986 0.4539057
vt 0.1276986 0.4179581
vt 0.1263758 0.4539058
vt 0.1300468 0.4179577
vt 0.1305426 0.4539052
vt 0.1305426 0.4179577
vt 0.1300467 0.4539052
vt 0.1258472 0.4993163
vt 0.126343 0.4993163
vt 0.1276627 0.499316
vt 0.1305616 0.499316
vt 0.1276627 0.4179578
vt 0.1263399 0.4993159
vt 0.1276627 0.499316
vt 0.126343 0.4993163
vt 0.126343 0.4179581
vt 0.1276657 0.4993165
vt 0.1862036 0.3758686
vt 0.1714859 0.3758686
vt 0.1281615 0.4993165
vt 0.1276658 0.4179583
vt 0.1276657 0.4993165
vt 0.1281615 0.4179583
vt 0.1258441 0.4179577
vt 0.1263399 0.4993159
vt 0.1263399 0.4179577
vt 0.1258441 0.4993159
vt 0.1246721 0.375523
vt 0.1246721 0.498502
vt 0.1281945 0.4993163
vt 0.1276987 0.4993163
vt 0.128724 0.499316
vt 0.1258251 0.499316
vt 0.128724 0.4179578
vt 0.1300468 0.4993159
vt 0.128724 0.499316
vt 0.1276987 0.4993163
vt 0.1263759 0.4993165
vt 0.1276986 0.4179581
vt 0.1566738 0.3758685
vt 0.1713915 0.3758685
vt 0.1258801 0.4993165
vt 0.1263759 0.4179583
vt 0.1258801 0.4179583
vt 0.1263759 0.4993165
vt 0.1305426 0.4179577
vt 0.1300468 0.4993159
vt 0.1305426 0.4993159
vt 0.1300468 0.4179577
vt 0.0002249675 0.498502
vt 0.06296693 0.498502
vt 0.0002249675 0.375523
vt 0.4998499 0.2489477
vt 0.4376718 0.2489478
vt 0.3752072 0.2489477
vt 0.06303684 0.4985021
vt 0.06296693 0.375523
vn -1 0 0
vn 1 0 0
vn -1 0 0
vn 0 0 1
vn 1 0 0
vn -1 0 0
vn 1 0 0
vn 0 0 1
vn 1 0 0
vn 0 0 1
vn 1 0 0
vn -1 0 0
vn 0 0 1
vn -1 0 0
vn 1 0 0
vn -1 0 0
vn 0 0 1
vn 0 0 1
vn 1 0 0
vn -1 0 0
vn 1 0 0
vn 0 0 1
vn 1 0 0
vn 0 0 1
vn 0 0 1
vn 0 0 1
vn 1 0 0
vn -1 0 0
vn -1 0 0
vn 0 0 1
vn -1 0 0
vn 0 0 1
vn 0 0 1
vn 0 0 1
vn -1 0 0
vn 1 0 0
vn -1 0 0
vn 1 0 0
vn -1 1.137294E-07 0
vn 0 0 1
vn -1 1.137293E-07 0
vn 0 0 1
vn 1 0 0
vn 1 0 0
vn -1 0 0
vn -1 0 0
vn 1 1.137293E-07 0
vn 0 0 1
vn 1 1.137293E-07 0
vn 0 0 1
vn 0 0 1
vn 1 0 0
vn 1 0 0
vn -1.580011E-07 0 1
vn -1 0 0
vn 1 0 0
vn 1 0 0
vn 1 0 0
vn 0 0 1
vn 0 0 1
vn -1 0 0
vn -1 0 0
vn -1 0 0
vn 0 0 1
vn -1 0 0
vn -1 0 0
vn -1.580011E-07 0 1
vn 1 0 0
vn 1 0 0
vn -1 0 0
vn 0 0 1
vn 0 0 1
vn 1 0 0
vn 1 0 0
vn -1 0 0
vn 0 0 1
vn 0 0 1
vn 0 0 1
vn -1 0 0
vn 0 0 1
vn 1 0 0
vn 1 0 0
vn 0 0 1
vn 0 0 1
vn 0 0 1
vn 1 0 0
vn 0 0 1
vn -1 0 0
vn -1 0 0
vn 0 0 1
vn 0 0 1
vn -1 0 0
vn 0 0 1
vn 0 0 1
vn 0 0 1
vn 1 0 0
vn -1 0 0
vn 0 0 1
vn 0 0 1
vn 1 0 0
vn -1 0 0
vn 0 0 1
vn 0 0 1
vn 0 0 1
vn 0 0 1
vn 0 0 1
vn 0 0 1
vn 0 0 1
vn 0 0 1
vn 0 0 1
vn 1 0 0
vn 1 0 0
vn 1 0 0
vn 0 0 1
vn 0 0 1
vn 0 0 1
vn 0 0 1
vn 0 0 1
vn -1 0 0
vn -1 0 0
vn -1 0 0
vn 0 0 1
vn -1 0 0
vn -1 0 0
vn -1 0 0
vn 0 0 1
vn 0 0 1
vn 0 0 1
vn 0 0 1
vn -1 0 0
vn -1 -2.261691E-07 0
vn -1 0 0
vn -1 -2.261691E-07 0
vn 1 0 0
vn 1 0 0
vn 1 0 0
vn 0 0 1
vn 0 0 1
vn 0 0 1
vn 0 0 1
vn 1 0 0
vn 1 -2.261691E-07 0
vn 1 0 0
vn 1 -2.261691E-07 0
vn 1 0 0
vn 1 0 0
vn 0 0 1
vn 0 0 1
vn 0 0 1
vn 0 0 1
vn -1.580011E-07 0 1
vn 0 0 1
vn 0 0 1
vn 0 0 1
vn 1 0 0
vn 1 0 0
vn 1 0 0
vn 1 0 0
vn 0 0 1
vn -1 0 0
vn -1 0 0
vn 0 0 1
vn 0 0 1
vn 0 0 1
vn 0 0 1
vn -1.580011E-07 0 1
vn 0 0 1
vn 0 0 1
vn 0 0 1
vn -1 0 0
vn -1 0 0
vn -1 0 0
vn -1 0 0
vn 0 0 1
vn 0 0 1
vn -1.580003E-07 0 1
vn 0 0 1
vn 1 0 0
vn 1 0 0
vn 0 0 1
vn 0 0 1
vn -1.580003E-07 0 1
vn 0 0 1
vn -1 0 0
vn -1 0 0
vn 0 0 1
vn 1 0 0
vn 1 0 0
vn -1.580002E-07 0 1
vn -1.580002E-07 0 1
vn -1.580002E-07 0 1
vn 0 0 1
vn 0 0 1
vn 1 0 0
vn 1 0 0
vn 1 0 0
vn 0 0 1
vn 0 0 1
vn -1 0 0
vn -1 0 0
vn -1.580002E-07 0 1
vn -1.580002E-07 0 1
vn -1.580002E-07 0 1
vn 0 0 1
vn 0 0 1
vn -1 0 0
vn -1 0 0
vn -1 0 0
vn 0 0 1
vn 0 0 1
vn 0 0 1
vn -1 0 0
vn -1 0 0
vn -1 0 0
vn 0 0 1
vn 0 0 1
vn 0 0 1
vn -1.58001E-07 0 1
vn -1 0 0
vn -1 0 0
vn -1 0 0
vn -1 0 0
vn 1 0 0
vn 1 0 0
vn 1 0 0
vn 0 0 1
vn 0 0 1
vn 0 0 1
vn -1.58001E-07 0 1
vn 1 0 0
vn 1 0 0
vn 1 0 0
vn 1 0 0
vn -1 0 0
vn -1 0 0
vn 1 0 0
vn 1 0 0
vn 0 0 1
vn 0 0 1
vn 0 0 1
vn 0 0 1
vn 0 0 1
vn 0 0 1
vn 0 0 1
vn 0 0 1
vn 1 0 0
vn 1 0 0
vn 1 0 0
vn 1 0 0
vn -1 0 0
vn -1 0 0
vn -1 0 0
vn -1 0 0
vn 0 0 1
vn 0 0 1
vn 1 0 0
vn 1 0 0
vn -1 0 0
vn -1 0 0
vn 0 0 1
vn 0 0 1
vn 0 0 1
vn 0 0 1
vn 0 0 1
vn 0 0 1
vn 0 0 1
vn 0 0 1
vn -1 0 0
vn -1 0 0
vn -1 0 0
vn -1 0 0
vn 1 0 0
vn 1 0 0
vn 1 0 0
vn 1 0 0
vn 0 0 1
vn 0 0 1
vn 0 0 1
vn 0 0 1
vn 0 0 1
vn 0 0 1
vn 0 0 1
vn 0 0 1
g Road_Crosswalk_0
f 1/1/1 35/35/35 12/12/12
f 37/37/37 12/12/12 35/35/35
f 35/35/35 61/61/61 37/37/37
f 62/62/62 37/37/37 61/61/61
f 4/4/4 103/103/103 40/40/40
f 104/104/104 40/40/40 103/103/103
f 104/104/104 151/151/151 40/40/40
f 54/54/54 40/40/40 151/151/151
f 14/14/14 41/41/41 3/3/3
f 39/39/39 3/3/3 41/41/41
f 41/41/41 55/55/55 39/39/39
f 63/63/63 39/39/39 55/55/55
f 5/5/5 15/15/15 43/43/43
f 44/44/44 43/43/43 15/15/15
f 44/44/44 57/57/57 43/43/43
f 56/56/56 43/43/43 57/57/57
f 8/8/8 48/48/48 105/105/105
f 106/106/106 105/105/105 48/48/48
f 48/48/48 67/67/67 106/106/106
f 166/166/166 106/106/106 67/67/67
f 9/9/9 7/7/7 49/49/49
f 47/47/47 49/49/49 7/7/7
f 47/47/47 58/58/58 49/49/49
f 68/68/68 49/49/49 58/58/58
f 21/21/21 2/2/2 19/19/19
f 11/11/11 19/19/19 2/2/2
f 108/108/108 22/22/22 107/107/107
f 109/109/109 107/107/107 22/22/22
f 24/24/24 25/25/25 110/110/110
f 13/13/13 110/110/110 25/25/25
f 23/23/23 112/112/112 111/111/111
f 113/113/113 111/111/111 112/112/112
f 18/18/18 34/34/34 114/114/114
f 10/10/10 114/114/114 34/34/34
f 10/10/10 34/34/34 122/122/122
f 26/26/26 122/122/122 34/34/34
f 29/29/29 28/28/28 16/16/16
f 6/6/6 16/16/16 28/28/28
f 116/116/116 115/115/115 30/30/30
f 117/117/117 30/30/30 115/115/115
f 32/32/32 118/118/118 33/33/33
f 17/17/17 33/33/33 118/118/118
f 31/31/31 120/120/120 119/119/119
f 121/121/121 119/119/119 120/120/120
f 124/124/124 20/20/20 123/123/123
f 125/125/125 123/123/123 20/20/20
f 128/128/128 127/127/127 126/126/126
f 129/129/129 126/126/126 127/127/127
f 132/132/132 131/131/131 130/130/130
f 133/133/133 130/130/130 131/131/131
f 136/136/136 135/135/135 134/134/134
f 27/27/27 134/134/134 135/135/135
f 139/139/139 138/138/138 137/137/137
f 140/140/140 137/137/137 138/138/138
f 143/143/143 142/142/142 141/141/141
f 144/144/144 141/141/141 142/142/142
f 146/146/146 38/38/38 145/145/145
f 36/36/36 145/145/145 38/38/38
f 38/38/38 53/53/53 36/36/36
f 52/52/52 36/36/36 53/53/53
f 149/149/149 148/148/148 147/147/147
f 150/150/150 147/147/147 148/148/148
f 148/148/148 175/175/175 150/150/150
f 176/176/176 150/150/150 175/175/175
f 153/153/153 42/42/42 152/152/152
f 154/154/154 152/152/152 42/42/42
f 42/42/42 64/64/64 154/154/154
f 177/177/177 154/154/154 64/64/64
f 157/157/157 156/156/156 155/155/155
f 158/158/158 155/155/155 156/156/156
f 156/156/156 178/178/178 158/158/158
f 179/179/179 158/158/158 178/178/178
f 161/161/161 45/45/45 160/160/160
f 46/46/46 160/160/160 45/45/45
f 45/45/45 65/65/65 46/46/46
f 66/66/66 46/46/46 65/65/65
f 164/164/164 163/163/163 162/162/162
f 165/165/165 162/162/162 163/163/163
f 163/163/163 181/181/181 165/165/165
f 182/182/182 165/165/165 181/181/181
f 169/169/169 168/168/168 167/167/167
f 50/50/50 167/167/167 168/168/168
f 168/168/168 183/183/183 50/50/50
f 59/59/59 50/50/50 183/183/183
f 172/172/172 171/171/171 170/170/170
f 173/173/173 170/170/170 171/171/171
f 171/171/171 184/184/184 173/173/173
f 185/185/185 173/173/173 184/184/184
f 281/281/281 174/174/174 280/280/280
f 51/51/51 280/280/280 174/174/174
f 174/174/174 186/186/186 51/51/51
f 280/280/280 51/51/51 279/279/279
f 60/60/60 51/51/51 186/186/186
f 159/159/159 279/279/279 51/51/51
f 51/51/51 60/60/60 159/159/159
f 180/180/180 159/159/159 60/60/60
f 188/188/188 82/82/82 187/187/187
f 96/96/96 187/187/187 82/82/82
f 191/191/191 190/190/190 189/189/189
f 85/85/85 189/189/189 190/190/190
f 193/193/193 192/192/192 99/99/99
f 98/98/98 99/99/99 192/192/192
f 195/195/195 86/86/86 194/194/194
f 196/196/196 194/194/194 86/86/86
f 198/198/198 197/197/197 80/80/80
f 95/95/95 80/80/80 197/197/197
f 200/200/200 199/199/199 101/101/101
f 89/89/89 101/101/101 199/199/199
f 203/203/203 202/202/202 201/201/201
f 91/91/91 201/201/201 202/202/202
f 205/205/205 94/94/94 204/204/204
f 102/102/102 204/204/204 94/94/94
f 207/207/207 206/206/206 92/92/92
f 208/208/208 92/92/92 206/206/206
f 210/210/210 87/87/87 209/209/209
f 211/211/211 209/209/209 87/87/87
f 97/97/97 213/213/213 212/212/212
f 214/214/214 212/212/212 213/213/213
f 217/217/217 216/216/216 215/215/215
f 218/218/218 215/215/215 216/216/216
f 221/221/221 220/220/220 219/219/219
f 222/222/222 219/219/219 220/220/220
f 224/224/224 223/223/223 100/100/100
f 225/225/225 100/100/100 223/223/223
f 228/228/228 227/227/227 226/226/226
f 229/229/229 226/226/226 227/227/227
f 232/232/232 231/231/231 230/230/230
f 233/233/233 230/230/230 231/231/231
f 79/79/79 70/70/70 234/234/234
f 235/235/235 234/234/234 70/70/70
f 237/237/237 236/236/236 69/69/69
f 81/81/81 69/69/69 236/236/236
f 240/240/240 239/239/239 238/238/238
f 72/72/72 238/238/238 239/239/239
f 242/242/242 84/84/84 241/241/241
f 243/243/243 241/241/241 84/84/84
f 245/245/245 244/244/244 83/83/83
f 71/71/71 83/83/83 244/244/244
f 248/248/248 247/247/247 246/246/246
f 249/249/249 246/246/246 247/247/247
f 252/252/252 251/251/251 250/250/250
f 253/253/253 250/250/250 251/251/251
f 255/255/255 282/282/282 254/254/254
f 78/78/78 254/254/254 282/282/282
f 257/257/257 74/74/74 256/256/256
f 73/73/73 256/256/256 74/74/74
f 75/75/75 258/258/258 88/88/88
f 259/259/259 88/88/88 258/258/258
f 90/90/90 261/261/261 260/260/260
f 262/262/262 260/260/260 261/261/261
f 264/264/264 93/93/93 263/263/263
f 265/265/265 263/263/263 93/93/93
f 77/77/77 266/266/266 76/76/76
f 267/267/267 76/76/76 266/266/266
f 270/270/270 269/269/269 268/268/268
f 271/271/271 268/268/268 269/269/269
f 274/274/274 273/273/273 272/272/272
f 275/275/275 272/272/272 273/273/273
f 277/277/277 283/283/283 276/276/276
f 278/278/278 276/276/276 283/283/283
