g RoadBlock_C
v -0.346461 -0.7063408 -8.091047E-09
v 0.346461 -0.7063408 1.726728E-07
v -0.346461 0.7063416 -8.091047E-09
v 0.346461 0.7063416 1.726728E-07
v -0.09686492 -0.6510653 0.6776993
v 0.09686491 -0.6510653 0.6776993
v -0.09686492 0.6510659 0.6776993
v 0.09686491 0.6510659 0.6776993
v 0.2230764 -0.7063408 0.1523182
v -0.2230766 -0.7063408 0.1523182
v 0.2230764 0.7063403 0.1523182
v -0.2230766 0.7063403 0.1523182
v -0.09686492 -0.6510653 0.8265621
v 0.09686491 -0.6510653 0.8265621
v 0.09686491 0.6510659 0.8265621
v -0.09686492 0.6510659 0.8265621
v 0.346461 0.7063403 0.1171716
v 0.346461 -0.7063408 0.1171716
v -0.3464612 -0.7063408 0.1171715
v -0.3464612 0.7063403 0.1171715
v 0.346461 -0.7063408 1.726728E-07
v -0.346461 -0.7063408 -8.091047E-09
v 0.346461 0.7063416 1.726728E-07
v 0.346461 -0.7063408 1.726728E-07
v -0.346461 0.7063416 -8.091047E-09
v 0.346461 0.7063416 1.726728E-07
v -0.346461 -0.7063408 -8.091047E-09
v -0.346461 0.7063416 -8.091047E-09
v 0.2230764 -0.7063408 0.1523182
v 0.09686491 -0.6510653 0.6776993
v 0.2230764 0.7063403 0.1523182
v 0.09686491 0.6510659 0.6776993
v -0.09686492 -0.6510653 0.6776993
v -0.2230766 0.7063403 0.1523182
v -0.09686492 0.6510659 0.6776993
v -0.2230766 -0.7063408 0.1523182
v 0.09686491 -0.6510653 0.8265621
v -0.09686492 -0.6510653 0.8265621
v 0.09686491 0.6510659 0.8265621
v 0.09686491 -0.6510653 0.8265621
v -0.09686492 0.6510659 0.8265621
v 0.09686491 0.6510659 0.8265621
v -0.09686492 -0.6510653 0.8265621
v -0.09686492 0.6510659 0.8265621
v 0.346461 0.7063403 0.1171716
v 0.2230764 0.7063403 0.1523182
v 0.346461 -0.7063408 0.1171716
v 0.2230764 -0.7063408 0.1523182
v 0.346461 0.7063403 0.1171716
v 0.346461 -0.7063408 0.1171716
v -0.3464612 -0.7063408 0.1171715
v -0.2230766 -0.7063408 0.1523182
v -0.3464612 0.7063403 0.1171715
v -0.2230766 0.7063403 0.1523182
v -0.3464612 -0.7063408 0.1171715
v -0.3464612 0.7063403 0.1171715
v -0.09686492 -0.6510653 0.6776993
v 0.09686491 -0.6510653 0.6776993
v 0.09686491 -0.6510653 0.6776993
v 0.09686491 0.6510659 0.6776993
v 0.09686491 0.6510659 0.6776993
v -0.09686492 0.6510659 0.6776993
v -0.09686492 0.6510659 0.6776993
v -0.09686492 -0.6510653 0.6776993
vt 0.01656727 0.2586262
vt 0.01656726 0.2997572
vt 0.1004225 0.2586262
vt 0.1004225 0.2997572
vt 0.08829102 0.3468778
vt 0.1001718 0.3468778
vt 0.1001717 0.3468778
vt 0.09714143 0.3464007
vt 0.1079119 0.314594
vt 0.08055088 0.314594
vt 0.08055088 0.3145941
vt 0.1079119 0.3145941
vt 0.0973427 0.3553108
vt 0.0973427 0.3668702
vt 0.01964721 0.3668702
vt 0.01964721 0.3553108
vt 0.1004225 0.3067124
vt 0.01656727 0.3067124
vt 0.1006409 0.3065335
vt 0.01634911 0.3065335
vt 0.1154786 0.305255
vt 0.07298416 0.305255
vt 0.1004225 0.2997572
vt 0.01656726 0.2997572
vt 0.1154786 0.305255
vt 0.07298416 0.305255
vt 0.1006409 0.2995421
vt 0.01634902 0.2995421
vt 0.01656727 0.3143276
vt 0.01984835 0.3464007
vt 0.1004225 0.3143276
vt 0.08829102 0.3468778
vt 0.0973427 0.3464286
vt 0.01634911 0.3141884
vt 0.01964721 0.3464286
vt 0.1006409 0.3141884
vt 0.1001718 0.356005
vt 0.08829102 0.356005
vt 0.09714143 0.355237
vt 0.01984835 0.355237
vt 0.1001717 0.356005
vt 0.08829102 0.356005
vt 0.0973427 0.3553108
vt 0.01964721 0.3553108
vt 0.07298416 0.3124391
vt 0.1004225 0.3143276
vt 0.01656727 0.3067124
vt 0.01656727 0.3143276
vt 0.1004225 0.3067124
vt 0.1154786 0.3124391
vt 0.07298414 0.3124391
vt 0.1006409 0.3141884
vt 0.01634911 0.3065335
vt 0.01634911 0.3141884
vt 0.1006409 0.3065335
vt 0.1154786 0.3124391
vt 0.08829102 0.3468778
vt 0.1001718 0.3468778
vt 0.01984835 0.3464007
vt 0.09714143 0.3464007
vt 0.08829102 0.3468778
vt 0.1001717 0.3468778
vt 0.01964721 0.3464286
vt 0.0973427 0.3464286
vn 2.608718E-07 0 -1
vn 2.608718E-07 0 -1
vn 2.608718E-07 0 -1
vn 2.608718E-07 0 -1
vn 0 -0.9945109 0.1046328
vn 0 -0.9945109 0.1046328
vn 0 0.9945111 0.1046306
vn 0.9723368 0 0.2335831
vn 0 -0.9992385 0.0390195
vn 0 -0.9992385 0.03901951
vn 0 0.9992383 0.03902373
vn 0 0.9992383 0.03902374
vn 0 0 1
vn 0 0 1
vn 0 0 1
vn 0 0 1
vn 1 0 3.255653E-07
vn 1 0 3.255653E-07
vn -1 0 -1.302261E-06
vn -1 0 -1.302261E-06
vn 0 -1 0
vn 0 -1 0
vn 1 0 3.255653E-07
vn 1 0 3.255654E-07
vn 0 1 8.014164E-06
vn 0 1 8.014171E-06
vn -1 0 -1.302261E-06
vn -1 0 -1.302261E-06
vn 0.9723368 0 0.2335831
vn 0.9723368 0 0.2335831
vn 0.9723368 0 0.2335831
vn 0 0.9945111 0.1046306
vn -0.9723368 0 0.2335833
vn -0.9723368 0 0.2335834
vn -0.9723368 0 0.2335834
vn -0.9723368 0 0.2335833
vn 0 -1 0
vn 0 -1 0
vn 1 0 0
vn 1 0 0
vn 0 1 0
vn 0 1 0
vn -1 0 0
vn -1 0 0
vn 2.967635E-06 1 1.041809E-05
vn 0.2739561 0 0.9617422
vn 0.2739561 0 0.9617422
vn 0.2739561 0 0.9617422
vn 0.2739561 0 0.9617422
vn 0 -1 0
vn 0 -1 0
vn -0.2739574 0 0.9617418
vn -0.2739574 0 0.9617418
vn -0.2739574 0 0.9617418
vn -0.2739574 0 0.9617418
vn -2.967649E-06 1 1.041809E-05
vn 0 -1 0
vn 0 -1 0
vn 1 0 0
vn 1 0 0
vn 0 1 0
vn 0 1 0
vn -1 0 0
vn -1 0 0
g RoadBlock_C_0
f 3/3/3 4/4/4 1/1/1
f 2/2/2 1/1/1 4/4/4
f 14/14/14 15/15/15 13/13/13
f 16/16/16 13/13/13 15/15/15
f 17/17/17 18/18/18 23/23/23
f 24/24/24 23/23/23 18/18/18
f 19/19/19 20/20/20 27/27/27
f 28/28/28 27/27/27 20/20/20
f 5/5/5 10/10/10 6/6/6
f 9/9/9 6/6/6 10/10/10
f 9/9/9 10/10/10 21/21/21
f 21/21/21 50/50/50 9/9/9
f 22/22/22 21/21/21 10/10/10
f 10/10/10 51/51/51 22/22/22
f 30/30/30 29/29/29 8/8/8
f 31/31/31 8/8/8 29/29/29
f 32/32/32 11/11/11 7/7/7
f 12/12/12 7/7/7 11/11/11
f 12/12/12 11/11/11 25/25/25
f 25/25/25 56/56/56 12/12/12
f 26/26/26 25/25/25 11/11/11
f 11/11/11 45/45/45 26/26/26
f 35/35/35 34/34/34 33/33/33
f 36/36/36 33/33/33 34/34/34
f 58/58/58 37/37/37 57/57/57
f 38/38/38 57/57/57 37/37/37
f 60/60/60 39/39/39 59/59/59
f 40/40/40 59/59/59 39/39/39
f 62/62/62 41/41/41 61/61/61
f 42/42/42 61/61/61 41/41/41
f 64/64/64 43/43/43 63/63/63
f 44/44/44 63/63/63 43/43/43
f 48/48/48 47/47/47 46/46/46
f 49/49/49 46/46/46 47/47/47
f 54/54/54 53/53/53 52/52/52
f 55/55/55 52/52/52 53/53/53
