g SewerCap_A
v 0.6177072 0 0
v 0.5349503 0.3088537 0
v 0.3088536 0.5349503 0
v 0 0.6177072 0
v -0.3088537 0.5349503 0
v -0.5349503 0.3088537 0
v -0.6177073 0 0
v -0.5349503 -0.3088534 0
v -0.3088538 -0.53495 0
v -3.051758E-07 -0.6177072 0
v 0.3088533 -0.5349503 0
v 0.5349501 -0.308854 0
v 0.6177072 0 0.05342336
v 0.5349503 0.3088537 0.05342336
v 0.3088536 0.5349503 0.05342336
v 0 0.6177072 0.05342336
v -0.3088537 0.5349503 0.05342336
v -0.5349503 0.3088537 0.05342336
v -0.6177073 0 0.05342336
v -0.5349503 -0.3088534 0.05342336
v -0.3088538 -0.53495 0.05342336
v -3.051758E-07 -0.6177072 0.05342336
v 0.3088533 -0.5349503 0.05342336
v 0.5349501 -0.308854 0.05342336
v 0.3088536 0.5349503 0
v 0.3088536 0.5349503 0.05342336
v -0.5349503 0.3088537 0
v -0.5349503 0.3088537 0.05342336
v -0.3088538 -0.53495 0
v -0.3088538 -0.53495 0.05342336
v 0.5349501 -0.308854 0
v 0.5349501 -0.308854 0.05342336
v 0.5349503 0.3088537 0.05342336
v 0 0.6177072 0.05342336
v 0.3088536 0.5349503 0.05342336
v -0.5349503 0.3088537 0.05342336
v -0.3088537 0.5349503 0.05342336
v -0.5349503 -0.3088534 0.05342336
v -0.6177073 0 0.05342336
v -3.051758E-07 -0.6177072 0.05342336
v -0.3088538 -0.53495 0.05342336
v 0.5349501 -0.308854 0.05342336
v 0.3088533 -0.5349503 0.05342336
v 0.6177072 0 0.05342336
vt 0.9846169 0.2499819
vt 0.9734796 0.2505977
vt 0.9635265 0.2455625
vt 0.9574244 0.2362253
vt 0.9568086 0.225088
vt 0.9618437 0.2151349
vt 0.971181 0.2090328
vt 0.9823183 0.208417
vt 0.9922714 0.2134522
vt 0.9983735 0.2227894
vt 0.9989893 0.2339267
vt 0.9939542 0.2438798
vt 0.9843404 0.2491394
vt 0.9736614 0.2497299
vt 0.9641179 0.2449019
vt 0.958267 0.2359488
vt 0.9576764 0.2252698
vt 0.9625044 0.2157262
vt 0.9714575 0.2098753
vt 0.9821365 0.2092848
vt 0.99168 0.2141128
vt 0.9975309 0.2230658
vt 0.9981215 0.2337448
vt 0.9932934 0.2432884
vt 0.9635265 0.2455625
vt 0.9641179 0.2449019
vt 0.9618437 0.2151349
vt 0.9625044 0.2157262
vt 0.9922714 0.2134522
vt 0.99168 0.2141128
vt 0.9939542 0.2438798
vt 0.9932934 0.2432884
vt 0.9736614 0.2497299
vt 0.958267 0.2359488
vt 0.9641179 0.2449019
vt 0.9625044 0.2157262
vt 0.9576764 0.2252698
vt 0.9821365 0.2092848
vt 0.9714575 0.2098753
vt 0.9975309 0.2230658
vt 0.99168 0.2141128
vt 0.9932934 0.2432884
vt 0.9981215 0.2337448
vt 0.9843404 0.2491394
vn 1 -1.669573E-07 0
vn 0.8660255 0.4999999 0
vn 0.4999998 0.8660255 0
vn 0 1 0
vn -0.4999998 0.8660256 0
vn -0.8660254 0.5000001 0
vn -1 0 0
vn -0.8660254 -0.5 0
vn -0.5000004 -0.8660253 0
vn -5.696192E-07 -1 0
vn 0.4999993 -0.8660258 0
vn 0.8660251 -0.5000005 0
vn 1 0 0
vn 0.8660254 0.5 0
vn 0.4999997 0.8660256 0
vn 0 1 0
vn -0.4999998 0.8660255 0
vn -0.8660255 0.4999999 0
vn -1 -1.767783E-07 0
vn -0.8660254 -0.5 0
vn -0.5000004 -0.8660253 0
vn -4.812299E-07 -1 0
vn 0.4999993 -0.8660258 0
vn 0.8660251 -0.5000004 0
vn 0.4999998 0.8660255 0
vn 0.4999997 0.8660256 0
vn -0.8660254 0.5000001 0
vn -0.8660255 0.4999999 0
vn -0.5000004 -0.8660253 0
vn -0.5000004 -0.8660253 0
vn 0.8660251 -0.5000005 0
vn 0.8660251 -0.5000004 0
vn 0 0 1
vn 0 0 1
vn 0 0 1
vn 0 0 1
vn 0 0 1
vn 0 0 1
vn 0 0 1
vn 0 0 1
vn 0 0 1
vn 0 0 1
vn 0 0 1
vn 0 0 1
g SewerCap_A_0
f 3/3/3 15/15/15 2/2/2
f 14/14/14 2/2/2 15/15/15
f 2/2/2 14/14/14 1/1/1
f 13/13/13 1/1/1 14/14/14
f 1/1/1 13/13/13 31/31/31
f 32/32/32 31/31/31 13/13/13
f 26/26/26 25/25/25 16/16/16
f 4/4/4 16/16/16 25/25/25
f 16/16/16 4/4/4 17/17/17
f 5/5/5 17/17/17 4/4/4
f 17/17/17 5/5/5 18/18/18
f 6/6/6 18/18/18 5/5/5
f 28/28/28 27/27/27 19/19/19
f 7/7/7 19/19/19 27/27/27
f 19/19/19 7/7/7 20/20/20
f 8/8/8 20/20/20 7/7/7
f 20/20/20 8/8/8 21/21/21
f 9/9/9 21/21/21 8/8/8
f 30/30/30 29/29/29 22/22/22
f 10/10/10 22/22/22 29/29/29
f 22/22/22 10/10/10 23/23/23
f 11/11/11 23/23/23 10/10/10
f 23/23/23 11/11/11 24/24/24
f 12/12/12 24/24/24 11/11/11
f 35/35/35 34/34/34 33/33/33
f 34/34/34 42/42/42 33/33/33
f 33/33/33 42/42/42 44/44/44
f 38/38/38 42/42/42 34/34/34
f 36/36/36 38/38/38 34/34/34
f 37/37/37 36/36/36 34/34/34
f 39/39/39 38/38/38 36/36/36
f 40/40/40 42/42/42 38/38/38
f 41/41/41 40/40/40 38/38/38
f 43/43/43 42/42/42 40/40/40
