g SewerCap_B
v -0.2310346 -0.3745151 0
v 0.2310346 -0.3745151 0
v -0.2310346 0.3745151 0
v 0.2310346 0.3745151 0
v -0.2310346 -0.3745151 0.0534227
v 0.2310346 -0.3745151 0.0534227
v -0.2310346 0.3745151 0.0534227
v 0.2310346 0.3745151 0.0534227
v -0.2310346 -0.3745151 0.0534227
v 0.2310346 -0.3745151 0.0534227
v 0.2310346 -0.3745151 0
v 0.2310346 -0.3745151 0.0534227
v 0.2310346 0.3745151 0.0534227
v 0.2310346 0.3745151 0
v 0.2310346 0.3745151 0.0534227
v -0.2310346 0.3745151 0.0534227
v -0.2310346 0.3745151 0
v -0.2310346 0.3745151 0.0534227
v -0.2310346 -0.3745151 0.0534227
v -0.2310346 -0.3745151 0
vt 0.555572 0.3758941
vt 0.555572 0.3995882
vt 0.5176727 0.3758941
vt 0.5176727 0.3995882
vt 0.5549566 0.3765095
vt 0.5549566 0.3989727
vt 0.5182881 0.3765095
vt 0.5182881 0.3989727
vt 0.5549566 0.3765095
vt 0.5549566 0.3989727
vt 0.555572 0.3995882
vt 0.5549566 0.3989727
vt 0.5182881 0.3989727
vt 0.5176727 0.3995882
vt 0.5182881 0.3989727
vt 0.5182881 0.3765095
vt 0.5176727 0.3758941
vt 0.5182881 0.3765095
vt 0.5549566 0.3765095
vt 0.555572 0.3758941
vn 0 -1 0
vn 0 -1 0
vn 0 1 0
vn 1 0 0
vn 0 0 1
vn 0 0 1
vn 0 0 1
vn 0 0 1
vn 0 -1 0
vn 0 -1 0
vn 1 0 0
vn 1 0 0
vn 1 0 0
vn 0 1 0
vn 0 1 0
vn 0 1 0
vn -1 0 0
vn -1 0 0
vn -1 0 0
vn -1 0 0
g SewerCap_B_0
f 8/8/8 7/7/7 5/5/5
f 6/6/6 8/8/8 5/5/5
f 10/10/10 9/9/9 1/1/1
f 2/2/2 10/10/10 1/1/1
f 13/13/13 12/12/12 11/11/11
f 4/4/4 13/13/13 11/11/11
f 16/16/16 15/15/15 14/14/14
f 3/3/3 16/16/16 14/14/14
f 19/19/19 18/18/18 17/17/17
f 20/20/20 19/19/19 17/17/17
