g StreetSign_C
v 0.04354607 3.226808E-06 1.342773E-05
v -0.004096583 0.02750974 1.342773E-05
v -0.004096583 -0.02750329 1.342773E-05
v 0.04354612 3.226808E-06 3.02688
v -0.004096483 0.02750974 3.02688
v -0.004096483 -0.02750329 3.02688
v 0.0120005 -0.4918282 2.459253
v 0.0120005 -0.2459136 2.88519
v 0.0120005 0.2459155 2.88519
v 0.0120005 0.4918301 2.459253
v 0.0120005 0.2459155 2.033316
v 0.0120005 -0.2459136 2.033316
v -0.04354239 -0.4918282 2.459253
v -0.04354239 -0.2459136 2.88519
v -0.04354239 0.2459155 2.88519
v -0.04354239 0.4918301 2.459253
v -0.04354239 0.2459155 2.033316
v -0.04354239 -0.2459136 2.033316
v -0.004096583 0.02750974 1.342773E-05
v -0.004096483 0.02750974 3.02688
v -0.004096583 -0.02750329 1.342773E-05
v 0.04354612 3.226808E-06 3.02688
v 0.04354607 3.226808E-06 1.342773E-05
v -0.004096483 -0.02750329 3.02688
v 0.04354612 3.226808E-06 3.02688
v -0.004096483 -0.02750329 3.02688
v -0.004096483 0.02750974 3.02688
v 0.0120005 -0.2459136 2.88519
v -0.04354239 -0.2459136 2.88519
v 0.0120005 0.2459155 2.88519
v -0.04354239 0.2459155 2.88519
v 0.0120005 0.4918301 2.459253
v -0.04354239 0.4918301 2.459253
v 0.0120005 0.2459155 2.033316
v -0.04354239 0.2459155 2.033316
v 0.0120005 -0.2459136 2.033316
v -0.04354239 -0.4918282 2.459253
v 0.0120005 -0.4918282 2.459253
v -0.04354239 -0.2459136 2.033316
v 0.0120005 0.2459155 2.033316
v 0.0120005 0.2459155 2.88519
v 0.0120005 0.4918301 2.459253
v 0.0120005 -0.4918282 2.459253
v 0.0120005 -0.2459136 2.88519
v 0.0120005 -0.2459136 2.033316
v -0.04354239 -0.2459136 2.88519
v -0.04354239 0.4918301 2.459253
v -0.04354239 0.2459155 2.88519
v -0.04354239 -0.2459136 2.033316
v -0.04354239 0.2459155 2.033316
v -0.04354239 -0.4918282 2.459253
vt 0.548671 0.7568958
vt 0.5532616 0.7568958
vt 0.5440804 0.7568958
vt 0.5486714 0.8626547
vt 0.5532621 0.8626547
vt 0.5440806 0.8626547
vt 0.6588511 0.5013145
vt 0.6589273 0.506171
vt 0.6590036 0.5110276
vt 0.6590799 0.5158843
vt 0.6582071 0.5109992
vt 0.6586285 0.5061603
vt 0.6583027 0.5013231
vt 0.6583788 0.5061796
vt 0.6584551 0.5110362
vt 0.6585314 0.5158929
vt 0.6587536 0.5110468
vt 0.659175 0.5062079
vt 0.5394898 0.7568958
vt 0.5394898 0.8626547
vt 0.5440804 0.7568958
vt 0.5486714 0.8626547
vt 0.548671 0.7568958
vt 0.5440806 0.8626547
vt 0.5565937 0.8527792
vt 0.5391958 0.8427346
vt 0.5391958 0.8628237
vt 0.6589273 0.506171
vt 0.6583788 0.5061796
vt 0.6590036 0.5110276
vt 0.6584551 0.5110362
vt 0.6577858 0.5158383
vt 0.6583322 0.5158858
vt 0.6582071 0.5109992
vt 0.6587536 0.5110468
vt 0.6586285 0.5061603
vt 0.6595966 0.5013692
vt 0.6590502 0.5013216
vt 0.659175 0.5062079
vt 0.6727635 0.520984
vt 0.6727635 0.5363419
vt 0.677197 0.5286629
vt 0.6594632 0.5286629
vt 0.6638966 0.5363419
vt 0.6638966 0.520984
vt 0.7298803 0.6205128
vt 0.7030514 0.6011307
vt 0.7119943 0.6205128
vt 0.7298803 0.5817486
vt 0.7119943 0.5817486
vt 0.7388232 0.6011307
vn 1 1.214254E-06 0
vn -0.500001 0.8660248 0
vn -0.4999988 -0.866026 0
vn 1 -1.214253E-06 0
vn -0.4999987 0.8660262 0
vn -0.5000007 -0.866025 0
vn 0 -1 0
vn 0 -0.5000002 0.8660253
vn 0 0.5000001 0.8660253
vn 0 1 0
vn 0 0.5000001 -0.8660253
vn 0 -0.4999999 -0.8660254
vn 0 -1 0
vn 0 -0.5000002 0.8660253
vn 0 0.5000001 0.8660253
vn 0 1 0
vn 0 0.5 -0.8660254
vn 0 -0.5000001 -0.8660253
vn -0.500001 0.8660248 0
vn -0.4999987 0.8660262 0
vn -0.4999988 -0.866026 0
vn 1 -1.214253E-06 0
vn 1 1.214254E-06 0
vn -0.5000007 -0.866025 0
vn 0 0 1
vn 0 0 1
vn 0 0 1
vn 0 -0.5000002 0.8660253
vn 0 -0.5000002 0.8660253
vn 0 0.5000001 0.8660253
vn 0 0.5000001 0.8660253
vn 0 1 0
vn 0 1 0
vn 0 0.5000001 -0.8660253
vn 0 0.5 -0.8660254
vn 0 -0.4999999 -0.8660254
vn 0 -1 0
vn 0 -1 0
vn 0 -0.5000001 -0.8660253
vn 1 0 0
vn 1 0 0
vn 1 0 0
vn 1 0 0
vn 1 0 0
vn 1 0 0
vn -1 0 0
vn -1 0 0
vn -1 0 0
vn -1 0 0
vn -1 0 0
vn -1 0 0
g StreetSign_C_0
f 27/27/27 26/26/26 25/25/25
f 2/2/2 5/5/5 1/1/1
f 4/4/4 1/1/1 5/5/5
f 3/3/3 6/6/6 19/19/19
f 20/20/20 19/19/19 6/6/6
f 23/23/23 22/22/22 21/21/21
f 24/24/24 21/21/21 22/22/22
f 8/8/8 14/14/14 7/7/7
f 13/13/13 7/7/7 14/14/14
f 9/9/9 15/15/15 28/28/28
f 29/29/29 28/28/28 15/15/15
f 10/10/10 16/16/16 30/30/30
f 31/31/31 30/30/30 16/16/16
f 11/11/11 17/17/17 32/32/32
f 33/33/33 32/32/32 17/17/17
f 12/12/12 18/18/18 34/34/34
f 35/35/35 34/34/34 18/18/18
f 38/38/38 37/37/37 36/36/36
f 39/39/39 36/36/36 37/37/37
f 42/42/42 41/41/41 40/40/40
f 41/41/41 43/43/43 40/40/40
f 40/40/40 43/43/43 45/45/45
f 44/44/44 43/43/43 41/41/41
f 48/48/48 47/47/47 46/46/46
f 47/47/47 49/49/49 46/46/46
f 46/46/46 49/49/49 51/51/51
f 50/50/50 49/49/49 47/47/47
