g StreetSign_D
v 0.04354607 3.226808E-06 1.342773E-05
v -0.004096583 0.02750974 1.342773E-05
v -0.004096583 -0.02750329 1.342773E-05
v 0.04354612 3.226808E-06 3.02688
v -0.004096483 0.02750974 3.02688
v -0.004096483 -0.02750329 3.02688
v 0.0120004 8.571208E-07 2.951082
v 0.0120005 0.4918299 2.459253
v 0.0120006 8.571208E-07 1.967424
v 0.0120005 -0.4918283 2.459253
v -0.04354239 8.571208E-07 2.951082
v -0.04354239 0.4918299 2.459253
v -0.04354229 8.571208E-07 1.967424
v -0.04354239 -0.4918283 2.459253
v -0.004096583 0.02750974 1.342773E-05
v -0.004096483 0.02750974 3.02688
v -0.004096583 -0.02750329 1.342773E-05
v 0.04354612 3.226808E-06 3.02688
v 0.04354607 3.226808E-06 1.342773E-05
v -0.004096483 -0.02750329 3.02688
v 0.04354612 3.226808E-06 3.02688
v -0.004096483 -0.02750329 3.02688
v -0.004096483 0.02750974 3.02688
v 0.0120005 0.4918299 2.459253
v -0.04354239 0.4918299 2.459253
v 0.0120006 8.571208E-07 1.967424
v -0.04354229 8.571208E-07 1.967424
v 0.0120005 -0.4918283 2.459253
v -0.04354239 8.571208E-07 2.951082
v 0.0120004 8.571208E-07 2.951082
v -0.04354239 -0.4918283 2.459253
v 0.0120006 8.571208E-07 1.967424
v 0.0120004 8.571208E-07 2.951082
v 0.0120005 0.4918299 2.459253
v 0.0120005 -0.4918283 2.459253
v -0.04354239 0.4918299 2.459253
v -0.04354239 -0.4918283 2.459253
v -0.04354229 8.571208E-07 1.967424
v -0.04354239 8.571208E-07 2.951082
vt 0.548671 0.7568958
vt 0.5532616 0.7568958
vt 0.5440804 0.7568958
vt 0.5486714 0.8626547
vt 0.5532621 0.8626547
vt 0.5440806 0.8626547
vt 0.6583037 0.5154673
vt 0.6584169 0.5085989
vt 0.6585304 0.501731
vt 0.6589655 0.5085992
vt 0.6588522 0.5154763
vt 0.6589654 0.508608
vt 0.6590788 0.50174
vt 0.658417 0.5086082
vt 0.5394898 0.7568958
vt 0.5394898 0.8626547
vt 0.5440804 0.7568958
vt 0.5486714 0.8626547
vt 0.548671 0.7568958
vt 0.5440806 0.8626547
vt 0.5565937 0.8527792
vt 0.5391958 0.8427346
vt 0.5391958 0.8628237
vt 0.6584169 0.5085989
vt 0.6589654 0.508608
vt 0.6588521 0.501731
vt 0.6583036 0.50174
vt 0.6589655 0.5085992
vt 0.6585304 0.5154763
vt 0.6590788 0.5154673
vt 0.658417 0.5086082
vt 0.6342165 0.5004014
vt 0.633929 0.5186256
vt 0.6426823 0.5094703
vt 0.6256703 0.5094703
vt 0.6263868 0.5581639
vt 0.6642962 0.5577224
vt 0.6455622 0.5371726
vt 0.6451206 0.5785372
vn 1 1.214254E-06 0
vn -0.500001 0.8660248 0
vn -0.4999988 -0.866026 0
vn 1 -1.214253E-06 0
vn -0.4999987 0.8660262 0
vn -0.5000007 -0.866025 0
vn 0 3.756412E-07 1
vn 0 1 0
vn 0 0 -1
vn 0 -1 0
vn 0 -1.391885E-07 1
vn 0 1 4.293041E-07
vn 0 0 -1
vn 0 -1 -1.073261E-07
vn -0.500001 0.8660248 0
vn -0.4999987 0.8660262 0
vn -0.4999988 -0.866026 0
vn 1 -1.214253E-06 0
vn 1 1.214254E-06 0
vn -0.5000007 -0.866025 0
vn 0 0 1
vn 0 0 1
vn 0 0 1
vn 0 1 0
vn 0 1 4.293041E-07
vn 0 0 -1
vn 0 0 -1
vn 0 -1 0
vn 0 -1.391885E-07 1
vn 0 3.756412E-07 1
vn 0 -1 -1.073261E-07
vn 1 0 2.048106E-07
vn 1 0 2.048106E-07
vn 1 0 2.048106E-07
vn 1 0 2.048106E-07
vn -1 0 -1.017994E-07
vn -1 0 -1.017994E-07
vn -1 0 -2.035987E-07
vn -1 0 0
g StreetSign_D_0
f 23/23/23 22/22/22 21/21/21
f 2/2/2 5/5/5 1/1/1
f 4/4/4 1/1/1 5/5/5
f 3/3/3 6/6/6 15/15/15
f 16/16/16 15/15/15 6/6/6
f 19/19/19 18/18/18 17/17/17
f 20/20/20 17/17/17 18/18/18
f 8/8/8 12/12/12 7/7/7
f 11/11/11 7/7/7 12/12/12
f 9/9/9 13/13/13 24/24/24
f 25/25/25 24/24/24 13/13/13
f 10/10/10 14/14/14 26/26/26
f 27/27/27 26/26/26 14/14/14
f 30/30/30 29/29/29 28/28/28
f 31/31/31 28/28/28 29/29/29
f 34/34/34 33/33/33 32/32/32
f 35/35/35 32/32/32 33/33/33
f 38/38/38 37/37/37 36/36/36
f 39/39/39 36/36/36 37/37/37
