g T3_Crown_00
v -0.7153142 -0.3295059 1.750427
v -0.4273326 -0.6189533 1.713674
v -0.151794 0.8671535 1.629952
v -0.4542287 0.7092857 1.646903
v 0.8109546 0.0655224 2.023787
v 0.6821188 -0.2356527 2.039588
v 0.8136037 0.2253028 1.825768
v -0.5551936 -0.1581248 2.026252
v -0.7510656 0.4541397 1.563427
v 0.7005 -0.2522153 1.825526
v -0.05149353 0.7177286 1.943303
v 0.1354052 0.8728968 1.607495
v -0.6486566 0.1968822 1.662986
v -0.2460376 -0.4168997 1.995421
v -0.3587257 0.5167949 2.062514
v 0.3747808 0.7383372 1.935098
v -0.5668195 -0.097181 1.636697
v 0.5622016 0.1530487 2.117562
v -0.6987415 -0.1559509 1.950797
v -0.2060903 0.8330579 1.622976
v -0.5566707 0.4386563 1.92707
v 0.5871752 0.2366369 1.933034
v 0.4244664 -0.1652185 2.133014
v 0.1647688 -0.5356827 1.817244
v -0.5343115 0.2198919 1.774102
v 0.7473357 0.1075896 1.633241
v -0.7671068 -0.01967434 1.514204
v 0.1548393 0.6586741 1.821343
v 0.4768147 -0.2257555 1.930211
v 0.6589622 0.4886682 1.982262
v 0.4875425 0.6054937 2.005168
v -0.3031595 0.06732591 2.140861
v -0.1264744 -0.5667453 1.792648
v -0.2354887 0.6698942 1.839662
v 0.5872862 0.04868889 1.79706
v -0.6908629 0.2229769 1.853076
v -0.4265946 -0.05750105 1.753671
v 0.1805104 -0.3857037 1.939556
v 0.09360737 0.4567637 2.139962
v 0.236073 0.5522491 2.016386
v -0.2594598 0.265724 2.161445
v -0.2939989 0.4211332 1.959257
v 0.1877656 -0.1059661 2.087509
v -0.4090593 0.1803154 1.249759
v 0.2096257 -0.07193226 1.347692
v -0.2913121 0.4861726 1.241355
v -0.09757296 0.5290248 1.25815
v -0.07752355 0.5624902 1.383505
v 0.1127128 -0.2736009 1.235703
v 0.2553136 0.5677126 1.387733
v -0.4265391 -0.1660644 1.420131
v 0.2884587 0.3921784 1.261479
v 0.3058463 0.2212721 1.33909
v -0.4512524 0.1435166 1.456138
v -0.1592178 0.6390059 1.565699
v 0.2194947 -0.05127027 1.564111
v -0.3755815 0.4946332 1.374023
v 0.2158894 0.5995505 1.589252
v 0.369912 -0.06353436 1.275668
v -0.2783699 0.4752676 1.470915
v -0.1585258 -0.2079813 1.360486
v 0.06813531 -0.2472831 1.559755
v -0.3669684 -0.1547147 1.641001
v -0.4210578 0.03002707 1.386332
v -0.3575359 0.07053173 1.659688
v -0.1716398 0.4400529 1.650504
v -0.1121713 0.6031558 1.47172
v 0.1524151 -0.02033029 1.716169
v -0.2074148 0.5002527 1.738069
v 0.2085156 0.4654774 1.741665
v 0.2774993 0.4178928 1.50421
v -0.04561689 0.3829282 1.801388
v 0.3643138 0.2273064 1.5516
v -0.1545779 0.03301345 1.782628
v -0.03884466 -0.1536735 1.800802
v -0.1935126 0.3486381 1.840773
v -0.6565343 0.06913858 1.464198
v -0.2290957 -0.1027508 1.819906
v 0.1323051 0.296723 1.839835
v -0.138825 0.7253408 1.399765
v 0.2396098 0.3378012 1.702303
v -0.1754185 0.282516 1.836843
v 0.1779128 0.2330371 1.871472
v -0.443985 0.1371039 1.835866
v 0.07031366 0.01750117 1.851973
v -0.1740022 0.1028437 1.866592
v -0.3798833 0.4886822 1.609465
v 0.3905555 -0.04354437 1.57496
v 0.1899456 0.3086804 1.86707
v -0.3299415 0.3819046 1.798942
v -0.2267178 0.1909048 1.891152
v 0.1038834 0.3002063 1.97297
v -0.151103 0.5394177 1.694075
v 0.1545872 0.05746979 1.957445
v 0.02966288 0.3825272 1.901371
v 0.2993503 0.2709177 1.730796
v -0.2321258 0.2424567 1.932149
v -0.04017136 -0.01237304 1.907543
v 0.4431483 0.3649288 1.78281
v -0.09005101 0.007395294 1.831431
v -0.1707659 0.04891321 1.972826
v -0.1655431 -0.2186669 1.592626
v 0.3091109 0.07782682 1.852351
v -0.3326649 0.04009455 1.75754
v 0.1725989 -0.4373542 1.82713
v 0.5070016 -0.2355802 1.841485
v 0.005417708 -0.1110777 1.855845
v 0.01039535 -0.242236 1.913854
v -0.1361318 0.2374918 1.831163
v -0.4368582 0.001247577 1.596095
v -0.1094216 -0.1489042 1.944485
v -0.6191156 0.06846412 1.667647
v 0.02834097 -0.04598735 1.889743
v 0.06446144 0.281861 1.901957
v 0.3588969 0.0008689016 1.946065
v 0.5693935 -0.3883035 1.671504
v -0.238433 0.3903046 1.972946
v -0.1054137 0.04755311 1.968652
v 0.1556239 0.1915688 1.949968
v -0.170683 0.1199132 1.977929
v -0.1115764 -0.3545865 1.903364
v -0.1370768 -0.04170656 1.969091
v 0.05798419 0.3056982 1.978309
v 0.08737723 -0.04984114 1.934172
v -0.442268 0.2520648 1.94725
v -0.1508497 0.009874642 1.953245
v 0.3047511 -0.003522217 1.882316
v 0.2017833 0.1575646 2.002292
v 0.1926823 0.3057929 1.88957
v 0.1895305 -0.1484485 1.994392
v -0.1058656 -0.1937264 1.75795
v -0.05367215 0.2679375 1.898376
v -0.09003533 0.2185724 1.987417
v 0.009643038 0.004518883 1.852429
v -0.3332799 0.237851 1.828589
v -0.035365 -0.1869066 1.979619
v 0.2312732 -0.2001676 1.981589
v -0.1833392 0.2745512 1.966836
v -0.09629557 0.2351674 1.986842
v 0.2050328 0.1974983 2.011602
v -0.2542512 -0.02670071 1.827406
v 0.1633729 -0.03860437 1.93435
v 0.1785191 0.04962799 1.998944
v 0.3037008 -0.6065835 1.659368
v 0.08941862 0.3772185 2.007606
v -0.268386 -0.03316151 1.979673
v -0.1020054 0.1993836 1.968999
v -0.08823273 0.5944222 1.798565
v 0.1631835 -0.01737612 2.00728
v 0.08878978 0.2555381 1.992278
v 0.6361855 0.4332144 1.613027
v -0.1348184 -0.07940081 2.032878
v -0.01781593 -0.05528656 1.989741
v 0.1860411 0.4063208 1.93188
v 0.3168009 0.1433361 2.059906
v 0.5261099 0.3414779 2.080636
v -0.01584763 0.4112629 1.980172
v -0.05084541 -0.2258845 1.990897
v -0.1545146 0.7392434 1.616333
v 0.07779545 0.5453771 2.092338
v 0.2781622 0.2175314 2.077143
v 0.1823412 0.7521828 2.004606
v 0.3050571 0.3165194 1.971056
v -0.01475996 0.3532522 2.076463
v -0.5756785 -0.04166408 1.885793
v -0.448697 -0.116712 2.043243
v 0.4023595 0.4271405 2.102258
v 0.2712065 0.2110638 2.08421
vt 0.4975586 0.9931641
vt 0.2504883 0.9931641
vt 0.9956055 0.75
vt 0.9956055 0.9912109
vt 0.006835938 0.9926758
vt 0.2451172 0.9926758
vt 0.2485352 0.9931641
vt 0.4975586 0.8310547
vt 0.2441406 0.9931641
vt 0.4970703 0.9931641
vt 0.8432617 0.75
vt 0.9956055 0.75
vt 0.9956055 0.9912109
vt 0.2504883 0.8310547
vt 0.8432617 0.9912109
vt 0.006835938 0.9926758
vt 0.9956055 0.75
vt 0.006835938 0.8320313
vt 0.2504883 0.9931641
vt 0.9956055 0.9912109
vt 0.2441406 0.8310547
vt 0.2485352 0.8310547
vt 0.2451172 0.8320313
vt 0.9956055 0.9912109
vt 0.8432617 0.9912109
vt 0.4975586 0.9931641
vt 0.007324219 0.9931641
vt 0.8432617 0.75
vt 0.4970703 0.8310547
vt 0.2451172 0.9926758
vt 0.9956055 0.75
vt 0.4975586 0.6669922
vt 0.9956055 0.75
vt 0.8432617 0.9912109
vt 0.4975586 0.831543
vt 0.4975586 0.9931641
vt 0.8432617 0.75
vt 0.8432617 0.9912109
vt 0.6796875 0.75
vt 0.006835938 0.8320313
vt 0.6796875 0.9912109
vt 0.2441406 0.6669922
vt 0.2451172 0.6679688
vt 0.253418 0.4956055
vt 0.2490234 0.496582
vt 0.4931641 0.4956055
vt 0.253418 0.4956055
vt 0.253418 0.496582
vt 0.4936523 0.496582
vt 0.4936523 0.496582
vt 0.01757813 0.496582
vt 0.4931641 0.4956055
vt 0.01757813 0.496582
vt 0.253418 0.3310547
vt 0.253418 0.3325195
vt 0.2490234 0.3325195
vt 0.01757813 0.496582
vt 0.4936523 0.3325195
vt 0.253418 0.496582
vt 0.4931641 0.3310547
vt 0.4931641 0.4960938
vt 0.4936523 0.3325195
vt 0.01757813 0.3325195
vt 0.253418 0.4960938
vt 0.253418 0.1669922
vt 0.4931641 0.1669922
vt 0.253418 0.3310547
vt 0.2490234 0.168457
vt 0.253418 0.168457
vt 0.4936523 0.168457
vt 0.4931641 0.3310547
vt 0.4931641 0.002929688
vt 0.01757813 0.3325195
vt 0.253418 0.002929688
vt 0.4936523 0.168457
vt 0.253418 0.002929688
vt 0.2485352 0.496582
vt 0.01757813 0.168457
vt 0.01757813 0.004394531
vt 0.2485352 0.496582
vt 0.4931641 0.1669922
vt 0.253418 0.00390625
vt 0.4931641 0.002929688
vt 0.2485352 0.168457
vt 0.2490234 0.004394531
vt 0.253418 0.003417969
vt 0.01757813 0.3325195
vt 0.253418 0.3325195
vt 0.4936523 0.00390625
vt 0.01757813 0.168457
vt 0.01757813 0.004394531
vt 0.253418 0.00390625
vt 0.253418 0.1669922
vt 0.5083008 0.9912109
vt 0.2485352 0.004394531
vt 0.01757813 0.168457
vt 0.2485352 0.004394531
vt 0.01757813 0.004394531
vt 0.2490234 0.831543
vt 0.5083008 0.75
vt 0.4936523 0.00390625
vt 0.4931641 0.3320313
vt 0.253418 0.168457
vt 0.253418 0.1679688
vt 0.2451172 0.831543
vt 0.006835938 0.831543
vt 0.4931641 0.003417969
vt 0.2451172 0.6674805
vt 0.5083008 0.9912109
vt 0.253418 0.3320313
vt 0.6796875 0.75
vt 0.2485352 0.3325195
vt 0.4975586 0.5039063
vt 0.4975586 0.5029297
vt 0.006835938 0.6674805
vt 0.006835938 0.9926758
vt 0.6796875 0.9912109
vt 0.5083008 0.75
vt 0.006835938 0.503418
vt 0.5083008 0.9912109
vt 0.8432617 0.75
vt 0.2451172 0.503418
vt 0.2485352 0.5029297
vt 0.2504883 0.5029297
vt 0.4975586 0.8310547
vt 0.5083008 0.9912109
vt 0.4975586 0.6674805
vt 0.5083008 0.75
vt 0.2490234 0.6674805
vt 0.6796875 0.9912109
vt 0.4931641 0.1679688
vt 0.2490234 0.5039063
vt 0.006835938 0.5039063
vt 0.007324219 0.5029297
vt 0.6796875 0.9912109
vt 0.4970703 0.5029297
vt 0.4970703 0.6669922
vt 0.4975586 0.6669922
vt 0.4975586 0.5029297
vt 0.5083008 0.75
vt 0.6796875 0.75
vt 0.2504883 0.5029297
vt 0.5083008 0.75
vt 0.2451172 0.9926758
vt 0.006835938 0.6679688
vt 0.007324219 0.6669922
vt 0.5083008 0.9912109
vt 0.2485352 0.168457
vt 0.2451172 0.5039063
vt 0.006835938 0.5039063
vt 0.2490234 0.9931641
vt 0.2504883 0.6669922
vt 0.2451172 0.5039063
vt 0.6796875 0.75
vt 0.2451172 0.6679688
vt 0.2451172 0.8320313
vt 0.2441406 0.5029297
vt 0.2504883 0.6669922
vt 0.2485352 0.3325195
vt 0.8432617 0.9912109
vt 0.6796875 0.75
vt 0.9956055 0.9912109
vt 0.2485352 0.6669922
vt 0.6796875 0.9912109
vt 0.007324219 0.8310547
vt 0.2504883 0.8310547
vt 0.8432617 0.75
vt 0.006835938 0.6679688
vn -0.4975586 -0.5771484 0.6474609
vn -0.4572754 -0.5825195 0.671875
vn -0.3803711 0.7817383 0.4943848
vn -0.3676758 0.7983398 0.4768066
vn 0.3205566 -0.09069824 0.9428711
vn 0.3186035 -0.08679199 0.9438477
vn 0.418457 -0.1035767 0.9023438
vn -0.3242188 -0.4599609 0.8266602
vn -0.8818359 -0.01904297 0.4707031
vn 0.4123535 -0.0980835 0.9057617
vn -0.2453613 0.7304688 0.637207
vn -0.04989624 0.703125 0.7089844
vn -0.6499023 -0.2451172 0.7192383
vn -0.175415 -0.4526367 0.8745117
vn -0.2078857 0.6210938 0.7558594
vn 0.1115112 0.3793945 0.918457
vn -0.5947266 -0.2675781 0.7583008
vn 0.1217651 -0.01979065 0.9921875
vn -0.3691406 0.2398682 0.8979492
vn 0.009292603 0.7592773 0.6503906
vn -0.5649414 -0.05245972 0.8232422
vn 0.295166 -0.06262207 0.9536133
vn 0.05963135 0.02398682 0.9980469
vn -0.1047974 -0.5532227 0.8266602
vn -0.4658203 -0.2214355 0.8569336
vn 0.6411133 0.2636719 0.7207031
vn -0.8857422 -0.01087189 0.463623
vn 0.02601624 0.5795898 0.8144531
vn 0.3012695 -0.0758667 0.9506836
vn 0.2089844 0.4060059 0.8896484
vn 0.1895752 0.3979492 0.8974609
vn 0.2924805 -0.1243896 0.9482422
vn -0.02575684 -0.4611816 0.887207
vn 0.06011963 0.6171875 0.784668
vn 0.4604492 0.2287598 0.8579102
vn -0.3684082 0.2393799 0.8984375
vn -0.4443359 -0.2054443 0.8720703
vn -0.1611328 -0.4187012 0.8935547
vn 0.08184814 0.08660889 0.9926758
vn -0.05108643 0.2209473 0.9741211
vn 0.05789185 -0.1155396 0.9916992
vn -0.135376 -0.003093719 0.9907227
vn -0.2727051 0.09936523 0.9570313
vn -0.9018555 0.4301758 -0.04067993
vn 0.949707 -0.3122559 -0.01351929
vn -0.9301758 0.3601074 0.06958008
vn 0.4025879 0.890625 -0.2116699
vn 0.07891846 0.9555664 -0.284668
vn 0.6118164 -0.7773438 0.1473389
vn -0.01347351 0.9873047 -0.1585693
vn -0.6582031 -0.730957 0.180542
vn 0.3334961 0.9389648 -0.08441162
vn 0.902832 -0.4055176 -0.1446533
vn -0.8613281 0.4462891 0.2429199
vn 0.09259033 0.9589844 0.2678223
vn 0.8989258 -0.4008789 0.1757813
vn -0.7250977 0.6879883 -0.03311157
vn 0.03872681 0.9707031 0.2371826
vn 0.5708008 -0.8173828 0.07733154
vn -0.8686523 0.401123 0.2900391
vn -0.6450195 -0.7587891 -0.08825684
vn 0.5224609 -0.7963867 0.3046875
vn -0.5893555 -0.6645508 0.4597168
vn -0.671875 -0.7250977 -0.1501465
vn -0.684082 0.3066406 0.6616211
vn -0.7109375 0.3654785 0.6005859
vn 0.4423828 0.8955078 0.04928589
vn 0.7729492 -0.4047852 0.4887695
vn 0.003007889 0.6386719 0.7695313
vn 0.04510498 0.6914063 0.7207031
vn 0.3806152 0.9135742 0.1424561
vn -0.6098633 0.2709961 0.7446289
vn 0.8798828 -0.4621582 0.111084
vn -0.5 0.1096191 0.8588867
vn 0.3518066 -0.6645508 0.6591797
vn 0.1171875 0.5888672 0.7998047
vn -0.6972656 -0.7055664 0.1259766
vn -0.416748 -0.4226074 0.8046875
vn 0.5356445 -0.08239746 0.840332
vn -0.6894531 0.7182617 -0.0960083
vn 0.376709 0.7890625 0.4851074
vn -0.1039429 0.3981934 0.9116211
vn 0.2893066 0.6928711 0.6601563
vn -0.404541 -0.4655762 0.7871094
vn 0.6816406 -0.2966309 0.668457
vn -0.4133301 -0.3955078 0.8203125
vn -0.6855469 0.6582031 0.3112793
vn 0.5004883 -0.8237305 0.2661133
vn -0.003421783 0.5537109 0.8325195
vn -0.416748 0.4760742 0.7744141
vn -0.2617188 0.3012695 0.9169922
vn 0.2496338 -0.2734375 0.9287109
vn 0.3342285 0.777832 0.5317383
vn 0.03543091 0.182373 0.9824219
vn -0.2617188 0.3000488 0.9174805
vn 0.7402344 -0.3266602 0.5878906
vn -0.2719727 -0.2998047 0.9145508
vn -0.2800293 -0.2990723 0.9121094
vn 0.4423828 0.2125244 0.8710938
vn -0.02375793 -0.003629684 0.9995117
vn 0.2440186 -0.4309082 0.8686523
vn -0.6494141 -0.7368164 0.1882324
vn 0.3601074 -0.6054688 0.7094727
vn -0.5258789 -0.574707 0.6274414
vn 0.25 -0.4248047 0.8701172
vn 0.2470703 -0.4785156 0.8427734
vn -0.4230957 -0.395752 0.8149414
vn 0.1019897 -0.2658691 0.9584961
vn -0.01683044 -0.006729126 1
vn -0.637207 -0.7509766 0.1730957
vn -0.1563721 -0.161499 0.9746094
vn -0.5976563 -0.6884766 0.4108887
vn 0.0328064 -0.01486206 0.9995117
vn 0.2988281 0.1751709 0.9379883
vn 0.09942627 -0.2058105 0.9736328
vn 0.3586426 -0.5800781 0.7314453
vn 0.03390503 0.2805176 0.9594727
vn -0.08850098 -0.002437592 0.9960938
vn 0.04406738 0.02653503 0.9985352
vn -0.06549072 0.001968384 0.9980469
vn -0.111145 -0.3608398 0.9257813
vn 0.05725098 -0.1318359 0.9897461
vn 0.02949524 -0.002922058 0.9995117
vn 0.3903809 0.1156616 0.9135742
vn -0.229248 0.2486572 0.940918
vn 0.1729736 -0.5766602 0.7988281
vn 0.1856689 0.07305908 0.9799805
vn 0.02886963 0.1785889 0.9833984
vn 0.1877441 0.0425415 0.9814453
vn -0.1080322 -0.08575439 0.9902344
vn -0.5620117 -0.5390625 0.6274414
vn 0.0383606 -0.01745605 0.9990234
vn -0.09552002 -0.0186615 0.9951172
vn 0.4306641 -0.2457275 0.8681641
vn -0.1765137 -0.090271 0.9799805
vn 0.003822327 0.01444244 1
vn 0.0814209 -0.005260468 0.996582
vn 0.09216309 0.2191162 0.9711914
vn 0.440918 0.05136108 0.8959961
vn 0.2128906 -0.4526367 0.8657227
vn -0.1889648 -0.05838013 0.9804688
vn 0.2294922 0.03118896 0.9726563
vn -0.2154541 -0.3681641 0.9042969
vn 0.3696289 -0.4938965 0.7871094
vn -0.1558838 0.02275085 0.9873047
vn -0.02258301 -0.06158447 0.9980469
vn -0.3139648 -0.4174805 0.8525391
vn -0.4589844 0.4648438 0.7573242
vn -0.2041016 -0.03897095 0.9780273
vn -0.4191895 0.1364746 0.8974609
vn 0.5976563 0.282959 0.75
vn 0.1691895 0.1728516 0.9702148
vn -0.4089355 0.1231689 0.9042969
vn 0.07220459 0.3461914 0.9355469
vn -0.2174072 0.01113892 0.9760742
vn 0.005962372 0.2497559 0.9682617
vn 0.1189575 -0.06866455 0.9907227
vn 0.3251953 -0.1021118 0.9399414
vn -0.7021484 0.6572266 0.2736816
vn 0.02270508 0.1263428 0.9916992
vn -0.1026001 -0.2016602 0.9741211
vn 0.1311035 0.3654785 0.9213867
vn 0.0770874 0.003036499 0.9970703
vn -0.1519775 -0.2376709 0.9594727
vn -0.6337891 -0.007514954 0.7734375
vn -0.2154541 0.2305908 0.9487305
vn 0.05743408 0.1732178 0.9833984
vn -0.2597656 0.08343506 0.9619141
g T3_Crown_00_0
f 1/1/1 2/2/2 8/8/8
f 14/14/14 8/8/8 2/2/2
f 8/8/8 14/14/14 32/32/32
f 158/158/158 32/32/32 14/14/14
f 32/32/32 158/158/158 139/139/139
f 142/142/142 139/139/139 158/158/158
f 6/6/6 5/5/5 23/23/23
f 18/18/18 23/23/23 5/5/5
f 23/23/23 18/18/18 43/43/43
f 168/168/168 43/43/43 18/18/18
f 43/43/43 168/168/168 153/153/153
f 150/150/150 153/153/153 168/168/168
f 13/13/13 17/17/17 25/25/25
f 37/37/37 25/25/25 17/17/17
f 25/25/25 37/37/37 135/135/135
f 141/141/141 135/135/135 37/37/37
f 135/135/135 141/141/141 109/109/109
f 100/100/100 109/109/109 141/141/141
f 33/33/33 24/24/24 121/121/121
f 38/38/38 121/121/121 24/24/24
f 121/121/121 38/38/38 111/111/111
f 130/130/130 111/111/111 38/38/38
f 111/111/111 130/130/130 118/118/118
f 94/94/94 118/118/118 130/130/130
f 31/31/31 162/162/162 167/167/167
f 160/160/160 167/167/167 162/162/162
f 167/167/167 160/160/160 161/161/161
f 164/164/164 161/161/161 160/160/160
f 161/161/161 164/164/164 143/143/143
f 147/147/147 143/143/143 164/164/164
f 9/9/9 27/27/27 21/21/21
f 165/165/165 21/21/21 27/27/27
f 21/21/21 165/165/165 42/42/42
f 146/146/146 42/42/42 165/165/165
f 42/42/42 146/146/146 157/157/157
f 134/134/134 157/157/157 146/146/146
f 30/30/30 16/16/16 156/156/156
f 40/40/40 156/156/156 16/16/16
f 156/156/156 40/40/40 155/155/155
f 145/145/145 155/155/155 40/40/40
f 155/155/155 145/145/145 149/149/149
f 133/133/133 149/149/149 145/145/145
f 36/36/36 19/19/19 125/125/125
f 166/166/166 125/125/125 19/19/19
f 125/125/125 166/166/166 138/138/138
f 152/152/152 138/138/138 166/166/166
f 138/138/138 152/152/152 114/114/114
f 124/124/124 114/114/114 152/152/152
f 26/26/26 151/151/151 35/35/35
f 99/99/99 35/35/35 151/151/151
f 35/35/35 99/99/99 127/127/127
f 129/129/129 127/127/127 99/99/99
f 127/127/127 129/129/129 113/113/113
f 132/132/132 113/113/113 129/129/129
f 12/12/12 20/20/20 28/28/28
f 34/34/34 28/28/28 20/20/20
f 28/28/28 34/34/34 154/154/154
f 117/117/117 154/154/154 34/34/34
f 154/154/154 117/117/117 128/128/128
f 120/120/120 128/128/128 117/117/117
f 3/3/3 4/4/4 11/11/11
f 15/15/15 11/11/11 4/4/4
f 11/11/11 15/15/15 39/39/39
f 41/41/41 39/39/39 15/15/15
f 39/39/39 41/41/41 140/140/140
f 126/126/126 140/140/140 41/41/41
f 10/10/10 7/7/7 29/29/29
f 7/7/7 22/22/22 29/29/29
f 29/29/29 22/22/22 137/137/137
f 22/22/22 163/163/163 137/137/137
f 137/137/137 163/163/163 136/136/136
f 163/163/163 123/123/123 136/136/136
f 144/144/144 116/116/116 105/105/105
f 106/106/106 105/105/105 116/116/116
f 105/105/105 106/106/106 108/108/108
f 115/115/115 108/108/108 106/106/106
f 108/108/108 115/115/115 122/122/122
f 119/119/119 122/122/122 115/115/115
f 64/64/64 61/61/61 110/110/110
f 102/102/102 110/110/110 61/61/61
f 110/110/110 102/102/102 104/104/104
f 131/131/131 104/104/104 102/102/102
f 104/104/104 131/131/131 86/86/86
f 107/107/107 86/86/86 131/131/131
f 45/45/45 53/53/53 56/56/56
f 73/73/73 56/56/56 53/53/53
f 56/56/56 73/73/73 68/68/68
f 96/96/96 68/68/68 73/73/73
f 68/68/68 96/96/96 85/85/85
f 79/79/79 85/85/85 96/96/96
f 77/77/77 51/51/51 112/112/112
f 63/63/63 112/112/112 51/51/51
f 112/112/112 63/63/63 84/84/84
f 78/78/78 84/84/84 63/63/63
f 84/84/84 78/78/78 97/97/97
f 98/98/98 97/97/97 78/78/78
f 46/46/46 44/44/44 60/60/60
f 54/54/54 60/60/60 44/44/44
f 60/60/60 54/54/54 66/66/66
f 65/65/65 66/66/66 54/54/54
f 66/66/66 65/65/65 72/72/72
f 74/74/74 72/72/72 65/65/65
f 50/50/50 48/48/48 58/58/58
f 55/55/55 58/58/58 48/48/48
f 58/58/58 55/55/55 70/70/70
f 69/69/69 70/70/70 55/55/55
f 70/70/70 69/69/69 89/89/89
f 82/82/82 89/89/89 69/69/69
f 80/80/80 57/57/57 159/159/159
f 87/87/87 159/159/159 57/57/57
f 159/159/159 87/87/87 148/148/148
f 90/90/90 148/148/148 87/87/87
f 148/148/148 90/90/90 95/95/95
f 91/91/91 95/95/95 90/90/90
f 52/52/52 47/47/47 71/71/71
f 67/67/67 71/71/71 47/47/47
f 71/71/71 67/67/67 81/81/81
f 93/93/93 81/81/81 67/67/67
f 81/81/81 93/93/93 83/83/83
f 76/76/76 83/83/83 93/93/93
f 49/49/49 59/59/59 62/62/62
f 88/88/88 62/62/62 59/59/59
f 62/62/62 88/88/88 75/75/75
f 103/103/103 75/75/75 88/88/88
f 75/75/75 103/103/103 101/101/101
f 92/92/92 101/101/101 103/103/103
