g T3_Trunk_00
v -0.1149096 0.0001473749 0.05911369
v -0.04409358 -0.04917519 -0.03176237
v -0.07606661 -0.06156861 0.1797438
v -0.03570884 -0.09318646 0.04841956
v 0.09594966 -0.01156754 0.1601884
v 0.03423437 -0.07255659 0.1669618
v 0.0473141 -0.08449416 0.04271946
v 0.0695518 -0.00176506 -0.03176237
v 0.09256722 0.08671908 0.1485345
v -0.08929499 0.08265053 0.160067
v -0.02014518 0.1193777 0.02184816
v -0.005789575 0.1282245 0.2566449
v -0.07244758 0.1018605 0.3792953
v 0.08704928 0.07943811 0.2581059
v -0.01092788 -0.02605207 0.3700961
v -0.06162285 -0.04973894 0.2943943
v 0.007065627 0.136217 0.3627248
v 0.08046161 0.0742483 0.3593985
v 0.0719273 0.01444026 0.3627247
v -0.07025816 0.02472525 0.3792953
v 0.1050945 0.1515432 1.346139
v 0.05871897 0.10044 1.342104
v 0.0695065 0.2228694 1.363043
v -0.009040124 0.1374547 1.840973
v 0.08595411 0.0800935 0.8829734
v 0.05704613 0.1383826 1.756446
v 0.0691674 0.1135285 1.537172
v 0.1115186 0.1305045 1.037378
v 0.09570583 0.08313725 0.7164591
v 0.08820806 0.1433318 0.722955
v 0.04980734 0.1375416 0.5452972
v 0.02478615 0.1777923 1.053584
v -0.04878278 0.08877183 0.5560903
v -0.01388071 0.02248154 0.5492884
v 0.05130728 0.02325735 0.5412583
v 0.06576962 0.0810991 1.036766
v 0.04016424 0.1178004 1.185549
v 0.01550105 0.1373441 1.541553
v 0.0192645 0.1878159 1.5505
v 0.005775726 0.1286695 1.970114
v 0.07465907 0.1896012 1.550628
v 0.032155 0.1097748 1.832964
v 0.1059221 0.1848957 1.18963
v 0.05484309 0.1894578 0.886402
v 0.08676515 0.2001015 1.052393
v 0.01789699 0.1038153 1.75084
v 0.09237684 0.110356 1.179102
v 0.1115779 0.1467268 0.8876361
v 0.09155224 0.08075872 0.5392739
v -0.001162391 0.1467457 0.5519295
v -0.004731795 0.1479166 0.734248
v 0.01733587 0.1333296 1.048486
v -0.01145228 0.07774213 0.7291497
v -0.004105775 0.1324201 0.8669959
v 0.04051282 0.04136774 0.7198413
v 0.03268185 0.07302087 0.890018
v 0.02109184 0.1788412 1.306432
v -0.07244758 0.1018605 0.3792953
v -0.08929499 0.08265053 0.160067
v -0.06162285 -0.04973894 0.2943943
v -0.06162285 -0.04973894 0.2943943
v -0.07025816 0.02472525 0.3792953
v -0.02014518 0.1193777 0.02184816
v -0.1149096 0.0001473749 0.05911369
v -0.02014518 0.1193777 0.02184816
v -0.04409358 -0.04917519 -0.03176237
v -0.1149096 0.0001473749 0.05911369
v -0.07606661 -0.06156861 0.1797438
v -0.03570884 -0.09318646 0.04841956
v -0.07606661 -0.06156861 0.1797438
v -0.01092788 -0.02605207 0.3700961
v 0.0695518 -0.00176506 -0.03176237
v -0.04409358 -0.04917519 -0.03176237
v 0.0473141 -0.08449416 0.04271946
v 0.03423437 -0.07255659 0.1669618
v 0.08704928 0.07943811 0.2581059
v -0.01092788 -0.02605207 0.3700961
v 0.08704928 0.07943811 0.2581059
v -0.01092788 -0.02605207 0.3700961
v 0.0719273 0.01444026 0.3627247
v 0.09594966 -0.01156754 0.1601884
v 0.0192645 0.1878159 1.5505
v 0.0695065 0.2228694 1.363043
v -0.009040124 0.1374547 1.840973
v 0.07465907 0.1896012 1.550628
v -0.009040124 0.1374547 1.840973
v 0.005775726 0.1286695 1.970114
v 0.032155 0.1097748 1.832964
v 0.005775726 0.1286695 1.970114
v 0.05704613 0.1383826 1.756446
v 0.032155 0.1097748 1.832964
v 0.07465907 0.1896012 1.550628
v 0.1050945 0.1515432 1.346139
v 0.05704613 0.1383826 1.756446
v 0.07465907 0.1896012 1.550628
v 0.0695065 0.2228694 1.363043
v 0.1050945 0.1515432 1.346139
v 0.005775726 0.1286695 1.970114
v 0.1115779 0.1467268 0.8876361
v 0.08676515 0.2001015 1.052393
v 0.032155 0.1097748 1.832964
v 0.0691674 0.1135285 1.537172
v 0.05871897 0.10044 1.342104
v 0.08595411 0.0800935 0.8829734
v 0.1115186 0.1305045 1.037378
v 0.1115779 0.1467268 0.8876361
v 0.1115779 0.1467268 0.8876361
v 0.1115186 0.1305045 1.037378
v 0.1059221 0.1848957 1.18963
v 0.08595411 0.0800935 0.8829734
v 0.09570583 0.08313725 0.7164591
v 0.0719273 0.01444026 0.3627247
v 0.09570583 0.08313725 0.7164591
v 0.09155224 0.08075872 0.5392739
v 0.08820806 0.1433318 0.722955
v 0.05484309 0.1894578 0.886402
v 0.007065627 0.136217 0.3627248
v -0.001162391 0.1467457 0.5519295
v -0.07244758 0.1018605 0.3792953
v -0.07244758 0.1018605 0.3792953
v -0.001162391 0.1467457 0.5519295
v 0.05484309 0.1894578 0.886402
v -0.004731795 0.1479166 0.734248
v -0.004105775 0.1324201 0.8669959
v 0.02109184 0.1788412 1.306432
v 0.02109184 0.1788412 1.306432
v 0.08676515 0.2001015 1.052393
v 0.0695065 0.2228694 1.363043
v 0.02478615 0.1777923 1.053584
v 0.05484309 0.1894578 0.886402
v -0.04878278 0.08877183 0.5560903
v -0.004105775 0.1324201 0.8669959
v -0.01145228 0.07774213 0.7291497
v -0.004105775 0.1324201 0.8669959
v 0.01733587 0.1333296 1.048486
v 0.02109184 0.1788412 1.306432
v -0.01388071 0.02248154 0.5492884
v 0.08595411 0.0800935 0.8829734
v 0.08595411 0.0800935 0.8829734
v 0.04051282 0.04136774 0.7198413
v 0.03268185 0.07302087 0.890018
v 0.05130728 0.02325735 0.5412583
v 0.09237684 0.110356 1.179102
v 0.05871897 0.10044 1.342104
v 0.03268185 0.07302087 0.890018
v 0.04016424 0.1178004 1.185549
v 0.06576962 0.0810991 1.036766
v 0.05871897 0.10044 1.342104
v 0.02109184 0.1788412 1.306432
v -0.009040124 0.1374547 1.840973
v 0.0192645 0.1878159 1.5505
v 0.01789699 0.1038153 1.75084
v 0.02109184 0.1788412 1.306432
v 0.01789699 0.1038153 1.75084
v -0.009040124 0.1374547 1.840973
v 0.032155 0.1097748 1.832964
vt 0.7939453 0.04800415
vt 0.8515625 0.009819031
vt 0.8422852 0.1146851
vt 0.8759766 0.04870605
vt 0.5537109 0.1118774
vt 0.9140625 0.1146851
vt 0.550293 0.04663086
vt 0.5478516 0.009819031
vt 0.6118164 0.1077271
vt 0.7387695 0.1091309
vt 0.6757813 0.04315186
vt 0.6728516 0.1757813
vt 0.7568359 0.2253418
vt 0.6088867 0.1750488
vt 0.8759766 0.2341309
vt 0.847168 0.177124
vt 0.6850586 0.232666
vt 0.6264648 0.2298584
vt 0.5791016 0.232666
vt 0.824707 0.2368164
vt 0.7182617 0.5791016
vt 0.6538086 0.5786133
vt 0.8081055 0.5859375
vt 0.8427734 0.7148438
vt 0.6074219 0.4450684
vt 0.7431641 0.6708984
vt 0.6967773 0.6245117
vt 0.6640625 0.489502
vt 0.6162109 0.3742676
vt 0.6738281 0.3762207
vt 0.6816406 0.3054199
vt 0.800293 0.4968262
vt 0.7973633 0.3051758
vt 0.8574219 0.3063965
vt 0.8955078 0.3039551
vt 0.8911133 0.4914551
vt 0.878418 0.5375977
vt 0.8691406 0.6264648
vt 0.8364258 0.6279297
vt 0.8183594 0.7158203
vt 0.8149414 0.6728516
vt 0.7143555 0.7163086
vt 0.730957 0.5366211
vt 0.7353516 0.439209
vt 0.734375 0.494873
vt 0.684082 0.6474609
vt 0.6611328 0.5341797
vt 0.6669922 0.4384766
vt 0.6225586 0.3024902
vt 0.7246094 0.3039551
vt 0.7666016 0.3774414
vt 0.847168 0.4951172
vt 0.8354492 0.3796387
vt 0.8100586 0.4321289
vt 0.8813477 0.3759766
vt 0.8691406 0.4414063
vt 0.8500977 0.5712891
vt 0.7568359 0.2253418
vt 0.7387695 0.1091309
vt 0.847168 0.177124
vt 0.847168 0.177124
vt 0.824707 0.2368164
vt 0.6757813 0.04315186
vt 0.7939453 0.04800415
vt 0.6757813 0.04315186
vt 0.8515625 0.009819031
vt 0.7939453 0.04800415
vt 0.8422852 0.1146851
vt 0.8759766 0.04870605
vt 0.8422852 0.1146851
vt 0.8759766 0.2341309
vt 0.9736328 0.009819031
vt 0.8515625 0.009819031
vt 0.9228516 0.04940796
vt 0.9140625 0.1146851
vt 0.9506836 0.1799316
vt 0.8759766 0.2341309
vt 0.9506836 0.1799316
vt 0.8759766 0.2341309
vt 0.9145508 0.232666
vt 0.9614258 0.1125488
vt 0.8364258 0.6279297
vt 0.8081055 0.5859375
vt 0.8427734 0.7148438
vt 0.8149414 0.6728516
vt 0.840332 0.7094727
vt 0.7827148 0.7143555
vt 0.7143555 0.7163086
vt 0.7827148 0.7143555
vt 0.7431641 0.6708984
vt 0.7143555 0.7163086
vt 0.7744141 0.6269531
vt 0.7182617 0.5791016
vt 0.7431641 0.6708984
vt 0.7744141 0.6269531
vt 0.8081055 0.5859375
vt 0.7182617 0.5791016
vt 0.7827148 0.7143555
vt 0.6669922 0.4384766
vt 0.734375 0.494873
vt 0.7143555 0.7163086
vt 0.6967773 0.6245117
vt 0.6538086 0.5786133
vt 0.6074219 0.4450684
vt 0.6640625 0.489502
vt 0.6669922 0.4384766
vt 0.6669922 0.4384766
vt 0.6640625 0.489502
vt 0.730957 0.5366211
vt 0.6074219 0.4450684
vt 0.6162109 0.3742676
vt 0.5791016 0.232666
vt 0.6162109 0.3742676
vt 0.6225586 0.3024902
vt 0.6738281 0.3762207
vt 0.7353516 0.439209
vt 0.6850586 0.232666
vt 0.7246094 0.3039551
vt 0.7568359 0.2253418
vt 0.7568359 0.2253418
vt 0.7246094 0.3039551
vt 0.7353516 0.439209
vt 0.7666016 0.3774414
vt 0.8100586 0.4321289
vt 0.8500977 0.5712891
vt 0.8500977 0.5712891
vt 0.7988281 0.5410156
vt 0.8056641 0.5854492
vt 0.800293 0.4968262
vt 0.7353516 0.439209
vt 0.7973633 0.3051758
vt 0.8100586 0.4321289
vt 0.8354492 0.3796387
vt 0.8100586 0.4321289
vt 0.847168 0.4951172
vt 0.8500977 0.5712891
vt 0.8574219 0.3063965
vt 0.8955078 0.4450684
vt 0.8955078 0.4450684
vt 0.8813477 0.3759766
vt 0.8691406 0.4414063
vt 0.8955078 0.3039551
vt 0.9003906 0.5126953
vt 0.9052734 0.5805664
vt 0.8691406 0.4414063
vt 0.878418 0.5375977
vt 0.8911133 0.4914551
vt 0.9052734 0.5805664
vt 0.8500977 0.5712891
vt 0.8427734 0.7148438
vt 0.8505859 0.6494141
vt 0.875 0.6699219
vt 0.8500977 0.5712891
vt 0.875 0.6699219
vt 0.8427734 0.7148438
vt 0.8759766 0.7143555
vn -0.7978516 0.565918 -0.2087402
vn -0.7050781 0.5737305 -0.4165039
vn -0.9892578 -0.1122437 0.0914917
vn -0.7407227 -0.6464844 -0.1824951
vn 0.9296875 -0.3547363 0.0982666
vn -0.02729797 -0.9863281 0.1638184
vn 0.9370117 -0.2993164 -0.1804199
vn 0.7802734 0.5820313 -0.2297363
vn 0.8271484 0.5620117 0.00611496
vn -0.09753418 0.9951172 -0.01742554
vn -0.1425781 0.9624023 -0.2312012
vn -0.03890991 0.9990234 0.03015137
vn -0.7978516 0.6020508 0.03103638
vn 0.8647461 0.4919434 0.1032715
vn -0.03231812 -0.9472656 0.3183594
vn -0.9555664 -0.185791 0.2297363
vn 0.1176758 0.984375 -0.1313477
vn 0.9301758 0.3637695 -0.04977417
vn 0.8066406 -0.5839844 0.08874512
vn -0.8666992 -0.3945313 0.3059082
vn 0.9882813 -0.1328125 0.07354736
vn 0.7299805 -0.6816406 0.05432129
vn 0.217041 0.9746094 0.05111694
vn -0.6132813 0.7885742 0.04220581
vn 0.6674805 -0.7421875 0.06002808
vn 0.9819336 -0.1016846 0.1602783
vn 0.7294922 -0.6821289 0.0496521
vn 0.8671875 -0.4958496 0.04510498
vn 0.9155273 -0.4013672 0.01780701
vn 0.6621094 0.7368164 -0.1380615
vn 0.5585938 0.8173828 -0.1407471
vn -0.7553711 0.6542969 -0.03259277
vn -0.9233398 0.3691406 0.104187
vn -0.730957 -0.6499023 0.2089844
vn 0.4770508 -0.8730469 0.102417
vn 0.1244507 -0.9892578 0.07769775
vn -0.8793945 -0.4665527 0.09423828
vn -0.918457 -0.3862305 -0.08532715
vn -0.7192383 0.6948242 0.006614685
vn -0.4970703 0.8613281 0.104248
vn -0.3312988 0.934082 0.1320801
vn -0.9765625 -0.1914063 0.09899902
vn 0.8999023 0.4350586 0.02536011
vn 0.6103516 0.7817383 -0.1281738
vn 0.7456055 0.6655273 -0.03631592
vn 0.3044434 -0.9516602 0.03833008
vn 0.746582 -0.6611328 0.0736084
vn 0.9638672 0.2575684 -0.07037354
vn 0.9960938 -0.07086182 -0.05117798
vn 0.1582031 0.9799805 -0.1218262
vn -0.7138672 0.6992188 0.04067993
vn -0.984375 0.1729736 0.02583313
vn -0.9458008 -0.2661133 0.1865234
vn -0.9868164 0.1142578 0.1140747
vn -0.2932129 -0.9345703 0.2016602
vn -0.515625 -0.8408203 0.1636963
vn -0.984375 0.173584 -0.02722168
vn -0.8325195 0.5537109 0.01389313
vn -0.7905273 0.6118164 0.0309906
vn -0.9555664 -0.185791 0.2297363
vn -0.4628906 -0.8330078 0.3024902
vn -0.8666992 -0.3945313 0.3059082
vn -0.1425781 0.9624023 -0.2312012
vn -0.9833984 -0.1390381 -0.1178589
vn -0.1356201 0.9057617 -0.4013672
vn -0.4882813 -0.7695313 -0.4116211
vn -0.9833984 -0.1390381 -0.1178589
vn -0.5981445 -0.7924805 0.1177979
vn -0.2231445 -0.9628906 -0.151123
vn -0.5981445 -0.7924805 0.1177979
vn 0.3549805 -0.8876953 0.2924805
vn 0.4165039 -0.8056641 -0.4208984
vn -0.4882813 -0.7695313 -0.4116211
vn 0.482666 -0.8642578 -0.1420898
vn 0.4211426 -0.8901367 0.1751709
vn 0.8657227 -0.4572754 0.2036133
vn 0.3549805 -0.8876953 0.2924805
vn 0.8657227 -0.4572754 0.2036133
vn -0.03231812 -0.9472656 0.3183594
vn 0.8066406 -0.5839844 0.08874512
vn 0.9296875 -0.3547363 0.0982666
vn -0.7192383 0.6948242 0.006614685
vn -0.6386719 0.7695313 -0.00402832
vn -0.9980469 0.06246948 -0.009384155
vn -0.3312988 0.934082 0.1320801
vn -0.9921875 0.04187012 0.1166992
vn -0.9912109 0.05825806 0.1176758
vn 0.8935547 -0.427002 0.1375732
vn 0.9819336 -0.08654785 0.1693115
vn 0.9819336 -0.1016846 0.1602783
vn 0.8950195 -0.4348145 0.1008301
vn 0.8613281 0.4951172 0.1132813
vn 0.9882813 -0.1328125 0.07354736
vn 0.9658203 0.2185059 0.1411133
vn 0.8613281 0.4951172 0.1132813
vn 0.217041 0.9746094 0.05111694
vn 0.8896484 0.4521484 0.06610107
vn 0.6645508 0.7133789 0.2231445
vn 0.9638672 0.2575684 -0.07037354
vn 0.5585938 0.8232422 -0.1008301
vn 0.8935547 -0.427002 0.1375732
vn 0.7294922 -0.6821289 0.0496521
vn -0.1767578 -0.9838867 0.02127075
vn 0.6674805 -0.7421875 0.06002808
vn 0.9536133 -0.3005371 0.00636673
vn 0.9370117 -0.3498535 0.004745483
vn 0.9638672 0.2575684 -0.07037354
vn 0.9536133 -0.3005371 0.00636673
vn 0.9970703 0.07489014 0.005191803
vn 0.6948242 -0.715332 0.07098389
vn 0.9155273 -0.4013672 0.01780701
vn 0.8066406 -0.5839844 0.08874512
vn 0.9790039 -0.2023926 -0.02182007
vn 0.9316406 0.3476563 -0.1043701
vn 0.5673828 0.8100586 -0.1485596
vn -0.06488037 0.9926758 -0.104187
vn 0.1176758 0.984375 -0.1313477
vn -0.3322754 0.9414063 -0.05728149
vn -0.8325195 0.5537109 0.01389313
vn -0.8325195 0.5537109 0.01389313
vn -0.5214844 0.8530273 -0.01556396
vn -0.06488037 0.9926758 -0.104187
vn -0.6962891 0.7177734 -0.01390839
vn -0.9868164 0.1142578 0.1140747
vn -0.984375 0.173584 -0.02722168
vn -0.984375 0.173584 -0.02722168
vn -0.5322266 0.8461914 -0.02839661
vn -0.6386719 0.7695313 -0.00402832
vn -0.7060547 0.7070313 -0.03945923
vn -0.06488037 0.9926758 -0.104187
vn -0.9887695 -0.001132965 0.1501465
vn -0.9868164 0.1142578 0.1140747
vn -0.8520508 -0.4816895 0.2056885
vn -0.8666992 -0.4760742 0.1502686
vn -0.9150391 -0.3898926 0.1044312
vn -0.984375 0.173584 -0.02722168
vn -0.5966797 -0.7744141 0.2094727
vn 0.6948242 -0.715332 0.07098389
vn 0.6674805 -0.7421875 0.06002808
vn 0.1490479 -0.9760742 0.1578369
vn 0.1448975 -0.9833984 0.1108398
vn 0.3847656 -0.9155273 0.1176758
vn 0.5439453 -0.8369141 0.06488037
vn -0.1767578 -0.9838867 0.02127075
vn -0.515625 -0.8408203 0.1636963
vn -0.8740234 -0.4816895 0.06408691
vn -0.5683594 -0.8183594 0.08483887
vn -0.1767578 -0.9838867 0.02127075
vn -0.8876953 -0.4584961 -0.04400635
vn -0.9980469 0.06246948 -0.009384155
vn -0.9916992 0.1207886 -0.04324341
vn -0.8305664 -0.5522461 -0.0715332
vn -0.984375 0.173584 -0.02722168
vn -0.8110352 -0.5830078 -0.04501343
vn -0.9980469 0.06246948 -0.009384155
vn -0.8364258 -0.5458984 -0.04623413
g T3_Trunk_00_0
f 2/2/2 1/1/1 65/65/65
f 1/1/1 59/59/59 63/63/63
f 3/3/3 59/59/59 64/64/64
f 59/59/59 3/3/3 13/13/13
f 60/60/60 13/13/13 3/3/3
f 13/13/13 12/12/12 59/59/59
f 12/12/12 13/13/13 17/17/17
f 17/17/17 18/18/18 12/12/12
f 17/17/17 31/31/31 18/18/18
f 50/50/50 31/31/31 17/17/17
f 50/50/50 116/116/116 31/31/31
f 115/115/115 31/31/31 116/116/116
f 18/18/18 31/31/31 115/115/115
f 14/14/14 12/12/12 18/18/18
f 14/14/14 9/9/9 12/12/12
f 10/10/10 12/12/12 9/9/9
f 9/9/9 14/14/14 5/5/5
f 5/5/5 7/7/7 9/9/9
f 8/8/8 9/9/9 7/7/7
f 9/9/9 8/8/8 10/10/10
f 11/11/11 10/10/10 8/8/8
f 18/18/18 19/19/19 14/14/14
f 18/18/18 49/49/49 19/19/19
f 19/19/19 49/49/49 113/113/113
f 113/113/113 49/49/49 107/107/107
f 109/109/109 108/108/108 107/107/107
f 109/109/109 93/93/93 108/108/108
f 94/94/94 93/93/93 92/92/92
f 94/94/94 92/92/92 98/98/98
f 18/18/18 30/30/30 114/114/114
f 114/114/114 30/30/30 99/99/99
f 44/44/44 99/99/99 30/30/30
f 44/44/44 100/100/100 99/99/99
f 83/83/83 57/57/57 82/82/82
f 40/40/40 41/41/41 84/84/84
f 42/42/42 87/87/87 86/86/86
f 89/89/89 88/88/88 26/26/26
f 112/112/112 111/111/111 110/110/110
f 119/119/119 118/118/118 117/117/117
f 156/156/156 155/155/155 154/154/154
f 20/20/20 58/58/58 16/16/16
f 20/20/20 131/131/131 58/58/58
f 53/53/53 131/131/131 20/20/20
f 53/53/53 132/132/132 131/131/131
f 4/4/4 67/67/67 66/66/66
f 4/4/4 68/68/68 67/67/67
f 71/71/71 61/61/61 6/6/6
f 70/70/70 6/6/6 61/61/61
f 6/6/6 70/70/70 69/69/69
f 73/73/73 72/72/72 69/69/69
f 74/74/74 69/69/69 72/72/72
f 74/74/74 75/75/75 69/69/69
f 75/75/75 74/74/74 81/81/81
f 81/81/81 76/76/76 75/75/75
f 77/77/77 75/75/75 76/76/76
f 15/15/15 62/62/62 61/61/61
f 15/15/15 137/137/137 62/62/62
f 55/55/55 137/137/137 15/15/15
f 55/55/55 56/56/56 137/137/137
f 34/34/34 133/133/133 62/62/62
f 34/34/34 56/56/56 133/133/133
f 134/134/134 133/133/133 56/56/56
f 134/134/134 56/56/56 135/135/135
f 37/37/37 135/135/135 56/56/56
f 37/37/37 136/136/136 135/135/135
f 80/80/80 79/79/79 78/78/78
f 80/80/80 35/35/35 79/79/79
f 138/138/138 35/35/35 80/80/80
f 142/142/142 140/140/140 79/79/79
f 142/142/142 139/139/139 140/140/140
f 141/141/141 140/140/140 139/139/139
f 141/141/141 139/139/139 36/36/36
f 143/143/143 36/36/36 139/139/139
f 143/143/143 144/144/144 36/36/36
f 24/24/24 23/23/23 39/39/39
f 24/24/24 85/85/85 23/23/23
f 91/91/91 21/21/21 90/90/90
f 91/91/91 27/27/27 21/21/21
f 22/22/22 21/21/21 27/27/27
f 22/22/22 47/47/47 21/21/21
f 28/28/28 21/21/21 47/47/47
f 28/28/28 47/47/47 25/25/25
f 97/97/97 96/96/96 95/95/95
f 97/97/97 43/43/43 96/96/96
f 45/45/45 96/96/96 43/43/43
f 45/45/45 43/43/43 48/48/48
f 46/46/46 102/102/102 101/101/101
f 46/46/46 103/103/103 102/102/102
f 106/106/106 105/105/105 104/104/104
f 106/106/106 104/104/104 29/29/29
f 33/33/33 54/54/54 51/51/51
f 33/33/33 51/51/51 120/120/120
f 120/120/120 51/51/51 121/121/121
f 121/121/121 51/51/51 122/122/122
f 52/52/52 125/125/125 32/32/32
f 52/52/52 32/32/32 124/124/124
f 123/123/123 124/124/124 32/32/32
f 123/123/123 32/32/32 116/116/116
f 128/128/128 127/127/127 126/126/126
f 129/129/129 126/126/126 127/127/127
f 129/129/129 127/127/127 130/130/130
f 147/147/147 146/146/146 145/145/145
f 147/147/147 148/148/148 146/146/146
f 149/149/149 146/146/146 148/148/148
f 149/149/149 148/148/148 38/38/38
f 152/152/152 38/38/38 148/148/148
f 152/152/152 150/150/150 38/38/38
f 151/151/151 38/38/38 150/150/150
f 151/151/151 153/153/153 38/38/38
